<?xml version="1.0" encoding="utf-8"?>
<svg xmlns="http://www.w3.org/2000/svg" xmlns:xlink="http://www.w3.org/1999/xlink" width="600" height="400" viewBox="0 0 2400 1600">
<defs>
  <clipPath id="clip990">
    <rect x="0" y="0" width="2400" height="1600"/>
  </clipPath>
</defs>
<path clip-path="url(#clip990)" d="M0 1600 L2400 1600 L2400 0 L0 0  Z" fill="#ffffff" fill-rule="evenodd" fill-opacity="1"/>
<defs>
  <clipPath id="clip991">
    <rect x="480" y="0" width="1681" height="1600"/>
  </clipPath>
</defs>
<path clip-path="url(#clip990)" d="M193.936 1486.45 L2352.76 1486.45 L2352.76 47.2441 L193.936 47.2441  Z" fill="#ffffff" fill-rule="evenodd" fill-opacity="1"/>
<defs>
  <clipPath id="clip992">
    <rect x="193" y="47" width="2160" height="1440"/>
  </clipPath>
</defs>
<polyline clip-path="url(#clip992)" style="stroke:#000000; stroke-linecap:round; stroke-linejoin:round; stroke-width:2; stroke-opacity:0.1; fill:none" points="255.035,1486.45 255.035,47.2441 "/>
<polyline clip-path="url(#clip992)" style="stroke:#000000; stroke-linecap:round; stroke-linejoin:round; stroke-width:2; stroke-opacity:0.1; fill:none" points="678.011,1486.45 678.011,47.2441 "/>
<polyline clip-path="url(#clip992)" style="stroke:#000000; stroke-linecap:round; stroke-linejoin:round; stroke-width:2; stroke-opacity:0.1; fill:none" points="1100.99,1486.45 1100.99,47.2441 "/>
<polyline clip-path="url(#clip992)" style="stroke:#000000; stroke-linecap:round; stroke-linejoin:round; stroke-width:2; stroke-opacity:0.1; fill:none" points="1523.96,1486.45 1523.96,47.2441 "/>
<polyline clip-path="url(#clip992)" style="stroke:#000000; stroke-linecap:round; stroke-linejoin:round; stroke-width:2; stroke-opacity:0.1; fill:none" points="1946.94,1486.45 1946.94,47.2441 "/>
<polyline clip-path="url(#clip992)" style="stroke:#000000; stroke-linecap:round; stroke-linejoin:round; stroke-width:2; stroke-opacity:0.1; fill:none" points="193.936,1445.72 2352.76,1445.72 "/>
<polyline clip-path="url(#clip992)" style="stroke:#000000; stroke-linecap:round; stroke-linejoin:round; stroke-width:2; stroke-opacity:0.1; fill:none" points="193.936,1106.28 2352.76,1106.28 "/>
<polyline clip-path="url(#clip992)" style="stroke:#000000; stroke-linecap:round; stroke-linejoin:round; stroke-width:2; stroke-opacity:0.1; fill:none" points="193.936,766.846 2352.76,766.846 "/>
<polyline clip-path="url(#clip992)" style="stroke:#000000; stroke-linecap:round; stroke-linejoin:round; stroke-width:2; stroke-opacity:0.1; fill:none" points="193.936,427.411 2352.76,427.411 "/>
<polyline clip-path="url(#clip992)" style="stroke:#000000; stroke-linecap:round; stroke-linejoin:round; stroke-width:2; stroke-opacity:0.1; fill:none" points="193.936,87.9763 2352.76,87.9763 "/>
<polyline clip-path="url(#clip990)" style="stroke:#000000; stroke-linecap:round; stroke-linejoin:round; stroke-width:4; stroke-opacity:1; fill:none" points="193.936,1486.45 2352.76,1486.45 "/>
<polyline clip-path="url(#clip990)" style="stroke:#000000; stroke-linecap:round; stroke-linejoin:round; stroke-width:4; stroke-opacity:1; fill:none" points="255.035,1486.45 255.035,1467.55 "/>
<polyline clip-path="url(#clip990)" style="stroke:#000000; stroke-linecap:round; stroke-linejoin:round; stroke-width:4; stroke-opacity:1; fill:none" points="678.011,1486.45 678.011,1467.55 "/>
<polyline clip-path="url(#clip990)" style="stroke:#000000; stroke-linecap:round; stroke-linejoin:round; stroke-width:4; stroke-opacity:1; fill:none" points="1100.99,1486.45 1100.99,1467.55 "/>
<polyline clip-path="url(#clip990)" style="stroke:#000000; stroke-linecap:round; stroke-linejoin:round; stroke-width:4; stroke-opacity:1; fill:none" points="1523.96,1486.45 1523.96,1467.55 "/>
<polyline clip-path="url(#clip990)" style="stroke:#000000; stroke-linecap:round; stroke-linejoin:round; stroke-width:4; stroke-opacity:1; fill:none" points="1946.94,1486.45 1946.94,1467.55 "/>
<path clip-path="url(#clip990)" d="M255.035 1517.37 Q251.424 1517.37 249.595 1520.93 Q247.789 1524.47 247.789 1531.6 Q247.789 1538.71 249.595 1542.27 Q251.424 1545.82 255.035 1545.82 Q258.669 1545.82 260.474 1542.27 Q262.303 1538.71 262.303 1531.6 Q262.303 1524.47 260.474 1520.93 Q258.669 1517.37 255.035 1517.37 M255.035 1513.66 Q260.845 1513.66 263.9 1518.27 Q266.979 1522.85 266.979 1531.6 Q266.979 1540.33 263.9 1544.94 Q260.845 1549.52 255.035 1549.52 Q249.225 1549.52 246.146 1544.94 Q243.09 1540.33 243.09 1531.6 Q243.09 1522.85 246.146 1518.27 Q249.225 1513.66 255.035 1513.66 Z" fill="#000000" fill-rule="nonzero" fill-opacity="1" /><path clip-path="url(#clip990)" d="M672.663 1544.91 L688.983 1544.91 L688.983 1548.85 L667.038 1548.85 L667.038 1544.91 Q669.7 1542.16 674.284 1537.53 Q678.89 1532.88 680.071 1531.53 Q682.316 1529.01 683.196 1527.27 Q684.098 1525.51 684.098 1523.82 Q684.098 1521.07 682.154 1519.33 Q680.233 1517.6 677.131 1517.6 Q674.932 1517.6 672.478 1518.36 Q670.048 1519.13 667.27 1520.68 L667.27 1515.95 Q670.094 1514.82 672.548 1514.24 Q675.001 1513.66 677.038 1513.66 Q682.409 1513.66 685.603 1516.35 Q688.798 1519.03 688.798 1523.52 Q688.798 1525.65 687.987 1527.57 Q687.2 1529.47 685.094 1532.07 Q684.515 1532.74 681.413 1535.95 Q678.311 1539.15 672.663 1544.91 Z" fill="#000000" fill-rule="nonzero" fill-opacity="1" /><path clip-path="url(#clip990)" d="M1104 1518.36 L1092.19 1536.81 L1104 1536.81 L1104 1518.36 M1102.77 1514.29 L1108.65 1514.29 L1108.65 1536.81 L1113.58 1536.81 L1113.58 1540.7 L1108.65 1540.7 L1108.65 1548.85 L1104 1548.85 L1104 1540.7 L1088.39 1540.7 L1088.39 1536.19 L1102.77 1514.29 Z" fill="#000000" fill-rule="nonzero" fill-opacity="1" /><path clip-path="url(#clip990)" d="M1524.37 1529.7 Q1521.22 1529.7 1519.37 1531.86 Q1517.54 1534.01 1517.54 1537.76 Q1517.54 1541.49 1519.37 1543.66 Q1521.22 1545.82 1524.37 1545.82 Q1527.52 1545.82 1529.34 1543.66 Q1531.2 1541.49 1531.2 1537.76 Q1531.2 1534.01 1529.34 1531.86 Q1527.52 1529.7 1524.37 1529.7 M1533.65 1515.05 L1533.65 1519.31 Q1531.89 1518.48 1530.08 1518.04 Q1528.3 1517.6 1526.54 1517.6 Q1521.91 1517.6 1519.46 1520.72 Q1517.03 1523.85 1516.68 1530.17 Q1518.05 1528.15 1520.11 1527.09 Q1522.17 1526 1524.65 1526 Q1529.85 1526 1532.86 1529.17 Q1535.9 1532.32 1535.9 1537.76 Q1535.9 1543.08 1532.75 1546.3 Q1529.6 1549.52 1524.37 1549.52 Q1518.37 1549.52 1515.2 1544.94 Q1512.03 1540.33 1512.03 1531.6 Q1512.03 1523.41 1515.92 1518.55 Q1519.81 1513.66 1526.36 1513.66 Q1528.12 1513.66 1529.9 1514.01 Q1531.71 1514.36 1533.65 1515.05 Z" fill="#000000" fill-rule="nonzero" fill-opacity="1" /><path clip-path="url(#clip990)" d="M1946.94 1532.44 Q1943.6 1532.44 1941.68 1534.22 Q1939.79 1536 1939.79 1539.13 Q1939.79 1542.25 1941.68 1544.03 Q1943.6 1545.82 1946.94 1545.82 Q1950.27 1545.82 1952.19 1544.03 Q1954.11 1542.23 1954.11 1539.13 Q1954.11 1536 1952.19 1534.22 Q1950.29 1532.44 1946.94 1532.44 M1942.26 1530.45 Q1939.25 1529.7 1937.56 1527.64 Q1935.9 1525.58 1935.9 1522.62 Q1935.9 1518.48 1938.84 1516.07 Q1941.8 1513.66 1946.94 1513.66 Q1952.1 1513.66 1955.04 1516.07 Q1957.98 1518.48 1957.98 1522.62 Q1957.98 1525.58 1956.29 1527.64 Q1954.62 1529.7 1951.64 1530.45 Q1955.02 1531.23 1956.89 1533.52 Q1958.79 1535.82 1958.79 1539.13 Q1958.79 1544.15 1955.71 1546.83 Q1952.66 1549.52 1946.94 1549.52 Q1941.22 1549.52 1938.14 1546.83 Q1935.09 1544.15 1935.09 1539.13 Q1935.09 1535.82 1936.98 1533.52 Q1938.88 1531.23 1942.26 1530.45 M1940.55 1523.06 Q1940.55 1525.75 1942.22 1527.25 Q1943.91 1528.76 1946.94 1528.76 Q1949.95 1528.76 1951.64 1527.25 Q1953.35 1525.75 1953.35 1523.06 Q1953.35 1520.38 1951.64 1518.87 Q1949.95 1517.37 1946.94 1517.37 Q1943.91 1517.37 1942.22 1518.87 Q1940.55 1520.38 1940.55 1523.06 Z" fill="#000000" fill-rule="nonzero" fill-opacity="1" /><polyline clip-path="url(#clip990)" style="stroke:#000000; stroke-linecap:round; stroke-linejoin:round; stroke-width:4; stroke-opacity:1; fill:none" points="193.936,1486.45 193.936,47.2441 "/>
<polyline clip-path="url(#clip990)" style="stroke:#000000; stroke-linecap:round; stroke-linejoin:round; stroke-width:4; stroke-opacity:1; fill:none" points="193.936,1445.72 212.834,1445.72 "/>
<polyline clip-path="url(#clip990)" style="stroke:#000000; stroke-linecap:round; stroke-linejoin:round; stroke-width:4; stroke-opacity:1; fill:none" points="193.936,1106.28 212.834,1106.28 "/>
<polyline clip-path="url(#clip990)" style="stroke:#000000; stroke-linecap:round; stroke-linejoin:round; stroke-width:4; stroke-opacity:1; fill:none" points="193.936,766.846 212.834,766.846 "/>
<polyline clip-path="url(#clip990)" style="stroke:#000000; stroke-linecap:round; stroke-linejoin:round; stroke-width:4; stroke-opacity:1; fill:none" points="193.936,427.411 212.834,427.411 "/>
<polyline clip-path="url(#clip990)" style="stroke:#000000; stroke-linecap:round; stroke-linejoin:round; stroke-width:4; stroke-opacity:1; fill:none" points="193.936,87.9763 212.834,87.9763 "/>
<path clip-path="url(#clip990)" d="M50.9921 1446.17 L80.6679 1446.17 L80.6679 1450.1 L50.9921 1450.1 L50.9921 1446.17 Z" fill="#000000" fill-rule="nonzero" fill-opacity="1" /><path clip-path="url(#clip990)" d="M91.5706 1459.06 L99.2095 1459.06 L99.2095 1432.69 L90.8993 1434.36 L90.8993 1430.1 L99.1632 1428.44 L103.839 1428.44 L103.839 1459.06 L111.478 1459.06 L111.478 1463 L91.5706 1463 L91.5706 1459.06 Z" fill="#000000" fill-rule="nonzero" fill-opacity="1" /><path clip-path="url(#clip990)" d="M120.922 1457.12 L125.807 1457.12 L125.807 1463 L120.922 1463 L120.922 1457.12 Z" fill="#000000" fill-rule="nonzero" fill-opacity="1" /><path clip-path="url(#clip990)" d="M145.992 1431.51 Q142.381 1431.51 140.552 1435.08 Q138.746 1438.62 138.746 1445.75 Q138.746 1452.86 140.552 1456.42 Q142.381 1459.96 145.992 1459.96 Q149.626 1459.96 151.431 1456.42 Q153.26 1452.86 153.26 1445.75 Q153.26 1438.62 151.431 1435.08 Q149.626 1431.51 145.992 1431.51 M145.992 1427.81 Q151.802 1427.81 154.857 1432.42 Q157.936 1437 157.936 1445.75 Q157.936 1454.48 154.857 1459.08 Q151.802 1463.67 145.992 1463.67 Q140.181 1463.67 137.103 1459.08 Q134.047 1454.48 134.047 1445.75 Q134.047 1437 137.103 1432.42 Q140.181 1427.81 145.992 1427.81 Z" fill="#000000" fill-rule="nonzero" fill-opacity="1" /><path clip-path="url(#clip990)" d="M51.9875 1106.73 L81.6633 1106.73 L81.6633 1110.67 L51.9875 1110.67 L51.9875 1106.73 Z" fill="#000000" fill-rule="nonzero" fill-opacity="1" /><path clip-path="url(#clip990)" d="M101.756 1092.08 Q98.1447 1092.08 96.316 1095.64 Q94.5104 1099.19 94.5104 1106.32 Q94.5104 1113.42 96.316 1116.99 Q98.1447 1120.53 101.756 1120.53 Q105.39 1120.53 107.196 1116.99 Q109.024 1113.42 109.024 1106.32 Q109.024 1099.19 107.196 1095.64 Q105.39 1092.08 101.756 1092.08 M101.756 1088.38 Q107.566 1088.38 110.621 1092.98 Q113.7 1097.57 113.7 1106.32 Q113.7 1115.04 110.621 1119.65 Q107.566 1124.23 101.756 1124.23 Q95.9456 1124.23 92.8669 1119.65 Q89.8114 1115.04 89.8114 1106.32 Q89.8114 1097.57 92.8669 1092.98 Q95.9456 1088.38 101.756 1088.38 Z" fill="#000000" fill-rule="nonzero" fill-opacity="1" /><path clip-path="url(#clip990)" d="M121.918 1117.68 L126.802 1117.68 L126.802 1123.56 L121.918 1123.56 L121.918 1117.68 Z" fill="#000000" fill-rule="nonzero" fill-opacity="1" /><path clip-path="url(#clip990)" d="M137.033 1089 L155.39 1089 L155.39 1092.94 L141.316 1092.94 L141.316 1101.41 Q142.334 1101.06 143.353 1100.9 Q144.371 1100.71 145.39 1100.71 Q151.177 1100.71 154.556 1103.89 Q157.936 1107.06 157.936 1112.47 Q157.936 1118.05 154.464 1121.15 Q150.992 1124.23 144.672 1124.23 Q142.496 1124.23 140.228 1123.86 Q137.982 1123.49 135.575 1122.75 L135.575 1118.05 Q137.658 1119.19 139.881 1119.74 Q142.103 1120.3 144.58 1120.3 Q148.584 1120.3 150.922 1118.19 Q153.26 1116.08 153.26 1112.47 Q153.26 1108.86 150.922 1106.76 Q148.584 1104.65 144.58 1104.65 Q142.705 1104.65 140.83 1105.07 Q138.978 1105.48 137.033 1106.36 L137.033 1089 Z" fill="#000000" fill-rule="nonzero" fill-opacity="1" /><path clip-path="url(#clip990)" d="M100.76 752.645 Q97.1493 752.645 95.3206 756.209 Q93.515 759.751 93.515 766.881 Q93.515 773.987 95.3206 777.552 Q97.1493 781.094 100.76 781.094 Q104.395 781.094 106.2 777.552 Q108.029 773.987 108.029 766.881 Q108.029 759.751 106.2 756.209 Q104.395 752.645 100.76 752.645 M100.76 748.941 Q106.571 748.941 109.626 753.547 Q112.705 758.131 112.705 766.881 Q112.705 775.608 109.626 780.214 Q106.571 784.797 100.76 784.797 Q94.9502 784.797 91.8715 780.214 Q88.816 775.608 88.816 766.881 Q88.816 758.131 91.8715 753.547 Q94.9502 748.941 100.76 748.941 Z" fill="#000000" fill-rule="nonzero" fill-opacity="1" /><path clip-path="url(#clip990)" d="M120.922 778.246 L125.807 778.246 L125.807 784.126 L120.922 784.126 L120.922 778.246 Z" fill="#000000" fill-rule="nonzero" fill-opacity="1" /><path clip-path="url(#clip990)" d="M145.992 752.645 Q142.381 752.645 140.552 756.209 Q138.746 759.751 138.746 766.881 Q138.746 773.987 140.552 777.552 Q142.381 781.094 145.992 781.094 Q149.626 781.094 151.431 777.552 Q153.26 773.987 153.26 766.881 Q153.26 759.751 151.431 756.209 Q149.626 752.645 145.992 752.645 M145.992 748.941 Q151.802 748.941 154.857 753.547 Q157.936 758.131 157.936 766.881 Q157.936 775.608 154.857 780.214 Q151.802 784.797 145.992 784.797 Q140.181 784.797 137.103 780.214 Q134.047 775.608 134.047 766.881 Q134.047 758.131 137.103 753.547 Q140.181 748.941 145.992 748.941 Z" fill="#000000" fill-rule="nonzero" fill-opacity="1" /><path clip-path="url(#clip990)" d="M101.756 413.21 Q98.1447 413.21 96.316 416.775 Q94.5104 420.316 94.5104 427.446 Q94.5104 434.552 96.316 438.117 Q98.1447 441.659 101.756 441.659 Q105.39 441.659 107.196 438.117 Q109.024 434.552 109.024 427.446 Q109.024 420.316 107.196 416.775 Q105.39 413.21 101.756 413.21 M101.756 409.506 Q107.566 409.506 110.621 414.113 Q113.7 418.696 113.7 427.446 Q113.7 436.173 110.621 440.779 Q107.566 445.362 101.756 445.362 Q95.9456 445.362 92.8669 440.779 Q89.8114 436.173 89.8114 427.446 Q89.8114 418.696 92.8669 414.113 Q95.9456 409.506 101.756 409.506 Z" fill="#000000" fill-rule="nonzero" fill-opacity="1" /><path clip-path="url(#clip990)" d="M121.918 438.812 L126.802 438.812 L126.802 444.691 L121.918 444.691 L121.918 438.812 Z" fill="#000000" fill-rule="nonzero" fill-opacity="1" /><path clip-path="url(#clip990)" d="M137.033 410.131 L155.39 410.131 L155.39 414.066 L141.316 414.066 L141.316 422.538 Q142.334 422.191 143.353 422.029 Q144.371 421.844 145.39 421.844 Q151.177 421.844 154.556 425.015 Q157.936 428.187 157.936 433.603 Q157.936 439.182 154.464 442.284 Q150.992 445.362 144.672 445.362 Q142.496 445.362 140.228 444.992 Q137.982 444.622 135.575 443.881 L135.575 439.182 Q137.658 440.316 139.881 440.872 Q142.103 441.427 144.58 441.427 Q148.584 441.427 150.922 439.321 Q153.26 437.214 153.26 433.603 Q153.26 429.992 150.922 427.886 Q148.584 425.779 144.58 425.779 Q142.705 425.779 140.83 426.196 Q138.978 426.613 137.033 427.492 L137.033 410.131 Z" fill="#000000" fill-rule="nonzero" fill-opacity="1" /><path clip-path="url(#clip990)" d="M91.5706 101.321 L99.2095 101.321 L99.2095 74.9555 L90.8993 76.6222 L90.8993 72.3629 L99.1632 70.6963 L103.839 70.6963 L103.839 101.321 L111.478 101.321 L111.478 105.256 L91.5706 105.256 L91.5706 101.321 Z" fill="#000000" fill-rule="nonzero" fill-opacity="1" /><path clip-path="url(#clip990)" d="M120.922 99.3767 L125.807 99.3767 L125.807 105.256 L120.922 105.256 L120.922 99.3767 Z" fill="#000000" fill-rule="nonzero" fill-opacity="1" /><path clip-path="url(#clip990)" d="M145.992 73.775 Q142.381 73.775 140.552 77.3398 Q138.746 80.8814 138.746 88.011 Q138.746 95.1174 140.552 98.6822 Q142.381 102.224 145.992 102.224 Q149.626 102.224 151.431 98.6822 Q153.26 95.1174 153.26 88.011 Q153.26 80.8814 151.431 77.3398 Q149.626 73.775 145.992 73.775 M145.992 70.0713 Q151.802 70.0713 154.857 74.6777 Q157.936 79.2611 157.936 88.011 Q157.936 96.7378 154.857 101.344 Q151.802 105.928 145.992 105.928 Q140.181 105.928 137.103 101.344 Q134.047 96.7378 134.047 88.011 Q134.047 79.2611 137.103 74.6777 Q140.181 70.0713 145.992 70.0713 Z" fill="#000000" fill-rule="nonzero" fill-opacity="1" /><polyline clip-path="url(#clip992)" style="stroke:#ff0000; stroke-linecap:round; stroke-linejoin:round; stroke-width:8; stroke-opacity:1; fill:none" points="255.035,1445.72 258.262,1445.72 261.49,1445.72 264.718,1445.72 267.945,1445.72 271.173,1445.72 274.4,1445.72 277.628,1445.72 280.856,1445.72 284.083,1445.72 287.311,1445.72 290.538,1445.72 293.766,1445.72 296.994,1445.72 300.221,1445.72 303.449,1445.72 306.676,1445.72 309.904,1445.72 313.132,1445.72 316.359,1445.72 319.587,1445.72 322.815,1445.72 326.042,1445.72 329.27,1445.72 332.497,1445.72 335.725,1445.72 338.953,1445.72 342.18,1445.72 345.408,1445.72 348.635,1445.72 351.863,1445.72 355.091,1445.72 358.318,1445.72 361.546,1445.72 364.773,1445.72 368.001,1445.72 371.229,1445.72 374.456,1445.72 377.684,1445.72 380.912,1445.72 384.139,1445.72 387.367,1445.72 390.594,1445.72 393.822,1445.72 397.05,1445.72 400.277,1445.72 403.505,1445.72 406.732,1445.72 409.96,1445.72 413.188,1445.72 416.415,1445.72 419.643,1445.72 422.87,1445.72 426.098,1445.72 429.326,1445.72 432.553,1445.72 435.781,858.199 439.009,770.03 442.236,766.857 445.464,766.846 448.691,766.846 451.919,766.846 455.147,766.846 458.374,766.846 461.602,766.846 464.829,766.846 468.057,766.846 471.285,766.846 474.512,766.846 477.74,766.846 480.967,766.846 484.195,766.846 487.423,766.846 490.65,766.846 493.878,766.846 497.106,766.846 500.333,766.846 503.561,766.846 506.788,766.846 510.016,766.846 513.244,766.846 516.471,766.846 519.699,766.846 522.926,766.846 526.154,766.846 529.382,766.846 532.609,766.846 535.837,766.846 539.064,766.846 542.292,766.846 545.52,766.846 548.747,766.846 551.975,766.846 555.202,766.846 558.43,766.846 561.658,766.846 564.885,766.846 568.113,766.846 571.341,766.846 574.568,766.846 577.796,766.846 581.023,766.846 584.251,766.846 587.479,766.846 590.706,766.846 593.934,766.846 597.161,766.846 600.389,766.846 603.617,766.846 606.844,766.846 610.072,766.846 613.299,766.846 616.527,766.846 619.755,766.846 622.982,766.846 626.21,766.846 629.438,766.846 632.665,766.846 635.893,766.846 639.12,766.846 642.348,766.846 645.576,766.846 648.803,766.846 652.031,766.846 655.258,766.846 658.486,766.846 661.714,766.846 664.941,766.846 668.169,766.846 671.396,766.846 674.624,766.846 677.852,766.846 681.079,766.846 684.307,766.846 687.535,766.846 690.762,766.846 693.99,766.846 697.217,766.846 700.445,766.846 703.673,766.846 706.9,766.846 710.128,766.846 713.355,766.846 716.583,766.846 719.811,766.846 723.038,766.846 726.266,766.846 729.493,766.846 732.721,766.846 735.949,766.846 739.176,766.846 742.404,766.846 745.632,766.846 748.859,766.846 752.087,766.846 755.314,766.846 758.542,766.846 761.77,766.846 764.997,766.846 768.225,766.846 771.452,766.846 774.68,766.846 777.908,766.846 781.135,766.846 784.363,766.846 787.59,766.846 790.818,766.846 794.046,766.846 797.273,766.846 800.501,766.846 803.729,766.846 806.956,766.846 810.184,766.846 813.411,766.846 816.639,766.846 819.867,766.846 823.094,766.846 826.322,766.846 829.549,766.846 832.777,766.846 836.005,766.846 839.232,766.846 842.46,766.846 845.687,766.846 848.915,766.846 852.143,766.846 855.37,766.846 858.598,766.846 861.826,766.846 865.053,766.846 868.281,766.846 871.508,766.846 874.736,766.846 877.964,766.846 881.191,766.846 884.419,766.846 887.646,766.846 890.874,766.846 894.102,766.846 897.329,766.846 900.557,766.846 903.784,766.846 907.012,766.846 910.24,766.846 913.467,766.846 916.695,766.846 919.923,766.846 923.15,766.846 926.378,766.846 929.605,766.846 932.833,766.846 936.061,766.846 939.288,766.846 942.516,766.846 945.743,766.846 948.971,766.846 952.199,766.846 955.426,766.846 958.654,766.846 961.881,766.846 965.109,766.846 968.337,766.846 971.564,766.846 974.792,766.846 978.02,766.846 981.247,766.846 984.475,766.846 987.702,766.846 990.93,766.846 994.158,766.846 997.385,766.846 1000.61,766.846 1003.84,766.846 1007.07,766.846 1010.3,766.846 1013.52,766.846 1016.75,766.846 1019.98,766.846 1023.21,766.846 1026.43,766.846 1029.66,766.846 1032.89,766.846 1036.12,766.846 1039.34,766.846 1042.57,766.846 1045.8,766.846 1049.03,766.846 1052.25,766.846 1055.48,766.846 1058.71,766.846 1061.94,766.846 1065.17,766.846 1068.39,766.846 1071.62,766.846 1074.85,766.846 1078.08,766.846 1081.3,766.846 1084.53,766.846 1087.76,766.846 1090.99,766.846 1094.21,766.81 1097.44,757.01 1100.67,362.906 1103.9,87.9763 1107.12,87.9763 1110.35,87.9763 1113.58,87.9763 1116.81,87.9763 1120.03,87.9763 1123.26,87.9763 1126.49,87.9763 1129.72,87.9763 1132.94,87.9763 1136.17,87.9763 1139.4,87.9763 1142.63,87.9763 1145.86,87.9763 1149.08,87.9763 1152.31,87.9763 1155.54,87.9763 1158.77,87.9763 1161.99,87.9763 1165.22,87.9763 1168.45,87.9763 1171.68,87.9763 1174.9,87.9763 1178.13,87.9763 1181.36,87.9763 1184.59,87.9763 1187.81,87.9763 1191.04,87.9763 1194.27,87.9763 1197.5,87.9763 1200.72,87.9763 1203.95,87.9763 1207.18,87.9763 1210.41,87.9763 1213.64,87.9763 1216.86,87.9763 1220.09,87.9763 1223.32,87.9763 1226.55,87.9763 1229.77,87.9763 1233,87.9763 1236.23,87.9763 1239.46,87.9763 1242.68,87.9763 1245.91,87.9763 1249.14,87.9763 1252.37,87.9763 1255.59,87.9763 1258.82,87.9763 1262.05,87.9763 1265.28,87.9763 1268.5,87.9763 1271.73,87.9763 1274.96,87.9763 1278.19,87.9763 1281.41,87.9763 1284.64,87.9763 1287.87,87.9763 1291.1,87.9764 1294.33,752.86 1297.55,1445.72 1300.78,1445.72 1304.01,1445.72 1307.24,1445.72 1310.46,1445.72 1313.69,1445.72 1316.92,1445.72 1320.15,1445.72 1323.37,1445.72 1326.6,1445.72 1329.83,1445.72 1333.06,1445.72 1336.28,1445.72 1339.51,1445.72 1342.74,1445.72 1345.97,1445.72 1349.19,1445.72 1352.42,1445.72 1355.65,1445.72 1358.88,1445.72 1362.11,1445.72 1365.33,1445.72 1368.56,1445.72 1371.79,1445.72 1375.02,1445.72 1378.24,1445.72 1381.47,1445.72 1384.7,1445.72 1387.93,1445.72 1391.15,1445.72 1394.38,1445.72 1397.61,1445.72 1400.84,1445.72 1404.06,1445.72 1407.29,1445.72 1410.52,1445.72 1413.75,1445.72 1416.97,1445.72 1420.2,1445.72 1423.43,1445.72 1426.66,1445.72 1429.89,1445.72 1433.11,1445.72 1436.34,1445.72 1439.57,1445.72 1442.8,1445.72 1446.02,1445.72 1449.25,1445.72 1452.48,1445.72 1455.71,1445.72 1458.93,1445.72 1462.16,1445.72 1465.39,1445.72 1468.62,1445.72 1471.84,1445.72 1475.07,1445.72 1478.3,1445.72 1481.53,1445.72 1484.75,1445.72 1487.98,1445.72 1491.21,1445.72 1494.44,1445.72 1497.66,1445.72 1500.89,1445.72 1504.12,1445.72 1507.35,1445.72 1510.58,1445.72 1513.8,1445.72 1517.03,1445.72 1520.26,1445.72 1523.49,1445.72 1526.71,1445.72 1529.94,1445.72 1533.17,1445.72 1536.4,1445.72 1539.62,1445.72 1542.85,1445.72 1546.08,1445.72 1549.31,1445.72 1552.53,1445.72 1555.76,1445.72 1558.99,1445.72 1562.22,1445.72 1565.44,1445.72 1568.67,1445.72 1571.9,1445.72 1575.13,1445.72 1578.36,1445.72 1581.58,1445.72 1584.81,1445.72 1588.04,1445.72 1591.27,1445.72 1594.49,1445.72 1597.72,1445.72 1600.95,1445.72 1604.18,1445.72 1607.4,1445.72 1610.63,1445.72 1613.86,1445.72 1617.09,1445.72 1620.31,1445.72 1623.54,1445.72 1626.77,1270.92 1630,874.046 1633.22,790.961 1636.45,772.834 1639.68,768.342 1642.91,767.22 1646.14,766.94 1649.36,766.87 1652.59,766.852 1655.82,766.847 1659.05,766.846 1662.27,766.846 1665.5,766.846 1668.73,766.846 1671.96,766.846 1675.18,766.846 1678.41,766.846 1681.64,766.846 1684.87,766.846 1688.09,766.846 1691.32,766.846 1694.55,766.846 1697.78,766.846 1701,766.846 1704.23,766.846 1707.46,766.846 1710.69,766.846 1713.91,766.846 1717.14,766.846 1720.37,766.846 1723.6,766.846 1726.83,766.846 1730.05,766.846 1733.28,766.846 1736.51,766.846 1739.74,766.846 1742.96,766.846 1746.19,766.846 1749.42,766.846 1752.65,766.846 1755.87,766.846 1759.1,766.846 1762.33,766.846 1765.56,766.846 1768.78,766.846 1772.01,766.846 1775.24,766.846 1778.47,766.846 1781.69,766.846 1784.92,766.846 1788.15,766.846 1791.38,766.846 1794.61,766.846 1797.83,766.846 1801.06,766.846 1804.29,766.846 1807.52,766.846 1810.74,766.846 1813.97,766.846 1817.2,766.846 1820.43,766.846 1823.65,766.846 1826.88,766.846 1830.11,766.846 1833.34,766.846 1836.56,766.846 1839.79,766.846 1843.02,766.846 1846.25,766.846 1849.47,766.846 1852.7,766.846 1855.93,766.846 1859.16,766.846 1862.38,766.846 1865.61,766.846 1868.84,766.846 1872.07,766.846 1875.3,766.846 1878.52,766.846 1881.75,766.846 1884.98,766.846 1888.21,766.846 1891.43,766.846 1894.66,766.846 1897.89,766.846 1901.12,766.846 1904.34,766.846 1907.57,766.846 1910.8,766.846 1914.03,766.846 1917.25,766.846 1920.48,766.846 1923.71,766.846 1926.94,766.846 1930.16,766.846 1933.39,766.846 1936.62,766.846 1939.85,766.846 1943.08,766.846 1946.3,766.846 1949.53,766.846 1952.76,766.846 1955.99,766.846 1959.21,766.846 1962.44,766.846 1965.67,766.846 1968.9,766.846 1972.12,766.846 1975.35,766.846 1978.58,766.846 1981.81,766.846 1985.03,766.846 1988.26,766.846 1991.49,766.846 1994.72,766.846 1997.94,766.846 2001.17,766.846 2004.4,766.846 2007.63,766.846 2010.86,766.846 2014.08,766.846 2017.31,766.846 2020.54,766.846 2023.77,766.846 2026.99,766.846 2030.22,766.846 2033.45,766.846 2036.68,766.846 2039.9,766.846 2043.13,766.846 2046.36,766.846 2049.59,766.846 2052.81,766.846 2056.04,766.846 2059.27,766.846 2062.5,766.846 2065.72,766.846 2068.95,766.846 2072.18,766.846 2075.41,766.846 2078.63,766.846 2081.86,766.846 2085.09,766.846 2088.32,766.846 2091.55,766.846 2094.77,766.846 2098,766.846 2101.23,766.846 2104.46,766.846 2107.68,766.846 2110.91,766.846 2114.14,766.846 2117.37,766.846 2120.59,766.846 2123.82,766.846 2127.05,766.846 2130.28,766.846 2133.5,766.846 2136.73,766.846 2139.96,766.846 2143.19,766.846 2146.41,766.846 2149.64,766.846 2152.87,766.846 2156.1,766.846 2159.33,766.846 2162.55,766.846 2165.78,766.846 2169.01,766.846 2172.24,766.846 2175.46,766.846 2178.69,766.846 2181.92,766.846 2185.15,766.846 2188.37,766.846 2191.6,766.846 2194.83,766.846 2198.06,766.846 2201.28,766.846 2204.51,766.846 2207.74,766.846 2210.97,766.846 2214.19,766.846 2217.42,766.846 2220.65,766.846 2223.88,766.846 2227.11,766.846 2230.33,766.846 2233.56,766.846 2236.79,766.846 2240.02,766.846 2243.24,766.846 2246.47,766.846 2249.7,766.846 2252.93,766.846 2256.15,766.846 2259.38,766.845 2262.61,766.844 2265.84,766.837 2269.06,766.811 2272.29,766.706 2275.52,766.287 2278.75,764.616 2281.97,757.953 2285.2,731.514 2288.43,629.999 2291.66,245.796 "/>
<polyline clip-path="url(#clip992)" style="stroke:#008000; stroke-linecap:round; stroke-linejoin:round; stroke-width:8; stroke-opacity:1; fill:none" points="255.035,89.1626 258.262,89.1622 261.49,89.1615 264.718,89.1604 267.945,89.159 271.173,89.1572 274.4,89.1551 277.628,89.1526 280.856,89.1498 284.083,89.1466 287.311,89.143 290.538,89.1391 293.766,89.1349 296.994,89.1302 300.221,89.1252 303.449,89.1199 306.676,89.1142 309.904,89.1081 313.132,89.1016 316.359,89.0948 319.587,89.0876 322.815,89.08 326.042,89.0721 329.27,89.0638 332.497,89.0551 335.725,89.046 338.953,89.0365 342.18,89.0266 345.408,89.0164 348.635,89.0057 351.863,88.9947 355.091,88.9832 358.318,88.9714 361.546,88.9591 364.773,88.9464 368.001,88.9333 371.229,88.9198 374.456,88.9059 377.684,88.8916 380.912,88.8768 384.139,88.8616 387.367,88.8459 390.594,88.8298 393.822,88.8133 397.05,88.7964 400.277,88.779 403.505,88.7611 406.732,88.7429 409.96,88.7242 413.188,88.7051 416.415,88.6856 419.643,88.6657 422.87,88.6455 426.098,88.625 429.326,88.6042 432.553,88.5786 435.781,88.2958 439.009,88.0027 442.236,87.9763 445.464,87.9763 448.691,87.9763 451.919,87.9763 455.147,87.9763 458.374,87.9763 461.602,87.9763 464.829,87.9763 468.057,87.9763 471.285,87.9763 474.512,87.9763 477.74,87.9763 480.967,87.9763 484.195,87.9763 487.423,87.9763 490.65,87.9763 493.878,87.9763 497.106,87.9763 500.333,87.9763 503.561,87.9763 506.788,87.9763 510.016,87.9763 513.244,87.9763 516.471,87.9763 519.699,87.9763 522.926,87.9763 526.154,87.9763 529.382,87.9763 532.609,87.9763 535.837,87.9763 539.064,87.9763 542.292,87.9763 545.52,87.9763 548.747,87.9763 551.975,87.9763 555.202,87.9763 558.43,87.9763 561.658,87.9763 564.885,87.9763 568.113,87.9763 571.341,87.9763 574.568,87.9763 577.796,87.9763 581.023,87.9763 584.251,87.9763 587.479,87.9763 590.706,87.9763 593.934,87.9763 597.161,87.9763 600.389,87.9763 603.617,87.9763 606.844,87.9763 610.072,87.9763 613.299,87.9763 616.527,87.9763 619.755,87.9763 622.982,87.9763 626.21,87.9763 629.438,87.9763 632.665,87.9763 635.893,87.9763 639.12,87.9763 642.348,87.9763 645.576,87.9763 648.803,87.9763 652.031,87.9763 655.258,87.9763 658.486,87.9763 661.714,87.9763 664.941,87.9763 668.169,87.9763 671.396,87.9763 674.624,87.9763 677.852,87.9763 681.079,87.9763 684.307,87.9763 687.535,87.9763 690.762,87.9763 693.99,87.9763 697.217,87.9763 700.445,87.9763 703.673,87.9763 706.9,87.9763 710.128,87.9763 713.355,87.9763 716.583,87.9763 719.811,87.9763 723.038,87.9763 726.266,87.9763 729.493,87.9763 732.721,87.9763 735.949,87.9763 739.176,87.9763 742.404,87.9763 745.632,87.9763 748.859,87.9763 752.087,87.9763 755.314,87.9763 758.542,87.9763 761.77,87.9763 764.997,87.9763 768.225,87.9763 771.452,87.9763 774.68,87.9763 777.908,87.9763 781.135,87.9763 784.363,87.9763 787.59,87.9763 790.818,87.9763 794.046,87.9763 797.273,87.9763 800.501,87.9763 803.729,87.9763 806.956,87.9763 810.184,87.9763 813.411,87.9763 816.639,87.9763 819.867,87.9763 823.094,87.9763 826.322,87.9763 829.549,87.9763 832.777,87.9763 836.005,87.9763 839.232,87.9763 842.46,87.9763 845.687,87.9763 848.915,87.9763 852.143,87.9763 855.37,87.9763 858.598,87.9763 861.826,87.9763 865.053,87.9763 868.281,87.9763 871.508,87.9763 874.736,87.9763 877.964,87.9763 881.191,87.9763 884.419,87.9763 887.646,87.9763 890.874,87.9763 894.102,87.9763 897.329,87.9763 900.557,87.9763 903.784,87.9763 907.012,87.9763 910.24,87.9763 913.467,87.9763 916.695,87.9763 919.923,87.9763 923.15,87.9763 926.378,87.9763 929.605,87.9763 932.833,87.9763 936.061,87.9763 939.288,87.9763 942.516,87.9763 945.743,87.9763 948.971,87.9763 952.199,87.9763 955.426,87.9763 958.654,87.9763 961.881,87.9763 965.109,87.9763 968.337,87.9763 971.564,87.9763 974.792,87.9763 978.02,87.9763 981.247,87.9763 984.475,87.9763 987.702,87.9763 990.93,87.9763 994.158,87.9763 997.385,87.9763 1000.61,87.9763 1003.84,87.9763 1007.07,87.9763 1010.3,87.9763 1013.52,87.9763 1016.75,87.9763 1019.98,87.9763 1023.21,87.9763 1026.43,87.9763 1029.66,87.9763 1032.89,87.9763 1036.12,87.9763 1039.34,87.9763 1042.57,87.9763 1045.8,87.9763 1049.03,87.9763 1052.25,87.9763 1055.48,87.9763 1058.71,87.9763 1061.94,87.9763 1065.17,87.9763 1068.39,87.9763 1071.62,87.9763 1074.85,87.9763 1078.08,87.9763 1081.3,87.9763 1084.53,87.9763 1087.76,87.9763 1090.99,87.9763 1094.21,87.9763 1097.44,87.9763 1100.67,88.097 1103.9,88.5332 1107.12,89.2429 1110.35,90.0316 1113.58,90.8206 1116.81,91.6095 1120.03,92.3985 1123.26,93.1874 1126.49,93.9763 1129.72,94.7652 1132.94,95.5541 1136.17,96.3431 1139.4,97.132 1142.63,97.9209 1145.86,98.7098 1149.08,99.4987 1152.31,100.288 1155.54,101.076 1158.77,101.865 1161.99,102.654 1165.22,103.443 1168.45,104.232 1171.68,105.021 1174.9,105.81 1178.13,106.599 1181.36,107.387 1184.59,108.176 1187.81,108.965 1191.04,109.754 1194.27,110.543 1197.5,111.332 1200.72,112.121 1203.95,112.91 1207.18,113.698 1210.41,114.487 1213.64,115.276 1216.86,116.065 1220.09,116.854 1223.32,117.643 1226.55,118.431 1229.77,119.22 1233,120.009 1236.23,120.798 1239.46,121.587 1242.68,122.376 1245.91,123.165 1249.14,123.953 1252.37,124.742 1255.59,125.531 1258.82,126.32 1262.05,127.109 1265.28,127.898 1268.5,128.686 1271.73,129.475 1274.96,130.264 1278.19,131.053 1281.41,131.842 1284.64,132.631 1287.87,133.419 1291.1,134.208 1294.33,134.997 1297.55,135.786 1300.78,136.575 1304.01,137.364 1307.24,138.152 1310.46,138.941 1313.69,139.73 1316.92,140.519 1320.15,141.308 1323.37,142.097 1326.6,142.885 1329.83,143.674 1333.06,144.463 1336.28,145.252 1339.51,146.041 1342.74,146.83 1345.97,147.618 1349.19,148.407 1352.42,149.196 1355.65,149.985 1358.88,150.774 1362.11,151.562 1365.33,152.351 1368.56,153.14 1371.79,153.929 1375.02,154.718 1378.24,155.507 1381.47,156.295 1384.7,157.084 1387.93,157.873 1391.15,158.662 1394.38,159.451 1397.61,160.239 1400.84,161.028 1404.06,161.817 1407.29,162.606 1410.52,163.395 1413.75,164.183 1416.97,164.972 1420.2,165.761 1423.43,166.55 1426.66,167.339 1429.89,168.128 1433.11,168.916 1436.34,169.705 1439.57,170.494 1442.8,171.283 1446.02,172.072 1449.25,172.86 1452.48,173.649 1455.71,174.438 1458.93,175.227 1462.16,176.016 1465.39,176.804 1468.62,177.593 1471.84,178.382 1475.07,179.171 1478.3,179.96 1481.53,180.748 1484.75,181.537 1487.98,182.326 1491.21,183.115 1494.44,183.904 1497.66,184.692 1500.89,185.481 1504.12,186.27 1507.35,187.059 1510.58,187.848 1513.8,188.636 1517.03,189.425 1520.26,190.214 1523.49,191.003 1526.71,191.792 1529.94,192.58 1533.17,193.369 1536.4,194.158 1539.62,194.947 1542.85,195.736 1546.08,196.524 1549.31,197.313 1552.53,198.102 1555.76,198.891 1558.99,199.68 1562.22,200.468 1565.44,201.257 1568.67,202.046 1571.9,202.835 1575.13,203.624 1578.36,204.412 1581.58,205.201 1584.81,205.99 1588.04,206.779 1591.27,207.568 1594.49,208.356 1597.72,209.145 1600.95,209.934 1604.18,210.723 1607.4,211.512 1610.63,212.3 1613.86,213.089 1617.09,213.878 1620.31,214.663 1623.54,215.189 1626.77,214.62 1630,212.889 1633.22,211.658 1636.45,211.431 1639.68,211.404 1642.91,211.402 1646.14,211.401 1649.36,211.401 1652.59,211.401 1655.82,211.401 1659.05,211.401 1662.27,211.401 1665.5,211.401 1668.73,211.401 1671.96,211.401 1675.18,211.401 1678.41,211.401 1681.64,211.401 1684.87,211.401 1688.09,211.401 1691.32,211.401 1694.55,211.401 1697.78,211.401 1701,211.401 1704.23,211.401 1707.46,211.401 1710.69,211.401 1713.91,211.401 1717.14,211.401 1720.37,211.401 1723.6,211.401 1726.83,211.401 1730.05,211.401 1733.28,211.401 1736.51,211.401 1739.74,211.401 1742.96,211.401 1746.19,211.401 1749.42,211.401 1752.65,211.401 1755.87,211.401 1759.1,211.401 1762.33,211.401 1765.56,211.401 1768.78,211.401 1772.01,211.401 1775.24,211.401 1778.47,211.401 1781.69,211.401 1784.92,211.401 1788.15,211.401 1791.38,211.401 1794.61,211.401 1797.83,211.401 1801.06,211.401 1804.29,211.401 1807.52,211.401 1810.74,211.401 1813.97,211.401 1817.2,211.401 1820.43,211.401 1823.65,211.401 1826.88,211.401 1830.11,211.401 1833.34,211.401 1836.56,211.401 1839.79,211.401 1843.02,211.401 1846.25,211.401 1849.47,211.401 1852.7,211.401 1855.93,211.401 1859.16,211.401 1862.38,211.401 1865.61,211.401 1868.84,211.401 1872.07,211.401 1875.3,211.401 1878.52,211.401 1881.75,211.401 1884.98,211.401 1888.21,211.401 1891.43,211.401 1894.66,211.401 1897.89,211.401 1901.12,211.401 1904.34,211.401 1907.57,211.401 1910.8,211.401 1914.03,211.401 1917.25,211.401 1920.48,211.401 1923.71,211.401 1926.94,211.401 1930.16,211.401 1933.39,211.401 1936.62,211.401 1939.85,211.401 1943.08,211.401 1946.3,211.401 1949.53,211.401 1952.76,211.401 1955.99,211.401 1959.21,211.401 1962.44,211.401 1965.67,211.401 1968.9,211.401 1972.12,211.401 1975.35,211.401 1978.58,211.401 1981.81,211.401 1985.03,211.401 1988.26,211.401 1991.49,211.401 1994.72,211.401 1997.94,211.401 2001.17,211.401 2004.4,211.401 2007.63,211.401 2010.86,211.401 2014.08,211.401 2017.31,211.401 2020.54,211.401 2023.77,211.401 2026.99,211.401 2030.22,211.401 2033.45,211.401 2036.68,211.401 2039.9,211.401 2043.13,211.401 2046.36,211.401 2049.59,211.401 2052.81,211.401 2056.04,211.401 2059.27,211.401 2062.5,211.401 2065.72,211.401 2068.95,211.401 2072.18,211.401 2075.41,211.401 2078.63,211.401 2081.86,211.401 2085.09,211.401 2088.32,211.401 2091.55,211.401 2094.77,211.401 2098,211.401 2101.23,211.401 2104.46,211.401 2107.68,211.401 2110.91,211.401 2114.14,211.401 2117.37,211.401 2120.59,211.401 2123.82,211.401 2127.05,211.401 2130.28,211.401 2133.5,211.401 2136.73,211.401 2139.96,211.401 2143.19,211.401 2146.41,211.401 2149.64,211.401 2152.87,211.401 2156.1,211.401 2159.33,211.401 2162.55,211.401 2165.78,211.401 2169.01,211.401 2172.24,211.401 2175.46,211.401 2178.69,211.401 2181.92,211.401 2185.15,211.401 2188.37,211.401 2191.6,211.401 2194.83,211.401 2198.06,211.401 2201.28,211.401 2204.51,211.401 2207.74,211.401 2210.97,211.401 2214.19,211.401 2217.42,211.401 2220.65,211.401 2223.88,211.401 2227.11,211.401 2230.33,211.401 2233.56,211.401 2236.79,211.401 2240.02,211.401 2243.24,211.401 2246.47,211.401 2249.7,211.401 2252.93,211.401 2256.15,211.401 2259.38,211.401 2262.61,211.401 2265.84,211.401 2269.06,211.401 2272.29,211.401 2275.52,211.401 2278.75,211.395 2281.97,211.328 2285.2,210.783 2288.43,208.49 2291.66,202.885 "/>
<path clip-path="url(#clip990)" d="M1713.32 1438.47 L2280.8 1438.47 L2280.8 1282.95 L1713.32 1282.95  Z" fill="#ffffff" fill-rule="evenodd" fill-opacity="1"/>
<polyline clip-path="url(#clip990)" style="stroke:#000000; stroke-linecap:round; stroke-linejoin:round; stroke-width:4; stroke-opacity:1; fill:none" points="1713.32,1438.47 2280.8,1438.47 2280.8,1282.95 1713.32,1282.95 1713.32,1438.47 "/>
<polyline clip-path="url(#clip990)" style="stroke:#ff0000; stroke-linecap:round; stroke-linejoin:round; stroke-width:8; stroke-opacity:1; fill:none" points="1737.3,1334.79 1881.23,1334.79 "/>
<path clip-path="url(#clip990)" d="M1917.11 1329.13 Q1913.69 1329.13 1911.69 1331.82 Q1909.7 1334.48 1909.7 1339.13 Q1909.7 1343.79 1911.67 1346.47 Q1913.66 1349.13 1917.11 1349.13 Q1920.51 1349.13 1922.5 1346.45 Q1924.5 1343.76 1924.5 1339.13 Q1924.5 1334.53 1922.5 1331.84 Q1920.51 1329.13 1917.11 1329.13 M1917.11 1325.52 Q1922.67 1325.52 1925.84 1329.13 Q1929.01 1332.75 1929.01 1339.13 Q1929.01 1345.5 1925.84 1349.13 Q1922.67 1352.75 1917.11 1352.75 Q1911.53 1352.75 1908.36 1349.13 Q1905.21 1345.5 1905.21 1339.13 Q1905.21 1332.75 1908.36 1329.13 Q1911.53 1325.52 1917.11 1325.52 Z" fill="#000000" fill-rule="nonzero" fill-opacity="1" /><path clip-path="url(#clip990)" d="M1940.19 1348.19 L1940.19 1361.94 L1935.91 1361.94 L1935.91 1326.15 L1940.19 1326.15 L1940.19 1330.08 Q1941.53 1327.77 1943.57 1326.66 Q1945.63 1325.52 1948.48 1325.52 Q1953.2 1325.52 1956.14 1329.27 Q1959.1 1333.02 1959.1 1339.13 Q1959.1 1345.25 1956.14 1349 Q1953.2 1352.75 1948.48 1352.75 Q1945.63 1352.75 1943.57 1351.63 Q1941.53 1350.5 1940.19 1348.19 M1954.68 1339.13 Q1954.68 1334.44 1952.74 1331.77 Q1950.81 1329.09 1947.44 1329.09 Q1944.06 1329.09 1942.11 1331.77 Q1940.19 1334.44 1940.19 1339.13 Q1940.19 1343.83 1942.11 1346.52 Q1944.06 1349.18 1947.44 1349.18 Q1950.81 1349.18 1952.74 1346.52 Q1954.68 1343.83 1954.68 1339.13 Z" fill="#000000" fill-rule="nonzero" fill-opacity="1" /><path clip-path="url(#clip990)" d="M1970.37 1318.79 L1970.37 1326.15 L1979.15 1326.15 L1979.15 1329.46 L1970.37 1329.46 L1970.37 1343.53 Q1970.37 1346.7 1971.23 1347.61 Q1972.11 1348.51 1974.77 1348.51 L1979.15 1348.51 L1979.15 1352.07 L1974.77 1352.07 Q1969.84 1352.07 1967.97 1350.25 Q1966.09 1348.39 1966.09 1343.53 L1966.09 1329.46 L1962.97 1329.46 L1962.97 1326.15 L1966.09 1326.15 L1966.09 1318.79 L1970.37 1318.79 Z" fill="#000000" fill-rule="nonzero" fill-opacity="1" /><path clip-path="url(#clip990)" d="M1984.75 1326.15 L1989.01 1326.15 L1989.01 1352.07 L1984.75 1352.07 L1984.75 1326.15 M1984.75 1316.06 L1989.01 1316.06 L1989.01 1321.45 L1984.75 1321.45 L1984.75 1316.06 Z" fill="#000000" fill-rule="nonzero" fill-opacity="1" /><path clip-path="url(#clip990)" d="M2018.11 1331.13 Q2019.7 1328.26 2021.93 1326.89 Q2024.15 1325.52 2027.16 1325.52 Q2031.21 1325.52 2033.41 1328.37 Q2035.61 1331.19 2035.61 1336.43 L2035.61 1352.07 L2031.32 1352.07 L2031.32 1336.57 Q2031.32 1332.84 2030 1331.03 Q2028.68 1329.23 2025.98 1329.23 Q2022.67 1329.23 2020.74 1331.43 Q2018.82 1333.63 2018.82 1337.42 L2018.82 1352.07 L2014.54 1352.07 L2014.54 1336.57 Q2014.54 1332.82 2013.22 1331.03 Q2011.9 1329.23 2009.15 1329.23 Q2005.88 1329.23 2003.96 1331.45 Q2002.04 1333.65 2002.04 1337.42 L2002.04 1352.07 L1997.76 1352.07 L1997.76 1326.15 L2002.04 1326.15 L2002.04 1330.18 Q2003.5 1327.79 2005.54 1326.66 Q2007.57 1325.52 2010.37 1325.52 Q2013.2 1325.52 2015.17 1326.96 Q2017.16 1328.39 2018.11 1331.13 Z" fill="#000000" fill-rule="nonzero" fill-opacity="1" /><path clip-path="url(#clip990)" d="M2055.88 1339.04 Q2050.72 1339.04 2048.73 1340.22 Q2046.74 1341.4 2046.74 1344.25 Q2046.74 1346.52 2048.22 1347.86 Q2049.73 1349.18 2052.3 1349.18 Q2055.84 1349.18 2057.97 1346.68 Q2060.12 1344.16 2060.12 1339.99 L2060.12 1339.04 L2055.88 1339.04 M2064.38 1337.28 L2064.38 1352.07 L2060.12 1352.07 L2060.12 1348.14 Q2058.66 1350.5 2056.49 1351.63 Q2054.31 1352.75 2051.16 1352.75 Q2047.18 1352.75 2044.82 1350.52 Q2042.48 1348.28 2042.48 1344.53 Q2042.48 1340.15 2045.4 1337.93 Q2048.34 1335.71 2054.15 1335.71 L2060.12 1335.71 L2060.12 1335.29 Q2060.12 1332.35 2058.18 1330.76 Q2056.25 1329.13 2052.76 1329.13 Q2050.54 1329.13 2048.43 1329.67 Q2046.32 1330.2 2044.38 1331.26 L2044.38 1327.33 Q2046.72 1326.43 2048.92 1325.99 Q2051.12 1325.52 2053.2 1325.52 Q2058.82 1325.52 2061.6 1328.44 Q2064.38 1331.36 2064.38 1337.28 Z" fill="#000000" fill-rule="nonzero" fill-opacity="1" /><path clip-path="url(#clip990)" d="M2073.15 1316.06 L2077.41 1316.06 L2077.41 1352.07 L2073.15 1352.07 L2073.15 1316.06 Z" fill="#000000" fill-rule="nonzero" fill-opacity="1" /><path clip-path="url(#clip990)" d="M2120.05 1327.14 L2120.05 1331.13 Q2118.24 1330.13 2116.42 1329.64 Q2114.61 1329.13 2112.76 1329.13 Q2108.61 1329.13 2106.32 1331.77 Q2104.03 1334.39 2104.03 1339.13 Q2104.03 1343.88 2106.32 1346.52 Q2108.61 1349.13 2112.76 1349.13 Q2114.61 1349.13 2116.42 1348.65 Q2118.24 1348.14 2120.05 1347.14 L2120.05 1351.08 Q2118.27 1351.91 2116.35 1352.33 Q2114.45 1352.75 2112.3 1352.75 Q2106.44 1352.75 2102.99 1349.07 Q2099.54 1345.38 2099.54 1339.13 Q2099.54 1332.79 2103.01 1329.16 Q2106.51 1325.52 2112.57 1325.52 Q2114.54 1325.52 2116.42 1325.94 Q2118.29 1326.33 2120.05 1327.14 Z" fill="#000000" fill-rule="nonzero" fill-opacity="1" /><path clip-path="url(#clip990)" d="M2137.5 1329.13 Q2134.08 1329.13 2132.09 1331.82 Q2130.1 1334.48 2130.1 1339.13 Q2130.1 1343.79 2132.06 1346.47 Q2134.05 1349.13 2137.5 1349.13 Q2140.91 1349.13 2142.9 1346.45 Q2144.89 1343.76 2144.89 1339.13 Q2144.89 1334.53 2142.9 1331.84 Q2140.91 1329.13 2137.5 1329.13 M2137.5 1325.52 Q2143.06 1325.52 2146.23 1329.13 Q2149.4 1332.75 2149.4 1339.13 Q2149.4 1345.5 2146.23 1349.13 Q2143.06 1352.75 2137.5 1352.75 Q2131.92 1352.75 2128.75 1349.13 Q2125.61 1345.5 2125.61 1339.13 Q2125.61 1332.75 2128.75 1329.13 Q2131.92 1325.52 2137.5 1325.52 Z" fill="#000000" fill-rule="nonzero" fill-opacity="1" /><path clip-path="url(#clip990)" d="M2178.01 1336.43 L2178.01 1352.07 L2173.75 1352.07 L2173.75 1336.57 Q2173.75 1332.88 2172.32 1331.06 Q2170.88 1329.23 2168.01 1329.23 Q2164.56 1329.23 2162.57 1331.43 Q2160.58 1333.63 2160.58 1337.42 L2160.58 1352.07 L2156.3 1352.07 L2156.3 1326.15 L2160.58 1326.15 L2160.58 1330.18 Q2162.11 1327.84 2164.17 1326.68 Q2166.25 1325.52 2168.96 1325.52 Q2173.43 1325.52 2175.72 1328.3 Q2178.01 1331.06 2178.01 1336.43 Z" fill="#000000" fill-rule="nonzero" fill-opacity="1" /><path clip-path="url(#clip990)" d="M2190.72 1318.79 L2190.72 1326.15 L2199.49 1326.15 L2199.49 1329.46 L2190.72 1329.46 L2190.72 1343.53 Q2190.72 1346.7 2191.58 1347.61 Q2192.46 1348.51 2195.12 1348.51 L2199.49 1348.51 L2199.49 1352.07 L2195.12 1352.07 Q2190.19 1352.07 2188.31 1350.25 Q2186.44 1348.39 2186.44 1343.53 L2186.44 1329.46 L2183.31 1329.46 L2183.31 1326.15 L2186.44 1326.15 L2186.44 1318.79 L2190.72 1318.79 Z" fill="#000000" fill-rule="nonzero" fill-opacity="1" /><path clip-path="url(#clip990)" d="M2220.12 1330.13 Q2219.4 1329.71 2218.54 1329.53 Q2217.71 1329.32 2216.69 1329.32 Q2213.08 1329.32 2211.14 1331.68 Q2209.22 1334.02 2209.22 1338.42 L2209.22 1352.07 L2204.93 1352.07 L2204.93 1326.15 L2209.22 1326.15 L2209.22 1330.18 Q2210.56 1327.82 2212.71 1326.68 Q2214.86 1325.52 2217.94 1325.52 Q2218.38 1325.52 2218.92 1325.59 Q2219.45 1325.64 2220.1 1325.76 L2220.12 1330.13 Z" fill="#000000" fill-rule="nonzero" fill-opacity="1" /><path clip-path="url(#clip990)" d="M2233.59 1329.13 Q2230.16 1329.13 2228.17 1331.82 Q2226.18 1334.48 2226.18 1339.13 Q2226.18 1343.79 2228.15 1346.47 Q2230.14 1349.13 2233.59 1349.13 Q2236.99 1349.13 2238.98 1346.45 Q2240.98 1343.76 2240.98 1339.13 Q2240.98 1334.53 2238.98 1331.84 Q2236.99 1329.13 2233.59 1329.13 M2233.59 1325.52 Q2239.15 1325.52 2242.32 1329.13 Q2245.49 1332.75 2245.49 1339.13 Q2245.49 1345.5 2242.32 1349.13 Q2239.15 1352.75 2233.59 1352.75 Q2228.01 1352.75 2224.84 1349.13 Q2221.69 1345.5 2221.69 1339.13 Q2221.69 1332.75 2224.84 1329.13 Q2228.01 1325.52 2233.59 1325.52 Z" fill="#000000" fill-rule="nonzero" fill-opacity="1" /><path clip-path="url(#clip990)" d="M2252.55 1316.06 L2256.81 1316.06 L2256.81 1352.07 L2252.55 1352.07 L2252.55 1316.06 Z" fill="#000000" fill-rule="nonzero" fill-opacity="1" /><polyline clip-path="url(#clip990)" style="stroke:#008000; stroke-linecap:round; stroke-linejoin:round; stroke-width:8; stroke-opacity:1; fill:none" points="1737.3,1386.63 1881.23,1386.63 "/>
<path clip-path="url(#clip990)" d="M1923.64 1378.75 L1923.64 1382.78 Q1921.83 1381.85 1919.89 1381.39 Q1917.94 1380.93 1915.86 1380.93 Q1912.69 1380.93 1911.09 1381.9 Q1909.52 1382.87 1909.52 1384.82 Q1909.52 1386.3 1910.65 1387.16 Q1911.79 1387.99 1915.21 1388.75 L1916.67 1389.08 Q1921.21 1390.05 1923.11 1391.83 Q1925.03 1393.59 1925.03 1396.76 Q1925.03 1400.37 1922.16 1402.48 Q1919.31 1404.59 1914.31 1404.59 Q1912.23 1404.59 1909.96 1404.17 Q1907.71 1403.78 1905.21 1402.97 L1905.21 1398.57 Q1907.57 1399.79 1909.87 1400.42 Q1912.16 1401.02 1914.4 1401.02 Q1917.41 1401.02 1919.03 1400 Q1920.65 1398.96 1920.65 1397.09 Q1920.65 1395.35 1919.47 1394.42 Q1918.31 1393.5 1914.36 1392.64 L1912.88 1392.29 Q1908.92 1391.46 1907.16 1389.75 Q1905.4 1388.01 1905.4 1385 Q1905.4 1381.35 1907.99 1379.35 Q1910.58 1377.36 1915.35 1377.36 Q1917.71 1377.36 1919.8 1377.71 Q1921.88 1378.06 1923.64 1378.75 Z" fill="#000000" fill-rule="nonzero" fill-opacity="1" /><path clip-path="url(#clip990)" d="M1936.02 1370.63 L1936.02 1377.99 L1944.8 1377.99 L1944.8 1381.3 L1936.02 1381.3 L1936.02 1395.37 Q1936.02 1398.54 1936.88 1399.45 Q1937.76 1400.35 1940.42 1400.35 L1944.8 1400.35 L1944.8 1403.91 L1940.42 1403.91 Q1935.49 1403.91 1933.62 1402.09 Q1931.74 1400.23 1931.74 1395.37 L1931.74 1381.3 L1928.62 1381.3 L1928.62 1377.99 L1931.74 1377.99 L1931.74 1370.63 L1936.02 1370.63 Z" fill="#000000" fill-rule="nonzero" fill-opacity="1" /><path clip-path="url(#clip990)" d="M1962.18 1390.88 Q1957.02 1390.88 1955.03 1392.06 Q1953.04 1393.24 1953.04 1396.09 Q1953.04 1398.36 1954.52 1399.7 Q1956.02 1401.02 1958.59 1401.02 Q1962.13 1401.02 1964.26 1398.52 Q1966.42 1396 1966.42 1391.83 L1966.42 1390.88 L1962.18 1390.88 M1970.68 1389.12 L1970.68 1403.91 L1966.42 1403.91 L1966.42 1399.98 Q1964.96 1402.34 1962.78 1403.47 Q1960.61 1404.59 1957.46 1404.59 Q1953.48 1404.59 1951.12 1402.36 Q1948.78 1400.12 1948.78 1396.37 Q1948.78 1391.99 1951.69 1389.77 Q1954.63 1387.55 1960.44 1387.55 L1966.42 1387.55 L1966.42 1387.13 Q1966.42 1384.19 1964.47 1382.6 Q1962.55 1380.97 1959.06 1380.97 Q1956.83 1380.97 1954.73 1381.51 Q1952.62 1382.04 1950.68 1383.1 L1950.68 1379.17 Q1953.01 1378.27 1955.21 1377.83 Q1957.41 1377.36 1959.5 1377.36 Q1965.12 1377.36 1967.9 1380.28 Q1970.68 1383.2 1970.68 1389.12 Z" fill="#000000" fill-rule="nonzero" fill-opacity="1" /><path clip-path="url(#clip990)" d="M1983.66 1370.63 L1983.66 1377.99 L1992.43 1377.99 L1992.43 1381.3 L1983.66 1381.3 L1983.66 1395.37 Q1983.66 1398.54 1984.52 1399.45 Q1985.4 1400.35 1988.06 1400.35 L1992.43 1400.35 L1992.43 1403.91 L1988.06 1403.91 Q1983.13 1403.91 1981.25 1402.09 Q1979.38 1400.23 1979.38 1395.37 L1979.38 1381.3 L1976.25 1381.3 L1976.25 1377.99 L1979.38 1377.99 L1979.38 1370.63 L1983.66 1370.63 Z" fill="#000000" fill-rule="nonzero" fill-opacity="1" /><path clip-path="url(#clip990)" d="M2020.21 1389.89 L2020.21 1391.97 L2000.63 1391.97 Q2000.91 1396.37 2003.27 1398.68 Q2005.65 1400.97 2009.89 1400.97 Q2012.34 1400.97 2014.63 1400.37 Q2016.95 1399.77 2019.22 1398.57 L2019.22 1402.59 Q2016.93 1403.57 2014.52 1404.08 Q2012.11 1404.59 2009.63 1404.59 Q2003.43 1404.59 1999.8 1400.97 Q1996.18 1397.36 1996.18 1391.21 Q1996.18 1384.84 1999.61 1381.11 Q2003.06 1377.36 2008.89 1377.36 Q2014.12 1377.36 2017.16 1380.74 Q2020.21 1384.1 2020.21 1389.89 M2015.95 1388.64 Q2015.91 1385.14 2013.99 1383.06 Q2012.09 1380.97 2008.94 1380.97 Q2005.37 1380.97 2003.22 1382.99 Q2001.09 1385 2000.77 1388.66 L2015.95 1388.64 Z" fill="#000000" fill-rule="nonzero" fill-opacity="1" /><path clip-path="url(#clip990)" d="M2052.48 1371.95 L2064.45 1403.91 L2059.93 1403.91 L2052.67 1384.75 L2043.73 1403.91 L2039.22 1403.91 L2050.58 1379.05 L2048.87 1374.47 Q2047.78 1371.55 2045.3 1371.55 L2043.08 1371.55 L2043.08 1367.9 L2045.79 1367.94 Q2051.02 1368.01 2052.48 1371.95 Z" fill="#000000" fill-rule="nonzero" fill-opacity="1" /></svg>
