<?xml version="1.0" encoding="utf-8"?>
<svg xmlns="http://www.w3.org/2000/svg" xmlns:xlink="http://www.w3.org/1999/xlink" width="600" height="400" viewBox="0 0 2400 1600">
<defs>
  <clipPath id="clip380">
    <rect x="0" y="0" width="2400" height="1600"/>
  </clipPath>
</defs>
<path clip-path="url(#clip380)" d="M0 1600 L2400 1600 L2400 0 L0 0  Z" fill="#ffffff" fill-rule="evenodd" fill-opacity="1"/>
<defs>
  <clipPath id="clip381">
    <rect x="480" y="0" width="1681" height="1600"/>
  </clipPath>
</defs>
<path clip-path="url(#clip380)" d="M219.195 1423.18 L2352.76 1423.18 L2352.76 47.2441 L219.195 47.2441  Z" fill="#ffffff" fill-rule="evenodd" fill-opacity="1"/>
<defs>
  <clipPath id="clip382">
    <rect x="219" y="47" width="2135" height="1377"/>
  </clipPath>
</defs>
<polyline clip-path="url(#clip382)" style="stroke:#000000; stroke-linecap:round; stroke-linejoin:round; stroke-width:2; stroke-opacity:0.1; fill:none" points="279.579,1423.18 279.579,47.2441 "/>
<polyline clip-path="url(#clip382)" style="stroke:#000000; stroke-linecap:round; stroke-linejoin:round; stroke-width:2; stroke-opacity:0.1; fill:none" points="697.352,1423.18 697.352,47.2441 "/>
<polyline clip-path="url(#clip382)" style="stroke:#000000; stroke-linecap:round; stroke-linejoin:round; stroke-width:2; stroke-opacity:0.1; fill:none" points="1115.13,1423.18 1115.13,47.2441 "/>
<polyline clip-path="url(#clip382)" style="stroke:#000000; stroke-linecap:round; stroke-linejoin:round; stroke-width:2; stroke-opacity:0.1; fill:none" points="1532.9,1423.18 1532.9,47.2441 "/>
<polyline clip-path="url(#clip382)" style="stroke:#000000; stroke-linecap:round; stroke-linejoin:round; stroke-width:2; stroke-opacity:0.1; fill:none" points="1950.67,1423.18 1950.67,47.2441 "/>
<polyline clip-path="url(#clip380)" style="stroke:#000000; stroke-linecap:round; stroke-linejoin:round; stroke-width:4; stroke-opacity:1; fill:none" points="219.195,1423.18 2352.76,1423.18 "/>
<polyline clip-path="url(#clip380)" style="stroke:#000000; stroke-linecap:round; stroke-linejoin:round; stroke-width:4; stroke-opacity:1; fill:none" points="279.579,1423.18 279.579,1404.28 "/>
<polyline clip-path="url(#clip380)" style="stroke:#000000; stroke-linecap:round; stroke-linejoin:round; stroke-width:4; stroke-opacity:1; fill:none" points="697.352,1423.18 697.352,1404.28 "/>
<polyline clip-path="url(#clip380)" style="stroke:#000000; stroke-linecap:round; stroke-linejoin:round; stroke-width:4; stroke-opacity:1; fill:none" points="1115.13,1423.18 1115.13,1404.28 "/>
<polyline clip-path="url(#clip380)" style="stroke:#000000; stroke-linecap:round; stroke-linejoin:round; stroke-width:4; stroke-opacity:1; fill:none" points="1532.9,1423.18 1532.9,1404.28 "/>
<polyline clip-path="url(#clip380)" style="stroke:#000000; stroke-linecap:round; stroke-linejoin:round; stroke-width:4; stroke-opacity:1; fill:none" points="1950.67,1423.18 1950.67,1404.28 "/>
<path clip-path="url(#clip380)" d="M279.579 1454.1 Q275.968 1454.1 274.139 1457.66 Q272.333 1461.2 272.333 1468.33 Q272.333 1475.44 274.139 1479.01 Q275.968 1482.55 279.579 1482.55 Q283.213 1482.55 285.019 1479.01 Q286.847 1475.44 286.847 1468.33 Q286.847 1461.2 285.019 1457.66 Q283.213 1454.1 279.579 1454.1 M279.579 1450.39 Q285.389 1450.39 288.444 1455 Q291.523 1459.58 291.523 1468.33 Q291.523 1477.06 288.444 1481.67 Q285.389 1486.25 279.579 1486.25 Q273.769 1486.25 270.69 1481.67 Q267.634 1477.06 267.634 1468.33 Q267.634 1459.58 270.69 1455 Q273.769 1450.39 279.579 1450.39 Z" fill="#000000" fill-rule="evenodd" fill-opacity="1" /><path clip-path="url(#clip380)" d="M692.005 1481.64 L708.324 1481.64 L708.324 1485.58 L686.38 1485.58 L686.38 1481.64 Q689.042 1478.89 693.625 1474.26 Q698.232 1469.61 699.412 1468.27 Q701.658 1465.74 702.537 1464.01 Q703.44 1462.25 703.44 1460.56 Q703.44 1457.8 701.496 1456.07 Q699.574 1454.33 696.473 1454.33 Q694.273 1454.33 691.82 1455.09 Q689.389 1455.86 686.612 1457.41 L686.612 1452.69 Q689.436 1451.55 691.889 1450.97 Q694.343 1450.39 696.38 1450.39 Q701.75 1450.39 704.945 1453.08 Q708.139 1455.77 708.139 1460.26 Q708.139 1462.39 707.329 1464.31 Q706.542 1466.2 704.435 1468.8 Q703.857 1469.47 700.755 1472.69 Q697.653 1475.88 692.005 1481.64 Z" fill="#000000" fill-rule="evenodd" fill-opacity="1" /><path clip-path="url(#clip380)" d="M1118.13 1455.09 L1106.33 1473.54 L1118.13 1473.54 L1118.13 1455.09 M1116.91 1451.02 L1122.79 1451.02 L1122.79 1473.54 L1127.72 1473.54 L1127.72 1477.43 L1122.79 1477.43 L1122.79 1485.58 L1118.13 1485.58 L1118.13 1477.43 L1102.53 1477.43 L1102.53 1472.92 L1116.91 1451.02 Z" fill="#000000" fill-rule="evenodd" fill-opacity="1" /><path clip-path="url(#clip380)" d="M1533.3 1466.44 Q1530.16 1466.44 1528.3 1468.59 Q1526.48 1470.74 1526.48 1474.49 Q1526.48 1478.22 1528.3 1480.39 Q1530.16 1482.55 1533.3 1482.55 Q1536.45 1482.55 1538.28 1480.39 Q1540.13 1478.22 1540.13 1474.49 Q1540.13 1470.74 1538.28 1468.59 Q1536.45 1466.44 1533.3 1466.44 M1542.59 1451.78 L1542.59 1456.04 Q1540.83 1455.21 1539.02 1454.77 Q1537.24 1454.33 1535.48 1454.33 Q1530.85 1454.33 1528.4 1457.45 Q1525.97 1460.58 1525.62 1466.9 Q1526.98 1464.89 1529.04 1463.82 Q1531.11 1462.73 1533.58 1462.73 Q1538.79 1462.73 1541.8 1465.9 Q1544.83 1469.05 1544.83 1474.49 Q1544.83 1479.82 1541.68 1483.03 Q1538.54 1486.25 1533.3 1486.25 Q1527.31 1486.25 1524.14 1481.67 Q1520.97 1477.06 1520.97 1468.33 Q1520.97 1460.14 1524.86 1455.28 Q1528.74 1450.39 1535.29 1450.39 Q1537.05 1450.39 1538.84 1450.74 Q1540.64 1451.09 1542.59 1451.78 Z" fill="#000000" fill-rule="evenodd" fill-opacity="1" /><path clip-path="url(#clip380)" d="M1950.67 1469.17 Q1947.34 1469.17 1945.42 1470.95 Q1943.52 1472.73 1943.52 1475.86 Q1943.52 1478.98 1945.42 1480.77 Q1947.34 1482.55 1950.67 1482.55 Q1954.01 1482.55 1955.93 1480.77 Q1957.85 1478.96 1957.85 1475.86 Q1957.85 1472.73 1955.93 1470.95 Q1954.03 1469.17 1950.67 1469.17 M1946 1467.18 Q1942.99 1466.44 1941.3 1464.38 Q1939.63 1462.32 1939.63 1459.35 Q1939.63 1455.21 1942.57 1452.8 Q1945.53 1450.39 1950.67 1450.39 Q1955.83 1450.39 1958.77 1452.8 Q1961.71 1455.21 1961.71 1459.35 Q1961.71 1462.32 1960.02 1464.38 Q1958.36 1466.44 1955.37 1467.18 Q1958.75 1467.96 1960.63 1470.26 Q1962.52 1472.55 1962.52 1475.86 Q1962.52 1480.88 1959.45 1483.57 Q1956.39 1486.25 1950.67 1486.25 Q1944.95 1486.25 1941.88 1483.57 Q1938.82 1480.88 1938.82 1475.86 Q1938.82 1472.55 1940.72 1470.26 Q1942.62 1467.96 1946 1467.18 M1944.28 1459.79 Q1944.28 1462.48 1945.95 1463.98 Q1947.64 1465.49 1950.67 1465.49 Q1953.68 1465.49 1955.37 1463.98 Q1957.08 1462.48 1957.08 1459.79 Q1957.08 1457.11 1955.37 1455.6 Q1953.68 1454.1 1950.67 1454.1 Q1947.64 1454.1 1945.95 1455.6 Q1944.28 1457.11 1944.28 1459.79 Z" fill="#000000" fill-rule="evenodd" fill-opacity="1" /><path clip-path="url(#clip380)" d="M1285.04 1522.27 L1285.04 1532.4 L1297.1 1532.4 L1297.1 1536.95 L1285.04 1536.95 L1285.04 1556.3 Q1285.04 1560.66 1286.21 1561.9 Q1287.42 1563.14 1291.08 1563.14 L1297.1 1563.14 L1297.1 1568.04 L1291.08 1568.04 Q1284.3 1568.04 1281.73 1565.53 Q1279.15 1562.98 1279.15 1556.3 L1279.15 1536.95 L1274.85 1536.95 L1274.85 1532.4 L1279.15 1532.4 L1279.15 1522.27 L1285.04 1522.27 Z" fill="#000000" fill-rule="evenodd" fill-opacity="1" /><polyline clip-path="url(#clip382)" style="stroke:#000000; stroke-linecap:round; stroke-linejoin:round; stroke-width:2; stroke-opacity:0.1; fill:none" points="219.195,1320.57 2352.76,1320.57 "/>
<polyline clip-path="url(#clip382)" style="stroke:#000000; stroke-linecap:round; stroke-linejoin:round; stroke-width:2; stroke-opacity:0.1; fill:none" points="219.195,1023.6 2352.76,1023.6 "/>
<polyline clip-path="url(#clip382)" style="stroke:#000000; stroke-linecap:round; stroke-linejoin:round; stroke-width:2; stroke-opacity:0.1; fill:none" points="219.195,726.63 2352.76,726.63 "/>
<polyline clip-path="url(#clip382)" style="stroke:#000000; stroke-linecap:round; stroke-linejoin:round; stroke-width:2; stroke-opacity:0.1; fill:none" points="219.195,429.659 2352.76,429.659 "/>
<polyline clip-path="url(#clip382)" style="stroke:#000000; stroke-linecap:round; stroke-linejoin:round; stroke-width:2; stroke-opacity:0.1; fill:none" points="219.195,132.688 2352.76,132.688 "/>
<polyline clip-path="url(#clip380)" style="stroke:#000000; stroke-linecap:round; stroke-linejoin:round; stroke-width:4; stroke-opacity:1; fill:none" points="219.195,1423.18 219.195,47.2441 "/>
<polyline clip-path="url(#clip380)" style="stroke:#000000; stroke-linecap:round; stroke-linejoin:round; stroke-width:4; stroke-opacity:1; fill:none" points="219.195,1320.57 238.093,1320.57 "/>
<polyline clip-path="url(#clip380)" style="stroke:#000000; stroke-linecap:round; stroke-linejoin:round; stroke-width:4; stroke-opacity:1; fill:none" points="219.195,1023.6 238.093,1023.6 "/>
<polyline clip-path="url(#clip380)" style="stroke:#000000; stroke-linecap:round; stroke-linejoin:round; stroke-width:4; stroke-opacity:1; fill:none" points="219.195,726.63 238.093,726.63 "/>
<polyline clip-path="url(#clip380)" style="stroke:#000000; stroke-linecap:round; stroke-linejoin:round; stroke-width:4; stroke-opacity:1; fill:none" points="219.195,429.659 238.093,429.659 "/>
<polyline clip-path="url(#clip380)" style="stroke:#000000; stroke-linecap:round; stroke-linejoin:round; stroke-width:4; stroke-opacity:1; fill:none" points="219.195,132.688 238.093,132.688 "/>
<path clip-path="url(#clip380)" d="M126.205 1306.37 Q122.593 1306.37 120.765 1309.94 Q118.959 1313.48 118.959 1320.61 Q118.959 1327.71 120.765 1331.28 Q122.593 1334.82 126.205 1334.82 Q129.839 1334.82 131.644 1331.28 Q133.473 1327.71 133.473 1320.61 Q133.473 1313.48 131.644 1309.94 Q129.839 1306.37 126.205 1306.37 M126.205 1302.67 Q132.015 1302.67 135.07 1307.27 Q138.149 1311.86 138.149 1320.61 Q138.149 1329.33 135.07 1333.94 Q132.015 1338.52 126.205 1338.52 Q120.394 1338.52 117.316 1333.94 Q114.26 1329.33 114.26 1320.61 Q114.26 1311.86 117.316 1307.27 Q120.394 1302.67 126.205 1302.67 Z" fill="#000000" fill-rule="evenodd" fill-opacity="1" /><path clip-path="url(#clip380)" d="M146.366 1331.97 L151.251 1331.97 L151.251 1337.85 L146.366 1337.85 L146.366 1331.97 Z" fill="#000000" fill-rule="evenodd" fill-opacity="1" /><path clip-path="url(#clip380)" d="M161.575 1337.13 L161.575 1332.88 Q163.334 1333.71 165.14 1334.15 Q166.945 1334.59 168.681 1334.59 Q173.311 1334.59 175.741 1331.49 Q178.195 1328.36 178.542 1322.02 Q177.2 1324.01 175.139 1325.07 Q173.079 1326.14 170.579 1326.14 Q165.394 1326.14 162.362 1323.01 Q159.353 1319.87 159.353 1314.43 Q159.353 1309.1 162.501 1305.88 Q165.649 1302.67 170.88 1302.67 Q176.876 1302.67 180.024 1307.27 Q183.195 1311.86 183.195 1320.61 Q183.195 1328.78 179.306 1333.66 Q175.44 1338.52 168.889 1338.52 Q167.13 1338.52 165.325 1338.18 Q163.519 1337.83 161.575 1337.13 M170.88 1322.48 Q174.028 1322.48 175.857 1320.33 Q177.709 1318.18 177.709 1314.43 Q177.709 1310.7 175.857 1308.55 Q174.028 1306.37 170.88 1306.37 Q167.732 1306.37 165.88 1308.55 Q164.052 1310.7 164.052 1314.43 Q164.052 1318.18 165.88 1320.33 Q167.732 1322.48 170.88 1322.48 Z" fill="#000000" fill-rule="evenodd" fill-opacity="1" /><path clip-path="url(#clip380)" d="M116.83 1036.95 L124.468 1036.95 L124.468 1010.58 L116.158 1012.25 L116.158 1007.99 L124.422 1006.32 L129.098 1006.32 L129.098 1036.95 L136.737 1036.95 L136.737 1040.88 L116.83 1040.88 L116.83 1036.95 Z" fill="#000000" fill-rule="evenodd" fill-opacity="1" /><path clip-path="url(#clip380)" d="M146.181 1035 L151.066 1035 L151.066 1040.88 L146.181 1040.88 L146.181 1035 Z" fill="#000000" fill-rule="evenodd" fill-opacity="1" /><path clip-path="url(#clip380)" d="M171.251 1009.4 Q167.64 1009.4 165.811 1012.96 Q164.005 1016.51 164.005 1023.64 Q164.005 1030.74 165.811 1034.31 Q167.64 1037.85 171.251 1037.85 Q174.885 1037.85 176.69 1034.31 Q178.519 1030.74 178.519 1023.64 Q178.519 1016.51 176.69 1012.96 Q174.885 1009.4 171.251 1009.4 M171.251 1005.7 Q177.061 1005.7 180.116 1010.3 Q183.195 1014.89 183.195 1023.64 Q183.195 1032.36 180.116 1036.97 Q177.061 1041.55 171.251 1041.55 Q165.44 1041.55 162.362 1036.97 Q159.306 1032.36 159.306 1023.64 Q159.306 1014.89 162.362 1010.3 Q165.44 1005.7 171.251 1005.7 Z" fill="#000000" fill-rule="evenodd" fill-opacity="1" /><path clip-path="url(#clip380)" d="M118.056 739.975 L125.695 739.975 L125.695 713.609 L117.385 715.276 L117.385 711.017 L125.649 709.35 L130.325 709.35 L130.325 739.975 L137.964 739.975 L137.964 743.91 L118.056 743.91 L118.056 739.975 Z" fill="#000000" fill-rule="evenodd" fill-opacity="1" /><path clip-path="url(#clip380)" d="M147.408 738.031 L152.292 738.031 L152.292 743.91 L147.408 743.91 L147.408 738.031 Z" fill="#000000" fill-rule="evenodd" fill-opacity="1" /><path clip-path="url(#clip380)" d="M163.288 739.975 L170.927 739.975 L170.927 713.609 L162.616 715.276 L162.616 711.017 L170.88 709.35 L175.556 709.35 L175.556 739.975 L183.195 739.975 L183.195 743.91 L163.288 743.91 L163.288 739.975 Z" fill="#000000" fill-rule="evenodd" fill-opacity="1" /><path clip-path="url(#clip380)" d="M118.427 443.004 L126.066 443.004 L126.066 416.638 L117.756 418.305 L117.756 414.046 L126.019 412.379 L130.695 412.379 L130.695 443.004 L138.334 443.004 L138.334 446.939 L118.427 446.939 L118.427 443.004 Z" fill="#000000" fill-rule="evenodd" fill-opacity="1" /><path clip-path="url(#clip380)" d="M147.778 441.06 L152.663 441.06 L152.663 446.939 L147.778 446.939 L147.778 441.06 Z" fill="#000000" fill-rule="evenodd" fill-opacity="1" /><path clip-path="url(#clip380)" d="M166.876 443.004 L183.195 443.004 L183.195 446.939 L161.251 446.939 L161.251 443.004 Q163.913 440.249 168.496 435.62 Q173.102 430.967 174.283 429.624 Q176.528 427.101 177.408 425.365 Q178.311 423.606 178.311 421.916 Q178.311 419.162 176.366 417.425 Q174.445 415.689 171.343 415.689 Q169.144 415.689 166.69 416.453 Q164.26 417.217 161.482 418.768 L161.482 414.046 Q164.306 412.912 166.76 412.333 Q169.214 411.754 171.251 411.754 Q176.621 411.754 179.815 414.439 Q183.01 417.125 183.01 421.615 Q183.01 423.745 182.2 425.666 Q181.413 427.564 179.306 430.157 Q178.727 430.828 175.626 434.046 Q172.524 437.24 166.876 443.004 Z" fill="#000000" fill-rule="evenodd" fill-opacity="1" /><path clip-path="url(#clip380)" d="M117.478 146.033 L125.117 146.033 L125.117 119.667 L116.806 121.334 L116.806 117.075 L125.07 115.408 L129.746 115.408 L129.746 146.033 L137.385 146.033 L137.385 149.968 L117.478 149.968 L117.478 146.033 Z" fill="#000000" fill-rule="evenodd" fill-opacity="1" /><path clip-path="url(#clip380)" d="M146.829 144.089 L151.714 144.089 L151.714 149.968 L146.829 149.968 L146.829 144.089 Z" fill="#000000" fill-rule="evenodd" fill-opacity="1" /><path clip-path="url(#clip380)" d="M176.065 131.334 Q179.422 132.052 181.297 134.32 Q183.195 136.589 183.195 139.922 Q183.195 145.038 179.676 147.839 Q176.158 150.639 169.677 150.639 Q167.501 150.639 165.186 150.2 Q162.894 149.783 160.44 148.927 L160.44 144.413 Q162.385 145.547 164.7 146.126 Q167.015 146.704 169.538 146.704 Q173.936 146.704 176.227 144.968 Q178.542 143.232 178.542 139.922 Q178.542 136.866 176.389 135.153 Q174.26 133.417 170.44 133.417 L166.413 133.417 L166.413 129.575 L170.626 129.575 Q174.075 129.575 175.903 128.209 Q177.732 126.82 177.732 124.228 Q177.732 121.566 175.834 120.154 Q173.959 118.718 170.44 118.718 Q168.519 118.718 166.32 119.135 Q164.121 119.552 161.482 120.431 L161.482 116.265 Q164.144 115.524 166.459 115.154 Q168.797 114.783 170.857 114.783 Q176.181 114.783 179.283 117.214 Q182.385 119.621 182.385 123.741 Q182.385 126.612 180.741 128.603 Q179.098 130.57 176.065 131.334 Z" fill="#000000" fill-rule="evenodd" fill-opacity="1" /><path clip-path="url(#clip380)" d="M16.4842 865.216 L16.4842 858.786 L35.9632 858.786 L35.9632 835.424 L16.4842 835.424 L16.4842 828.995 L64.0042 828.995 L64.0042 835.424 L41.3741 835.424 L41.3741 858.786 L64.0042 858.786 L64.0042 865.216 L16.4842 865.216 Z" fill="#000000" fill-rule="evenodd" fill-opacity="1" /><path clip-path="url(#clip380)" d="M74.8259 789.368 L79.3773 789.368 L79.3773 823.234 L74.8259 823.234 L74.8259 789.368 Z" fill="#000000" fill-rule="evenodd" fill-opacity="1" /><path clip-path="url(#clip380)" d="M33.7671 760.404 L14.479 760.404 L14.479 754.548 L64.0042 754.548 L64.0042 760.404 L58.657 760.404 Q61.8398 762.25 63.3994 765.083 Q64.9272 767.884 64.9272 771.831 Q64.9272 778.292 59.771 782.366 Q54.6147 786.408 46.212 786.408 Q37.8093 786.408 32.6531 782.366 Q27.4968 778.292 27.4968 771.831 Q27.4968 767.884 29.0564 765.083 Q30.5842 762.25 33.7671 760.404 M46.212 780.361 Q52.6732 780.361 56.3653 777.719 Q60.0256 775.045 60.0256 770.398 Q60.0256 765.751 56.3653 763.078 Q52.6732 760.404 46.212 760.404 Q39.7508 760.404 36.0905 763.078 Q32.3984 765.751 32.3984 770.398 Q32.3984 775.045 36.0905 777.719 Q39.7508 780.361 46.212 780.361 Z" fill="#000000" fill-rule="evenodd" fill-opacity="1" /><path clip-path="url(#clip380)" d="M28.3562 742.485 L28.3562 736.628 L64.0042 736.628 L64.0042 742.485 L28.3562 742.485 M14.479 742.485 L14.479 736.628 L21.895 736.628 L21.895 742.485 L14.479 742.485 Z" fill="#000000" fill-rule="evenodd" fill-opacity="1" /><path clip-path="url(#clip380)" d="M33.8307 703.718 Q33.2578 704.704 33.0032 705.882 Q32.7167 707.028 32.7167 708.428 Q32.7167 713.394 35.9632 716.067 Q39.1779 718.709 45.2253 718.709 L64.0042 718.709 L64.0042 724.597 L28.3562 724.597 L28.3562 718.709 L33.8944 718.709 Q30.6479 716.863 29.0883 713.903 Q27.4968 710.943 27.4968 706.71 Q27.4968 706.105 27.5923 705.373 Q27.656 704.641 27.8151 703.749 L33.8307 703.718 Z" fill="#000000" fill-rule="evenodd" fill-opacity="1" /><path clip-path="url(#clip380)" d="M44.7161 668.515 L47.5806 668.515 L47.5806 695.442 Q53.6281 695.06 56.8109 691.814 Q59.9619 688.535 59.9619 682.711 Q59.9619 679.337 59.1344 676.186 Q58.3069 673.003 56.6518 669.884 L62.1899 669.884 Q63.5267 673.035 64.227 676.345 Q64.9272 679.655 64.9272 683.061 Q64.9272 691.591 59.9619 696.588 Q54.9967 701.553 46.5303 701.553 Q37.7774 701.553 32.6531 696.843 Q27.4968 692.1 27.4968 684.079 Q27.4968 676.886 32.1438 672.717 Q36.7589 668.515 44.7161 668.515 M42.9973 674.372 Q38.1912 674.435 35.3266 677.077 Q32.4621 679.687 32.4621 684.016 Q32.4621 688.917 35.2312 691.877 Q38.0002 694.806 43.0292 695.251 L42.9973 674.372 Z" fill="#000000" fill-rule="evenodd" fill-opacity="1" /><path clip-path="url(#clip380)" d="M29.7248 633.249 L35.1993 633.249 Q33.8307 635.732 33.1623 638.246 Q32.4621 640.729 32.4621 643.275 Q32.4621 648.973 36.0905 652.124 Q39.6872 655.275 46.212 655.275 Q52.7369 655.275 56.3653 652.124 Q59.9619 648.973 59.9619 643.275 Q59.9619 640.729 59.2935 638.246 Q58.5933 635.732 57.2247 633.249 L62.6355 633.249 Q63.7814 635.7 64.3543 638.342 Q64.9272 640.952 64.9272 643.912 Q64.9272 651.964 59.8664 656.707 Q54.8057 661.449 46.212 661.449 Q37.491 661.449 32.4939 656.675 Q27.4968 651.869 27.4968 643.53 Q27.4968 640.824 28.0697 638.246 Q28.6108 635.668 29.7248 633.249 Z" fill="#000000" fill-rule="evenodd" fill-opacity="1" /><path clip-path="url(#clip380)" d="M18.2347 617.271 L28.3562 617.271 L28.3562 605.208 L32.9077 605.208 L32.9077 617.271 L52.2594 617.271 Q56.6199 617.271 57.8613 616.094 Q59.1026 614.884 59.1026 611.224 L59.1026 605.208 L64.0042 605.208 L64.0042 611.224 Q64.0042 618.003 61.4897 620.582 Q58.9434 623.16 52.2594 623.16 L32.9077 623.16 L32.9077 627.456 L28.3562 627.456 L28.3562 623.16 L18.2347 623.16 L18.2347 617.271 Z" fill="#000000" fill-rule="evenodd" fill-opacity="1" /><polyline clip-path="url(#clip382)" style="stroke:#008000; stroke-linecap:round; stroke-linejoin:round; stroke-width:8; stroke-opacity:1; fill:none" points="279.579,407.998 282.095,408.123 284.611,408.123 287.127,408.123 289.643,408.123 292.159,408.123 294.675,408.123 297.191,408.123 299.707,408.123 302.223,408.123 304.739,408.123 307.255,408.123 309.771,408.123 312.287,408.123 314.803,408.123 317.319,408.123 319.835,408.123 322.351,408.123 324.867,408.123 327.383,408.123 329.899,408.123 332.415,408.123 334.931,408.123 337.447,408.123 339.963,408.123 342.479,408.123 344.995,408.123 347.511,408.123 350.027,408.123 352.543,408.123 355.059,408.123 357.575,408.123 360.091,408.123 362.606,408.123 365.122,408.123 367.638,408.123 370.154,408.122 372.67,408.122 375.186,408.122 377.702,408.122 380.218,408.122 382.734,408.122 385.25,408.122 387.766,408.122 390.282,408.122 392.798,408.122 395.314,408.122 397.83,408.122 400.346,408.122 402.862,408.121 405.378,408.121 407.894,408.121 410.41,408.121 412.926,408.121 415.442,408.121 417.958,408.121 420.474,408.12 422.99,408.12 425.506,408.12 428.022,408.12 430.538,408.12 433.054,408.119 435.57,408.119 438.086,408.118 440.602,408.118 443.118,408.117 445.634,408.117 448.15,408.116 450.666,408.115 453.182,408.113 455.698,408.109 458.214,1319.28 460.73,1192.51 463.246,1190.82 465.762,1190.82 468.278,1190.82 470.794,1190.82 473.31,1190.82 475.826,1190.82 478.342,1190.82 480.858,1190.82 483.374,1190.82 485.89,1190.82 488.406,1190.82 490.922,1190.82 493.438,1190.82 495.954,1190.82 498.47,1190.82 500.986,1190.82 503.502,1190.82 506.018,1190.82 508.534,1190.82 511.05,1190.82 513.566,1190.82 516.082,1190.82 518.598,1190.82 521.114,1190.82 523.63,1190.82 526.146,1190.82 528.662,1190.82 531.178,1190.82 533.694,1190.82 536.21,1190.82 538.726,1190.82 541.242,1190.82 543.758,1190.82 546.274,1190.82 548.79,1190.82 551.306,1190.82 553.822,1190.82 556.338,1190.82 558.854,1190.82 561.37,1190.82 563.886,1190.82 566.402,1190.82 568.918,1190.82 571.434,1190.82 573.95,1190.82 576.466,1190.82 578.982,1190.82 581.498,1190.82 584.014,1190.82 586.53,1190.82 589.046,1190.82 591.562,1190.82 594.078,1190.82 596.594,1190.82 599.11,1190.82 601.626,1190.82 604.142,1190.82 606.658,1190.82 609.174,1190.82 611.69,1190.82 614.206,1190.82 616.722,1190.82 619.238,1190.82 621.754,1190.82 624.27,1190.82 626.786,1190.82 629.302,1190.82 631.818,1190.82 634.334,1190.82 636.85,1190.82 639.366,1190.82 641.882,1190.82 644.398,1190.82 646.914,1190.82 649.43,1190.82 651.946,1190.82 654.462,1190.82 656.978,1190.82 659.494,1190.82 662.01,1190.82 664.525,1190.82 667.041,1190.82 669.557,1190.82 672.073,1190.82 674.589,1190.82 677.105,1190.82 679.621,1190.82 682.137,1190.82 684.653,1190.82 687.169,1190.82 689.685,1190.82 692.201,1190.82 694.717,1190.82 697.233,1190.82 699.749,1190.82 702.265,1190.82 704.781,1190.82 707.297,1190.82 709.813,1190.82 712.329,1190.82 714.845,1190.82 717.361,1190.82 719.877,1190.82 722.393,1190.82 724.909,1190.82 727.425,1190.82 729.941,1190.82 732.457,1190.82 734.973,1190.82 737.489,1190.82 740.005,1190.82 742.521,1190.82 745.037,1190.82 747.553,1190.82 750.069,1190.82 752.585,1190.82 755.101,1190.82 757.617,1190.82 760.133,1190.82 762.649,1190.82 765.165,1190.82 767.681,1190.82 770.197,1190.82 772.713,1190.82 775.229,1190.82 777.745,1190.82 780.261,1190.82 782.777,1190.82 785.293,1190.82 787.809,1190.82 790.325,1190.82 792.841,1190.82 795.357,1190.82 797.873,1190.82 800.389,1190.82 802.905,1190.82 805.421,1190.82 807.937,1190.82 810.453,1190.82 812.969,1190.82 815.485,1190.82 818.001,1190.82 820.517,1190.82 823.033,1190.82 825.549,1190.82 828.065,1190.82 830.581,1190.82 833.097,1190.82 835.613,1190.82 838.129,1190.82 840.645,1190.82 843.161,1190.82 845.677,1190.82 848.193,1190.82 850.709,1190.82 853.225,1190.82 855.741,1190.82 858.257,1190.82 860.773,1190.82 863.289,1190.82 865.805,1190.82 868.321,1190.82 870.837,1190.82 873.353,1190.82 875.869,1190.82 878.385,1190.82 880.901,1190.82 883.417,1190.82 885.933,1190.82 888.449,1190.82 890.965,1190.82 893.481,1190.82 895.997,1190.82 898.513,1190.82 901.029,1190.82 903.545,1190.82 906.061,1190.82 908.577,1190.82 911.093,1190.82 913.609,1190.82 916.125,1190.82 918.641,1190.82 921.157,1190.82 923.673,1190.82 926.189,1190.82 928.705,1190.82 931.221,1190.82 933.737,1190.82 936.253,1190.82 938.769,1190.82 941.285,1190.82 943.801,1190.82 946.317,1190.82 948.833,1190.82 951.349,1190.82 953.865,1190.82 956.381,1190.82 958.897,1190.82 961.413,1190.82 963.929,1190.82 966.444,1190.82 968.96,1190.82 971.476,1190.82 973.992,1190.82 976.508,1190.82 979.024,1190.82 981.54,1190.82 984.056,1190.82 986.572,1190.82 989.088,1190.82 991.604,1190.82 994.12,1190.82 996.636,1190.82 999.152,1190.82 1001.67,1190.82 1004.18,1190.82 1006.7,1190.82 1009.22,1190.82 1011.73,1190.82 1014.25,1190.82 1016.76,1190.82 1019.28,1190.82 1021.8,1190.82 1024.31,1190.82 1026.83,1190.82 1029.34,1190.82 1031.86,1190.82 1034.38,1190.82 1036.89,1190.82 1039.41,1190.82 1041.92,1190.82 1044.44,1190.82 1046.96,1190.82 1049.47,1190.82 1051.99,1190.82 1054.5,1190.82 1057.02,1190.82 1059.54,1190.82 1062.05,1190.82 1064.57,1190.82 1067.08,1190.82 1069.6,1190.82 1072.12,1190.82 1074.63,1190.82 1077.15,1190.82 1079.66,1190.82 1082.18,1190.82 1084.7,1190.82 1087.21,1190.82 1089.73,1190.82 1092.24,1190.82 1094.76,1190.82 1097.28,1190.82 1099.79,1190.82 1102.31,1190.82 1104.82,1190.82 1107.34,1190.82 1109.86,1190.76 1112.37,1156.02 1114.89,1384.24 1117.4,637.653 1119.92,637.659 1122.44,637.662 1124.95,637.664 1127.47,637.665 1129.98,637.666 1132.5,637.667 1135.02,637.667 1137.53,637.668 1140.05,637.668 1142.56,637.669 1145.08,637.669 1147.6,637.67 1150.11,637.67 1152.63,637.671 1155.14,637.671 1157.66,637.671 1160.18,637.672 1162.69,637.672 1165.21,637.672 1167.72,637.673 1170.24,637.673 1172.76,637.673 1175.27,637.673 1177.79,637.674 1180.3,637.674 1182.82,637.674 1185.34,637.674 1187.85,637.675 1190.37,637.675 1192.88,637.675 1195.4,637.675 1197.92,637.676 1200.43,637.676 1202.95,637.676 1205.46,637.676 1207.98,637.677 1210.5,637.677 1213.01,637.677 1215.53,637.677 1218.04,637.678 1220.56,637.678 1223.08,637.678 1225.59,637.678 1228.11,637.679 1230.62,637.679 1233.14,637.679 1235.66,637.679 1238.17,637.68 1240.69,637.68 1243.2,637.68 1245.72,637.68 1248.24,637.681 1250.75,637.681 1253.27,637.681 1255.78,637.682 1258.3,637.682 1260.82,637.682 1263.33,637.683 1265.85,637.683 1268.36,637.683 1270.88,637.684 1273.4,637.684 1275.91,637.684 1278.43,637.685 1280.94,637.685 1283.46,637.686 1285.98,637.687 1288.49,637.687 1291.01,637.688 1293.52,637.689 1296.04,637.69 1298.56,637.691 1301.07,637.692 1303.59,637.695 1306.1,637.699 1308.62,650.617 1311.14,650.582 1313.65,650.578 1316.17,650.577 1318.68,650.575 1321.2,650.574 1323.72,650.573 1326.23,650.573 1328.75,650.572 1331.26,650.571 1333.78,650.571 1336.3,650.571 1338.81,650.57 1341.33,650.57 1343.84,650.57 1346.36,650.569 1348.88,650.569 1351.39,650.569 1353.91,650.568 1356.42,650.568 1358.94,650.568 1361.46,650.568 1363.97,650.568 1366.49,650.567 1369,650.567 1371.52,650.567 1374.04,650.567 1376.55,650.567 1379.07,650.567 1381.58,650.567 1384.1,650.567 1386.62,650.566 1389.13,650.566 1391.65,650.566 1394.16,650.566 1396.68,650.566 1399.2,650.566 1401.71,650.566 1404.23,650.566 1406.74,650.566 1409.26,650.566 1411.78,650.565 1414.29,650.565 1416.81,650.565 1419.32,650.565 1421.84,650.565 1424.35,650.565 1426.87,650.565 1429.39,650.565 1431.9,650.565 1434.42,650.565 1436.93,650.565 1439.45,650.565 1441.97,650.565 1444.48,650.565 1447,650.565 1449.51,650.565 1452.03,650.565 1454.55,650.565 1457.06,650.564 1459.58,650.564 1462.09,650.564 1464.61,650.564 1467.13,650.564 1469.64,650.564 1472.16,650.564 1474.67,650.564 1477.19,650.564 1479.71,650.564 1482.22,650.564 1484.74,650.564 1487.25,650.564 1489.77,650.564 1492.29,650.564 1494.8,650.564 1497.32,650.564 1499.83,650.564 1502.35,650.564 1504.87,650.564 1507.38,650.564 1509.9,650.564 1512.41,650.564 1514.93,650.564 1517.45,650.564 1519.96,650.564 1522.48,650.564 1524.99,650.564 1527.51,650.564 1530.03,650.564 1532.54,650.564 1535.06,650.564 1537.57,650.564 1540.09,650.564 1542.61,650.564 1545.12,650.564 1547.64,650.564 1550.15,650.564 1552.67,650.564 1555.19,650.564 1557.7,650.564 1560.22,650.564 1562.73,650.564 1565.25,650.564 1567.77,650.564 1570.28,650.564 1572.8,650.564 1575.31,650.564 1577.83,650.564 1580.35,650.564 1582.86,650.564 1585.38,650.564 1587.89,650.564 1590.41,650.564 1592.93,650.564 1595.44,650.564 1597.96,650.564 1600.47,650.564 1602.99,650.564 1605.51,650.564 1608.02,650.564 1610.54,650.564 1613.05,650.564 1615.57,650.564 1618.09,650.564 1620.6,650.564 1623.12,650.564 1625.63,650.564 1628.15,650.564 1630.67,650.564 1633.18,86.1857 1635.7,1319.28 1638.21,1329.93 1640.73,1321.03 1643.25,1313.56 1645.76,1310.21 1648.28,1309.18 1650.79,1308.95 1653.31,1308.91 1655.83,1308.9 1658.34,1308.9 1660.86,1308.9 1663.37,1308.9 1665.89,1308.9 1668.41,1308.9 1670.92,1308.9 1673.44,1308.9 1675.95,1308.9 1678.47,1308.9 1680.99,1308.9 1683.5,1308.9 1686.02,1308.9 1688.53,1308.9 1691.05,1308.9 1693.57,1308.9 1696.08,1308.9 1698.6,1308.9 1701.11,1308.9 1703.63,1308.9 1706.15,1308.9 1708.66,1308.9 1711.18,1308.9 1713.69,1308.9 1716.21,1308.9 1718.73,1308.9 1721.24,1308.9 1723.76,1308.9 1726.27,1308.9 1728.79,1308.9 1731.31,1308.9 1733.82,1308.9 1736.34,1308.9 1738.85,1308.9 1741.37,1308.9 1743.89,1308.9 1746.4,1308.9 1748.92,1308.9 1751.43,1308.9 1753.95,1308.9 1756.47,1308.9 1758.98,1308.9 1761.5,1308.9 1764.01,1308.9 1766.53,1308.9 1769.05,1308.9 1771.56,1308.9 1774.08,1308.9 1776.59,1308.9 1779.11,1308.9 1781.63,1308.9 1784.14,1308.9 1786.66,1308.9 1789.17,1308.9 1791.69,1308.9 1794.21,1308.9 1796.72,1308.9 1799.24,1308.9 1801.75,1308.9 1804.27,1308.9 1806.79,1308.9 1809.3,1308.9 1811.82,1308.9 1814.33,1308.9 1816.85,1308.9 1819.37,1308.9 1821.88,1308.9 1824.4,1308.9 1826.91,1308.9 1829.43,1308.9 1831.95,1308.9 1834.46,1308.9 1836.98,1308.9 1839.49,1308.9 1842.01,1308.9 1844.53,1308.9 1847.04,1308.9 1849.56,1308.9 1852.07,1308.9 1854.59,1308.9 1857.11,1308.9 1859.62,1308.9 1862.14,1308.9 1864.65,1308.9 1867.17,1308.9 1869.69,1308.9 1872.2,1308.9 1874.72,1308.9 1877.23,1308.9 1879.75,1308.9 1882.27,1308.9 1884.78,1308.9 1887.3,1308.9 1889.81,1308.9 1892.33,1308.9 1894.85,1308.9 1897.36,1308.9 1899.88,1308.9 1902.39,1308.9 1904.91,1308.9 1907.43,1308.9 1909.94,1308.9 1912.46,1308.9 1914.97,1308.9 1917.49,1308.9 1920.01,1308.9 1922.52,1308.9 1925.04,1308.9 1927.55,1308.9 1930.07,1308.9 1932.59,1308.9 1935.1,1308.9 1937.62,1308.9 1940.13,1308.9 1942.65,1308.9 1945.17,1308.9 1947.68,1308.9 1950.2,1308.9 1952.71,1308.9 1955.23,1308.9 1957.75,1308.9 1960.26,1308.9 1962.78,1308.9 1965.29,1308.9 1967.81,1308.9 1970.33,1308.9 1972.84,1308.9 1975.36,1308.9 1977.87,1308.9 1980.39,1308.9 1982.91,1308.9 1985.42,1308.9 1987.94,1308.9 1990.45,1308.9 1992.97,1308.9 1995.49,1308.9 1998,1308.9 2000.52,1308.9 2003.03,1308.9 2005.55,1308.9 2008.07,1308.9 2010.58,1308.9 2013.1,1308.9 2015.61,1308.9 2018.13,1308.9 2020.65,1308.9 2023.16,1308.9 2025.68,1308.9 2028.19,1308.9 2030.71,1308.9 2033.22,1308.9 2035.74,1308.9 2038.26,1308.9 2040.77,1308.9 2043.29,1308.9 2045.8,1308.9 2048.32,1308.9 2050.84,1308.9 2053.35,1308.9 2055.87,1308.9 2058.38,1308.9 2060.9,1308.9 2063.42,1308.9 2065.93,1308.9 2068.45,1308.9 2070.96,1308.9 2073.48,1308.9 2076,1308.9 2078.51,1308.9 2081.03,1308.9 2083.54,1308.9 2086.06,1308.9 2088.58,1308.9 2091.09,1308.9 2093.61,1308.9 2096.12,1308.9 2098.64,1308.9 2101.16,1308.9 2103.67,1308.9 2106.19,1308.9 2108.7,1308.9 2111.22,1308.9 2113.74,1308.9 2116.25,1308.9 2118.77,1308.9 2121.28,1308.9 2123.8,1308.9 2126.32,1308.9 2128.83,1308.9 2131.35,1308.9 2133.86,1308.9 2136.38,1308.9 2138.9,1308.9 2141.41,1308.9 2143.93,1308.9 2146.44,1308.9 2148.96,1308.9 2151.48,1308.9 2153.99,1308.9 2156.51,1308.9 2159.02,1308.9 2161.54,1308.9 2164.06,1308.9 2166.57,1308.9 2169.09,1308.9 2171.6,1308.9 2174.12,1308.9 2176.64,1308.9 2179.15,1308.9 2181.67,1308.9 2184.18,1308.9 2186.7,1308.9 2189.22,1308.9 2191.73,1308.9 2194.25,1308.9 2196.76,1308.9 2199.28,1308.9 2201.8,1308.9 2204.31,1308.9 2206.83,1308.9 2209.34,1308.9 2211.86,1308.9 2214.38,1308.9 2216.89,1308.9 2219.41,1308.9 2221.92,1308.9 2224.44,1308.9 2226.96,1308.9 2229.47,1308.9 2231.99,1308.9 2234.5,1308.9 2237.02,1308.9 2239.54,1308.9 2242.05,1308.9 2244.57,1308.9 2247.08,1308.9 2249.6,1308.9 2252.12,1308.9 2254.63,1308.9 2257.15,1308.9 2259.66,1308.9 2262.18,1308.9 2264.7,1308.9 2267.21,1308.9 2269.73,1308.9 2272.24,1308.9 2274.76,1308.88 2277.28,1308.79 2279.79,1308.29 2282.31,1306.45 2284.82,1301.63 2287.34,1293.68 2289.86,1292.21 2292.37,1333.88 "/>
</svg>
