<?xml version="1.0" encoding="utf-8"?>
<svg xmlns="http://www.w3.org/2000/svg" xmlns:xlink="http://www.w3.org/1999/xlink" width="600" height="400" viewBox="0 0 2400 1600">
<defs>
  <clipPath id="clip460">
    <rect x="0" y="0" width="2400" height="1600"/>
  </clipPath>
</defs>
<path clip-path="url(#clip460)" d="M0 1600 L2400 1600 L2400 0 L0 0  Z" fill="#ffffff" fill-rule="evenodd" fill-opacity="1"/>
<defs>
  <clipPath id="clip461">
    <rect x="480" y="0" width="1681" height="1600"/>
  </clipPath>
</defs>
<path clip-path="url(#clip460)" d="M147.478 1486.45 L2352.76 1486.45 L2352.76 47.2441 L147.478 47.2441  Z" fill="#ffffff" fill-rule="evenodd" fill-opacity="1"/>
<defs>
  <clipPath id="clip462">
    <rect x="147" y="47" width="2206" height="1440"/>
  </clipPath>
</defs>
<polyline clip-path="url(#clip462)" style="stroke:#000000; stroke-linecap:round; stroke-linejoin:round; stroke-width:2; stroke-opacity:0.1; fill:none" points="209.891,1486.45 209.891,47.2441 "/>
<polyline clip-path="url(#clip462)" style="stroke:#000000; stroke-linecap:round; stroke-linejoin:round; stroke-width:2; stroke-opacity:0.1; fill:none" points="642.009,1486.45 642.009,47.2441 "/>
<polyline clip-path="url(#clip462)" style="stroke:#000000; stroke-linecap:round; stroke-linejoin:round; stroke-width:2; stroke-opacity:0.1; fill:none" points="1074.13,1486.45 1074.13,47.2441 "/>
<polyline clip-path="url(#clip462)" style="stroke:#000000; stroke-linecap:round; stroke-linejoin:round; stroke-width:2; stroke-opacity:0.1; fill:none" points="1506.24,1486.45 1506.24,47.2441 "/>
<polyline clip-path="url(#clip462)" style="stroke:#000000; stroke-linecap:round; stroke-linejoin:round; stroke-width:2; stroke-opacity:0.1; fill:none" points="1938.36,1486.45 1938.36,47.2441 "/>
<polyline clip-path="url(#clip460)" style="stroke:#000000; stroke-linecap:round; stroke-linejoin:round; stroke-width:4; stroke-opacity:1; fill:none" points="147.478,1486.45 2352.76,1486.45 "/>
<polyline clip-path="url(#clip460)" style="stroke:#000000; stroke-linecap:round; stroke-linejoin:round; stroke-width:4; stroke-opacity:1; fill:none" points="209.891,1486.45 209.891,1467.55 "/>
<polyline clip-path="url(#clip460)" style="stroke:#000000; stroke-linecap:round; stroke-linejoin:round; stroke-width:4; stroke-opacity:1; fill:none" points="642.009,1486.45 642.009,1467.55 "/>
<polyline clip-path="url(#clip460)" style="stroke:#000000; stroke-linecap:round; stroke-linejoin:round; stroke-width:4; stroke-opacity:1; fill:none" points="1074.13,1486.45 1074.13,1467.55 "/>
<polyline clip-path="url(#clip460)" style="stroke:#000000; stroke-linecap:round; stroke-linejoin:round; stroke-width:4; stroke-opacity:1; fill:none" points="1506.24,1486.45 1506.24,1467.55 "/>
<polyline clip-path="url(#clip460)" style="stroke:#000000; stroke-linecap:round; stroke-linejoin:round; stroke-width:4; stroke-opacity:1; fill:none" points="1938.36,1486.45 1938.36,1467.55 "/>
<path clip-path="url(#clip460)" d="M209.891 1517.37 Q206.28 1517.37 204.452 1520.93 Q202.646 1524.47 202.646 1531.6 Q202.646 1538.71 204.452 1542.27 Q206.28 1545.82 209.891 1545.82 Q213.526 1545.82 215.331 1542.27 Q217.16 1538.71 217.16 1531.6 Q217.16 1524.47 215.331 1520.93 Q213.526 1517.37 209.891 1517.37 M209.891 1513.66 Q215.702 1513.66 218.757 1518.27 Q221.836 1522.85 221.836 1531.6 Q221.836 1540.33 218.757 1544.94 Q215.702 1549.52 209.891 1549.52 Q204.081 1549.52 201.003 1544.94 Q197.947 1540.33 197.947 1531.6 Q197.947 1522.85 201.003 1518.27 Q204.081 1513.66 209.891 1513.66 Z" fill="#000000" fill-rule="evenodd" fill-opacity="1" /><path clip-path="url(#clip460)" d="M636.661 1544.91 L652.981 1544.91 L652.981 1548.85 L631.036 1548.85 L631.036 1544.91 Q633.698 1542.16 638.282 1537.53 Q642.888 1532.88 644.069 1531.53 Q646.314 1529.01 647.194 1527.27 Q648.097 1525.51 648.097 1523.82 Q648.097 1521.07 646.152 1519.33 Q644.231 1517.6 641.129 1517.6 Q638.93 1517.6 636.476 1518.36 Q634.046 1519.13 631.268 1520.68 L631.268 1515.95 Q634.092 1514.82 636.546 1514.24 Q638.999 1513.66 641.036 1513.66 Q646.407 1513.66 649.601 1516.35 Q652.796 1519.03 652.796 1523.52 Q652.796 1525.65 651.985 1527.57 Q651.198 1529.47 649.092 1532.07 Q648.513 1532.74 645.411 1535.95 Q642.31 1539.15 636.661 1544.91 Z" fill="#000000" fill-rule="evenodd" fill-opacity="1" /><path clip-path="url(#clip460)" d="M1077.14 1518.36 L1065.33 1536.81 L1077.14 1536.81 L1077.14 1518.36 M1075.91 1514.29 L1081.79 1514.29 L1081.79 1536.81 L1086.72 1536.81 L1086.72 1540.7 L1081.79 1540.7 L1081.79 1548.85 L1077.14 1548.85 L1077.14 1540.7 L1061.53 1540.7 L1061.53 1536.19 L1075.91 1514.29 Z" fill="#000000" fill-rule="evenodd" fill-opacity="1" /><path clip-path="url(#clip460)" d="M1506.65 1529.7 Q1503.5 1529.7 1501.65 1531.86 Q1499.82 1534.01 1499.82 1537.76 Q1499.82 1541.49 1501.65 1543.66 Q1503.5 1545.82 1506.65 1545.82 Q1509.8 1545.82 1511.62 1543.66 Q1513.48 1541.49 1513.48 1537.76 Q1513.48 1534.01 1511.62 1531.86 Q1509.8 1529.7 1506.65 1529.7 M1515.93 1515.05 L1515.93 1519.31 Q1514.17 1518.48 1512.37 1518.04 Q1510.58 1517.6 1508.82 1517.6 Q1504.19 1517.6 1501.74 1520.72 Q1499.31 1523.85 1498.96 1530.17 Q1500.33 1528.15 1502.39 1527.09 Q1504.45 1526 1506.93 1526 Q1512.13 1526 1515.14 1529.17 Q1518.18 1532.32 1518.18 1537.76 Q1518.18 1543.08 1515.03 1546.3 Q1511.88 1549.52 1506.65 1549.52 Q1500.65 1549.52 1497.48 1544.94 Q1494.31 1540.33 1494.31 1531.6 Q1494.31 1523.41 1498.2 1518.55 Q1502.09 1513.66 1508.64 1513.66 Q1510.4 1513.66 1512.18 1514.01 Q1513.99 1514.36 1515.93 1515.05 Z" fill="#000000" fill-rule="evenodd" fill-opacity="1" /><path clip-path="url(#clip460)" d="M1938.36 1532.44 Q1935.03 1532.44 1933.11 1534.22 Q1931.21 1536 1931.21 1539.13 Q1931.21 1542.25 1933.11 1544.03 Q1935.03 1545.82 1938.36 1545.82 Q1941.69 1545.82 1943.61 1544.03 Q1945.54 1542.23 1945.54 1539.13 Q1945.54 1536 1943.61 1534.22 Q1941.72 1532.44 1938.36 1532.44 M1933.68 1530.45 Q1930.67 1529.7 1928.99 1527.64 Q1927.32 1525.58 1927.32 1522.62 Q1927.32 1518.48 1930.26 1516.07 Q1933.22 1513.66 1938.36 1513.66 Q1943.52 1513.66 1946.46 1516.07 Q1949.4 1518.48 1949.4 1522.62 Q1949.4 1525.58 1947.71 1527.64 Q1946.05 1529.7 1943.06 1530.45 Q1946.44 1531.23 1948.31 1533.52 Q1950.21 1535.82 1950.21 1539.13 Q1950.21 1544.15 1947.13 1546.83 Q1944.08 1549.52 1938.36 1549.52 Q1932.64 1549.52 1929.56 1546.83 Q1926.51 1544.15 1926.51 1539.13 Q1926.51 1535.82 1928.41 1533.52 Q1930.3 1531.23 1933.68 1530.45 M1931.97 1523.06 Q1931.97 1525.75 1933.64 1527.25 Q1935.33 1528.76 1938.36 1528.76 Q1941.37 1528.76 1943.06 1527.25 Q1944.77 1525.75 1944.77 1523.06 Q1944.77 1520.38 1943.06 1518.87 Q1941.37 1517.37 1938.36 1517.37 Q1935.33 1517.37 1933.64 1518.87 Q1931.97 1520.38 1931.97 1523.06 Z" fill="#000000" fill-rule="evenodd" fill-opacity="1" /><polyline clip-path="url(#clip462)" style="stroke:#000000; stroke-linecap:round; stroke-linejoin:round; stroke-width:2; stroke-opacity:0.1; fill:none" points="147.478,1486.45 2352.76,1486.45 "/>
<polyline clip-path="url(#clip462)" style="stroke:#000000; stroke-linecap:round; stroke-linejoin:round; stroke-width:2; stroke-opacity:0.1; fill:none" points="147.478,1126.65 2352.76,1126.65 "/>
<polyline clip-path="url(#clip462)" style="stroke:#000000; stroke-linecap:round; stroke-linejoin:round; stroke-width:2; stroke-opacity:0.1; fill:none" points="147.478,766.846 2352.76,766.846 "/>
<polyline clip-path="url(#clip462)" style="stroke:#000000; stroke-linecap:round; stroke-linejoin:round; stroke-width:2; stroke-opacity:0.1; fill:none" points="147.478,407.045 2352.76,407.045 "/>
<polyline clip-path="url(#clip462)" style="stroke:#000000; stroke-linecap:round; stroke-linejoin:round; stroke-width:2; stroke-opacity:0.1; fill:none" points="147.478,47.2441 2352.76,47.2441 "/>
<polyline clip-path="url(#clip460)" style="stroke:#000000; stroke-linecap:round; stroke-linejoin:round; stroke-width:4; stroke-opacity:1; fill:none" points="147.478,1486.45 147.478,47.2441 "/>
<polyline clip-path="url(#clip460)" style="stroke:#000000; stroke-linecap:round; stroke-linejoin:round; stroke-width:4; stroke-opacity:1; fill:none" points="147.478,1486.45 166.376,1486.45 "/>
<polyline clip-path="url(#clip460)" style="stroke:#000000; stroke-linecap:round; stroke-linejoin:round; stroke-width:4; stroke-opacity:1; fill:none" points="147.478,1126.65 166.376,1126.65 "/>
<polyline clip-path="url(#clip460)" style="stroke:#000000; stroke-linecap:round; stroke-linejoin:round; stroke-width:4; stroke-opacity:1; fill:none" points="147.478,766.846 166.376,766.846 "/>
<polyline clip-path="url(#clip460)" style="stroke:#000000; stroke-linecap:round; stroke-linejoin:round; stroke-width:4; stroke-opacity:1; fill:none" points="147.478,407.045 166.376,407.045 "/>
<polyline clip-path="url(#clip460)" style="stroke:#000000; stroke-linecap:round; stroke-linejoin:round; stroke-width:4; stroke-opacity:1; fill:none" points="147.478,47.2441 166.376,47.2441 "/>
<path clip-path="url(#clip460)" d="M50.9921 1486.9 L80.6679 1486.9 L80.6679 1490.83 L50.9921 1490.83 L50.9921 1486.9 Z" fill="#000000" fill-rule="evenodd" fill-opacity="1" /><path clip-path="url(#clip460)" d="M91.5706 1499.79 L99.2095 1499.79 L99.2095 1473.43 L90.8993 1475.09 L90.8993 1470.83 L99.1632 1469.17 L103.839 1469.17 L103.839 1499.79 L111.478 1499.79 L111.478 1503.73 L91.5706 1503.73 L91.5706 1499.79 Z" fill="#000000" fill-rule="evenodd" fill-opacity="1" /><path clip-path="url(#clip460)" d="M99.5335 1112.45 Q95.9224 1112.45 94.0937 1116.01 Q92.2882 1119.55 92.2882 1126.68 Q92.2882 1133.79 94.0937 1137.35 Q95.9224 1140.89 99.5335 1140.89 Q103.168 1140.89 104.973 1137.35 Q106.802 1133.79 106.802 1126.68 Q106.802 1119.55 104.973 1116.01 Q103.168 1112.45 99.5335 1112.45 M99.5335 1108.74 Q105.344 1108.74 108.399 1113.35 Q111.478 1117.93 111.478 1126.68 Q111.478 1135.41 108.399 1140.01 Q105.344 1144.6 99.5335 1144.6 Q93.7234 1144.6 90.6447 1140.01 Q87.5892 1135.41 87.5892 1126.68 Q87.5892 1117.93 90.6447 1113.35 Q93.7234 1108.74 99.5335 1108.74 Z" fill="#000000" fill-rule="evenodd" fill-opacity="1" /><path clip-path="url(#clip460)" d="M91.5706 780.191 L99.2095 780.191 L99.2095 753.825 L90.8993 755.492 L90.8993 751.233 L99.1632 749.566 L103.839 749.566 L103.839 780.191 L111.478 780.191 L111.478 784.126 L91.5706 784.126 L91.5706 780.191 Z" fill="#000000" fill-rule="evenodd" fill-opacity="1" /><path clip-path="url(#clip460)" d="M95.1586 420.39 L111.478 420.39 L111.478 424.325 L89.5336 424.325 L89.5336 420.39 Q92.1956 417.635 96.7789 413.006 Q101.385 408.353 102.566 407.01 Q104.811 404.487 105.691 402.751 Q106.594 400.992 106.594 399.302 Q106.594 396.547 104.649 394.811 Q102.728 393.075 99.6261 393.075 Q97.4271 393.075 94.9734 393.839 Q92.5428 394.603 89.7651 396.154 L89.7651 391.432 Q92.5891 390.297 95.0428 389.719 Q97.4965 389.14 99.5335 389.14 Q104.904 389.14 108.098 391.825 Q111.293 394.51 111.293 399.001 Q111.293 401.131 110.483 403.052 Q109.696 404.95 107.589 407.543 Q107.01 408.214 103.909 411.432 Q100.807 414.626 95.1586 420.39 Z" fill="#000000" fill-rule="evenodd" fill-opacity="1" /><path clip-path="url(#clip460)" d="M104.348 45.8899 Q107.705 46.6075 109.58 48.876 Q111.478 51.1445 111.478 54.4779 Q111.478 59.5936 107.959 62.3945 Q104.441 65.1954 97.9595 65.1954 Q95.7836 65.1954 93.4688 64.7556 Q91.1771 64.3389 88.7234 63.4824 L88.7234 58.9686 Q90.6678 60.1028 92.9826 60.6815 Q95.2974 61.2602 97.8206 61.2602 Q102.219 61.2602 104.51 59.5241 Q106.825 57.788 106.825 54.4779 Q106.825 51.4223 104.672 49.7094 Q102.543 47.9733 98.7234 47.9733 L94.6956 47.9733 L94.6956 44.1307 L98.9085 44.1307 Q102.358 44.1307 104.186 42.765 Q106.015 41.3761 106.015 38.7835 Q106.015 36.1215 104.117 34.7094 Q102.242 33.2743 98.7234 33.2743 Q96.8021 33.2743 94.603 33.6909 Q92.4039 34.1076 89.7651 34.9872 L89.7651 30.8206 Q92.4271 30.0798 94.7419 29.7095 Q97.0798 29.3391 99.14 29.3391 Q104.464 29.3391 107.566 31.7696 Q110.668 34.177 110.668 38.2974 Q110.668 41.1677 109.024 43.1585 Q107.381 45.1261 104.348 45.8899 Z" fill="#000000" fill-rule="evenodd" fill-opacity="1" /><polyline clip-path="url(#clip462)" style="stroke:#008000; stroke-linecap:round; stroke-linejoin:round; stroke-width:8; stroke-opacity:1; fill:none" points="209.891,766.846 231.497,766.846 253.103,766.846 274.709,766.846 296.315,766.846 317.921,766.846 339.527,766.846 361.132,766.846 382.738,766.846 393.966,766.846 415.572,766.846 437.178,766.846 458.784,766.846 480.39,766.846 501.995,766.846 523.601,766.846 545.207,766.846 566.813,766.846 588.419,766.846 610.025,766.846 631.631,766.846 653.236,766.846 674.842,766.846 696.448,766.846 718.054,766.846 739.66,766.846 761.266,766.846 782.872,766.846 804.477,766.846 826.083,766.846 847.689,766.846 869.295,766.846 890.901,766.846 912.507,766.846 934.113,766.846 955.718,766.846 977.324,766.846 998.93,766.846 1020.54,766.846 1042.14,766.846 1063.75,766.846 1072.73,766.846 1094.34,766.846 1115.95,766.846 1137.55,766.846 1159.16,766.846 1180.76,766.846 1202.37,766.846 1223.98,766.846 1245.58,766.846 1267.19,766.846 1272.19,766.846 1272.19,766.846 1293.8,766.846 1315.4,766.846 1337.01,766.846 1358.61,766.846 1380.22,766.846 1401.83,766.846 1423.43,766.846 1445.04,766.846 1466.64,766.846 1488.25,766.846 1509.85,766.846 1531.46,766.846 1553.07,766.846 1574.67,766.846 1596.28,766.846 1611.57,766.846 1611.57,766.846 1633.18,766.846 1654.79,766.846 1676.39,766.846 1698,766.846 1719.6,766.846 1741.21,766.846 1762.82,766.846 1784.42,766.846 1806.03,766.846 1827.63,766.846 1849.24,766.846 1870.84,766.846 1892.45,766.846 1914.06,766.846 1935.66,766.846 1957.27,766.846 1978.87,766.846 2000.48,766.846 2022.09,766.846 2043.69,766.846 2065.3,766.846 2086.9,766.846 2108.51,766.846 2130.11,766.846 2151.72,766.846 2173.33,766.846 2194.93,766.846 2216.54,766.846 2238.14,766.846 2259.75,766.846 2281.36,766.846 2290.34,766.846 "/>
<path clip-path="url(#clip460)" d="M1763.49 198.898 L2279.25 198.898 L2279.25 95.2176 L1763.49 95.2176  Z" fill="#ffffff" fill-rule="evenodd" fill-opacity="1"/>
<polyline clip-path="url(#clip460)" style="stroke:#000000; stroke-linecap:round; stroke-linejoin:round; stroke-width:4; stroke-opacity:1; fill:none" points="1763.49,198.898 2279.25,198.898 2279.25,95.2176 1763.49,95.2176 1763.49,198.898 "/>
<polyline clip-path="url(#clip460)" style="stroke:#008000; stroke-linecap:round; stroke-linejoin:round; stroke-width:8; stroke-opacity:1; fill:none" points="1787.99,147.058 1935.01,147.058 "/>
<path clip-path="url(#clip460)" d="M1959.51 129.778 L1964.19 129.778 L1964.19 143.944 L1981.18 143.944 L1981.18 129.778 L1985.86 129.778 L1985.86 164.338 L1981.18 164.338 L1981.18 147.879 L1964.19 147.879 L1964.19 164.338 L1959.51 164.338 L1959.51 129.778 Z" fill="#000000" fill-rule="evenodd" fill-opacity="1" /><path clip-path="url(#clip460)" d="M2005.21 128.366 Q2002.11 133.69 2000.6 138.898 Q1999.1 144.106 1999.1 149.453 Q1999.1 154.801 2000.6 160.055 Q2002.13 165.287 2005.21 170.588 L2001.5 170.588 Q1998.03 165.148 1996.3 159.893 Q1994.58 154.639 1994.58 149.453 Q1994.58 144.291 1996.3 139.06 Q1998.01 133.828 2001.5 128.366 L2005.21 128.366 Z" fill="#000000" fill-rule="evenodd" fill-opacity="1" /><path clip-path="url(#clip460)" d="M2017.68 131.051 L2017.68 138.412 L2026.46 138.412 L2026.46 141.722 L2017.68 141.722 L2017.68 155.796 Q2017.68 158.967 2018.54 159.87 Q2019.42 160.773 2022.08 160.773 L2026.46 160.773 L2026.46 164.338 L2022.08 164.338 Q2017.15 164.338 2015.28 162.509 Q2013.4 160.657 2013.4 155.796 L2013.4 141.722 L2010.28 141.722 L2010.28 138.412 L2013.4 138.412 L2013.4 131.051 L2017.68 131.051 Z" fill="#000000" fill-rule="evenodd" fill-opacity="1" /><path clip-path="url(#clip460)" d="M2031.39 128.366 L2035.09 128.366 Q2038.56 133.828 2040.28 139.06 Q2042.01 144.291 2042.01 149.453 Q2042.01 154.639 2040.28 159.893 Q2038.56 165.148 2035.09 170.588 L2031.39 170.588 Q2034.47 165.287 2035.97 160.055 Q2037.5 154.801 2037.5 149.453 Q2037.5 144.106 2035.97 138.898 Q2034.47 133.69 2031.39 128.366 Z" fill="#000000" fill-rule="evenodd" fill-opacity="1" /><path clip-path="url(#clip460)" d="M2051.64 158.458 L2056.53 158.458 L2056.53 164.338 L2051.64 164.338 L2051.64 158.458 M2051.64 139.824 L2056.53 139.824 L2056.53 145.703 L2051.64 145.703 L2051.64 139.824 Z" fill="#000000" fill-rule="evenodd" fill-opacity="1" /><path clip-path="url(#clip460)" d="M2081.6 138.412 L2085.86 138.412 L2085.86 164.338 L2081.6 164.338 L2081.6 138.412 M2081.6 128.319 L2085.86 128.319 L2085.86 133.713 L2081.6 133.713 L2081.6 128.319 Z" fill="#000000" fill-rule="evenodd" fill-opacity="1" /><path clip-path="url(#clip460)" d="M2116.32 148.689 L2116.32 164.338 L2112.06 164.338 L2112.06 148.828 Q2112.06 145.148 2110.62 143.319 Q2109.19 141.49 2106.32 141.49 Q2102.87 141.49 2100.88 143.69 Q2098.89 145.889 2098.89 149.685 L2098.89 164.338 L2094.61 164.338 L2094.61 138.412 L2098.89 138.412 L2098.89 142.44 Q2100.42 140.102 2102.48 138.944 Q2104.56 137.787 2107.27 137.787 Q2111.74 137.787 2114.03 140.565 Q2116.32 143.319 2116.32 148.689 Z" fill="#000000" fill-rule="evenodd" fill-opacity="1" /><path clip-path="url(#clip460)" d="M2141.87 142.347 L2141.87 128.319 L2146.13 128.319 L2146.13 164.338 L2141.87 164.338 L2141.87 160.449 Q2140.53 162.763 2138.47 163.898 Q2136.43 165.009 2133.56 165.009 Q2128.86 165.009 2125.9 161.259 Q2122.96 157.509 2122.96 151.398 Q2122.96 145.287 2125.9 141.537 Q2128.86 137.787 2133.56 137.787 Q2136.43 137.787 2138.47 138.921 Q2140.53 140.032 2141.87 142.347 M2127.36 151.398 Q2127.36 156.097 2129.28 158.782 Q2131.23 161.444 2134.61 161.444 Q2137.98 161.444 2139.93 158.782 Q2141.87 156.097 2141.87 151.398 Q2141.87 146.699 2139.93 144.037 Q2137.98 141.352 2134.61 141.352 Q2131.23 141.352 2129.28 144.037 Q2127.36 146.699 2127.36 151.398 Z" fill="#000000" fill-rule="evenodd" fill-opacity="1" /><path clip-path="url(#clip460)" d="M2154.91 138.412 L2159.17 138.412 L2159.17 164.338 L2154.91 164.338 L2154.91 138.412 M2154.91 128.319 L2159.17 128.319 L2159.17 133.713 L2154.91 133.713 L2154.91 128.319 Z" fill="#000000" fill-rule="evenodd" fill-opacity="1" /><path clip-path="url(#clip460)" d="M2183.1 142.393 Q2182.38 141.977 2181.53 141.791 Q2180.69 141.583 2179.67 141.583 Q2176.06 141.583 2174.12 143.944 Q2172.2 146.282 2172.2 150.68 L2172.2 164.338 L2167.92 164.338 L2167.92 138.412 L2172.2 138.412 L2172.2 142.44 Q2173.54 140.078 2175.69 138.944 Q2177.85 137.787 2180.92 137.787 Q2181.36 137.787 2181.9 137.856 Q2182.43 137.903 2183.08 138.018 L2183.1 142.393 Z" fill="#000000" fill-rule="evenodd" fill-opacity="1" /><path clip-path="url(#clip460)" d="M2208.7 150.31 L2208.7 152.393 L2189.12 152.393 Q2189.4 156.791 2191.76 159.106 Q2194.14 161.398 2198.38 161.398 Q2200.83 161.398 2203.12 160.796 Q2205.44 160.194 2207.71 158.99 L2207.71 163.018 Q2205.42 163.99 2203.01 164.5 Q2200.6 165.009 2198.12 165.009 Q2191.92 165.009 2188.29 161.398 Q2184.67 157.787 2184.67 151.629 Q2184.67 145.264 2188.1 141.537 Q2191.55 137.787 2197.38 137.787 Q2202.61 137.787 2205.65 141.166 Q2208.7 144.523 2208.7 150.31 M2204.44 149.06 Q2204.4 145.565 2202.48 143.481 Q2200.58 141.398 2197.43 141.398 Q2193.86 141.398 2191.71 143.412 Q2189.58 145.426 2189.26 149.083 L2204.44 149.06 Z" fill="#000000" fill-rule="evenodd" fill-opacity="1" /><path clip-path="url(#clip460)" d="M2234.35 139.407 L2234.35 143.389 Q2232.54 142.393 2230.72 141.907 Q2228.91 141.398 2227.06 141.398 Q2222.92 141.398 2220.62 144.037 Q2218.33 146.652 2218.33 151.398 Q2218.33 156.143 2220.62 158.782 Q2222.92 161.398 2227.06 161.398 Q2228.91 161.398 2230.72 160.912 Q2232.54 160.402 2234.35 159.407 L2234.35 163.342 Q2232.57 164.176 2230.65 164.592 Q2228.75 165.009 2226.6 165.009 Q2220.74 165.009 2217.29 161.328 Q2213.84 157.648 2213.84 151.398 Q2213.84 145.055 2217.31 141.421 Q2220.81 137.787 2226.87 137.787 Q2228.84 137.787 2230.72 138.203 Q2232.59 138.597 2234.35 139.407 Z" fill="#000000" fill-rule="evenodd" fill-opacity="1" /><path clip-path="url(#clip460)" d="M2245.97 131.051 L2245.97 138.412 L2254.74 138.412 L2254.74 141.722 L2245.97 141.722 L2245.97 155.796 Q2245.97 158.967 2246.83 159.87 Q2247.71 160.773 2250.37 160.773 L2254.74 160.773 L2254.74 164.338 L2250.37 164.338 Q2245.44 164.338 2243.56 162.509 Q2241.69 160.657 2241.69 155.796 L2241.69 141.722 L2238.56 141.722 L2238.56 138.412 L2241.69 138.412 L2241.69 131.051 L2245.97 131.051 Z" fill="#000000" fill-rule="evenodd" fill-opacity="1" /></svg>
