<?xml version="1.0" encoding="utf-8"?>
<svg xmlns="http://www.w3.org/2000/svg" xmlns:xlink="http://www.w3.org/1999/xlink" width="600" height="400" viewBox="0 0 2400 1600">
<defs>
  <clipPath id="clip380">
    <rect x="0" y="0" width="2400" height="1600"/>
  </clipPath>
</defs>
<path clip-path="url(#clip380)" d="M0 1600 L2400 1600 L2400 0 L0 0  Z" fill="#ffffff" fill-rule="evenodd" fill-opacity="1"/>
<defs>
  <clipPath id="clip381">
    <rect x="147" y="47" width="2207" height="1440"/>
  </clipPath>
</defs>
<path clip-path="url(#clip380)" d="M147.108 1486.45 L2352.76 1486.45 L2352.76 47.2441 L147.108 47.2441  Z" fill="#ffffff" fill-rule="evenodd" fill-opacity="1"/>
<polyline clip-path="url(#clip381)" style="stroke:#000000; stroke-linecap:round; stroke-linejoin:round; stroke-width:2; stroke-opacity:0.1; fill:none" points="209.532,1486.45 209.532,47.2441 "/>
<polyline clip-path="url(#clip381)" style="stroke:#000000; stroke-linecap:round; stroke-linejoin:round; stroke-width:2; stroke-opacity:0.1; fill:none" points="729.732,1486.45 729.732,47.2441 "/>
<polyline clip-path="url(#clip381)" style="stroke:#000000; stroke-linecap:round; stroke-linejoin:round; stroke-width:2; stroke-opacity:0.1; fill:none" points="1249.93,1486.45 1249.93,47.2441 "/>
<polyline clip-path="url(#clip381)" style="stroke:#000000; stroke-linecap:round; stroke-linejoin:round; stroke-width:2; stroke-opacity:0.1; fill:none" points="1770.13,1486.45 1770.13,47.2441 "/>
<polyline clip-path="url(#clip381)" style="stroke:#000000; stroke-linecap:round; stroke-linejoin:round; stroke-width:2; stroke-opacity:0.1; fill:none" points="2290.33,1486.45 2290.33,47.2441 "/>
<polyline clip-path="url(#clip381)" style="stroke:#000000; stroke-linecap:round; stroke-linejoin:round; stroke-width:2; stroke-opacity:0.1; fill:none" points="147.108,1460.12 2352.76,1460.12 "/>
<polyline clip-path="url(#clip381)" style="stroke:#000000; stroke-linecap:round; stroke-linejoin:round; stroke-width:2; stroke-opacity:0.1; fill:none" points="147.108,1117.33 2352.76,1117.33 "/>
<polyline clip-path="url(#clip381)" style="stroke:#000000; stroke-linecap:round; stroke-linejoin:round; stroke-width:2; stroke-opacity:0.1; fill:none" points="147.108,774.539 2352.76,774.539 "/>
<polyline clip-path="url(#clip381)" style="stroke:#000000; stroke-linecap:round; stroke-linejoin:round; stroke-width:2; stroke-opacity:0.1; fill:none" points="147.108,431.747 2352.76,431.747 "/>
<polyline clip-path="url(#clip381)" style="stroke:#000000; stroke-linecap:round; stroke-linejoin:round; stroke-width:2; stroke-opacity:0.1; fill:none" points="147.108,88.9549 2352.76,88.9549 "/>
<polyline clip-path="url(#clip380)" style="stroke:#000000; stroke-linecap:round; stroke-linejoin:round; stroke-width:4; stroke-opacity:1; fill:none" points="147.108,1486.45 2352.76,1486.45 "/>
<polyline clip-path="url(#clip380)" style="stroke:#000000; stroke-linecap:round; stroke-linejoin:round; stroke-width:4; stroke-opacity:1; fill:none" points="209.532,1486.45 209.532,1467.55 "/>
<polyline clip-path="url(#clip380)" style="stroke:#000000; stroke-linecap:round; stroke-linejoin:round; stroke-width:4; stroke-opacity:1; fill:none" points="729.732,1486.45 729.732,1467.55 "/>
<polyline clip-path="url(#clip380)" style="stroke:#000000; stroke-linecap:round; stroke-linejoin:round; stroke-width:4; stroke-opacity:1; fill:none" points="1249.93,1486.45 1249.93,1467.55 "/>
<polyline clip-path="url(#clip380)" style="stroke:#000000; stroke-linecap:round; stroke-linejoin:round; stroke-width:4; stroke-opacity:1; fill:none" points="1770.13,1486.45 1770.13,1467.55 "/>
<polyline clip-path="url(#clip380)" style="stroke:#000000; stroke-linecap:round; stroke-linejoin:round; stroke-width:4; stroke-opacity:1; fill:none" points="2290.33,1486.45 2290.33,1467.55 "/>
<path clip-path="url(#clip380)" d="M209.532 1517.37 Q205.92 1517.37 204.092 1520.93 Q202.286 1524.47 202.286 1531.6 Q202.286 1538.71 204.092 1542.27 Q205.92 1545.82 209.532 1545.82 Q213.166 1545.82 214.971 1542.27 Q216.8 1538.71 216.8 1531.6 Q216.8 1524.47 214.971 1520.93 Q213.166 1517.37 209.532 1517.37 M209.532 1513.66 Q215.342 1513.66 218.397 1518.27 Q221.476 1522.85 221.476 1531.6 Q221.476 1540.33 218.397 1544.94 Q215.342 1549.52 209.532 1549.52 Q203.721 1549.52 200.643 1544.94 Q197.587 1540.33 197.587 1531.6 Q197.587 1522.85 200.643 1518.27 Q203.721 1513.66 209.532 1513.66 Z" fill="#000000" fill-rule="nonzero" fill-opacity="1" /><path clip-path="url(#clip380)" d="M724.384 1544.91 L740.704 1544.91 L740.704 1548.85 L718.759 1548.85 L718.759 1544.91 Q721.421 1542.16 726.005 1537.53 Q730.611 1532.88 731.792 1531.53 Q734.037 1529.01 734.917 1527.27 Q735.82 1525.51 735.82 1523.82 Q735.82 1521.07 733.875 1519.33 Q731.954 1517.6 728.852 1517.6 Q726.653 1517.6 724.199 1518.36 Q721.769 1519.13 718.991 1520.68 L718.991 1515.95 Q721.815 1514.82 724.269 1514.24 Q726.722 1513.66 728.759 1513.66 Q734.13 1513.66 737.324 1516.35 Q740.519 1519.03 740.519 1523.52 Q740.519 1525.65 739.708 1527.57 Q738.921 1529.47 736.815 1532.07 Q736.236 1532.74 733.134 1535.95 Q730.033 1539.15 724.384 1544.91 Z" fill="#000000" fill-rule="nonzero" fill-opacity="1" /><path clip-path="url(#clip380)" d="M1252.94 1518.36 L1241.14 1536.81 L1252.94 1536.81 L1252.94 1518.36 M1251.71 1514.29 L1257.59 1514.29 L1257.59 1536.81 L1262.52 1536.81 L1262.52 1540.7 L1257.59 1540.7 L1257.59 1548.85 L1252.94 1548.85 L1252.94 1540.7 L1237.34 1540.7 L1237.34 1536.19 L1251.71 1514.29 Z" fill="#000000" fill-rule="nonzero" fill-opacity="1" /><path clip-path="url(#clip380)" d="M1770.54 1529.7 Q1767.39 1529.7 1765.54 1531.86 Q1763.71 1534.01 1763.71 1537.76 Q1763.71 1541.49 1765.54 1543.66 Q1767.39 1545.82 1770.54 1545.82 Q1773.69 1545.82 1775.51 1543.66 Q1777.37 1541.49 1777.37 1537.76 Q1777.37 1534.01 1775.51 1531.86 Q1773.69 1529.7 1770.54 1529.7 M1779.82 1515.05 L1779.82 1519.31 Q1778.06 1518.48 1776.25 1518.04 Q1774.47 1517.6 1772.71 1517.6 Q1768.08 1517.6 1765.63 1520.72 Q1763.2 1523.85 1762.85 1530.17 Q1764.22 1528.15 1766.28 1527.09 Q1768.34 1526 1770.81 1526 Q1776.02 1526 1779.03 1529.17 Q1782.06 1532.32 1782.06 1537.76 Q1782.06 1543.08 1778.92 1546.3 Q1775.77 1549.52 1770.54 1549.52 Q1764.54 1549.52 1761.37 1544.94 Q1758.2 1540.33 1758.2 1531.6 Q1758.2 1523.41 1762.09 1518.55 Q1765.98 1513.66 1772.53 1513.66 Q1774.29 1513.66 1776.07 1514.01 Q1777.87 1514.36 1779.82 1515.05 Z" fill="#000000" fill-rule="nonzero" fill-opacity="1" /><path clip-path="url(#clip380)" d="M2290.33 1532.44 Q2287 1532.44 2285.08 1534.22 Q2283.18 1536 2283.18 1539.13 Q2283.18 1542.25 2285.08 1544.03 Q2287 1545.82 2290.33 1545.82 Q2293.67 1545.82 2295.59 1544.03 Q2297.51 1542.23 2297.51 1539.13 Q2297.51 1536 2295.59 1534.22 Q2293.69 1532.44 2290.33 1532.44 M2285.66 1530.45 Q2282.65 1529.7 2280.96 1527.64 Q2279.29 1525.58 2279.29 1522.62 Q2279.29 1518.48 2282.23 1516.07 Q2285.19 1513.66 2290.33 1513.66 Q2295.49 1513.66 2298.43 1516.07 Q2301.37 1518.48 2301.37 1522.62 Q2301.37 1525.58 2299.68 1527.64 Q2298.02 1529.7 2295.03 1530.45 Q2298.41 1531.23 2300.29 1533.52 Q2302.18 1535.82 2302.18 1539.13 Q2302.18 1544.15 2299.1 1546.83 Q2296.05 1549.52 2290.33 1549.52 Q2284.61 1549.52 2281.54 1546.83 Q2278.48 1544.15 2278.48 1539.13 Q2278.48 1535.82 2280.38 1533.52 Q2282.28 1531.23 2285.66 1530.45 M2283.94 1523.06 Q2283.94 1525.75 2285.61 1527.25 Q2287.3 1528.76 2290.33 1528.76 Q2293.34 1528.76 2295.03 1527.25 Q2296.74 1525.75 2296.74 1523.06 Q2296.74 1520.38 2295.03 1518.87 Q2293.34 1517.37 2290.33 1517.37 Q2287.3 1517.37 2285.61 1518.87 Q2283.94 1520.38 2283.94 1523.06 Z" fill="#000000" fill-rule="nonzero" fill-opacity="1" /><polyline clip-path="url(#clip380)" style="stroke:#000000; stroke-linecap:round; stroke-linejoin:round; stroke-width:4; stroke-opacity:1; fill:none" points="147.108,1486.45 147.108,47.2441 "/>
<polyline clip-path="url(#clip380)" style="stroke:#000000; stroke-linecap:round; stroke-linejoin:round; stroke-width:4; stroke-opacity:1; fill:none" points="147.108,1460.12 166.005,1460.12 "/>
<polyline clip-path="url(#clip380)" style="stroke:#000000; stroke-linecap:round; stroke-linejoin:round; stroke-width:4; stroke-opacity:1; fill:none" points="147.108,1117.33 166.005,1117.33 "/>
<polyline clip-path="url(#clip380)" style="stroke:#000000; stroke-linecap:round; stroke-linejoin:round; stroke-width:4; stroke-opacity:1; fill:none" points="147.108,774.539 166.005,774.539 "/>
<polyline clip-path="url(#clip380)" style="stroke:#000000; stroke-linecap:round; stroke-linejoin:round; stroke-width:4; stroke-opacity:1; fill:none" points="147.108,431.747 166.005,431.747 "/>
<polyline clip-path="url(#clip380)" style="stroke:#000000; stroke-linecap:round; stroke-linejoin:round; stroke-width:4; stroke-opacity:1; fill:none" points="147.108,88.9549 166.005,88.9549 "/>
<path clip-path="url(#clip380)" d="M50.9921 1460.57 L80.6679 1460.57 L80.6679 1464.51 L50.9921 1464.51 L50.9921 1460.57 Z" fill="#000000" fill-rule="nonzero" fill-opacity="1" /><path clip-path="url(#clip380)" d="M94.7882 1473.47 L111.108 1473.47 L111.108 1477.4 L89.1632 1477.4 L89.1632 1473.47 Q91.8252 1470.71 96.4085 1466.08 Q101.015 1461.43 102.196 1460.09 Q104.441 1457.56 105.321 1455.83 Q106.223 1454.07 106.223 1452.38 Q106.223 1449.63 104.279 1447.89 Q102.358 1446.15 99.2558 1446.15 Q97.0567 1446.15 94.603 1446.92 Q92.1725 1447.68 89.3947 1449.23 L89.3947 1444.51 Q92.2188 1443.38 94.6724 1442.8 Q97.1261 1442.22 99.1632 1442.22 Q104.534 1442.22 107.728 1444.9 Q110.922 1447.59 110.922 1452.08 Q110.922 1454.21 110.112 1456.13 Q109.325 1458.03 107.219 1460.62 Q106.64 1461.29 103.538 1464.51 Q100.436 1467.7 94.7882 1473.47 Z" fill="#000000" fill-rule="nonzero" fill-opacity="1" /><path clip-path="url(#clip380)" d="M99.1632 1103.13 Q95.5521 1103.13 93.7234 1106.69 Q91.9178 1110.24 91.9178 1117.37 Q91.9178 1124.47 93.7234 1128.04 Q95.5521 1131.58 99.1632 1131.58 Q102.797 1131.58 104.603 1128.04 Q106.432 1124.47 106.432 1117.37 Q106.432 1110.24 104.603 1106.69 Q102.797 1103.13 99.1632 1103.13 M99.1632 1099.43 Q104.973 1099.43 108.029 1104.03 Q111.108 1108.62 111.108 1117.37 Q111.108 1126.09 108.029 1130.7 Q104.973 1135.28 99.1632 1135.28 Q93.353 1135.28 90.2743 1130.7 Q87.2188 1126.09 87.2188 1117.37 Q87.2188 1108.62 90.2743 1104.03 Q93.353 1099.43 99.1632 1099.43 Z" fill="#000000" fill-rule="nonzero" fill-opacity="1" /><path clip-path="url(#clip380)" d="M94.7882 787.884 L111.108 787.884 L111.108 791.819 L89.1632 791.819 L89.1632 787.884 Q91.8252 785.129 96.4085 780.499 Q101.015 775.847 102.196 774.504 Q104.441 771.981 105.321 770.245 Q106.223 768.486 106.223 766.796 Q106.223 764.041 104.279 762.305 Q102.358 760.569 99.2558 760.569 Q97.0567 760.569 94.603 761.333 Q92.1725 762.097 89.3947 763.648 L89.3947 758.925 Q92.2188 757.791 94.6724 757.213 Q97.1261 756.634 99.1632 756.634 Q104.534 756.634 107.728 759.319 Q110.922 762.004 110.922 766.495 Q110.922 768.625 110.112 770.546 Q109.325 772.444 107.219 775.037 Q106.64 775.708 103.538 778.925 Q100.436 782.12 94.7882 787.884 Z" fill="#000000" fill-rule="nonzero" fill-opacity="1" /><path clip-path="url(#clip380)" d="M101.524 418.541 L89.7188 436.99 L101.524 436.99 L101.524 418.541 M100.297 414.467 L106.177 414.467 L106.177 436.99 L111.108 436.99 L111.108 440.879 L106.177 440.879 L106.177 449.027 L101.524 449.027 L101.524 440.879 L85.9225 440.879 L85.9225 436.365 L100.297 414.467 Z" fill="#000000" fill-rule="nonzero" fill-opacity="1" /><path clip-path="url(#clip380)" d="M99.5798 87.0915 Q96.4317 87.0915 94.5799 89.2443 Q92.7512 91.3971 92.7512 95.147 Q92.7512 98.8739 94.5799 101.05 Q96.4317 103.203 99.5798 103.203 Q102.728 103.203 104.557 101.05 Q106.408 98.8739 106.408 95.147 Q106.408 91.3971 104.557 89.2443 Q102.728 87.0915 99.5798 87.0915 M108.862 72.4388 L108.862 76.6981 Q107.103 75.8647 105.297 75.4249 Q103.515 74.9851 101.756 74.9851 Q97.1261 74.9851 94.6724 78.1101 Q92.2419 81.2351 91.8947 87.5545 Q93.2604 85.5406 95.3206 84.4758 Q97.3808 83.3878 99.8576 83.3878 Q105.066 83.3878 108.075 86.5591 Q111.108 89.7073 111.108 95.147 Q111.108 100.471 107.959 103.689 Q104.811 106.906 99.5798 106.906 Q93.5845 106.906 90.4132 102.323 Q87.2419 97.7165 87.2419 88.9897 Q87.2419 80.7953 91.1308 75.9342 Q95.0197 71.0499 101.571 71.0499 Q103.33 71.0499 105.112 71.3972 Q106.918 71.7444 108.862 72.4388 Z" fill="#000000" fill-rule="nonzero" fill-opacity="1" /><polyline clip-path="url(#clip381)" style="stroke:#800080; stroke-linecap:round; stroke-linejoin:round; stroke-width:8; stroke-opacity:1; fill:none" points="209.532,945.935 231.013,945.935 356.829,945.935 415.358,945.935 493.809,945.935 558.634,945.935 618.915,945.935 694.588,945.935 762.467,945.935 840.164,945.935 898.242,945.935 972.526,945.935 1040.32,945.935 1117.49,945.935 1178.66,945.935 1254.65,945.935 1312.85,945.935 1394.9,945.935 1456.22,945.935 1525.95,945.935 1595.01,945.935 1670.99,945.935 1729.02,945.935 1802.25,945.935 1869.98,945.935 1939.84,945.935 2010.64,945.935 2084.58,945.935 2142.82,945.935 2275.45,945.935 2290.33,945.935 "/>
<polyline clip-path="url(#clip381)" style="stroke:#ee82ee; stroke-linecap:round; stroke-linejoin:round; stroke-width:8; stroke-opacity:1; fill:none" points="209.532,87.9763 231.013,102.132 356.829,169.741 415.358,208.319 493.809,260.016 558.634,302.733 618.915,342.455 694.588,392.321 762.467,437.051 840.164,488.25 898.242,526.521 972.526,575.471 1040.32,620.148 1059.62,632.86 1078.91,645.572 1098.2,658.284 1117.49,670.996 1121.31,673.515 1125.13,676.034 1128.96,678.543 1132.78,680.853 1133.74,681.033 1134.69,680.464 1135.65,679.895 1136.6,679.326 1137.08,679.042 1137.56,678.758 1138.04,673.071 1138.51,667.272 1139.47,655.674 1140.43,644.075 1140.9,638.276 1141.38,632.477 1141.86,628.355 1142.34,628.741 1143.29,629.513 1144.25,630.286 1144.73,630.672 1145.2,631.058 1145.68,631.444 1146.16,635.372 1147.12,648.728 1148.07,662.085 1149.03,675.442 1149.98,688.799 1150.94,691.823 1151.9,694.036 1153.81,698.461 1155.72,700.532 1159.54,703.295 1163.36,705.829 1171.01,710.868 1178.66,715.907 1216.65,740.945 1254.65,765.984 1283.75,785.16 1312.85,804.336 1394.9,858.406 1456.22,898.811 1525.95,944.761 1595.01,990.268 1670.99,1040.33 1729.02,1078.57 1802.25,1126.83 1869.98,1171.46 1939.84,1217.5 2010.64,1264.15 2084.58,1312.87 2142.82,1351.25 2275.45,1438.65 2290.33,1445.72 "/>
<path clip-path="url(#clip380)" d="M1815.18 250.738 L2279.23 250.738 L2279.23 95.2176 L1815.18 95.2176  Z" fill="#ffffff" fill-rule="evenodd" fill-opacity="1"/>
<polyline clip-path="url(#clip380)" style="stroke:#000000; stroke-linecap:round; stroke-linejoin:round; stroke-width:4; stroke-opacity:1; fill:none" points="1815.18,250.738 2279.23,250.738 2279.23,95.2176 1815.18,95.2176 1815.18,250.738 "/>
<polyline clip-path="url(#clip380)" style="stroke:#800080; stroke-linecap:round; stroke-linejoin:round; stroke-width:8; stroke-opacity:1; fill:none" points="1839.68,147.058 1986.73,147.058 "/>
<path clip-path="url(#clip380)" d="M2031.74 139.407 L2031.74 143.389 Q2029.94 142.393 2028.11 141.907 Q2026.3 141.398 2024.45 141.398 Q2020.31 141.398 2018.02 144.037 Q2015.72 146.652 2015.72 151.398 Q2015.72 156.143 2018.02 158.782 Q2020.31 161.398 2024.45 161.398 Q2026.3 161.398 2028.11 160.912 Q2029.94 160.402 2031.74 159.407 L2031.74 163.342 Q2029.96 164.176 2028.04 164.592 Q2026.14 165.009 2023.99 165.009 Q2018.13 165.009 2014.68 161.328 Q2011.23 157.648 2011.23 151.398 Q2011.23 145.055 2014.71 141.421 Q2018.2 137.787 2024.27 137.787 Q2026.23 137.787 2028.11 138.203 Q2029.98 138.597 2031.74 139.407 Z" fill="#000000" fill-rule="nonzero" fill-opacity="1" /><path clip-path="url(#clip380)" d="M2049.2 141.398 Q2045.77 141.398 2043.78 144.083 Q2041.79 146.745 2041.79 151.398 Q2041.79 156.051 2043.76 158.736 Q2045.75 161.398 2049.2 161.398 Q2052.6 161.398 2054.59 158.713 Q2056.58 156.027 2056.58 151.398 Q2056.58 146.791 2054.59 144.106 Q2052.6 141.398 2049.2 141.398 M2049.2 137.787 Q2054.75 137.787 2057.92 141.398 Q2061.09 145.009 2061.09 151.398 Q2061.09 157.764 2057.92 161.398 Q2054.75 165.009 2049.2 165.009 Q2043.62 165.009 2040.45 161.398 Q2037.3 157.764 2037.3 151.398 Q2037.3 145.009 2040.45 141.398 Q2043.62 137.787 2049.2 137.787 Z" fill="#000000" fill-rule="nonzero" fill-opacity="1" /><path clip-path="url(#clip380)" d="M2084.68 139.176 L2084.68 143.203 Q2082.88 142.277 2080.93 141.815 Q2078.99 141.352 2076.9 141.352 Q2073.73 141.352 2072.14 142.324 Q2070.56 143.296 2070.56 145.24 Q2070.56 146.722 2071.7 147.578 Q2072.83 148.412 2076.26 149.176 L2077.71 149.5 Q2082.25 150.472 2084.15 152.254 Q2086.07 154.014 2086.07 157.185 Q2086.07 160.796 2083.2 162.902 Q2080.35 165.009 2075.35 165.009 Q2073.27 165.009 2071 164.592 Q2068.76 164.199 2066.26 163.388 L2066.26 158.99 Q2068.62 160.217 2070.91 160.842 Q2073.2 161.444 2075.45 161.444 Q2078.45 161.444 2080.08 160.426 Q2081.7 159.384 2081.7 157.509 Q2081.7 155.773 2080.52 154.847 Q2079.36 153.921 2075.4 153.064 L2073.92 152.717 Q2069.96 151.884 2068.2 150.171 Q2066.44 148.435 2066.44 145.426 Q2066.44 141.768 2069.03 139.778 Q2071.63 137.787 2076.39 137.787 Q2078.76 137.787 2080.84 138.134 Q2082.92 138.481 2084.68 139.176 Z" fill="#000000" fill-rule="nonzero" fill-opacity="1" /><path clip-path="url(#clip380)" d="M2097.07 131.051 L2097.07 138.412 L2105.84 138.412 L2105.84 141.722 L2097.07 141.722 L2097.07 155.796 Q2097.07 158.967 2097.92 159.87 Q2098.8 160.773 2101.46 160.773 L2105.84 160.773 L2105.84 164.338 L2101.46 164.338 Q2096.53 164.338 2094.66 162.509 Q2092.78 160.657 2092.78 155.796 L2092.78 141.722 L2089.66 141.722 L2089.66 138.412 L2092.78 138.412 L2092.78 131.051 L2097.07 131.051 Z" fill="#000000" fill-rule="nonzero" fill-opacity="1" /><path clip-path="url(#clip380)" d="M2123.22 151.305 Q2118.06 151.305 2116.07 152.486 Q2114.08 153.666 2114.08 156.514 Q2114.08 158.782 2115.56 160.125 Q2117.07 161.444 2119.64 161.444 Q2123.18 161.444 2125.31 158.944 Q2127.46 156.421 2127.46 152.254 L2127.46 151.305 L2123.22 151.305 M2131.72 149.546 L2131.72 164.338 L2127.46 164.338 L2127.46 160.402 Q2126 162.763 2123.83 163.898 Q2121.65 165.009 2118.5 165.009 Q2114.52 165.009 2112.16 162.787 Q2109.82 160.541 2109.82 156.791 Q2109.82 152.416 2112.74 150.194 Q2115.68 147.972 2121.49 147.972 L2127.46 147.972 L2127.46 147.555 Q2127.46 144.615 2125.51 143.018 Q2123.59 141.398 2120.1 141.398 Q2117.88 141.398 2115.77 141.93 Q2113.66 142.463 2111.72 143.527 L2111.72 139.592 Q2114.06 138.69 2116.26 138.25 Q2118.45 137.787 2120.54 137.787 Q2126.16 137.787 2128.94 140.703 Q2131.72 143.62 2131.72 149.546 Z" fill="#000000" fill-rule="nonzero" fill-opacity="1" /><path clip-path="url(#clip380)" d="M2144.7 131.051 L2144.7 138.412 L2153.48 138.412 L2153.48 141.722 L2144.7 141.722 L2144.7 155.796 Q2144.7 158.967 2145.56 159.87 Q2146.44 160.773 2149.1 160.773 L2153.48 160.773 L2153.48 164.338 L2149.1 164.338 Q2144.17 164.338 2142.3 162.509 Q2140.42 160.657 2140.42 155.796 L2140.42 141.722 L2137.3 141.722 L2137.3 138.412 L2140.42 138.412 L2140.42 131.051 L2144.7 131.051 Z" fill="#000000" fill-rule="nonzero" fill-opacity="1" /><path clip-path="url(#clip380)" d="M2181.26 150.31 L2181.26 152.393 L2161.67 152.393 Q2161.95 156.791 2164.31 159.106 Q2166.7 161.398 2170.93 161.398 Q2173.38 161.398 2175.68 160.796 Q2177.99 160.194 2180.26 158.99 L2180.26 163.018 Q2177.97 163.99 2175.56 164.5 Q2173.15 165.009 2170.68 165.009 Q2164.47 165.009 2160.84 161.398 Q2157.23 157.787 2157.23 151.629 Q2157.23 145.264 2160.65 141.537 Q2164.1 137.787 2169.94 137.787 Q2175.17 137.787 2178.2 141.166 Q2181.26 144.523 2181.26 150.31 M2177 149.06 Q2176.95 145.565 2175.03 143.481 Q2173.13 141.398 2169.98 141.398 Q2166.42 141.398 2164.26 143.412 Q2162.13 145.426 2161.81 149.083 L2177 149.06 Z" fill="#000000" fill-rule="nonzero" fill-opacity="1" /><path clip-path="url(#clip380)" d="M2207.44 160.449 L2207.44 174.199 L2203.15 174.199 L2203.15 138.412 L2207.44 138.412 L2207.44 142.347 Q2208.78 140.032 2210.82 138.921 Q2212.88 137.787 2215.72 137.787 Q2220.44 137.787 2223.38 141.537 Q2226.35 145.287 2226.35 151.398 Q2226.35 157.509 2223.38 161.259 Q2220.44 165.009 2215.72 165.009 Q2212.88 165.009 2210.82 163.898 Q2208.78 162.763 2207.44 160.449 M2221.93 151.398 Q2221.93 146.699 2219.98 144.037 Q2218.06 141.352 2214.68 141.352 Q2211.3 141.352 2209.36 144.037 Q2207.44 146.699 2207.44 151.398 Q2207.44 156.097 2209.36 158.782 Q2211.3 161.444 2214.68 161.444 Q2218.06 161.444 2219.98 158.782 Q2221.93 156.097 2221.93 151.398 Z" fill="#000000" fill-rule="nonzero" fill-opacity="1" /><path clip-path="url(#clip380)" d="M2234.82 160.402 L2242.46 160.402 L2242.46 134.037 L2234.15 135.703 L2234.15 131.444 L2242.41 129.778 L2247.09 129.778 L2247.09 160.402 L2254.73 160.402 L2254.73 164.338 L2234.82 164.338 L2234.82 160.402 Z" fill="#000000" fill-rule="nonzero" fill-opacity="1" /><polyline clip-path="url(#clip380)" style="stroke:#ee82ee; stroke-linecap:round; stroke-linejoin:round; stroke-width:8; stroke-opacity:1; fill:none" points="1839.68,198.898 1986.73,198.898 "/>
<path clip-path="url(#clip380)" d="M2031.74 191.247 L2031.74 195.229 Q2029.94 194.233 2028.11 193.747 Q2026.3 193.238 2024.45 193.238 Q2020.31 193.238 2018.02 195.877 Q2015.72 198.492 2015.72 203.238 Q2015.72 207.983 2018.02 210.622 Q2020.31 213.238 2024.45 213.238 Q2026.3 213.238 2028.11 212.752 Q2029.94 212.242 2031.74 211.247 L2031.74 215.182 Q2029.96 216.016 2028.04 216.432 Q2026.14 216.849 2023.99 216.849 Q2018.13 216.849 2014.68 213.168 Q2011.23 209.488 2011.23 203.238 Q2011.23 196.895 2014.71 193.261 Q2018.2 189.627 2024.27 189.627 Q2026.23 189.627 2028.11 190.043 Q2029.98 190.437 2031.74 191.247 Z" fill="#000000" fill-rule="nonzero" fill-opacity="1" /><path clip-path="url(#clip380)" d="M2049.2 193.238 Q2045.77 193.238 2043.78 195.923 Q2041.79 198.585 2041.79 203.238 Q2041.79 207.891 2043.76 210.576 Q2045.75 213.238 2049.2 213.238 Q2052.6 213.238 2054.59 210.553 Q2056.58 207.867 2056.58 203.238 Q2056.58 198.631 2054.59 195.946 Q2052.6 193.238 2049.2 193.238 M2049.2 189.627 Q2054.75 189.627 2057.92 193.238 Q2061.09 196.849 2061.09 203.238 Q2061.09 209.604 2057.92 213.238 Q2054.75 216.849 2049.2 216.849 Q2043.62 216.849 2040.45 213.238 Q2037.3 209.604 2037.3 203.238 Q2037.3 196.849 2040.45 193.238 Q2043.62 189.627 2049.2 189.627 Z" fill="#000000" fill-rule="nonzero" fill-opacity="1" /><path clip-path="url(#clip380)" d="M2084.68 191.016 L2084.68 195.043 Q2082.88 194.117 2080.93 193.655 Q2078.99 193.192 2076.9 193.192 Q2073.73 193.192 2072.14 194.164 Q2070.56 195.136 2070.56 197.08 Q2070.56 198.562 2071.7 199.418 Q2072.83 200.252 2076.26 201.016 L2077.71 201.34 Q2082.25 202.312 2084.15 204.094 Q2086.07 205.854 2086.07 209.025 Q2086.07 212.636 2083.2 214.742 Q2080.35 216.849 2075.35 216.849 Q2073.27 216.849 2071 216.432 Q2068.76 216.039 2066.26 215.228 L2066.26 210.83 Q2068.62 212.057 2070.91 212.682 Q2073.2 213.284 2075.45 213.284 Q2078.45 213.284 2080.08 212.266 Q2081.7 211.224 2081.7 209.349 Q2081.7 207.613 2080.52 206.687 Q2079.36 205.761 2075.4 204.904 L2073.92 204.557 Q2069.96 203.724 2068.2 202.011 Q2066.44 200.275 2066.44 197.266 Q2066.44 193.608 2069.03 191.618 Q2071.63 189.627 2076.39 189.627 Q2078.76 189.627 2080.84 189.974 Q2082.92 190.321 2084.68 191.016 Z" fill="#000000" fill-rule="nonzero" fill-opacity="1" /><path clip-path="url(#clip380)" d="M2097.07 182.891 L2097.07 190.252 L2105.84 190.252 L2105.84 193.562 L2097.07 193.562 L2097.07 207.636 Q2097.07 210.807 2097.92 211.71 Q2098.8 212.613 2101.46 212.613 L2105.84 212.613 L2105.84 216.178 L2101.46 216.178 Q2096.53 216.178 2094.66 214.349 Q2092.78 212.497 2092.78 207.636 L2092.78 193.562 L2089.66 193.562 L2089.66 190.252 L2092.78 190.252 L2092.78 182.891 L2097.07 182.891 Z" fill="#000000" fill-rule="nonzero" fill-opacity="1" /><path clip-path="url(#clip380)" d="M2123.22 203.145 Q2118.06 203.145 2116.07 204.326 Q2114.08 205.506 2114.08 208.354 Q2114.08 210.622 2115.56 211.965 Q2117.07 213.284 2119.64 213.284 Q2123.18 213.284 2125.31 210.784 Q2127.46 208.261 2127.46 204.094 L2127.46 203.145 L2123.22 203.145 M2131.72 201.386 L2131.72 216.178 L2127.46 216.178 L2127.46 212.242 Q2126 214.603 2123.83 215.738 Q2121.65 216.849 2118.5 216.849 Q2114.52 216.849 2112.16 214.627 Q2109.82 212.381 2109.82 208.631 Q2109.82 204.256 2112.74 202.034 Q2115.68 199.812 2121.49 199.812 L2127.46 199.812 L2127.46 199.395 Q2127.46 196.455 2125.51 194.858 Q2123.59 193.238 2120.1 193.238 Q2117.88 193.238 2115.77 193.77 Q2113.66 194.303 2111.72 195.367 L2111.72 191.432 Q2114.06 190.53 2116.26 190.09 Q2118.45 189.627 2120.54 189.627 Q2126.16 189.627 2128.94 192.543 Q2131.72 195.46 2131.72 201.386 Z" fill="#000000" fill-rule="nonzero" fill-opacity="1" /><path clip-path="url(#clip380)" d="M2144.7 182.891 L2144.7 190.252 L2153.48 190.252 L2153.48 193.562 L2144.7 193.562 L2144.7 207.636 Q2144.7 210.807 2145.56 211.71 Q2146.44 212.613 2149.1 212.613 L2153.48 212.613 L2153.48 216.178 L2149.1 216.178 Q2144.17 216.178 2142.3 214.349 Q2140.42 212.497 2140.42 207.636 L2140.42 193.562 L2137.3 193.562 L2137.3 190.252 L2140.42 190.252 L2140.42 182.891 L2144.7 182.891 Z" fill="#000000" fill-rule="nonzero" fill-opacity="1" /><path clip-path="url(#clip380)" d="M2181.26 202.15 L2181.26 204.233 L2161.67 204.233 Q2161.95 208.631 2164.31 210.946 Q2166.7 213.238 2170.93 213.238 Q2173.38 213.238 2175.68 212.636 Q2177.99 212.034 2180.26 210.83 L2180.26 214.858 Q2177.97 215.83 2175.56 216.34 Q2173.15 216.849 2170.68 216.849 Q2164.47 216.849 2160.84 213.238 Q2157.23 209.627 2157.23 203.469 Q2157.23 197.104 2160.65 193.377 Q2164.1 189.627 2169.94 189.627 Q2175.17 189.627 2178.2 193.006 Q2181.26 196.363 2181.26 202.15 M2177 200.9 Q2176.95 197.405 2175.03 195.321 Q2173.13 193.238 2169.98 193.238 Q2166.42 193.238 2164.26 195.252 Q2162.13 197.266 2161.81 200.923 L2177 200.9 Z" fill="#000000" fill-rule="nonzero" fill-opacity="1" /><path clip-path="url(#clip380)" d="M2207.44 212.289 L2207.44 226.039 L2203.15 226.039 L2203.15 190.252 L2207.44 190.252 L2207.44 194.187 Q2208.78 191.872 2210.82 190.761 Q2212.88 189.627 2215.72 189.627 Q2220.44 189.627 2223.38 193.377 Q2226.35 197.127 2226.35 203.238 Q2226.35 209.349 2223.38 213.099 Q2220.44 216.849 2215.72 216.849 Q2212.88 216.849 2210.82 215.738 Q2208.78 214.603 2207.44 212.289 M2221.93 203.238 Q2221.93 198.539 2219.98 195.877 Q2218.06 193.192 2214.68 193.192 Q2211.3 193.192 2209.36 195.877 Q2207.44 198.539 2207.44 203.238 Q2207.44 207.937 2209.36 210.622 Q2211.3 213.284 2214.68 213.284 Q2218.06 213.284 2219.98 210.622 Q2221.93 207.937 2221.93 203.238 Z" fill="#000000" fill-rule="nonzero" fill-opacity="1" /><path clip-path="url(#clip380)" d="M2238.04 212.242 L2254.36 212.242 L2254.36 216.178 L2232.41 216.178 L2232.41 212.242 Q2235.07 209.488 2239.66 204.858 Q2244.26 200.205 2245.44 198.863 Q2247.69 196.34 2248.57 194.604 Q2249.47 192.844 2249.47 191.155 Q2249.47 188.4 2247.53 186.664 Q2245.61 184.928 2242.5 184.928 Q2240.31 184.928 2237.85 185.692 Q2235.42 186.455 2232.64 188.006 L2232.64 183.284 Q2235.47 182.15 2237.92 181.571 Q2240.38 180.993 2242.41 180.993 Q2247.78 180.993 2250.98 183.678 Q2254.17 186.363 2254.17 190.854 Q2254.17 192.983 2253.36 194.905 Q2252.57 196.803 2250.47 199.395 Q2249.89 200.067 2246.79 203.284 Q2243.69 206.479 2238.04 212.242 Z" fill="#000000" fill-rule="nonzero" fill-opacity="1" /></svg>
