<?xml version="1.0" encoding="utf-8"?>
<svg xmlns="http://www.w3.org/2000/svg" xmlns:xlink="http://www.w3.org/1999/xlink" width="600" height="400" viewBox="0 0 2400 1600">
<defs>
  <clipPath id="clip380">
    <rect x="0" y="0" width="2400" height="1600"/>
  </clipPath>
</defs>
<path clip-path="url(#clip380)" d="M0 1600 L2400 1600 L2400 0 L0 0  Z" fill="#ffffff" fill-rule="evenodd" fill-opacity="1"/>
<defs>
  <clipPath id="clip381">
    <rect x="480" y="0" width="1681" height="1600"/>
  </clipPath>
</defs>
<path clip-path="url(#clip380)" d="M193.936 1486.45 L2352.76 1486.45 L2352.76 47.2441 L193.936 47.2441  Z" fill="#ffffff" fill-rule="evenodd" fill-opacity="1"/>
<defs>
  <clipPath id="clip382">
    <rect x="193" y="47" width="2160" height="1440"/>
  </clipPath>
</defs>
<polyline clip-path="url(#clip382)" style="stroke:#000000; stroke-linecap:round; stroke-linejoin:round; stroke-width:2; stroke-opacity:0.1; fill:none" points="255.035,1486.45 255.035,47.2441 "/>
<polyline clip-path="url(#clip382)" style="stroke:#000000; stroke-linecap:round; stroke-linejoin:round; stroke-width:2; stroke-opacity:0.1; fill:none" points="764.19,1486.45 764.19,47.2441 "/>
<polyline clip-path="url(#clip382)" style="stroke:#000000; stroke-linecap:round; stroke-linejoin:round; stroke-width:2; stroke-opacity:0.1; fill:none" points="1273.35,1486.45 1273.35,47.2441 "/>
<polyline clip-path="url(#clip382)" style="stroke:#000000; stroke-linecap:round; stroke-linejoin:round; stroke-width:2; stroke-opacity:0.1; fill:none" points="1782.5,1486.45 1782.5,47.2441 "/>
<polyline clip-path="url(#clip382)" style="stroke:#000000; stroke-linecap:round; stroke-linejoin:round; stroke-width:2; stroke-opacity:0.1; fill:none" points="2291.66,1486.45 2291.66,47.2441 "/>
<polyline clip-path="url(#clip380)" style="stroke:#000000; stroke-linecap:round; stroke-linejoin:round; stroke-width:4; stroke-opacity:1; fill:none" points="193.936,1486.45 2352.76,1486.45 "/>
<polyline clip-path="url(#clip380)" style="stroke:#000000; stroke-linecap:round; stroke-linejoin:round; stroke-width:4; stroke-opacity:1; fill:none" points="255.035,1486.45 255.035,1467.55 "/>
<polyline clip-path="url(#clip380)" style="stroke:#000000; stroke-linecap:round; stroke-linejoin:round; stroke-width:4; stroke-opacity:1; fill:none" points="764.19,1486.45 764.19,1467.55 "/>
<polyline clip-path="url(#clip380)" style="stroke:#000000; stroke-linecap:round; stroke-linejoin:round; stroke-width:4; stroke-opacity:1; fill:none" points="1273.35,1486.45 1273.35,1467.55 "/>
<polyline clip-path="url(#clip380)" style="stroke:#000000; stroke-linecap:round; stroke-linejoin:round; stroke-width:4; stroke-opacity:1; fill:none" points="1782.5,1486.45 1782.5,1467.55 "/>
<polyline clip-path="url(#clip380)" style="stroke:#000000; stroke-linecap:round; stroke-linejoin:round; stroke-width:4; stroke-opacity:1; fill:none" points="2291.66,1486.45 2291.66,1467.55 "/>
<path clip-path="url(#clip380)" d="M255.035 1517.37 Q251.424 1517.37 249.595 1520.93 Q247.789 1524.47 247.789 1531.6 Q247.789 1538.71 249.595 1542.27 Q251.424 1545.82 255.035 1545.82 Q258.669 1545.82 260.474 1542.27 Q262.303 1538.71 262.303 1531.6 Q262.303 1524.47 260.474 1520.93 Q258.669 1517.37 255.035 1517.37 M255.035 1513.66 Q260.845 1513.66 263.9 1518.27 Q266.979 1522.85 266.979 1531.6 Q266.979 1540.33 263.9 1544.94 Q260.845 1549.52 255.035 1549.52 Q249.225 1549.52 246.146 1544.94 Q243.09 1540.33 243.09 1531.6 Q243.09 1522.85 246.146 1518.27 Q249.225 1513.66 255.035 1513.66 Z" fill="#000000" fill-rule="nonzero" fill-opacity="1" /><path clip-path="url(#clip380)" d="M758.843 1544.91 L775.162 1544.91 L775.162 1548.85 L753.218 1548.85 L753.218 1544.91 Q755.88 1542.16 760.463 1537.53 Q765.07 1532.88 766.25 1531.53 Q768.496 1529.01 769.375 1527.27 Q770.278 1525.51 770.278 1523.82 Q770.278 1521.07 768.334 1519.33 Q766.413 1517.6 763.311 1517.6 Q761.112 1517.6 758.658 1518.36 Q756.227 1519.13 753.45 1520.68 L753.45 1515.95 Q756.274 1514.82 758.727 1514.24 Q761.181 1513.66 763.218 1513.66 Q768.588 1513.66 771.783 1516.35 Q774.977 1519.03 774.977 1523.52 Q774.977 1525.65 774.167 1527.57 Q773.38 1529.47 771.274 1532.07 Q770.695 1532.74 767.593 1535.95 Q764.491 1539.15 758.843 1544.91 Z" fill="#000000" fill-rule="nonzero" fill-opacity="1" /><path clip-path="url(#clip380)" d="M1276.36 1518.36 L1264.55 1536.81 L1276.36 1536.81 L1276.36 1518.36 M1275.13 1514.29 L1281.01 1514.29 L1281.01 1536.81 L1285.94 1536.81 L1285.94 1540.7 L1281.01 1540.7 L1281.01 1548.85 L1276.36 1548.85 L1276.36 1540.7 L1260.75 1540.7 L1260.75 1536.19 L1275.13 1514.29 Z" fill="#000000" fill-rule="nonzero" fill-opacity="1" /><path clip-path="url(#clip380)" d="M1782.91 1529.7 Q1779.76 1529.7 1777.91 1531.86 Q1776.08 1534.01 1776.08 1537.76 Q1776.08 1541.49 1777.91 1543.66 Q1779.76 1545.82 1782.91 1545.82 Q1786.05 1545.82 1787.88 1543.66 Q1789.74 1541.49 1789.74 1537.76 Q1789.74 1534.01 1787.88 1531.86 Q1786.05 1529.7 1782.91 1529.7 M1792.19 1515.05 L1792.19 1519.31 Q1790.43 1518.48 1788.62 1518.04 Q1786.84 1517.6 1785.08 1517.6 Q1780.45 1517.6 1778 1520.72 Q1775.57 1523.85 1775.22 1530.17 Q1776.59 1528.15 1778.65 1527.09 Q1780.71 1526 1783.18 1526 Q1788.39 1526 1791.4 1529.17 Q1794.43 1532.32 1794.43 1537.76 Q1794.43 1543.08 1791.29 1546.3 Q1788.14 1549.52 1782.91 1549.52 Q1776.91 1549.52 1773.74 1544.94 Q1770.57 1540.33 1770.57 1531.6 Q1770.57 1523.41 1774.46 1518.55 Q1778.35 1513.66 1784.9 1513.66 Q1786.66 1513.66 1788.44 1514.01 Q1790.24 1514.36 1792.19 1515.05 Z" fill="#000000" fill-rule="nonzero" fill-opacity="1" /><path clip-path="url(#clip380)" d="M2291.66 1532.44 Q2288.32 1532.44 2286.4 1534.22 Q2284.5 1536 2284.5 1539.13 Q2284.5 1542.25 2286.4 1544.03 Q2288.32 1545.82 2291.66 1545.82 Q2294.99 1545.82 2296.91 1544.03 Q2298.83 1542.23 2298.83 1539.13 Q2298.83 1536 2296.91 1534.22 Q2295.01 1532.44 2291.66 1532.44 M2286.98 1530.45 Q2283.97 1529.7 2282.28 1527.64 Q2280.62 1525.58 2280.62 1522.62 Q2280.62 1518.48 2283.56 1516.07 Q2286.52 1513.66 2291.66 1513.66 Q2296.82 1513.66 2299.76 1516.07 Q2302.7 1518.48 2302.7 1522.62 Q2302.7 1525.58 2301.01 1527.64 Q2299.34 1529.7 2296.36 1530.45 Q2299.74 1531.23 2301.61 1533.52 Q2303.51 1535.82 2303.51 1539.13 Q2303.51 1544.15 2300.43 1546.83 Q2297.37 1549.52 2291.66 1549.52 Q2285.94 1549.52 2282.86 1546.83 Q2279.81 1544.15 2279.81 1539.13 Q2279.81 1535.82 2281.7 1533.52 Q2283.6 1531.23 2286.98 1530.45 M2285.27 1523.06 Q2285.27 1525.75 2286.94 1527.25 Q2288.62 1528.76 2291.66 1528.76 Q2294.67 1528.76 2296.36 1527.25 Q2298.07 1525.75 2298.07 1523.06 Q2298.07 1520.38 2296.36 1518.87 Q2294.67 1517.37 2291.66 1517.37 Q2288.62 1517.37 2286.94 1518.87 Q2285.27 1520.38 2285.27 1523.06 Z" fill="#000000" fill-rule="nonzero" fill-opacity="1" /><polyline clip-path="url(#clip382)" style="stroke:#000000; stroke-linecap:round; stroke-linejoin:round; stroke-width:2; stroke-opacity:0.1; fill:none" points="193.936,1395.76 2352.76,1395.76 "/>
<polyline clip-path="url(#clip382)" style="stroke:#000000; stroke-linecap:round; stroke-linejoin:round; stroke-width:2; stroke-opacity:0.1; fill:none" points="193.936,1124.21 2352.76,1124.21 "/>
<polyline clip-path="url(#clip382)" style="stroke:#000000; stroke-linecap:round; stroke-linejoin:round; stroke-width:2; stroke-opacity:0.1; fill:none" points="193.936,852.665 2352.76,852.665 "/>
<polyline clip-path="url(#clip382)" style="stroke:#000000; stroke-linecap:round; stroke-linejoin:round; stroke-width:2; stroke-opacity:0.1; fill:none" points="193.936,581.117 2352.76,581.117 "/>
<polyline clip-path="url(#clip382)" style="stroke:#000000; stroke-linecap:round; stroke-linejoin:round; stroke-width:2; stroke-opacity:0.1; fill:none" points="193.936,309.568 2352.76,309.568 "/>
<polyline clip-path="url(#clip380)" style="stroke:#000000; stroke-linecap:round; stroke-linejoin:round; stroke-width:4; stroke-opacity:1; fill:none" points="193.936,1486.45 193.936,47.2441 "/>
<polyline clip-path="url(#clip380)" style="stroke:#000000; stroke-linecap:round; stroke-linejoin:round; stroke-width:4; stroke-opacity:1; fill:none" points="193.936,1395.76 212.834,1395.76 "/>
<polyline clip-path="url(#clip380)" style="stroke:#000000; stroke-linecap:round; stroke-linejoin:round; stroke-width:4; stroke-opacity:1; fill:none" points="193.936,1124.21 212.834,1124.21 "/>
<polyline clip-path="url(#clip380)" style="stroke:#000000; stroke-linecap:round; stroke-linejoin:round; stroke-width:4; stroke-opacity:1; fill:none" points="193.936,852.665 212.834,852.665 "/>
<polyline clip-path="url(#clip380)" style="stroke:#000000; stroke-linecap:round; stroke-linejoin:round; stroke-width:4; stroke-opacity:1; fill:none" points="193.936,581.117 212.834,581.117 "/>
<polyline clip-path="url(#clip380)" style="stroke:#000000; stroke-linecap:round; stroke-linejoin:round; stroke-width:4; stroke-opacity:1; fill:none" points="193.936,309.568 212.834,309.568 "/>
<path clip-path="url(#clip380)" d="M50.9921 1396.21 L80.6679 1396.21 L80.6679 1400.15 L50.9921 1400.15 L50.9921 1396.21 Z" fill="#000000" fill-rule="nonzero" fill-opacity="1" /><path clip-path="url(#clip380)" d="M91.5706 1409.11 L99.2095 1409.11 L99.2095 1382.74 L90.8993 1384.41 L90.8993 1380.15 L99.1632 1378.48 L103.839 1378.48 L103.839 1409.11 L111.478 1409.11 L111.478 1413.04 L91.5706 1413.04 L91.5706 1409.11 Z" fill="#000000" fill-rule="nonzero" fill-opacity="1" /><path clip-path="url(#clip380)" d="M120.922 1407.16 L125.807 1407.16 L125.807 1413.04 L120.922 1413.04 L120.922 1407.16 Z" fill="#000000" fill-rule="nonzero" fill-opacity="1" /><path clip-path="url(#clip380)" d="M145.992 1381.56 Q142.381 1381.56 140.552 1385.13 Q138.746 1388.67 138.746 1395.8 Q138.746 1402.9 140.552 1406.47 Q142.381 1410.01 145.992 1410.01 Q149.626 1410.01 151.431 1406.47 Q153.26 1402.9 153.26 1395.8 Q153.26 1388.67 151.431 1385.13 Q149.626 1381.56 145.992 1381.56 M145.992 1377.86 Q151.802 1377.86 154.857 1382.46 Q157.936 1387.05 157.936 1395.8 Q157.936 1404.52 154.857 1409.13 Q151.802 1413.71 145.992 1413.71 Q140.181 1413.71 137.103 1409.13 Q134.047 1404.52 134.047 1395.8 Q134.047 1387.05 137.103 1382.46 Q140.181 1377.86 145.992 1377.86 Z" fill="#000000" fill-rule="nonzero" fill-opacity="1" /><path clip-path="url(#clip380)" d="M51.9875 1124.67 L81.6633 1124.67 L81.6633 1128.6 L51.9875 1128.6 L51.9875 1124.67 Z" fill="#000000" fill-rule="nonzero" fill-opacity="1" /><path clip-path="url(#clip380)" d="M101.756 1110.01 Q98.1447 1110.01 96.316 1113.58 Q94.5104 1117.12 94.5104 1124.25 Q94.5104 1131.35 96.316 1134.92 Q98.1447 1138.46 101.756 1138.46 Q105.39 1138.46 107.196 1134.92 Q109.024 1131.35 109.024 1124.25 Q109.024 1117.12 107.196 1113.58 Q105.39 1110.01 101.756 1110.01 M101.756 1106.31 Q107.566 1106.31 110.621 1110.92 Q113.7 1115.5 113.7 1124.25 Q113.7 1132.98 110.621 1137.58 Q107.566 1142.16 101.756 1142.16 Q95.9456 1142.16 92.8669 1137.58 Q89.8114 1132.98 89.8114 1124.25 Q89.8114 1115.5 92.8669 1110.92 Q95.9456 1106.31 101.756 1106.31 Z" fill="#000000" fill-rule="nonzero" fill-opacity="1" /><path clip-path="url(#clip380)" d="M121.918 1135.61 L126.802 1135.61 L126.802 1141.49 L121.918 1141.49 L121.918 1135.61 Z" fill="#000000" fill-rule="nonzero" fill-opacity="1" /><path clip-path="url(#clip380)" d="M137.033 1106.93 L155.39 1106.93 L155.39 1110.87 L141.316 1110.87 L141.316 1119.34 Q142.334 1118.99 143.353 1118.83 Q144.371 1118.65 145.39 1118.65 Q151.177 1118.65 154.556 1121.82 Q157.936 1124.99 157.936 1130.41 Q157.936 1135.98 154.464 1139.09 Q150.992 1142.16 144.672 1142.16 Q142.496 1142.16 140.228 1141.79 Q137.982 1141.42 135.575 1140.68 L135.575 1135.98 Q137.658 1137.12 139.881 1137.67 Q142.103 1138.23 144.58 1138.23 Q148.584 1138.23 150.922 1136.12 Q153.26 1134.02 153.26 1130.41 Q153.26 1126.79 150.922 1124.69 Q148.584 1122.58 144.58 1122.58 Q142.705 1122.58 140.83 1123 Q138.978 1123.42 137.033 1124.29 L137.033 1106.93 Z" fill="#000000" fill-rule="nonzero" fill-opacity="1" /><path clip-path="url(#clip380)" d="M100.76 838.464 Q97.1493 838.464 95.3206 842.029 Q93.515 845.57 93.515 852.7 Q93.515 859.806 95.3206 863.371 Q97.1493 866.913 100.76 866.913 Q104.395 866.913 106.2 863.371 Q108.029 859.806 108.029 852.7 Q108.029 845.57 106.2 842.029 Q104.395 838.464 100.76 838.464 M100.76 834.76 Q106.571 834.76 109.626 839.367 Q112.705 843.95 112.705 852.7 Q112.705 861.427 109.626 866.033 Q106.571 870.617 100.76 870.617 Q94.9502 870.617 91.8715 866.033 Q88.816 861.427 88.816 852.7 Q88.816 843.95 91.8715 839.367 Q94.9502 834.76 100.76 834.76 Z" fill="#000000" fill-rule="nonzero" fill-opacity="1" /><path clip-path="url(#clip380)" d="M120.922 864.066 L125.807 864.066 L125.807 869.945 L120.922 869.945 L120.922 864.066 Z" fill="#000000" fill-rule="nonzero" fill-opacity="1" /><path clip-path="url(#clip380)" d="M145.992 838.464 Q142.381 838.464 140.552 842.029 Q138.746 845.57 138.746 852.7 Q138.746 859.806 140.552 863.371 Q142.381 866.913 145.992 866.913 Q149.626 866.913 151.431 863.371 Q153.26 859.806 153.26 852.7 Q153.26 845.57 151.431 842.029 Q149.626 838.464 145.992 838.464 M145.992 834.76 Q151.802 834.76 154.857 839.367 Q157.936 843.95 157.936 852.7 Q157.936 861.427 154.857 866.033 Q151.802 870.617 145.992 870.617 Q140.181 870.617 137.103 866.033 Q134.047 861.427 134.047 852.7 Q134.047 843.95 137.103 839.367 Q140.181 834.76 145.992 834.76 Z" fill="#000000" fill-rule="nonzero" fill-opacity="1" /><path clip-path="url(#clip380)" d="M101.756 566.915 Q98.1447 566.915 96.316 570.48 Q94.5104 574.022 94.5104 581.152 Q94.5104 588.258 96.316 591.823 Q98.1447 595.364 101.756 595.364 Q105.39 595.364 107.196 591.823 Q109.024 588.258 109.024 581.152 Q109.024 574.022 107.196 570.48 Q105.39 566.915 101.756 566.915 M101.756 563.212 Q107.566 563.212 110.621 567.818 Q113.7 572.402 113.7 581.152 Q113.7 589.878 110.621 594.485 Q107.566 599.068 101.756 599.068 Q95.9456 599.068 92.8669 594.485 Q89.8114 589.878 89.8114 581.152 Q89.8114 572.402 92.8669 567.818 Q95.9456 563.212 101.756 563.212 Z" fill="#000000" fill-rule="nonzero" fill-opacity="1" /><path clip-path="url(#clip380)" d="M121.918 592.517 L126.802 592.517 L126.802 598.397 L121.918 598.397 L121.918 592.517 Z" fill="#000000" fill-rule="nonzero" fill-opacity="1" /><path clip-path="url(#clip380)" d="M137.033 563.837 L155.39 563.837 L155.39 567.772 L141.316 567.772 L141.316 576.244 Q142.334 575.897 143.353 575.735 Q144.371 575.55 145.39 575.55 Q151.177 575.55 154.556 578.721 Q157.936 581.892 157.936 587.309 Q157.936 592.888 154.464 595.989 Q150.992 599.068 144.672 599.068 Q142.496 599.068 140.228 598.698 Q137.982 598.327 135.575 597.587 L135.575 592.888 Q137.658 594.022 139.881 594.577 Q142.103 595.133 144.58 595.133 Q148.584 595.133 150.922 593.026 Q153.26 590.92 153.26 587.309 Q153.26 583.698 150.922 581.591 Q148.584 579.485 144.58 579.485 Q142.705 579.485 140.83 579.902 Q138.978 580.318 137.033 581.198 L137.033 563.837 Z" fill="#000000" fill-rule="nonzero" fill-opacity="1" /><path clip-path="url(#clip380)" d="M91.5706 322.913 L99.2095 322.913 L99.2095 296.548 L90.8993 298.214 L90.8993 293.955 L99.1632 292.288 L103.839 292.288 L103.839 322.913 L111.478 322.913 L111.478 326.848 L91.5706 326.848 L91.5706 322.913 Z" fill="#000000" fill-rule="nonzero" fill-opacity="1" /><path clip-path="url(#clip380)" d="M120.922 320.969 L125.807 320.969 L125.807 326.848 L120.922 326.848 L120.922 320.969 Z" fill="#000000" fill-rule="nonzero" fill-opacity="1" /><path clip-path="url(#clip380)" d="M145.992 295.367 Q142.381 295.367 140.552 298.932 Q138.746 302.473 138.746 309.603 Q138.746 316.709 140.552 320.274 Q142.381 323.816 145.992 323.816 Q149.626 323.816 151.431 320.274 Q153.26 316.709 153.26 309.603 Q153.26 302.473 151.431 298.932 Q149.626 295.367 145.992 295.367 M145.992 291.663 Q151.802 291.663 154.857 296.27 Q157.936 300.853 157.936 309.603 Q157.936 318.33 154.857 322.936 Q151.802 327.52 145.992 327.52 Q140.181 327.52 137.103 322.936 Q134.047 318.33 134.047 309.603 Q134.047 300.853 137.103 296.27 Q140.181 291.663 145.992 291.663 Z" fill="#000000" fill-rule="nonzero" fill-opacity="1" /><polyline clip-path="url(#clip382)" style="stroke:#ff0000; stroke-linecap:round; stroke-linejoin:round; stroke-width:8; stroke-opacity:1; fill:none" points="255.035,87.9763 280.492,89.4259 305.95,90.9233 331.408,92.471 356.866,94.0716 382.324,95.7276 384.183,95.8508 384.183,131.059 409.64,131.059 435.098,131.059 460.556,131.059 486.014,131.059 511.472,131.059 536.929,131.059 562.387,131.059 587.845,131.059 613.303,131.059 638.76,131.059 664.218,131.059 689.676,131.059 715.134,131.059 740.592,131.059 766.049,131.059 791.507,131.059 816.965,131.059 842.423,131.059 867.88,131.059 893.338,131.059 918.796,131.059 944.254,131.059 969.712,131.059 995.169,131.059 1020.63,131.059 1046.08,131.059 1071.54,131.059 1097,131.059 1122.46,131.059 1147.92,131.059 1170.87,131.059 1170.87,208.022 1196.32,215.911 1221.78,224.385 1247.24,233.507 1272.7,243.348 1298.16,253.99 1323.61,265.524 1349.07,278.058 1374.53,291.711 1399.99,306.619 1425.44,322.94 1450.9,340.849 1476.36,360.544 1501.82,382.248 1527.28,406.202 1552.73,432.667 1578.19,461.912 1603.65,494.2 1629.11,529.766 1654.56,568.782 1680.02,611.312 1705.48,657.262 1730.94,706.327 1756.4,757.961 1781.85,811.378 1807.31,865.606 1832.77,919.577 1858.23,972.256 1883.68,1022.75 1909.14,1070.38 1934.6,1114.73 1960.06,1155.58 1985.52,1192.94 2010.97,1226.92 2036.43,1257.72 2061.89,1285.61 2087.35,1310.84 2112.8,1333.69 2138.26,1354.41 2163.72,1373.23 2189.18,1390.36 2214.64,1405.98 2240.09,1420.28 2265.55,1433.38 2291.01,1445.42 2291.66,1445.72 "/>
<path clip-path="url(#clip380)" d="M1713.32 198.898 L2280.8 198.898 L2280.8 95.2176 L1713.32 95.2176  Z" fill="#ffffff" fill-rule="evenodd" fill-opacity="1"/>
<polyline clip-path="url(#clip380)" style="stroke:#000000; stroke-linecap:round; stroke-linejoin:round; stroke-width:4; stroke-opacity:1; fill:none" points="1713.32,198.898 2280.8,198.898 2280.8,95.2176 1713.32,95.2176 1713.32,198.898 "/>
<polyline clip-path="url(#clip380)" style="stroke:#ff0000; stroke-linecap:round; stroke-linejoin:round; stroke-width:8; stroke-opacity:1; fill:none" points="1737.3,147.058 1881.23,147.058 "/>
<path clip-path="url(#clip380)" d="M1917.11 141.398 Q1913.69 141.398 1911.69 144.083 Q1909.7 146.745 1909.7 151.398 Q1909.7 156.051 1911.67 158.736 Q1913.66 161.398 1917.11 161.398 Q1920.51 161.398 1922.5 158.713 Q1924.5 156.027 1924.5 151.398 Q1924.5 146.791 1922.5 144.106 Q1920.51 141.398 1917.11 141.398 M1917.11 137.787 Q1922.67 137.787 1925.84 141.398 Q1929.01 145.009 1929.01 151.398 Q1929.01 157.764 1925.84 161.398 Q1922.67 165.009 1917.11 165.009 Q1911.53 165.009 1908.36 161.398 Q1905.21 157.764 1905.21 151.398 Q1905.21 145.009 1908.36 141.398 Q1911.53 137.787 1917.11 137.787 Z" fill="#000000" fill-rule="nonzero" fill-opacity="1" /><path clip-path="url(#clip380)" d="M1940.19 160.449 L1940.19 174.199 L1935.91 174.199 L1935.91 138.412 L1940.19 138.412 L1940.19 142.347 Q1941.53 140.032 1943.57 138.921 Q1945.63 137.787 1948.48 137.787 Q1953.2 137.787 1956.14 141.537 Q1959.1 145.287 1959.1 151.398 Q1959.1 157.509 1956.14 161.259 Q1953.2 165.009 1948.48 165.009 Q1945.63 165.009 1943.57 163.898 Q1941.53 162.763 1940.19 160.449 M1954.68 151.398 Q1954.68 146.699 1952.74 144.037 Q1950.81 141.352 1947.44 141.352 Q1944.06 141.352 1942.11 144.037 Q1940.19 146.699 1940.19 151.398 Q1940.19 156.097 1942.11 158.782 Q1944.06 161.444 1947.44 161.444 Q1950.81 161.444 1952.74 158.782 Q1954.68 156.097 1954.68 151.398 Z" fill="#000000" fill-rule="nonzero" fill-opacity="1" /><path clip-path="url(#clip380)" d="M1970.37 131.051 L1970.37 138.412 L1979.15 138.412 L1979.15 141.722 L1970.37 141.722 L1970.37 155.796 Q1970.37 158.967 1971.23 159.87 Q1972.11 160.773 1974.77 160.773 L1979.15 160.773 L1979.15 164.338 L1974.77 164.338 Q1969.84 164.338 1967.97 162.509 Q1966.09 160.657 1966.09 155.796 L1966.09 141.722 L1962.97 141.722 L1962.97 138.412 L1966.09 138.412 L1966.09 131.051 L1970.37 131.051 Z" fill="#000000" fill-rule="nonzero" fill-opacity="1" /><path clip-path="url(#clip380)" d="M1984.75 138.412 L1989.01 138.412 L1989.01 164.338 L1984.75 164.338 L1984.75 138.412 M1984.75 128.319 L1989.01 128.319 L1989.01 133.713 L1984.75 133.713 L1984.75 128.319 Z" fill="#000000" fill-rule="nonzero" fill-opacity="1" /><path clip-path="url(#clip380)" d="M2018.11 143.389 Q2019.7 140.518 2021.93 139.153 Q2024.15 137.787 2027.16 137.787 Q2031.21 137.787 2033.41 140.634 Q2035.61 143.458 2035.61 148.689 L2035.61 164.338 L2031.32 164.338 L2031.32 148.828 Q2031.32 145.102 2030 143.296 Q2028.68 141.49 2025.98 141.49 Q2022.67 141.49 2020.74 143.69 Q2018.82 145.889 2018.82 149.685 L2018.82 164.338 L2014.54 164.338 L2014.54 148.828 Q2014.54 145.078 2013.22 143.296 Q2011.9 141.49 2009.15 141.49 Q2005.88 141.49 2003.96 143.713 Q2002.04 145.912 2002.04 149.685 L2002.04 164.338 L1997.76 164.338 L1997.76 138.412 L2002.04 138.412 L2002.04 142.44 Q2003.5 140.055 2005.54 138.921 Q2007.57 137.787 2010.37 137.787 Q2013.2 137.787 2015.17 139.222 Q2017.16 140.657 2018.11 143.389 Z" fill="#000000" fill-rule="nonzero" fill-opacity="1" /><path clip-path="url(#clip380)" d="M2055.88 151.305 Q2050.72 151.305 2048.73 152.486 Q2046.74 153.666 2046.74 156.514 Q2046.74 158.782 2048.22 160.125 Q2049.73 161.444 2052.3 161.444 Q2055.84 161.444 2057.97 158.944 Q2060.12 156.421 2060.12 152.254 L2060.12 151.305 L2055.88 151.305 M2064.38 149.546 L2064.38 164.338 L2060.12 164.338 L2060.12 160.402 Q2058.66 162.763 2056.49 163.898 Q2054.31 165.009 2051.16 165.009 Q2047.18 165.009 2044.82 162.787 Q2042.48 160.541 2042.48 156.791 Q2042.48 152.416 2045.4 150.194 Q2048.34 147.972 2054.15 147.972 L2060.12 147.972 L2060.12 147.555 Q2060.12 144.615 2058.18 143.018 Q2056.25 141.398 2052.76 141.398 Q2050.54 141.398 2048.43 141.93 Q2046.32 142.463 2044.38 143.527 L2044.38 139.592 Q2046.72 138.69 2048.92 138.25 Q2051.12 137.787 2053.2 137.787 Q2058.82 137.787 2061.6 140.703 Q2064.38 143.62 2064.38 149.546 Z" fill="#000000" fill-rule="nonzero" fill-opacity="1" /><path clip-path="url(#clip380)" d="M2073.15 128.319 L2077.41 128.319 L2077.41 164.338 L2073.15 164.338 L2073.15 128.319 Z" fill="#000000" fill-rule="nonzero" fill-opacity="1" /><path clip-path="url(#clip380)" d="M2120.05 139.407 L2120.05 143.389 Q2118.24 142.393 2116.42 141.907 Q2114.61 141.398 2112.76 141.398 Q2108.61 141.398 2106.32 144.037 Q2104.03 146.652 2104.03 151.398 Q2104.03 156.143 2106.32 158.782 Q2108.61 161.398 2112.76 161.398 Q2114.61 161.398 2116.42 160.912 Q2118.24 160.402 2120.05 159.407 L2120.05 163.342 Q2118.27 164.176 2116.35 164.592 Q2114.45 165.009 2112.3 165.009 Q2106.44 165.009 2102.99 161.328 Q2099.54 157.648 2099.54 151.398 Q2099.54 145.055 2103.01 141.421 Q2106.51 137.787 2112.57 137.787 Q2114.54 137.787 2116.42 138.203 Q2118.29 138.597 2120.05 139.407 Z" fill="#000000" fill-rule="nonzero" fill-opacity="1" /><path clip-path="url(#clip380)" d="M2137.5 141.398 Q2134.08 141.398 2132.09 144.083 Q2130.1 146.745 2130.1 151.398 Q2130.1 156.051 2132.06 158.736 Q2134.05 161.398 2137.5 161.398 Q2140.91 161.398 2142.9 158.713 Q2144.89 156.027 2144.89 151.398 Q2144.89 146.791 2142.9 144.106 Q2140.91 141.398 2137.5 141.398 M2137.5 137.787 Q2143.06 137.787 2146.23 141.398 Q2149.4 145.009 2149.4 151.398 Q2149.4 157.764 2146.23 161.398 Q2143.06 165.009 2137.5 165.009 Q2131.92 165.009 2128.75 161.398 Q2125.61 157.764 2125.61 151.398 Q2125.61 145.009 2128.75 141.398 Q2131.92 137.787 2137.5 137.787 Z" fill="#000000" fill-rule="nonzero" fill-opacity="1" /><path clip-path="url(#clip380)" d="M2178.01 148.689 L2178.01 164.338 L2173.75 164.338 L2173.75 148.828 Q2173.75 145.148 2172.32 143.319 Q2170.88 141.49 2168.01 141.49 Q2164.56 141.49 2162.57 143.69 Q2160.58 145.889 2160.58 149.685 L2160.58 164.338 L2156.3 164.338 L2156.3 138.412 L2160.58 138.412 L2160.58 142.44 Q2162.11 140.102 2164.17 138.944 Q2166.25 137.787 2168.96 137.787 Q2173.43 137.787 2175.72 140.565 Q2178.01 143.319 2178.01 148.689 Z" fill="#000000" fill-rule="nonzero" fill-opacity="1" /><path clip-path="url(#clip380)" d="M2190.72 131.051 L2190.72 138.412 L2199.49 138.412 L2199.49 141.722 L2190.72 141.722 L2190.72 155.796 Q2190.72 158.967 2191.58 159.87 Q2192.46 160.773 2195.12 160.773 L2199.49 160.773 L2199.49 164.338 L2195.12 164.338 Q2190.19 164.338 2188.31 162.509 Q2186.44 160.657 2186.44 155.796 L2186.44 141.722 L2183.31 141.722 L2183.31 138.412 L2186.44 138.412 L2186.44 131.051 L2190.72 131.051 Z" fill="#000000" fill-rule="nonzero" fill-opacity="1" /><path clip-path="url(#clip380)" d="M2220.12 142.393 Q2219.4 141.977 2218.54 141.791 Q2217.71 141.583 2216.69 141.583 Q2213.08 141.583 2211.14 143.944 Q2209.22 146.282 2209.22 150.68 L2209.22 164.338 L2204.93 164.338 L2204.93 138.412 L2209.22 138.412 L2209.22 142.44 Q2210.56 140.078 2212.71 138.944 Q2214.86 137.787 2217.94 137.787 Q2218.38 137.787 2218.92 137.856 Q2219.45 137.903 2220.1 138.018 L2220.12 142.393 Z" fill="#000000" fill-rule="nonzero" fill-opacity="1" /><path clip-path="url(#clip380)" d="M2233.59 141.398 Q2230.16 141.398 2228.17 144.083 Q2226.18 146.745 2226.18 151.398 Q2226.18 156.051 2228.15 158.736 Q2230.14 161.398 2233.59 161.398 Q2236.99 161.398 2238.98 158.713 Q2240.98 156.027 2240.98 151.398 Q2240.98 146.791 2238.98 144.106 Q2236.99 141.398 2233.59 141.398 M2233.59 137.787 Q2239.15 137.787 2242.32 141.398 Q2245.49 145.009 2245.49 151.398 Q2245.49 157.764 2242.32 161.398 Q2239.15 165.009 2233.59 165.009 Q2228.01 165.009 2224.84 161.398 Q2221.69 157.764 2221.69 151.398 Q2221.69 145.009 2224.84 141.398 Q2228.01 137.787 2233.59 137.787 Z" fill="#000000" fill-rule="nonzero" fill-opacity="1" /><path clip-path="url(#clip380)" d="M2252.55 128.319 L2256.81 128.319 L2256.81 164.338 L2252.55 164.338 L2252.55 128.319 Z" fill="#000000" fill-rule="nonzero" fill-opacity="1" /></svg>
