<?xml version="1.0" encoding="utf-8"?>
<svg xmlns="http://www.w3.org/2000/svg" xmlns:xlink="http://www.w3.org/1999/xlink" width="600" height="400" viewBox="0 0 2400 1600">
<defs>
  <clipPath id="clip810">
    <rect x="0" y="0" width="2400" height="1600"/>
  </clipPath>
</defs>
<path clip-path="url(#clip810)" d="M0 1600 L2400 1600 L2400 0 L0 0  Z" fill="#ffffff" fill-rule="evenodd" fill-opacity="1"/>
<defs>
  <clipPath id="clip811">
    <rect x="480" y="0" width="1681" height="1600"/>
  </clipPath>
</defs>
<path clip-path="url(#clip810)" d="M147.108 1486.45 L2352.76 1486.45 L2352.76 47.2441 L147.108 47.2441  Z" fill="#ffffff" fill-rule="evenodd" fill-opacity="1"/>
<defs>
  <clipPath id="clip812">
    <rect x="147" y="47" width="2207" height="1440"/>
  </clipPath>
</defs>
<polyline clip-path="url(#clip812)" style="stroke:#000000; stroke-linecap:round; stroke-linejoin:round; stroke-width:2; stroke-opacity:0.1; fill:none" points="209.532,1486.45 209.532,47.2441 "/>
<polyline clip-path="url(#clip812)" style="stroke:#000000; stroke-linecap:round; stroke-linejoin:round; stroke-width:2; stroke-opacity:0.1; fill:none" points="729.732,1486.45 729.732,47.2441 "/>
<polyline clip-path="url(#clip812)" style="stroke:#000000; stroke-linecap:round; stroke-linejoin:round; stroke-width:2; stroke-opacity:0.1; fill:none" points="1249.93,1486.45 1249.93,47.2441 "/>
<polyline clip-path="url(#clip812)" style="stroke:#000000; stroke-linecap:round; stroke-linejoin:round; stroke-width:2; stroke-opacity:0.1; fill:none" points="1770.13,1486.45 1770.13,47.2441 "/>
<polyline clip-path="url(#clip812)" style="stroke:#000000; stroke-linecap:round; stroke-linejoin:round; stroke-width:2; stroke-opacity:0.1; fill:none" points="2290.33,1486.45 2290.33,47.2441 "/>
<polyline clip-path="url(#clip812)" style="stroke:#000000; stroke-linecap:round; stroke-linejoin:round; stroke-width:2; stroke-opacity:0.1; fill:none" points="147.108,1459.2 2352.76,1459.2 "/>
<polyline clip-path="url(#clip812)" style="stroke:#000000; stroke-linecap:round; stroke-linejoin:round; stroke-width:2; stroke-opacity:0.1; fill:none" points="147.108,1111.94 2352.76,1111.94 "/>
<polyline clip-path="url(#clip812)" style="stroke:#000000; stroke-linecap:round; stroke-linejoin:round; stroke-width:2; stroke-opacity:0.1; fill:none" points="147.108,764.668 2352.76,764.668 "/>
<polyline clip-path="url(#clip812)" style="stroke:#000000; stroke-linecap:round; stroke-linejoin:round; stroke-width:2; stroke-opacity:0.1; fill:none" points="147.108,417.4 2352.76,417.4 "/>
<polyline clip-path="url(#clip812)" style="stroke:#000000; stroke-linecap:round; stroke-linejoin:round; stroke-width:2; stroke-opacity:0.1; fill:none" points="147.108,70.1314 2352.76,70.1314 "/>
<polyline clip-path="url(#clip810)" style="stroke:#000000; stroke-linecap:round; stroke-linejoin:round; stroke-width:4; stroke-opacity:1; fill:none" points="147.108,1486.45 2352.76,1486.45 "/>
<polyline clip-path="url(#clip810)" style="stroke:#000000; stroke-linecap:round; stroke-linejoin:round; stroke-width:4; stroke-opacity:1; fill:none" points="209.532,1486.45 209.532,1467.55 "/>
<polyline clip-path="url(#clip810)" style="stroke:#000000; stroke-linecap:round; stroke-linejoin:round; stroke-width:4; stroke-opacity:1; fill:none" points="729.732,1486.45 729.732,1467.55 "/>
<polyline clip-path="url(#clip810)" style="stroke:#000000; stroke-linecap:round; stroke-linejoin:round; stroke-width:4; stroke-opacity:1; fill:none" points="1249.93,1486.45 1249.93,1467.55 "/>
<polyline clip-path="url(#clip810)" style="stroke:#000000; stroke-linecap:round; stroke-linejoin:round; stroke-width:4; stroke-opacity:1; fill:none" points="1770.13,1486.45 1770.13,1467.55 "/>
<polyline clip-path="url(#clip810)" style="stroke:#000000; stroke-linecap:round; stroke-linejoin:round; stroke-width:4; stroke-opacity:1; fill:none" points="2290.33,1486.45 2290.33,1467.55 "/>
<path clip-path="url(#clip810)" d="M209.532 1517.37 Q205.92 1517.37 204.092 1520.93 Q202.286 1524.47 202.286 1531.6 Q202.286 1538.71 204.092 1542.27 Q205.92 1545.82 209.532 1545.82 Q213.166 1545.82 214.971 1542.27 Q216.8 1538.71 216.8 1531.6 Q216.8 1524.47 214.971 1520.93 Q213.166 1517.37 209.532 1517.37 M209.532 1513.66 Q215.342 1513.66 218.397 1518.27 Q221.476 1522.85 221.476 1531.6 Q221.476 1540.33 218.397 1544.94 Q215.342 1549.52 209.532 1549.52 Q203.721 1549.52 200.643 1544.94 Q197.587 1540.33 197.587 1531.6 Q197.587 1522.85 200.643 1518.27 Q203.721 1513.66 209.532 1513.66 Z" fill="#000000" fill-rule="nonzero" fill-opacity="1" /><path clip-path="url(#clip810)" d="M724.384 1544.91 L740.704 1544.91 L740.704 1548.85 L718.759 1548.85 L718.759 1544.91 Q721.421 1542.16 726.005 1537.53 Q730.611 1532.88 731.792 1531.53 Q734.037 1529.01 734.917 1527.27 Q735.82 1525.51 735.82 1523.82 Q735.82 1521.07 733.875 1519.33 Q731.954 1517.6 728.852 1517.6 Q726.653 1517.6 724.199 1518.36 Q721.769 1519.13 718.991 1520.68 L718.991 1515.95 Q721.815 1514.82 724.269 1514.24 Q726.722 1513.66 728.759 1513.66 Q734.13 1513.66 737.324 1516.35 Q740.519 1519.03 740.519 1523.52 Q740.519 1525.65 739.708 1527.57 Q738.921 1529.47 736.815 1532.07 Q736.236 1532.74 733.134 1535.95 Q730.033 1539.15 724.384 1544.91 Z" fill="#000000" fill-rule="nonzero" fill-opacity="1" /><path clip-path="url(#clip810)" d="M1252.94 1518.36 L1241.14 1536.81 L1252.94 1536.81 L1252.94 1518.36 M1251.71 1514.29 L1257.59 1514.29 L1257.59 1536.81 L1262.52 1536.81 L1262.52 1540.7 L1257.59 1540.7 L1257.59 1548.85 L1252.94 1548.85 L1252.94 1540.7 L1237.34 1540.7 L1237.34 1536.19 L1251.71 1514.29 Z" fill="#000000" fill-rule="nonzero" fill-opacity="1" /><path clip-path="url(#clip810)" d="M1770.54 1529.7 Q1767.39 1529.7 1765.54 1531.86 Q1763.71 1534.01 1763.71 1537.76 Q1763.71 1541.49 1765.54 1543.66 Q1767.39 1545.82 1770.54 1545.82 Q1773.69 1545.82 1775.51 1543.66 Q1777.37 1541.49 1777.37 1537.76 Q1777.37 1534.01 1775.51 1531.86 Q1773.69 1529.7 1770.54 1529.7 M1779.82 1515.05 L1779.82 1519.31 Q1778.06 1518.48 1776.25 1518.04 Q1774.47 1517.6 1772.71 1517.6 Q1768.08 1517.6 1765.63 1520.72 Q1763.2 1523.85 1762.85 1530.17 Q1764.22 1528.15 1766.28 1527.09 Q1768.34 1526 1770.81 1526 Q1776.02 1526 1779.03 1529.17 Q1782.06 1532.32 1782.06 1537.76 Q1782.06 1543.08 1778.92 1546.3 Q1775.77 1549.52 1770.54 1549.52 Q1764.54 1549.52 1761.37 1544.94 Q1758.2 1540.33 1758.2 1531.6 Q1758.2 1523.41 1762.09 1518.55 Q1765.98 1513.66 1772.53 1513.66 Q1774.29 1513.66 1776.07 1514.01 Q1777.87 1514.36 1779.82 1515.05 Z" fill="#000000" fill-rule="nonzero" fill-opacity="1" /><path clip-path="url(#clip810)" d="M2290.33 1532.44 Q2287 1532.44 2285.08 1534.22 Q2283.18 1536 2283.18 1539.13 Q2283.18 1542.25 2285.08 1544.03 Q2287 1545.82 2290.33 1545.82 Q2293.67 1545.82 2295.59 1544.03 Q2297.51 1542.23 2297.51 1539.13 Q2297.51 1536 2295.59 1534.22 Q2293.69 1532.44 2290.33 1532.44 M2285.66 1530.45 Q2282.65 1529.7 2280.96 1527.64 Q2279.29 1525.58 2279.29 1522.62 Q2279.29 1518.48 2282.23 1516.07 Q2285.19 1513.66 2290.33 1513.66 Q2295.49 1513.66 2298.43 1516.07 Q2301.37 1518.48 2301.37 1522.62 Q2301.37 1525.58 2299.68 1527.64 Q2298.02 1529.7 2295.03 1530.45 Q2298.41 1531.23 2300.29 1533.52 Q2302.18 1535.82 2302.18 1539.13 Q2302.18 1544.15 2299.1 1546.83 Q2296.05 1549.52 2290.33 1549.52 Q2284.61 1549.52 2281.54 1546.83 Q2278.48 1544.15 2278.48 1539.13 Q2278.48 1535.82 2280.38 1533.52 Q2282.28 1531.23 2285.66 1530.45 M2283.94 1523.06 Q2283.94 1525.75 2285.61 1527.25 Q2287.3 1528.76 2290.33 1528.76 Q2293.34 1528.76 2295.03 1527.25 Q2296.74 1525.75 2296.74 1523.06 Q2296.74 1520.38 2295.03 1518.87 Q2293.34 1517.37 2290.33 1517.37 Q2287.3 1517.37 2285.61 1518.87 Q2283.94 1520.38 2283.94 1523.06 Z" fill="#000000" fill-rule="nonzero" fill-opacity="1" /><polyline clip-path="url(#clip810)" style="stroke:#000000; stroke-linecap:round; stroke-linejoin:round; stroke-width:4; stroke-opacity:1; fill:none" points="147.108,1486.45 147.108,47.2441 "/>
<polyline clip-path="url(#clip810)" style="stroke:#000000; stroke-linecap:round; stroke-linejoin:round; stroke-width:4; stroke-opacity:1; fill:none" points="147.108,1459.2 166.005,1459.2 "/>
<polyline clip-path="url(#clip810)" style="stroke:#000000; stroke-linecap:round; stroke-linejoin:round; stroke-width:4; stroke-opacity:1; fill:none" points="147.108,1111.94 166.005,1111.94 "/>
<polyline clip-path="url(#clip810)" style="stroke:#000000; stroke-linecap:round; stroke-linejoin:round; stroke-width:4; stroke-opacity:1; fill:none" points="147.108,764.668 166.005,764.668 "/>
<polyline clip-path="url(#clip810)" style="stroke:#000000; stroke-linecap:round; stroke-linejoin:round; stroke-width:4; stroke-opacity:1; fill:none" points="147.108,417.4 166.005,417.4 "/>
<polyline clip-path="url(#clip810)" style="stroke:#000000; stroke-linecap:round; stroke-linejoin:round; stroke-width:4; stroke-opacity:1; fill:none" points="147.108,70.1314 166.005,70.1314 "/>
<path clip-path="url(#clip810)" d="M50.9921 1459.66 L80.6679 1459.66 L80.6679 1463.59 L50.9921 1463.59 L50.9921 1459.66 Z" fill="#000000" fill-rule="nonzero" fill-opacity="1" /><path clip-path="url(#clip810)" d="M94.7882 1472.55 L111.108 1472.55 L111.108 1476.48 L89.1632 1476.48 L89.1632 1472.55 Q91.8252 1469.79 96.4085 1465.16 Q101.015 1460.51 102.196 1459.17 Q104.441 1456.65 105.321 1454.91 Q106.223 1453.15 106.223 1451.46 Q106.223 1448.71 104.279 1446.97 Q102.358 1445.23 99.2558 1445.23 Q97.0567 1445.23 94.603 1446 Q92.1725 1446.76 89.3947 1448.31 L89.3947 1443.59 Q92.2188 1442.46 94.6724 1441.88 Q97.1261 1441.3 99.1632 1441.3 Q104.534 1441.3 107.728 1443.98 Q110.922 1446.67 110.922 1451.16 Q110.922 1453.29 110.112 1455.21 Q109.325 1457.11 107.219 1459.7 Q106.64 1460.37 103.538 1463.59 Q100.436 1466.79 94.7882 1472.55 Z" fill="#000000" fill-rule="nonzero" fill-opacity="1" /><path clip-path="url(#clip810)" d="M99.1632 1097.73 Q95.5521 1097.73 93.7234 1101.3 Q91.9178 1104.84 91.9178 1111.97 Q91.9178 1119.08 93.7234 1122.64 Q95.5521 1126.18 99.1632 1126.18 Q102.797 1126.18 104.603 1122.64 Q106.432 1119.08 106.432 1111.97 Q106.432 1104.84 104.603 1101.3 Q102.797 1097.73 99.1632 1097.73 M99.1632 1094.03 Q104.973 1094.03 108.029 1098.64 Q111.108 1103.22 111.108 1111.97 Q111.108 1120.7 108.029 1125.3 Q104.973 1129.89 99.1632 1129.89 Q93.353 1129.89 90.2743 1125.3 Q87.2188 1120.7 87.2188 1111.97 Q87.2188 1103.22 90.2743 1098.64 Q93.353 1094.03 99.1632 1094.03 Z" fill="#000000" fill-rule="nonzero" fill-opacity="1" /><path clip-path="url(#clip810)" d="M94.7882 778.013 L111.108 778.013 L111.108 781.948 L89.1632 781.948 L89.1632 778.013 Q91.8252 775.258 96.4085 770.628 Q101.015 765.976 102.196 764.633 Q104.441 762.11 105.321 760.374 Q106.223 758.615 106.223 756.925 Q106.223 754.17 104.279 752.434 Q102.358 750.698 99.2558 750.698 Q97.0567 750.698 94.603 751.462 Q92.1725 752.226 89.3947 753.777 L89.3947 749.054 Q92.2188 747.92 94.6724 747.342 Q97.1261 746.763 99.1632 746.763 Q104.534 746.763 107.728 749.448 Q110.922 752.133 110.922 756.624 Q110.922 758.753 110.112 760.675 Q109.325 762.573 107.219 765.165 Q106.64 765.837 103.538 769.054 Q100.436 772.249 94.7882 778.013 Z" fill="#000000" fill-rule="nonzero" fill-opacity="1" /><path clip-path="url(#clip810)" d="M101.524 404.194 L89.7188 422.643 L101.524 422.643 L101.524 404.194 M100.297 400.12 L106.177 400.12 L106.177 422.643 L111.108 422.643 L111.108 426.531 L106.177 426.531 L106.177 434.68 L101.524 434.68 L101.524 426.531 L85.9225 426.531 L85.9225 422.018 L100.297 400.12 Z" fill="#000000" fill-rule="nonzero" fill-opacity="1" /><path clip-path="url(#clip810)" d="M99.5798 68.2679 Q96.4317 68.2679 94.5799 70.4207 Q92.7512 72.5735 92.7512 76.3235 Q92.7512 80.0503 94.5799 82.2262 Q96.4317 84.379 99.5798 84.379 Q102.728 84.379 104.557 82.2262 Q106.408 80.0503 106.408 76.3235 Q106.408 72.5735 104.557 70.4207 Q102.728 68.2679 99.5798 68.2679 M108.862 53.6152 L108.862 57.8745 Q107.103 57.0411 105.297 56.6013 Q103.515 56.1615 101.756 56.1615 Q97.1261 56.1615 94.6724 59.2865 Q92.2419 62.4115 91.8947 68.7309 Q93.2604 66.717 95.3206 65.6522 Q97.3808 64.5643 99.8576 64.5643 Q105.066 64.5643 108.075 67.7355 Q111.108 70.8837 111.108 76.3235 Q111.108 81.6475 107.959 84.8651 Q104.811 88.0826 99.5798 88.0826 Q93.5845 88.0826 90.4132 83.4993 Q87.2419 78.8929 87.2419 70.1661 Q87.2419 61.9717 91.1308 57.1106 Q95.0197 52.2264 101.571 52.2264 Q103.33 52.2264 105.112 52.5736 Q106.918 52.9208 108.862 53.6152 Z" fill="#000000" fill-rule="nonzero" fill-opacity="1" /><polyline clip-path="url(#clip812)" style="stroke:#800080; stroke-linecap:round; stroke-linejoin:round; stroke-width:8; stroke-opacity:1; fill:none" points="209.532,946.52 214.721,946.52 219.91,946.52 225.099,946.52 230.288,946.52 235.477,946.52 240.666,946.52 245.855,946.52 251.044,946.52 256.233,946.52 261.422,946.52 266.611,946.52 271.8,946.52 276.989,946.52 282.178,946.52 287.367,946.52 292.556,946.52 297.745,946.52 302.934,946.52 308.123,946.52 313.312,946.52 318.501,946.52 323.69,946.52 328.879,946.52 334.068,946.52 339.257,946.52 344.446,946.52 349.635,946.52 354.824,946.52 360.013,946.52 365.202,946.52 370.391,946.52 375.58,946.52 380.769,946.52 385.959,946.52 391.148,946.52 396.337,946.52 401.526,946.52 406.715,946.52 411.904,946.52 417.093,946.52 422.282,946.52 427.471,946.52 432.66,946.52 437.849,946.52 443.038,946.52 448.227,946.52 453.416,946.52 458.605,946.52 463.794,946.52 468.983,946.52 474.172,946.52 479.361,946.52 484.55,946.52 489.739,946.52 494.928,946.52 500.117,946.52 505.306,946.52 510.495,946.52 515.684,946.52 520.873,946.52 526.062,946.52 531.251,946.52 536.44,946.52 541.629,946.52 546.818,946.52 552.007,946.52 557.196,946.52 562.385,946.52 567.575,946.52 572.764,946.52 577.953,946.52 583.142,946.52 588.331,946.52 593.52,946.52 598.709,946.52 603.898,946.52 609.087,946.52 614.276,946.52 619.465,946.52 624.654,946.52 629.843,946.52 635.032,946.52 640.221,946.52 645.41,946.52 650.599,946.52 655.788,946.52 660.977,946.52 666.166,946.52 671.355,946.52 676.544,946.52 681.733,946.52 686.922,946.52 692.111,946.52 697.3,946.52 702.489,946.52 707.678,946.52 712.867,946.52 718.056,946.52 723.245,946.52 728.434,946.52 733.623,946.52 738.812,946.52 744.001,946.52 749.19,946.52 754.38,946.52 759.569,946.52 764.758,946.52 769.947,946.52 775.136,946.52 780.325,946.52 785.514,946.52 790.703,946.52 795.892,946.52 801.081,946.52 806.27,946.52 811.459,946.52 816.648,946.52 821.837,946.52 827.026,946.52 832.215,946.52 837.404,946.52 842.593,946.52 847.782,946.52 852.971,946.52 858.16,946.52 863.349,946.52 868.538,946.52 873.727,946.52 878.916,946.52 884.105,946.52 889.294,946.52 894.483,946.52 899.672,946.52 904.861,946.52 910.05,946.52 915.239,946.52 920.428,946.52 925.617,946.52 930.806,946.52 935.996,946.52 941.185,946.52 946.374,946.52 951.563,946.52 956.752,946.52 961.941,946.515 967.13,946.456 972.319,945.743 977.508,938.174 982.697,927.751 987.886,934.183 993.075,941.162 998.264,941.793 1003.45,941.838 1008.64,941.841 1013.83,941.841 1019.02,941.841 1024.21,941.841 1029.4,941.841 1034.59,941.841 1039.78,941.841 1044.97,941.841 1050.15,941.841 1055.34,941.841 1060.53,941.841 1065.72,941.841 1070.91,941.841 1076.1,941.841 1081.29,941.841 1086.48,941.841 1091.67,941.841 1096.86,941.841 1102.04,941.841 1107.23,941.841 1112.42,941.841 1117.61,941.841 1122.8,941.841 1127.99,941.841 1133.18,941.841 1138.37,941.841 1143.56,941.841 1148.75,941.841 1153.93,941.841 1159.12,941.841 1164.31,941.841 1169.5,941.841 1174.69,941.841 1179.88,941.841 1185.07,941.841 1190.26,941.841 1195.45,941.841 1200.64,941.841 1205.82,941.841 1211.01,941.841 1216.2,941.841 1221.39,941.841 1226.58,941.841 1231.77,941.841 1236.96,941.841 1242.15,941.841 1247.34,941.841 1252.53,941.841 1257.72,941.841 1262.9,941.841 1268.09,941.841 1273.28,941.841 1278.47,941.841 1283.66,941.841 1288.85,941.841 1294.04,941.841 1299.23,941.841 1304.42,941.83 1309.61,941.465 1314.79,934.599 1319.98,933.093 1325.17,939.993 1330.36,940.269 1335.55,940.276 1340.74,940.276 1345.93,940.276 1351.12,940.276 1356.31,940.276 1361.5,940.276 1366.68,940.276 1371.87,940.276 1377.06,940.276 1382.25,940.276 1387.44,940.276 1392.63,940.276 1397.82,940.276 1403.01,940.276 1408.2,940.276 1413.39,940.276 1418.58,940.276 1423.76,940.276 1428.95,940.276 1434.14,940.276 1439.33,940.276 1444.52,940.276 1449.71,940.276 1454.9,940.276 1460.09,940.276 1465.28,940.276 1470.47,940.276 1475.65,940.276 1480.84,940.276 1486.03,940.276 1491.22,940.276 1496.41,940.276 1501.6,940.276 1506.79,940.276 1511.98,940.276 1517.17,940.276 1522.36,940.276 1527.54,940.276 1532.73,940.276 1537.92,940.276 1543.11,940.276 1548.3,940.276 1553.49,940.276 1558.68,940.276 1563.87,940.276 1569.06,940.276 1574.25,940.276 1579.44,940.276 1584.62,940.276 1589.81,940.276 1595,940.276 1600.19,940.276 1605.38,940.276 1610.57,940.276 1615.76,940.276 1620.95,940.276 1626.14,940.276 1631.33,940.276 1636.51,940.276 1641.7,940.276 1646.89,940.276 1652.08,940.276 1657.27,940.276 1662.46,940.276 1667.65,940.276 1672.84,940.276 1678.03,940.276 1683.22,940.276 1688.4,940.276 1693.59,940.276 1698.78,940.276 1703.97,940.276 1709.16,940.276 1714.35,940.276 1719.54,940.276 1724.73,940.276 1729.92,940.276 1735.11,940.276 1740.29,940.276 1745.48,940.276 1750.67,940.276 1755.86,940.276 1761.05,940.276 1766.24,940.276 1771.43,940.276 1776.62,940.276 1781.81,940.271 1787,939.791 1792.19,938.283 1797.37,938.092 1802.56,938.091 1807.75,938.091 1812.94,938.091 1818.13,938.091 1823.32,938.091 1828.51,938.091 1833.7,938.091 1838.89,938.091 1844.08,938.091 1849.26,938.091 1854.45,938.091 1859.64,938.091 1864.83,938.091 1870.02,938.091 1875.21,938.091 1880.4,938.091 1885.59,938.091 1890.78,938.091 1895.97,938.091 1901.15,938.091 1906.34,938.091 1911.53,938.091 1916.72,938.091 1921.91,938.091 1927.1,938.091 1932.29,938.091 1937.48,938.091 1942.67,938.091 1947.86,938.091 1953.05,938.091 1958.23,938.091 1963.42,938.091 1968.61,938.091 1973.8,938.091 1978.99,938.091 1984.18,938.091 1989.37,938.091 1994.56,938.091 1999.75,938.083 2004.94,937.592 2010.12,935.267 2015.31,938.255 2020.5,938.301 2025.69,938.302 2030.88,938.302 2036.07,938.302 2041.26,938.302 2046.45,938.302 2051.64,938.302 2056.83,938.302 2062.01,938.302 2067.2,938.302 2072.39,938.302 2077.58,938.302 2082.77,938.302 2087.96,938.302 2093.15,938.302 2098.34,938.302 2103.53,938.302 2108.72,938.302 2113.9,938.302 2119.09,938.302 2124.28,938.302 2129.47,938.302 2134.66,938.302 2139.85,938.302 2145.04,938.302 2150.23,938.302 2155.42,938.302 2160.61,938.302 2165.8,938.302 2170.98,938.302 2176.17,938.302 2181.36,938.302 2186.55,938.302 2191.74,938.302 2196.93,938.302 2202.12,938.302 2207.31,938.302 2212.5,938.302 2217.69,938.302 2222.87,938.302 2228.06,938.302 2233.25,938.302 2238.44,938.302 2243.63,938.302 2248.82,938.302 2254.01,938.302 2259.2,938.302 2264.39,938.302 2269.58,938.302 2274.76,938.302 2279.95,938.302 2285.14,938.302 2290.33,938.302 "/>
<polyline clip-path="url(#clip812)" style="stroke:#ee82ee; stroke-linecap:round; stroke-linejoin:round; stroke-width:8; stroke-opacity:1; fill:none" points="209.532,87.9763 214.721,91.2763 219.91,94.5764 225.099,97.8765 230.288,101.177 235.477,104.477 240.666,107.777 245.855,111.077 251.044,114.377 256.233,117.677 261.422,120.977 266.611,124.277 271.8,127.577 276.989,130.877 282.178,134.177 287.367,137.477 292.556,140.777 297.745,144.077 302.934,147.378 308.123,150.678 313.312,153.978 318.501,157.278 323.69,160.578 328.879,163.878 334.068,167.178 339.257,170.478 344.446,173.778 349.635,177.078 354.824,180.378 360.013,183.678 365.202,186.978 370.391,190.278 375.58,193.579 380.769,196.879 385.959,200.179 391.148,203.479 396.337,206.779 401.526,210.079 406.715,213.379 411.904,216.679 417.093,219.979 422.282,223.279 427.471,226.579 432.66,229.879 437.849,233.179 443.038,236.479 448.227,239.779 453.416,243.08 458.605,246.38 463.794,249.68 468.983,252.98 474.172,256.28 479.361,259.58 484.55,262.88 489.739,266.18 494.928,269.48 500.117,272.78 505.306,276.08 510.495,279.38 515.684,282.68 520.873,285.98 526.062,289.281 531.251,292.581 536.44,295.881 541.629,299.181 546.818,302.481 552.007,305.781 557.196,309.081 562.385,312.381 567.575,315.681 572.764,318.981 577.953,322.281 583.142,325.581 588.331,328.881 593.52,332.181 598.709,335.482 603.898,338.782 609.087,342.082 614.276,345.382 619.465,348.682 624.654,351.982 629.843,355.282 635.032,358.582 640.221,361.882 645.41,365.182 650.599,368.482 655.788,371.782 660.977,375.082 666.166,378.382 671.355,381.683 676.544,384.983 681.733,388.283 686.922,391.583 692.111,394.883 697.3,398.183 702.489,401.483 707.678,404.783 712.867,408.083 718.056,411.383 723.245,414.683 728.434,417.983 733.623,421.283 738.812,424.583 744.001,427.883 749.19,431.184 754.38,434.484 759.569,437.784 764.758,441.084 769.947,444.384 775.136,447.684 780.325,450.984 785.514,454.284 790.703,457.584 795.892,460.884 801.081,464.184 806.27,467.484 811.459,470.784 816.648,474.084 821.837,477.385 827.026,480.685 832.215,483.985 837.404,487.285 842.593,490.585 847.782,493.885 852.971,497.185 858.16,500.485 863.349,503.785 868.538,507.085 873.727,510.385 878.916,513.685 884.105,516.985 889.294,520.285 894.483,523.586 899.672,526.886 904.861,530.186 910.05,533.486 915.239,536.786 920.428,540.086 925.617,543.386 930.806,546.686 935.996,549.986 941.185,553.286 946.374,556.586 951.563,559.886 956.752,563.186 961.941,566.486 967.13,569.787 972.319,573.096 977.508,576.487 982.697,580.058 987.886,583.668 993.075,587.144 998.264,590.545 1003.45,593.939 1008.64,597.332 1013.83,600.726 1019.02,604.119 1024.21,607.513 1029.4,610.906 1034.59,614.299 1039.78,617.693 1044.97,621.086 1050.15,624.48 1055.34,627.873 1060.53,631.266 1065.72,634.66 1070.91,638.053 1076.1,641.447 1081.29,644.84 1086.48,648.234 1091.67,651.627 1096.86,655.02 1102.04,658.414 1107.23,661.807 1112.42,665.201 1117.61,668.594 1122.8,671.987 1127.99,675.381 1133.18,678.774 1138.37,682.168 1143.56,685.561 1148.75,688.955 1153.93,692.348 1159.12,695.741 1164.31,699.135 1169.5,702.528 1174.69,705.922 1179.88,709.315 1185.07,712.708 1190.26,716.102 1195.45,719.495 1200.64,722.889 1205.82,726.282 1211.01,729.676 1216.2,733.069 1221.39,736.462 1226.58,739.856 1231.77,743.249 1236.96,746.643 1242.15,750.036 1247.34,753.429 1252.53,756.823 1257.72,760.216 1262.9,763.61 1268.09,767.003 1273.28,770.397 1278.47,773.79 1283.66,777.183 1288.85,780.577 1294.04,783.97 1299.23,787.364 1304.42,790.757 1309.61,794.154 1314.79,797.624 1319.98,801.177 1325.17,804.676 1330.36,808.103 1335.55,811.528 1340.74,814.953 1345.93,818.377 1351.12,821.802 1356.31,825.227 1361.5,828.651 1366.68,832.076 1371.87,835.5 1377.06,838.925 1382.25,842.35 1387.44,845.774 1392.63,849.199 1397.82,852.624 1403.01,856.048 1408.2,859.473 1413.39,862.898 1418.58,866.322 1423.76,869.747 1428.95,873.171 1434.14,876.596 1439.33,880.021 1444.52,883.445 1449.71,886.87 1454.9,890.295 1460.09,893.719 1465.28,897.144 1470.47,900.568 1475.65,903.993 1480.84,907.418 1486.03,910.842 1491.22,914.267 1496.41,917.692 1501.6,921.116 1506.79,924.541 1511.98,927.966 1517.17,931.39 1522.36,934.815 1527.54,938.239 1532.73,941.664 1537.92,945.089 1543.11,948.513 1548.3,951.938 1553.49,955.363 1558.68,958.787 1563.87,962.212 1569.06,965.636 1574.25,969.061 1579.44,972.486 1584.62,975.91 1589.81,979.335 1595,982.76 1600.19,986.184 1605.38,989.609 1610.57,993.034 1615.76,996.458 1620.95,999.883 1626.14,1003.31 1631.33,1006.73 1636.51,1010.16 1641.7,1013.58 1646.89,1017.01 1652.08,1020.43 1657.27,1023.86 1662.46,1027.28 1667.65,1030.7 1672.84,1034.13 1678.03,1037.55 1683.22,1040.98 1688.4,1044.4 1693.59,1047.83 1698.78,1051.25 1703.97,1054.68 1709.16,1058.1 1714.35,1061.53 1719.54,1064.95 1724.73,1068.38 1729.92,1071.8 1735.11,1075.22 1740.29,1078.65 1745.48,1082.07 1750.67,1085.5 1755.86,1088.92 1761.05,1092.35 1766.24,1095.77 1771.43,1099.2 1776.62,1102.62 1781.81,1106.05 1787,1109.48 1792.19,1112.93 1797.37,1116.39 1802.56,1119.86 1807.75,1123.33 1812.94,1126.8 1818.13,1130.26 1823.32,1133.73 1828.51,1137.2 1833.7,1140.67 1838.89,1144.14 1844.08,1147.61 1849.26,1151.07 1854.45,1154.54 1859.64,1158.01 1864.83,1161.48 1870.02,1164.95 1875.21,1168.42 1880.4,1171.88 1885.59,1175.35 1890.78,1178.82 1895.97,1182.29 1901.15,1185.76 1906.34,1189.22 1911.53,1192.69 1916.72,1196.16 1921.91,1199.63 1927.1,1203.1 1932.29,1206.57 1937.48,1210.03 1942.67,1213.5 1947.86,1216.97 1953.05,1220.44 1958.23,1223.91 1963.42,1227.37 1968.61,1230.84 1973.8,1234.31 1978.99,1237.78 1984.18,1241.25 1989.37,1244.72 1994.56,1248.18 1999.75,1251.65 2004.94,1255.13 2010.12,1258.63 2015.31,1262.12 2020.5,1265.59 2025.69,1269.05 2030.88,1272.51 2036.07,1275.98 2041.26,1279.44 2046.45,1282.91 2051.64,1286.37 2056.83,1289.83 2062.01,1293.3 2067.2,1296.76 2072.39,1300.23 2077.58,1303.69 2082.77,1307.15 2087.96,1310.62 2093.15,1314.08 2098.34,1317.55 2103.53,1321.01 2108.72,1324.47 2113.9,1327.94 2119.09,1331.4 2124.28,1334.87 2129.47,1338.33 2134.66,1341.8 2139.85,1345.26 2145.04,1348.72 2150.23,1352.19 2155.42,1355.65 2160.61,1359.12 2165.8,1362.58 2170.98,1366.04 2176.17,1369.51 2181.36,1372.97 2186.55,1376.44 2191.74,1379.9 2196.93,1383.36 2202.12,1386.83 2207.31,1390.29 2212.5,1393.76 2217.69,1397.22 2222.87,1400.68 2228.06,1404.15 2233.25,1407.61 2238.44,1411.08 2243.63,1414.54 2248.82,1418 2254.01,1421.47 2259.2,1424.93 2264.39,1428.4 2269.58,1431.86 2274.76,1435.32 2279.95,1438.79 2285.14,1442.25 2290.33,1445.72 "/>
<path clip-path="url(#clip810)" d="M1815.18 250.738 L2279.23 250.738 L2279.23 95.2176 L1815.18 95.2176  Z" fill="#ffffff" fill-rule="evenodd" fill-opacity="1"/>
<polyline clip-path="url(#clip810)" style="stroke:#000000; stroke-linecap:round; stroke-linejoin:round; stroke-width:4; stroke-opacity:1; fill:none" points="1815.18,250.738 2279.23,250.738 2279.23,95.2176 1815.18,95.2176 1815.18,250.738 "/>
<polyline clip-path="url(#clip810)" style="stroke:#800080; stroke-linecap:round; stroke-linejoin:round; stroke-width:8; stroke-opacity:1; fill:none" points="1839.68,147.058 1986.73,147.058 "/>
<path clip-path="url(#clip810)" d="M2031.74 139.407 L2031.74 143.389 Q2029.94 142.393 2028.11 141.907 Q2026.3 141.398 2024.45 141.398 Q2020.31 141.398 2018.02 144.037 Q2015.72 146.652 2015.72 151.398 Q2015.72 156.143 2018.02 158.782 Q2020.31 161.398 2024.45 161.398 Q2026.3 161.398 2028.11 160.912 Q2029.94 160.402 2031.74 159.407 L2031.74 163.342 Q2029.96 164.176 2028.04 164.592 Q2026.14 165.009 2023.99 165.009 Q2018.13 165.009 2014.68 161.328 Q2011.23 157.648 2011.23 151.398 Q2011.23 145.055 2014.71 141.421 Q2018.2 137.787 2024.27 137.787 Q2026.23 137.787 2028.11 138.203 Q2029.98 138.597 2031.74 139.407 Z" fill="#000000" fill-rule="nonzero" fill-opacity="1" /><path clip-path="url(#clip810)" d="M2049.2 141.398 Q2045.77 141.398 2043.78 144.083 Q2041.79 146.745 2041.79 151.398 Q2041.79 156.051 2043.76 158.736 Q2045.75 161.398 2049.2 161.398 Q2052.6 161.398 2054.59 158.713 Q2056.58 156.027 2056.58 151.398 Q2056.58 146.791 2054.59 144.106 Q2052.6 141.398 2049.2 141.398 M2049.2 137.787 Q2054.75 137.787 2057.92 141.398 Q2061.09 145.009 2061.09 151.398 Q2061.09 157.764 2057.92 161.398 Q2054.75 165.009 2049.2 165.009 Q2043.62 165.009 2040.45 161.398 Q2037.3 157.764 2037.3 151.398 Q2037.3 145.009 2040.45 141.398 Q2043.62 137.787 2049.2 137.787 Z" fill="#000000" fill-rule="nonzero" fill-opacity="1" /><path clip-path="url(#clip810)" d="M2084.68 139.176 L2084.68 143.203 Q2082.88 142.277 2080.93 141.815 Q2078.99 141.352 2076.9 141.352 Q2073.73 141.352 2072.14 142.324 Q2070.56 143.296 2070.56 145.24 Q2070.56 146.722 2071.7 147.578 Q2072.83 148.412 2076.26 149.176 L2077.71 149.5 Q2082.25 150.472 2084.15 152.254 Q2086.07 154.014 2086.07 157.185 Q2086.07 160.796 2083.2 162.902 Q2080.35 165.009 2075.35 165.009 Q2073.27 165.009 2071 164.592 Q2068.76 164.199 2066.26 163.388 L2066.26 158.99 Q2068.62 160.217 2070.91 160.842 Q2073.2 161.444 2075.45 161.444 Q2078.45 161.444 2080.08 160.426 Q2081.7 159.384 2081.7 157.509 Q2081.7 155.773 2080.52 154.847 Q2079.36 153.921 2075.4 153.064 L2073.92 152.717 Q2069.96 151.884 2068.2 150.171 Q2066.44 148.435 2066.44 145.426 Q2066.44 141.768 2069.03 139.778 Q2071.63 137.787 2076.39 137.787 Q2078.76 137.787 2080.84 138.134 Q2082.92 138.481 2084.68 139.176 Z" fill="#000000" fill-rule="nonzero" fill-opacity="1" /><path clip-path="url(#clip810)" d="M2097.07 131.051 L2097.07 138.412 L2105.84 138.412 L2105.84 141.722 L2097.07 141.722 L2097.07 155.796 Q2097.07 158.967 2097.92 159.87 Q2098.8 160.773 2101.46 160.773 L2105.84 160.773 L2105.84 164.338 L2101.46 164.338 Q2096.53 164.338 2094.66 162.509 Q2092.78 160.657 2092.78 155.796 L2092.78 141.722 L2089.66 141.722 L2089.66 138.412 L2092.78 138.412 L2092.78 131.051 L2097.07 131.051 Z" fill="#000000" fill-rule="nonzero" fill-opacity="1" /><path clip-path="url(#clip810)" d="M2123.22 151.305 Q2118.06 151.305 2116.07 152.486 Q2114.08 153.666 2114.08 156.514 Q2114.08 158.782 2115.56 160.125 Q2117.07 161.444 2119.64 161.444 Q2123.18 161.444 2125.31 158.944 Q2127.46 156.421 2127.46 152.254 L2127.46 151.305 L2123.22 151.305 M2131.72 149.546 L2131.72 164.338 L2127.46 164.338 L2127.46 160.402 Q2126 162.763 2123.83 163.898 Q2121.65 165.009 2118.5 165.009 Q2114.52 165.009 2112.16 162.787 Q2109.82 160.541 2109.82 156.791 Q2109.82 152.416 2112.74 150.194 Q2115.68 147.972 2121.49 147.972 L2127.46 147.972 L2127.46 147.555 Q2127.46 144.615 2125.51 143.018 Q2123.59 141.398 2120.1 141.398 Q2117.88 141.398 2115.77 141.93 Q2113.66 142.463 2111.72 143.527 L2111.72 139.592 Q2114.06 138.69 2116.26 138.25 Q2118.45 137.787 2120.54 137.787 Q2126.16 137.787 2128.94 140.703 Q2131.72 143.62 2131.72 149.546 Z" fill="#000000" fill-rule="nonzero" fill-opacity="1" /><path clip-path="url(#clip810)" d="M2144.7 131.051 L2144.7 138.412 L2153.48 138.412 L2153.48 141.722 L2144.7 141.722 L2144.7 155.796 Q2144.7 158.967 2145.56 159.87 Q2146.44 160.773 2149.1 160.773 L2153.48 160.773 L2153.48 164.338 L2149.1 164.338 Q2144.17 164.338 2142.3 162.509 Q2140.42 160.657 2140.42 155.796 L2140.42 141.722 L2137.3 141.722 L2137.3 138.412 L2140.42 138.412 L2140.42 131.051 L2144.7 131.051 Z" fill="#000000" fill-rule="nonzero" fill-opacity="1" /><path clip-path="url(#clip810)" d="M2181.26 150.31 L2181.26 152.393 L2161.67 152.393 Q2161.95 156.791 2164.31 159.106 Q2166.7 161.398 2170.93 161.398 Q2173.38 161.398 2175.68 160.796 Q2177.99 160.194 2180.26 158.99 L2180.26 163.018 Q2177.97 163.99 2175.56 164.5 Q2173.15 165.009 2170.68 165.009 Q2164.47 165.009 2160.84 161.398 Q2157.23 157.787 2157.23 151.629 Q2157.23 145.264 2160.65 141.537 Q2164.1 137.787 2169.94 137.787 Q2175.17 137.787 2178.2 141.166 Q2181.26 144.523 2181.26 150.31 M2177 149.06 Q2176.95 145.565 2175.03 143.481 Q2173.13 141.398 2169.98 141.398 Q2166.42 141.398 2164.26 143.412 Q2162.13 145.426 2161.81 149.083 L2177 149.06 Z" fill="#000000" fill-rule="nonzero" fill-opacity="1" /><path clip-path="url(#clip810)" d="M2207.44 160.449 L2207.44 174.199 L2203.15 174.199 L2203.15 138.412 L2207.44 138.412 L2207.44 142.347 Q2208.78 140.032 2210.82 138.921 Q2212.88 137.787 2215.72 137.787 Q2220.44 137.787 2223.38 141.537 Q2226.35 145.287 2226.35 151.398 Q2226.35 157.509 2223.38 161.259 Q2220.44 165.009 2215.72 165.009 Q2212.88 165.009 2210.82 163.898 Q2208.78 162.763 2207.44 160.449 M2221.93 151.398 Q2221.93 146.699 2219.98 144.037 Q2218.06 141.352 2214.68 141.352 Q2211.3 141.352 2209.36 144.037 Q2207.44 146.699 2207.44 151.398 Q2207.44 156.097 2209.36 158.782 Q2211.3 161.444 2214.68 161.444 Q2218.06 161.444 2219.98 158.782 Q2221.93 156.097 2221.93 151.398 Z" fill="#000000" fill-rule="nonzero" fill-opacity="1" /><path clip-path="url(#clip810)" d="M2234.82 160.402 L2242.46 160.402 L2242.46 134.037 L2234.15 135.703 L2234.15 131.444 L2242.41 129.778 L2247.09 129.778 L2247.09 160.402 L2254.73 160.402 L2254.73 164.338 L2234.82 164.338 L2234.82 160.402 Z" fill="#000000" fill-rule="nonzero" fill-opacity="1" /><polyline clip-path="url(#clip810)" style="stroke:#ee82ee; stroke-linecap:round; stroke-linejoin:round; stroke-width:8; stroke-opacity:1; fill:none" points="1839.68,198.898 1986.73,198.898 "/>
<path clip-path="url(#clip810)" d="M2031.74 191.247 L2031.74 195.229 Q2029.94 194.233 2028.11 193.747 Q2026.3 193.238 2024.45 193.238 Q2020.31 193.238 2018.02 195.877 Q2015.72 198.492 2015.72 203.238 Q2015.72 207.983 2018.02 210.622 Q2020.31 213.238 2024.45 213.238 Q2026.3 213.238 2028.11 212.752 Q2029.94 212.242 2031.74 211.247 L2031.74 215.182 Q2029.96 216.016 2028.04 216.432 Q2026.14 216.849 2023.99 216.849 Q2018.13 216.849 2014.68 213.168 Q2011.23 209.488 2011.23 203.238 Q2011.23 196.895 2014.71 193.261 Q2018.2 189.627 2024.27 189.627 Q2026.23 189.627 2028.11 190.043 Q2029.98 190.437 2031.74 191.247 Z" fill="#000000" fill-rule="nonzero" fill-opacity="1" /><path clip-path="url(#clip810)" d="M2049.2 193.238 Q2045.77 193.238 2043.78 195.923 Q2041.79 198.585 2041.79 203.238 Q2041.79 207.891 2043.76 210.576 Q2045.75 213.238 2049.2 213.238 Q2052.6 213.238 2054.59 210.553 Q2056.58 207.867 2056.58 203.238 Q2056.58 198.631 2054.59 195.946 Q2052.6 193.238 2049.2 193.238 M2049.2 189.627 Q2054.75 189.627 2057.92 193.238 Q2061.09 196.849 2061.09 203.238 Q2061.09 209.604 2057.92 213.238 Q2054.75 216.849 2049.2 216.849 Q2043.62 216.849 2040.45 213.238 Q2037.3 209.604 2037.3 203.238 Q2037.3 196.849 2040.45 193.238 Q2043.62 189.627 2049.2 189.627 Z" fill="#000000" fill-rule="nonzero" fill-opacity="1" /><path clip-path="url(#clip810)" d="M2084.68 191.016 L2084.68 195.043 Q2082.88 194.117 2080.93 193.655 Q2078.99 193.192 2076.9 193.192 Q2073.73 193.192 2072.14 194.164 Q2070.56 195.136 2070.56 197.08 Q2070.56 198.562 2071.7 199.418 Q2072.83 200.252 2076.26 201.016 L2077.71 201.34 Q2082.25 202.312 2084.15 204.094 Q2086.07 205.854 2086.07 209.025 Q2086.07 212.636 2083.2 214.742 Q2080.35 216.849 2075.35 216.849 Q2073.27 216.849 2071 216.432 Q2068.76 216.039 2066.26 215.228 L2066.26 210.83 Q2068.62 212.057 2070.91 212.682 Q2073.2 213.284 2075.45 213.284 Q2078.45 213.284 2080.08 212.266 Q2081.7 211.224 2081.7 209.349 Q2081.7 207.613 2080.52 206.687 Q2079.36 205.761 2075.4 204.904 L2073.92 204.557 Q2069.96 203.724 2068.2 202.011 Q2066.44 200.275 2066.44 197.266 Q2066.44 193.608 2069.03 191.618 Q2071.63 189.627 2076.39 189.627 Q2078.76 189.627 2080.84 189.974 Q2082.92 190.321 2084.68 191.016 Z" fill="#000000" fill-rule="nonzero" fill-opacity="1" /><path clip-path="url(#clip810)" d="M2097.07 182.891 L2097.07 190.252 L2105.84 190.252 L2105.84 193.562 L2097.07 193.562 L2097.07 207.636 Q2097.07 210.807 2097.92 211.71 Q2098.8 212.613 2101.46 212.613 L2105.84 212.613 L2105.84 216.178 L2101.46 216.178 Q2096.53 216.178 2094.66 214.349 Q2092.78 212.497 2092.78 207.636 L2092.78 193.562 L2089.66 193.562 L2089.66 190.252 L2092.78 190.252 L2092.78 182.891 L2097.07 182.891 Z" fill="#000000" fill-rule="nonzero" fill-opacity="1" /><path clip-path="url(#clip810)" d="M2123.22 203.145 Q2118.06 203.145 2116.07 204.326 Q2114.08 205.506 2114.08 208.354 Q2114.08 210.622 2115.56 211.965 Q2117.07 213.284 2119.64 213.284 Q2123.18 213.284 2125.31 210.784 Q2127.46 208.261 2127.46 204.094 L2127.46 203.145 L2123.22 203.145 M2131.72 201.386 L2131.72 216.178 L2127.46 216.178 L2127.46 212.242 Q2126 214.603 2123.83 215.738 Q2121.65 216.849 2118.5 216.849 Q2114.52 216.849 2112.16 214.627 Q2109.82 212.381 2109.82 208.631 Q2109.82 204.256 2112.74 202.034 Q2115.68 199.812 2121.49 199.812 L2127.46 199.812 L2127.46 199.395 Q2127.46 196.455 2125.51 194.858 Q2123.59 193.238 2120.1 193.238 Q2117.88 193.238 2115.77 193.77 Q2113.66 194.303 2111.72 195.367 L2111.72 191.432 Q2114.06 190.53 2116.26 190.09 Q2118.45 189.627 2120.54 189.627 Q2126.16 189.627 2128.94 192.543 Q2131.72 195.46 2131.72 201.386 Z" fill="#000000" fill-rule="nonzero" fill-opacity="1" /><path clip-path="url(#clip810)" d="M2144.7 182.891 L2144.7 190.252 L2153.48 190.252 L2153.48 193.562 L2144.7 193.562 L2144.7 207.636 Q2144.7 210.807 2145.56 211.71 Q2146.44 212.613 2149.1 212.613 L2153.48 212.613 L2153.48 216.178 L2149.1 216.178 Q2144.17 216.178 2142.3 214.349 Q2140.42 212.497 2140.42 207.636 L2140.42 193.562 L2137.3 193.562 L2137.3 190.252 L2140.42 190.252 L2140.42 182.891 L2144.7 182.891 Z" fill="#000000" fill-rule="nonzero" fill-opacity="1" /><path clip-path="url(#clip810)" d="M2181.26 202.15 L2181.26 204.233 L2161.67 204.233 Q2161.95 208.631 2164.31 210.946 Q2166.7 213.238 2170.93 213.238 Q2173.38 213.238 2175.68 212.636 Q2177.99 212.034 2180.26 210.83 L2180.26 214.858 Q2177.97 215.83 2175.56 216.34 Q2173.15 216.849 2170.68 216.849 Q2164.47 216.849 2160.84 213.238 Q2157.23 209.627 2157.23 203.469 Q2157.23 197.104 2160.65 193.377 Q2164.1 189.627 2169.94 189.627 Q2175.17 189.627 2178.2 193.006 Q2181.26 196.363 2181.26 202.15 M2177 200.9 Q2176.95 197.405 2175.03 195.321 Q2173.13 193.238 2169.98 193.238 Q2166.42 193.238 2164.26 195.252 Q2162.13 197.266 2161.81 200.923 L2177 200.9 Z" fill="#000000" fill-rule="nonzero" fill-opacity="1" /><path clip-path="url(#clip810)" d="M2207.44 212.289 L2207.44 226.039 L2203.15 226.039 L2203.15 190.252 L2207.44 190.252 L2207.44 194.187 Q2208.78 191.872 2210.82 190.761 Q2212.88 189.627 2215.72 189.627 Q2220.44 189.627 2223.38 193.377 Q2226.35 197.127 2226.35 203.238 Q2226.35 209.349 2223.38 213.099 Q2220.44 216.849 2215.72 216.849 Q2212.88 216.849 2210.82 215.738 Q2208.78 214.603 2207.44 212.289 M2221.93 203.238 Q2221.93 198.539 2219.98 195.877 Q2218.06 193.192 2214.68 193.192 Q2211.3 193.192 2209.36 195.877 Q2207.44 198.539 2207.44 203.238 Q2207.44 207.937 2209.36 210.622 Q2211.3 213.284 2214.68 213.284 Q2218.06 213.284 2219.98 210.622 Q2221.93 207.937 2221.93 203.238 Z" fill="#000000" fill-rule="nonzero" fill-opacity="1" /><path clip-path="url(#clip810)" d="M2238.04 212.242 L2254.36 212.242 L2254.36 216.178 L2232.41 216.178 L2232.41 212.242 Q2235.07 209.488 2239.66 204.858 Q2244.26 200.205 2245.44 198.863 Q2247.69 196.34 2248.57 194.604 Q2249.47 192.844 2249.47 191.155 Q2249.47 188.4 2247.53 186.664 Q2245.61 184.928 2242.5 184.928 Q2240.31 184.928 2237.85 185.692 Q2235.42 186.455 2232.64 188.006 L2232.64 183.284 Q2235.47 182.15 2237.92 181.571 Q2240.38 180.993 2242.41 180.993 Q2247.78 180.993 2250.98 183.678 Q2254.17 186.363 2254.17 190.854 Q2254.17 192.983 2253.36 194.905 Q2252.57 196.803 2250.47 199.395 Q2249.89 200.067 2246.79 203.284 Q2243.69 206.479 2238.04 212.242 Z" fill="#000000" fill-rule="nonzero" fill-opacity="1" /></svg>
