<?xml version="1.0" encoding="utf-8"?>
<svg xmlns="http://www.w3.org/2000/svg" xmlns:xlink="http://www.w3.org/1999/xlink" width="600" height="400" viewBox="0 0 2400 1600">
<defs>
  <clipPath id="clip160">
    <rect x="0" y="0" width="2400" height="1600"/>
  </clipPath>
</defs>
<path clip-path="url(#clip160)" d="M0 1600 L2400 1600 L2400 0 L0 0  Z" fill="#ffffff" fill-rule="evenodd" fill-opacity="1"/>
<defs>
  <clipPath id="clip161">
    <rect x="480" y="0" width="1681" height="1600"/>
  </clipPath>
</defs>
<path clip-path="url(#clip160)" d="M155.927 1486.45 L2352.76 1486.45 L2352.76 47.2441 L155.927 47.2441  Z" fill="#ffffff" fill-rule="evenodd" fill-opacity="1"/>
<defs>
  <clipPath id="clip162">
    <rect x="155" y="47" width="2198" height="1440"/>
  </clipPath>
</defs>
<polyline clip-path="url(#clip162)" style="stroke:#000000; stroke-linecap:round; stroke-linejoin:round; stroke-width:2; stroke-opacity:0.1; fill:none" points="218.101,1486.45 218.101,47.2441 "/>
<polyline clip-path="url(#clip162)" style="stroke:#000000; stroke-linecap:round; stroke-linejoin:round; stroke-width:2; stroke-opacity:0.1; fill:none" points="736.74,1486.45 736.74,47.2441 "/>
<polyline clip-path="url(#clip162)" style="stroke:#000000; stroke-linecap:round; stroke-linejoin:round; stroke-width:2; stroke-opacity:0.1; fill:none" points="1255.38,1486.45 1255.38,47.2441 "/>
<polyline clip-path="url(#clip162)" style="stroke:#000000; stroke-linecap:round; stroke-linejoin:round; stroke-width:2; stroke-opacity:0.1; fill:none" points="1774.02,1486.45 1774.02,47.2441 "/>
<polyline clip-path="url(#clip162)" style="stroke:#000000; stroke-linecap:round; stroke-linejoin:round; stroke-width:2; stroke-opacity:0.1; fill:none" points="2292.65,1486.45 2292.65,47.2441 "/>
<polyline clip-path="url(#clip160)" style="stroke:#000000; stroke-linecap:round; stroke-linejoin:round; stroke-width:4; stroke-opacity:1; fill:none" points="155.927,1486.45 2352.76,1486.45 "/>
<polyline clip-path="url(#clip160)" style="stroke:#000000; stroke-linecap:round; stroke-linejoin:round; stroke-width:4; stroke-opacity:1; fill:none" points="218.101,1486.45 218.101,1467.55 "/>
<polyline clip-path="url(#clip160)" style="stroke:#000000; stroke-linecap:round; stroke-linejoin:round; stroke-width:4; stroke-opacity:1; fill:none" points="736.74,1486.45 736.74,1467.55 "/>
<polyline clip-path="url(#clip160)" style="stroke:#000000; stroke-linecap:round; stroke-linejoin:round; stroke-width:4; stroke-opacity:1; fill:none" points="1255.38,1486.45 1255.38,1467.55 "/>
<polyline clip-path="url(#clip160)" style="stroke:#000000; stroke-linecap:round; stroke-linejoin:round; stroke-width:4; stroke-opacity:1; fill:none" points="1774.02,1486.45 1774.02,1467.55 "/>
<polyline clip-path="url(#clip160)" style="stroke:#000000; stroke-linecap:round; stroke-linejoin:round; stroke-width:4; stroke-opacity:1; fill:none" points="2292.65,1486.45 2292.65,1467.55 "/>
<path clip-path="url(#clip160)" d="M218.101 1517.37 Q214.49 1517.37 212.662 1520.93 Q210.856 1524.47 210.856 1531.6 Q210.856 1538.71 212.662 1542.27 Q214.49 1545.82 218.101 1545.82 Q221.736 1545.82 223.541 1542.27 Q225.37 1538.71 225.37 1531.6 Q225.37 1524.47 223.541 1520.93 Q221.736 1517.37 218.101 1517.37 M218.101 1513.66 Q223.912 1513.66 226.967 1518.27 Q230.046 1522.85 230.046 1531.6 Q230.046 1540.33 226.967 1544.94 Q223.912 1549.52 218.101 1549.52 Q212.291 1549.52 209.213 1544.94 Q206.157 1540.33 206.157 1531.6 Q206.157 1522.85 209.213 1518.27 Q212.291 1513.66 218.101 1513.66 Z" fill="#000000" fill-rule="evenodd" fill-opacity="1" /><path clip-path="url(#clip160)" d="M731.392 1544.91 L747.712 1544.91 L747.712 1548.85 L725.767 1548.85 L725.767 1544.91 Q728.429 1542.16 733.013 1537.53 Q737.619 1532.88 738.8 1531.53 Q741.045 1529.01 741.925 1527.27 Q742.827 1525.51 742.827 1523.82 Q742.827 1521.07 740.883 1519.33 Q738.962 1517.6 735.86 1517.6 Q733.661 1517.6 731.207 1518.36 Q728.777 1519.13 725.999 1520.68 L725.999 1515.95 Q728.823 1514.82 731.277 1514.24 Q733.73 1513.66 735.767 1513.66 Q741.138 1513.66 744.332 1516.35 Q747.526 1519.03 747.526 1523.52 Q747.526 1525.65 746.716 1527.57 Q745.929 1529.47 743.823 1532.07 Q743.244 1532.74 740.142 1535.95 Q737.04 1539.15 731.392 1544.91 Z" fill="#000000" fill-rule="evenodd" fill-opacity="1" /><path clip-path="url(#clip160)" d="M1258.39 1518.36 L1246.58 1536.81 L1258.39 1536.81 L1258.39 1518.36 M1257.16 1514.29 L1263.04 1514.29 L1263.04 1536.81 L1267.97 1536.81 L1267.97 1540.7 L1263.04 1540.7 L1263.04 1548.85 L1258.39 1548.85 L1258.39 1540.7 L1242.79 1540.7 L1242.79 1536.19 L1257.16 1514.29 Z" fill="#000000" fill-rule="evenodd" fill-opacity="1" /><path clip-path="url(#clip160)" d="M1774.42 1529.7 Q1771.27 1529.7 1769.42 1531.86 Q1767.59 1534.01 1767.59 1537.76 Q1767.59 1541.49 1769.42 1543.66 Q1771.27 1545.82 1774.42 1545.82 Q1777.57 1545.82 1779.4 1543.66 Q1781.25 1541.49 1781.25 1537.76 Q1781.25 1534.01 1779.4 1531.86 Q1777.57 1529.7 1774.42 1529.7 M1783.7 1515.05 L1783.7 1519.31 Q1781.94 1518.48 1780.14 1518.04 Q1778.36 1517.6 1776.6 1517.6 Q1771.97 1517.6 1769.51 1520.72 Q1767.08 1523.85 1766.74 1530.17 Q1768.1 1528.15 1770.16 1527.09 Q1772.22 1526 1774.7 1526 Q1779.91 1526 1782.92 1529.17 Q1785.95 1532.32 1785.95 1537.76 Q1785.95 1543.08 1782.8 1546.3 Q1779.65 1549.52 1774.42 1549.52 Q1768.43 1549.52 1765.25 1544.94 Q1762.08 1540.33 1762.08 1531.6 Q1762.08 1523.41 1765.97 1518.55 Q1769.86 1513.66 1776.41 1513.66 Q1778.17 1513.66 1779.95 1514.01 Q1781.76 1514.36 1783.7 1515.05 Z" fill="#000000" fill-rule="evenodd" fill-opacity="1" /><path clip-path="url(#clip160)" d="M2292.65 1532.44 Q2289.32 1532.44 2287.4 1534.22 Q2285.5 1536 2285.5 1539.13 Q2285.5 1542.25 2287.4 1544.03 Q2289.32 1545.82 2292.65 1545.82 Q2295.99 1545.82 2297.91 1544.03 Q2299.83 1542.23 2299.83 1539.13 Q2299.83 1536 2297.91 1534.22 Q2296.01 1532.44 2292.65 1532.44 M2287.98 1530.45 Q2284.97 1529.7 2283.28 1527.64 Q2281.61 1525.58 2281.61 1522.62 Q2281.61 1518.48 2284.55 1516.07 Q2287.52 1513.66 2292.65 1513.66 Q2297.82 1513.66 2300.76 1516.07 Q2303.7 1518.48 2303.7 1522.62 Q2303.7 1525.58 2302.01 1527.64 Q2300.34 1529.7 2297.35 1530.45 Q2300.73 1531.23 2302.61 1533.52 Q2304.51 1535.82 2304.51 1539.13 Q2304.51 1544.15 2301.43 1546.83 Q2298.37 1549.52 2292.65 1549.52 Q2286.94 1549.52 2283.86 1546.83 Q2280.8 1544.15 2280.8 1539.13 Q2280.8 1535.82 2282.7 1533.52 Q2284.6 1531.23 2287.98 1530.45 M2286.27 1523.06 Q2286.27 1525.75 2287.93 1527.25 Q2289.62 1528.76 2292.65 1528.76 Q2295.66 1528.76 2297.35 1527.25 Q2299.07 1525.75 2299.07 1523.06 Q2299.07 1520.38 2297.35 1518.87 Q2295.66 1517.37 2292.65 1517.37 Q2289.62 1517.37 2287.93 1518.87 Q2286.27 1520.38 2286.27 1523.06 Z" fill="#000000" fill-rule="evenodd" fill-opacity="1" /><polyline clip-path="url(#clip162)" style="stroke:#000000; stroke-linecap:round; stroke-linejoin:round; stroke-width:2; stroke-opacity:0.1; fill:none" points="155.927,1486.45 2352.76,1486.45 "/>
<polyline clip-path="url(#clip162)" style="stroke:#000000; stroke-linecap:round; stroke-linejoin:round; stroke-width:2; stroke-opacity:0.1; fill:none" points="155.927,1006.71 2352.76,1006.71 "/>
<polyline clip-path="url(#clip162)" style="stroke:#000000; stroke-linecap:round; stroke-linejoin:round; stroke-width:2; stroke-opacity:0.1; fill:none" points="155.927,526.979 2352.76,526.979 "/>
<polyline clip-path="url(#clip162)" style="stroke:#000000; stroke-linecap:round; stroke-linejoin:round; stroke-width:2; stroke-opacity:0.1; fill:none" points="155.927,47.2441 2352.76,47.2441 "/>
<polyline clip-path="url(#clip160)" style="stroke:#000000; stroke-linecap:round; stroke-linejoin:round; stroke-width:4; stroke-opacity:1; fill:none" points="155.927,1486.45 155.927,47.2441 "/>
<polyline clip-path="url(#clip160)" style="stroke:#000000; stroke-linecap:round; stroke-linejoin:round; stroke-width:4; stroke-opacity:1; fill:none" points="155.927,1486.45 174.825,1486.45 "/>
<polyline clip-path="url(#clip160)" style="stroke:#000000; stroke-linecap:round; stroke-linejoin:round; stroke-width:4; stroke-opacity:1; fill:none" points="155.927,1006.71 174.825,1006.71 "/>
<polyline clip-path="url(#clip160)" style="stroke:#000000; stroke-linecap:round; stroke-linejoin:round; stroke-width:4; stroke-opacity:1; fill:none" points="155.927,526.979 174.825,526.979 "/>
<polyline clip-path="url(#clip160)" style="stroke:#000000; stroke-linecap:round; stroke-linejoin:round; stroke-width:4; stroke-opacity:1; fill:none" points="155.927,47.2441 174.825,47.2441 "/>
<path clip-path="url(#clip160)" d="M53.793 1469.17 L72.1494 1469.17 L72.1494 1473.1 L58.0754 1473.1 L58.0754 1481.58 Q59.0939 1481.23 60.1124 1481.07 Q61.131 1480.88 62.1495 1480.88 Q67.9365 1480.88 71.3161 1484.05 Q74.6957 1487.22 74.6957 1492.64 Q74.6957 1498.22 71.2235 1501.32 Q67.7513 1504.4 61.4319 1504.4 Q59.256 1504.4 56.9875 1504.03 Q54.7421 1503.66 52.3347 1502.92 L52.3347 1498.22 Q54.418 1499.35 56.6402 1499.91 Q58.8625 1500.46 61.3393 1500.46 Q65.3439 1500.46 67.6819 1498.36 Q70.0198 1496.25 70.0198 1492.64 Q70.0198 1489.03 67.6819 1486.92 Q65.3439 1484.82 61.3393 1484.82 Q59.4643 1484.82 57.5893 1485.23 Q55.7375 1485.65 53.793 1486.53 L53.793 1469.17 Z" fill="#000000" fill-rule="evenodd" fill-opacity="1" /><path clip-path="url(#clip160)" d="M83.9086 1497.85 L88.7928 1497.85 L88.7928 1503.73 L83.9086 1503.73 L83.9086 1497.85 Z" fill="#000000" fill-rule="evenodd" fill-opacity="1" /><path clip-path="url(#clip160)" d="M99.0243 1469.17 L117.381 1469.17 L117.381 1473.1 L103.307 1473.1 L103.307 1481.58 Q104.325 1481.23 105.344 1481.07 Q106.362 1480.88 107.381 1480.88 Q113.168 1480.88 116.547 1484.05 Q119.927 1487.22 119.927 1492.64 Q119.927 1498.22 116.455 1501.32 Q112.983 1504.4 106.663 1504.4 Q104.487 1504.4 102.219 1504.03 Q99.9733 1503.66 97.566 1502.92 L97.566 1498.22 Q99.6493 1499.35 101.871 1499.91 Q104.094 1500.46 106.571 1500.46 Q110.575 1500.46 112.913 1498.36 Q115.251 1496.25 115.251 1492.64 Q115.251 1489.03 112.913 1486.92 Q110.575 1484.82 106.571 1484.82 Q104.696 1484.82 102.821 1485.23 Q100.969 1485.65 99.0243 1486.53 L99.0243 1469.17 Z" fill="#000000" fill-rule="evenodd" fill-opacity="1" /><path clip-path="url(#clip160)" d="M63.33 1004.85 Q60.1819 1004.85 58.33 1007 Q56.5014 1009.16 56.5014 1012.91 Q56.5014 1016.63 58.33 1018.81 Q60.1819 1020.96 63.33 1020.96 Q66.4782 1020.96 68.3068 1018.81 Q70.1587 1016.63 70.1587 1012.91 Q70.1587 1009.16 68.3068 1007 Q66.4782 1004.85 63.33 1004.85 M72.6124 990.197 L72.6124 994.456 Q70.8531 993.623 69.0476 993.183 Q67.2652 992.743 65.5059 992.743 Q60.8763 992.743 58.4226 995.868 Q55.9921 998.993 55.6449 1005.31 Q57.0106 1003.3 59.0708 1002.23 Q61.131 1001.15 63.6078 1001.15 Q68.8161 1001.15 71.8253 1004.32 Q74.8577 1007.47 74.8577 1012.91 Q74.8577 1018.23 71.7096 1021.45 Q68.5615 1024.66 63.33 1024.66 Q57.3347 1024.66 54.1634 1020.08 Q50.9921 1015.47 50.9921 1006.75 Q50.9921 998.554 54.881 993.693 Q58.7699 988.808 65.3208 988.808 Q67.08 988.808 68.8624 989.156 Q70.6679 989.503 72.6124 990.197 Z" fill="#000000" fill-rule="evenodd" fill-opacity="1" /><path clip-path="url(#clip160)" d="M82.9133 1018.11 L87.7975 1018.11 L87.7975 1023.99 L82.9133 1023.99 L82.9133 1018.11 Z" fill="#000000" fill-rule="evenodd" fill-opacity="1" /><path clip-path="url(#clip160)" d="M107.983 992.512 Q104.371 992.512 102.543 996.077 Q100.737 999.618 100.737 1006.75 Q100.737 1013.85 102.543 1017.42 Q104.371 1020.96 107.983 1020.96 Q111.617 1020.96 113.422 1017.42 Q115.251 1013.85 115.251 1006.75 Q115.251 999.618 113.422 996.077 Q111.617 992.512 107.983 992.512 M107.983 988.808 Q113.793 988.808 116.848 993.415 Q119.927 997.998 119.927 1006.75 Q119.927 1015.47 116.848 1020.08 Q113.793 1024.66 107.983 1024.66 Q102.172 1024.66 99.0937 1020.08 Q96.0382 1015.47 96.0382 1006.75 Q96.0382 997.998 99.0937 993.415 Q102.172 988.808 107.983 988.808 Z" fill="#000000" fill-rule="evenodd" fill-opacity="1" /><path clip-path="url(#clip160)" d="M64.3254 525.115 Q61.1773 525.115 59.3254 527.268 Q57.4967 529.421 57.4967 533.171 Q57.4967 536.898 59.3254 539.074 Q61.1773 541.226 64.3254 541.226 Q67.4735 541.226 69.3022 539.074 Q71.1541 536.898 71.1541 533.171 Q71.1541 529.421 69.3022 527.268 Q67.4735 525.115 64.3254 525.115 M73.6077 510.463 L73.6077 514.722 Q71.8485 513.888 70.0429 513.449 Q68.2606 513.009 66.5013 513.009 Q61.8717 513.009 59.418 516.134 Q56.9875 519.259 56.6402 525.578 Q58.006 523.564 60.0662 522.5 Q62.1263 521.412 64.6032 521.412 Q69.8115 521.412 72.8207 524.583 Q75.8531 527.731 75.8531 533.171 Q75.8531 538.495 72.705 541.712 Q69.5568 544.93 64.3254 544.93 Q58.33 544.93 55.1588 540.347 Q51.9875 535.74 51.9875 527.013 Q51.9875 518.819 55.8764 513.958 Q59.7652 509.074 66.3161 509.074 Q68.0754 509.074 69.8578 509.421 Q71.6633 509.768 73.6077 510.463 Z" fill="#000000" fill-rule="evenodd" fill-opacity="1" /><path clip-path="url(#clip160)" d="M83.9086 538.379 L88.7928 538.379 L88.7928 544.259 L83.9086 544.259 L83.9086 538.379 Z" fill="#000000" fill-rule="evenodd" fill-opacity="1" /><path clip-path="url(#clip160)" d="M99.0243 509.699 L117.381 509.699 L117.381 513.634 L103.307 513.634 L103.307 522.106 Q104.325 521.759 105.344 521.597 Q106.362 521.412 107.381 521.412 Q113.168 521.412 116.547 524.583 Q119.927 527.754 119.927 533.171 Q119.927 538.749 116.455 541.851 Q112.983 544.93 106.663 544.93 Q104.487 544.93 102.219 544.56 Q99.9733 544.189 97.566 543.449 L97.566 538.749 Q99.6493 539.884 101.871 540.439 Q104.094 540.995 106.571 540.995 Q110.575 540.995 112.913 538.888 Q115.251 536.782 115.251 533.171 Q115.251 529.56 112.913 527.453 Q110.575 525.347 106.571 525.347 Q104.696 525.347 102.821 525.763 Q100.969 526.18 99.0243 527.06 L99.0243 509.699 Z" fill="#000000" fill-rule="evenodd" fill-opacity="1" /><path clip-path="url(#clip160)" d="M51.5708 29.9641 L73.7929 29.9641 L73.7929 31.9548 L61.2467 64.5241 L56.3625 64.5241 L68.168 33.8993 L51.5708 33.8993 L51.5708 29.9641 Z" fill="#000000" fill-rule="evenodd" fill-opacity="1" /><path clip-path="url(#clip160)" d="M82.9133 58.6445 L87.7975 58.6445 L87.7975 64.5241 L82.9133 64.5241 L82.9133 58.6445 Z" fill="#000000" fill-rule="evenodd" fill-opacity="1" /><path clip-path="url(#clip160)" d="M107.983 33.0428 Q104.371 33.0428 102.543 36.6076 Q100.737 40.1492 100.737 47.2788 Q100.737 54.3853 102.543 57.9501 Q104.371 61.4917 107.983 61.4917 Q111.617 61.4917 113.422 57.9501 Q115.251 54.3853 115.251 47.2788 Q115.251 40.1492 113.422 36.6076 Q111.617 33.0428 107.983 33.0428 M107.983 29.3391 Q113.793 29.3391 116.848 33.9456 Q119.927 38.5289 119.927 47.2788 Q119.927 56.0056 116.848 60.6121 Q113.793 65.1954 107.983 65.1954 Q102.172 65.1954 99.0937 60.6121 Q96.0382 56.0056 96.0382 47.2788 Q96.0382 38.5289 99.0937 33.9456 Q102.172 29.3391 107.983 29.3391 Z" fill="#000000" fill-rule="evenodd" fill-opacity="1" /><polyline clip-path="url(#clip162)" style="stroke:#008000; stroke-linecap:round; stroke-linejoin:round; stroke-width:8; stroke-opacity:1; fill:none" points="218.101,844.647 220.174,844.647 222.246,844.647 224.319,844.647 226.391,844.647 228.464,844.647 230.536,844.647 232.609,844.647 234.681,844.647 236.754,844.647 238.826,844.647 240.899,844.647 242.971,844.647 245.044,844.647 247.116,844.647 249.189,844.647 251.261,844.647 253.334,844.647 255.406,844.647 257.478,844.647 259.551,844.647 261.623,844.647 263.696,844.647 265.768,844.647 267.841,844.647 269.913,844.647 271.986,844.647 274.058,844.647 276.131,844.647 278.203,844.647 280.276,844.647 282.348,844.647 284.421,844.647 286.493,844.647 288.566,844.647 290.638,844.647 292.711,844.647 294.783,844.647 296.856,844.647 298.928,844.647 301.001,844.647 303.073,844.647 305.146,844.647 307.218,844.647 309.29,844.647 311.363,844.647 313.435,844.647 315.508,844.647 317.58,844.647 319.653,844.647 321.725,844.647 323.798,844.647 325.87,844.647 327.943,844.646 330.015,844.636 332.088,844.563 334.16,844.174 336.233,842.685 338.305,838.831 340.378,833.431 342.45,835.204 344.523,860.056 346.595,902.231 348.668,808.124 350.74,865.494 352.813,865.494 354.885,865.494 356.958,865.494 359.03,865.494 361.102,865.494 363.175,865.494 365.247,865.494 367.32,865.494 369.392,865.494 371.465,865.494 373.537,865.494 375.61,865.494 377.682,865.494 379.755,865.494 381.827,865.494 383.9,865.494 385.972,865.494 388.045,865.494 390.117,865.494 392.19,865.494 394.262,865.494 396.335,865.494 398.407,865.494 400.48,865.494 402.552,865.494 404.625,865.494 406.697,865.494 408.77,865.494 410.842,865.494 412.914,865.494 414.987,865.494 417.059,865.494 419.132,865.494 421.204,865.494 423.277,865.494 425.349,865.494 427.422,865.494 429.494,865.494 431.567,865.494 433.639,865.494 435.712,865.494 437.784,865.494 439.857,865.494 441.929,865.494 444.002,865.494 446.074,865.494 448.147,865.494 450.219,865.494 452.292,865.494 454.364,865.494 456.437,865.494 458.509,865.494 460.582,865.494 462.654,865.494 464.726,865.494 466.799,865.494 468.871,865.494 470.944,865.494 473.016,865.494 475.089,865.494 477.161,865.494 479.234,865.494 481.306,865.494 483.379,865.494 485.451,865.494 487.524,865.494 489.596,865.494 491.669,865.494 493.741,865.494 495.814,865.494 497.886,865.494 499.959,865.494 502.031,865.494 504.104,865.494 506.176,865.494 508.249,865.494 510.321,865.494 512.394,865.494 514.466,865.494 516.538,865.494 518.611,865.494 520.683,865.494 522.756,865.494 524.828,865.494 526.901,865.494 528.973,865.494 531.046,865.494 533.118,865.494 535.191,865.494 537.263,865.494 539.336,865.494 541.408,865.494 543.481,865.494 545.553,865.494 547.626,865.494 549.698,865.494 551.771,865.494 553.843,865.494 555.916,865.494 557.988,865.494 560.061,865.494 562.133,865.494 564.206,865.494 566.278,865.494 568.35,865.494 570.423,865.494 572.495,865.494 574.568,865.494 576.64,865.494 578.713,865.494 580.785,865.494 582.858,865.494 584.93,865.494 587.003,865.494 589.075,865.494 591.148,865.494 593.22,865.494 595.293,865.494 597.365,865.494 599.438,865.494 601.51,865.494 603.583,865.494 605.655,865.494 607.728,865.494 609.8,865.494 611.873,865.494 613.945,865.494 616.018,865.494 618.09,865.494 620.162,865.494 622.235,865.494 624.307,865.494 626.38,865.494 628.452,865.494 630.525,865.494 632.597,865.494 634.67,865.494 636.742,865.494 638.815,865.494 640.887,865.494 642.96,865.494 645.032,865.494 647.105,865.494 649.177,865.494 651.25,865.494 653.322,865.494 655.395,865.494 657.467,865.494 659.54,865.494 661.612,865.494 663.685,865.494 665.757,865.494 667.83,865.494 669.902,865.494 671.975,865.494 674.047,865.494 676.119,865.494 678.192,865.494 680.264,865.494 682.337,865.494 684.409,865.494 686.482,865.494 688.554,865.494 690.627,865.494 692.699,865.494 694.772,865.494 696.844,865.494 698.917,865.494 700.989,865.494 703.062,865.494 705.134,865.494 707.207,865.494 709.279,865.494 711.352,865.494 713.424,865.494 715.497,865.494 717.569,865.494 719.642,865.494 721.714,865.494 723.787,865.494 725.859,865.494 727.931,865.494 730.004,865.494 732.076,865.494 734.149,865.494 736.221,865.494 738.294,865.494 740.366,865.494 742.439,865.494 744.511,865.494 746.584,865.494 748.656,865.494 750.729,865.494 752.801,865.494 754.874,865.494 756.946,865.494 759.019,865.494 761.091,865.494 763.164,865.494 765.236,865.494 767.309,865.494 769.381,865.494 771.454,865.494 773.526,865.494 775.599,865.494 777.671,865.494 779.743,865.494 781.816,865.494 783.888,865.494 785.961,865.494 788.033,865.494 790.106,865.494 792.178,865.494 794.251,865.494 796.323,865.494 798.396,865.494 800.468,865.494 802.541,865.494 804.613,865.494 806.686,865.494 808.758,865.494 810.831,865.494 812.903,865.494 814.976,865.494 817.048,865.494 819.121,865.494 821.193,865.494 823.266,865.494 825.338,865.494 827.411,865.494 829.483,865.494 831.555,865.494 833.628,865.494 835.7,865.494 837.773,865.494 839.845,865.494 841.918,865.494 843.99,865.494 846.063,865.494 848.135,865.494 850.208,865.494 852.28,865.494 854.353,865.494 856.425,865.494 858.498,865.494 860.57,865.494 862.643,865.494 864.715,865.494 866.788,865.494 868.86,865.494 870.933,865.494 873.005,865.494 875.078,865.494 877.15,865.494 879.223,865.494 881.295,865.494 883.367,865.494 885.44,865.494 887.512,865.494 889.585,865.494 891.657,865.494 893.73,865.494 895.802,865.494 897.875,865.494 899.947,865.494 902.02,865.494 904.092,865.494 906.165,865.494 908.237,865.494 910.31,865.494 912.382,865.494 914.455,865.494 916.527,865.494 918.6,865.494 920.672,865.494 922.745,865.494 924.817,865.494 926.89,865.494 928.962,865.494 931.035,865.494 933.107,865.494 935.179,865.494 937.252,865.494 939.324,865.494 941.397,865.494 943.469,865.494 945.542,865.494 947.614,865.494 949.687,865.494 951.759,865.494 953.832,865.494 955.904,865.494 957.977,865.494 960.049,865.494 962.122,865.494 964.194,865.494 966.267,865.494 968.339,865.494 970.412,865.494 972.484,865.494 974.557,865.494 976.629,865.494 978.702,865.494 980.774,865.494 982.847,865.494 984.919,865.494 986.991,865.494 989.064,865.494 991.136,865.494 993.209,865.494 995.281,865.494 997.354,865.494 999.426,865.494 1001.5,865.494 1003.57,865.494 1005.64,865.494 1007.72,865.494 1009.79,865.494 1011.86,865.494 1013.93,865.494 1016.01,865.494 1018.08,865.494 1020.15,865.494 1022.22,865.494 1024.3,865.494 1026.37,865.494 1028.44,865.494 1030.51,865.494 1032.59,865.494 1034.66,865.494 1036.73,865.494 1038.8,865.494 1040.88,865.494 1042.95,865.494 1045.02,865.494 1047.09,865.494 1049.17,865.494 1051.24,865.494 1053.31,865.494 1055.38,865.494 1057.46,865.494 1059.53,865.494 1061.6,865.494 1063.67,865.494 1065.75,865.494 1067.82,865.494 1069.89,865.494 1071.96,865.494 1074.04,865.494 1076.11,865.494 1078.18,865.494 1080.25,865.494 1082.33,865.494 1084.4,865.494 1086.47,865.494 1088.54,865.494 1090.62,865.494 1092.69,865.494 1094.76,865.494 1096.83,865.494 1098.91,865.494 1100.98,865.494 1103.05,865.494 1105.12,865.494 1107.2,865.494 1109.27,865.494 1111.34,865.494 1113.41,865.494 1115.49,865.494 1117.56,865.494 1119.63,865.494 1121.7,865.494 1123.78,865.494 1125.85,865.494 1127.92,865.494 1129.99,865.494 1132.07,865.494 1134.14,865.494 1136.21,865.494 1138.28,865.494 1140.36,865.494 1142.43,865.494 1144.5,865.494 1146.57,865.494 1148.64,865.494 1150.72,865.494 1152.79,821.948 1154.86,859.844 1156.93,868.543 1159.01,851.986 1161.08,843.077 1163.15,843.536 1165.22,846.361 1167.3,848.112 1169.37,848.759 1171.44,848.929 1173.51,848.963 1175.59,848.968 1177.66,848.969 1179.73,848.969 1181.8,848.969 1183.88,848.969 1185.95,848.969 1188.02,848.969 1190.09,848.969 1192.17,848.969 1194.24,848.969 1196.31,848.969 1198.38,848.969 1200.46,848.969 1202.53,848.969 1204.6,848.969 1206.67,848.969 1208.75,848.969 1210.82,848.969 1212.89,848.969 1214.96,848.969 1217.04,848.969 1219.11,848.969 1221.18,848.969 1223.25,848.969 1225.33,848.969 1227.4,848.969 1229.47,848.969 1231.54,848.969 1233.62,848.969 1235.69,848.969 1237.76,848.969 1239.83,848.969 1241.91,848.969 1243.98,848.969 1246.05,848.969 1248.12,848.969 1250.2,848.969 1252.27,848.969 1254.34,848.969 1256.41,848.969 1258.49,848.969 1260.56,848.969 1262.63,848.969 1264.7,848.969 1266.78,848.969 1268.85,848.969 1270.92,848.969 1272.99,848.969 1275.07,848.969 1277.14,848.969 1279.21,848.969 1281.28,848.969 1283.36,848.969 1285.43,848.969 1287.5,848.969 1289.57,848.969 1291.65,848.969 1293.72,848.969 1295.79,848.969 1297.86,848.969 1299.94,848.969 1302.01,848.969 1304.08,848.969 1306.15,848.969 1308.23,848.969 1310.3,848.969 1312.37,848.969 1314.44,848.969 1316.52,848.969 1318.59,848.969 1320.66,848.969 1322.73,848.969 1324.81,848.969 1326.88,848.969 1328.95,848.969 1331.02,848.969 1333.1,848.969 1335.17,848.969 1337.24,848.969 1339.31,848.969 1341.39,848.969 1343.46,848.969 1345.53,848.969 1347.6,848.969 1349.68,848.969 1351.75,848.969 1353.82,848.969 1355.89,848.969 1357.97,848.969 1360.04,848.969 1362.11,848.969 1364.18,848.969 1366.26,848.969 1368.33,848.969 1370.4,848.969 1372.47,848.969 1374.55,848.969 1376.62,848.969 1378.69,848.969 1380.76,848.969 1382.84,848.969 1384.91,848.969 1386.98,848.969 1389.05,848.969 1391.13,848.969 1393.2,848.969 1395.27,848.969 1397.34,848.969 1399.42,848.969 1401.49,848.97 1403.56,848.97 1405.63,848.97 1407.7,848.97 1409.78,848.97 1411.85,848.97 1413.92,848.97 1415.99,848.97 1418.07,848.97 1420.14,848.97 1422.21,848.97 1424.28,848.97 1426.36,848.97 1428.43,848.97 1430.5,848.97 1432.57,848.97 1434.65,848.97 1436.72,848.97 1438.79,848.97 1440.86,848.97 1442.94,848.97 1445.01,848.97 1447.08,848.97 1449.15,848.97 1451.23,848.97 1453.3,848.97 1455.37,848.97 1457.44,848.97 1459.52,848.97 1461.59,848.97 1463.66,848.97 1465.73,848.97 1467.81,848.97 1469.88,848.97 1471.95,848.97 1474.02,848.97 1476.1,848.97 1478.17,848.97 1480.24,848.97 1482.31,848.97 1484.39,848.97 1486.46,848.97 1488.53,848.97 1490.6,848.97 1492.68,848.97 1494.75,848.97 1496.82,848.97 1498.89,848.97 1500.97,848.97 1503.04,848.97 1505.11,848.97 1507.18,848.97 1509.26,848.97 1511.33,848.97 1513.4,848.97 1515.47,848.97 1517.55,848.97 1519.62,848.97 1521.69,848.97 1523.76,848.97 1525.84,848.97 1527.91,848.97 1529.98,848.97 1532.05,848.97 1534.13,848.97 1536.2,848.97 1538.27,848.971 1540.34,848.971 1542.42,848.971 1544.49,848.971 1546.56,848.971 1548.63,848.971 1550.71,848.971 1552.78,848.971 1554.85,848.971 1556.92,848.971 1559,848.971 1561.07,848.971 1563.14,848.971 1565.21,848.971 1567.29,848.971 1569.36,848.971 1571.43,848.971 1573.5,848.971 1575.58,848.971 1577.65,848.971 1579.72,848.971 1581.79,848.971 1583.87,848.971 1585.94,848.971 1588.01,848.971 1590.08,848.971 1592.16,848.971 1594.23,848.971 1596.3,848.971 1598.37,848.971 1600.45,848.971 1602.52,848.971 1604.59,848.971 1606.66,848.971 1608.74,848.971 1610.81,848.971 1612.88,848.971 1614.95,848.972 1617.03,848.972 1619.1,848.972 1621.17,848.972 1623.24,848.972 1625.32,848.972 1627.39,848.972 1629.46,848.972 1631.53,848.972 1633.61,848.972 1635.68,848.972 1637.75,848.972 1639.82,848.972 1641.9,848.972 1643.97,848.972 1646.04,848.972 1648.11,848.972 1650.19,848.972 1652.26,848.972 1654.33,848.972 1656.4,848.972 1658.48,848.972 1660.55,848.972 1662.62,848.972 1664.69,848.972 1666.76,848.972 1668.84,848.972 1670.91,848.972 1672.98,848.972 1675.05,848.973 1677.13,848.973 1679.2,848.973 1681.27,848.973 1683.34,848.973 1685.42,848.973 1687.49,848.973 1689.56,848.973 1691.63,848.973 1693.71,848.973 1695.78,848.973 1697.85,848.973 1699.92,848.973 1702,848.973 1704.07,848.973 1706.14,848.973 1708.21,848.973 1710.29,848.973 1712.36,848.973 1714.43,848.973 1716.5,848.973 1718.58,848.973 1720.65,848.973 1722.72,848.973 1724.79,848.973 1726.87,848.973 1728.94,848.973 1731.01,848.973 1733.08,848.973 1735.16,848.973 1737.23,848.973 1739.3,848.973 1741.37,848.973 1743.45,848.973 1745.52,848.974 1747.59,848.974 1749.66,848.974 1751.74,848.974 1753.81,848.974 1755.88,848.974 1757.95,848.974 1760.03,848.974 1762.1,848.974 1764.17,848.974 1766.24,848.974 1768.32,848.974 1770.39,848.974 1772.46,848.974 1774.53,848.974 1776.61,848.974 1778.68,848.974 1780.75,848.974 1782.82,848.974 1784.9,848.974 1786.97,848.974 1789.04,848.974 1791.11,848.974 1793.19,848.974 1795.26,848.974 1797.33,848.974 1799.4,848.974 1801.48,848.974 1803.55,848.974 1805.62,848.974 1807.69,848.974 1809.77,848.974 1811.84,848.974 1813.91,848.974 1815.98,848.974 1818.06,848.974 1820.13,848.974 1822.2,848.974 1824.27,848.974 1826.35,848.974 1828.42,848.974 1830.49,848.974 1832.56,848.974 1834.64,848.974 1836.71,848.974 1838.78,848.974 1840.85,848.974 1842.93,848.973 1845,848.973 1847.07,848.973 1849.14,848.973 1851.22,848.973 1853.29,848.973 1855.36,848.973 1857.43,848.973 1859.51,848.973 1861.58,848.973 1863.65,848.973 1865.72,848.973 1867.8,848.973 1869.87,848.973 1871.94,848.973 1874.01,848.973 1876.09,848.973 1878.16,848.973 1880.23,848.973 1882.3,848.973 1884.38,848.973 1886.45,848.973 1888.52,848.973 1890.59,848.973 1892.67,848.973 1894.74,848.973 1896.81,848.973 1898.88,848.973 1900.96,848.973 1903.03,848.973 1905.1,848.973 1907.17,848.973 1909.25,848.973 1911.32,848.972 1913.39,848.972 1915.46,848.972 1917.54,848.972 1919.61,848.972 1921.68,848.972 1923.75,848.972 1925.82,848.972 1927.9,848.972 1929.97,848.972 1932.04,848.972 1934.11,848.972 1936.19,848.972 1938.26,848.972 1940.33,848.972 1942.4,848.972 1944.48,848.972 1946.55,848.972 1948.62,848.972 1950.69,848.972 1952.77,848.972 1954.84,848.972 1956.91,848.972 1958.98,848.972 1961.06,848.972 1963.13,848.972 1965.2,848.972 1967.27,848.972 1969.35,848.972 1971.42,848.971 1973.49,848.971 1975.56,848.971 1977.64,848.971 1979.71,848.971 1981.78,848.971 1983.85,848.971 1985.93,848.971 1988,848.971 1990.07,848.971 1992.14,848.971 1994.22,848.971 1996.29,848.971 1998.36,848.971 2000.43,848.971 2002.51,848.971 2004.58,848.971 2006.65,848.971 2008.72,848.971 2010.8,848.971 2012.87,848.971 2014.94,848.971 2017.01,848.971 2019.09,848.971 2021.16,848.971 2023.23,848.971 2025.3,848.971 2027.38,848.971 2029.45,848.971 2031.52,848.971 2033.59,848.971 2035.67,848.971 2037.74,848.971 2039.81,848.971 2041.88,848.971 2043.96,848.971 2046.03,848.971 2048.1,848.97 2050.17,848.97 2052.25,848.97 2054.32,848.97 2056.39,848.97 2058.46,848.97 2060.54,848.97 2062.61,848.97 2064.68,848.97 2066.75,848.97 2068.83,848.97 2070.9,848.97 2072.97,848.97 2075.04,848.97 2077.12,848.97 2079.19,848.97 2081.26,848.97 2083.33,848.97 2085.41,848.97 2087.48,848.97 2089.55,848.97 2091.62,848.97 2093.7,848.97 2095.77,848.97 2097.84,848.97 2099.91,848.97 2101.99,848.97 2104.06,848.97 2106.13,848.97 2108.2,848.97 2110.28,848.97 2112.35,848.97 2114.42,848.97 2116.49,848.97 2118.57,848.97 2120.64,848.97 2122.71,848.97 2124.78,848.97 2126.86,848.97 2128.93,848.97 2131,848.97 2133.07,848.97 2135.15,848.97 2137.22,848.97 2139.29,848.97 2141.36,848.97 2143.44,848.97 2145.51,848.97 2147.58,848.97 2149.65,848.97 2151.73,848.97 2153.8,848.97 2155.87,848.97 2157.94,848.97 2160.02,848.97 2162.09,848.97 2164.16,848.97 2166.23,848.97 2168.31,848.97 2170.38,848.97 2172.45,848.97 2174.52,848.97 2176.6,848.97 2178.67,848.97 2180.74,848.97 2182.81,848.97 2184.89,848.97 2186.96,848.969 2189.03,848.969 2191.1,848.969 2193.17,848.969 2195.25,848.969 2197.32,848.969 2199.39,848.969 2201.46,848.969 2203.54,848.969 2205.61,848.969 2207.68,848.969 2209.75,848.969 2211.83,848.969 2213.9,848.969 2215.97,848.969 2218.04,848.969 2220.12,848.969 2222.19,848.969 2224.26,848.969 2226.33,848.969 2228.41,848.969 2230.48,848.969 2232.55,848.969 2234.62,848.969 2236.7,848.969 2238.77,848.969 2240.84,848.969 2242.91,848.969 2244.99,848.969 2247.06,848.969 2249.13,848.969 2251.2,848.969 2253.28,848.969 2255.35,848.969 2257.42,848.969 2259.49,848.969 2261.57,848.969 2263.64,848.969 2265.71,848.969 2267.78,848.969 2269.86,848.969 2271.93,848.969 2274,848.969 2276.07,848.969 2278.15,848.969 2280.22,848.969 2282.29,848.969 2284.36,848.969 2286.44,848.969 2288.51,848.969 2290.58,848.968 "/>
<path clip-path="url(#clip160)" d="M1807.83 198.898 L2279.53 198.898 L2279.53 95.2176 L1807.83 95.2176  Z" fill="#ffffff" fill-rule="evenodd" fill-opacity="1"/>
<polyline clip-path="url(#clip160)" style="stroke:#000000; stroke-linecap:round; stroke-linejoin:round; stroke-width:4; stroke-opacity:1; fill:none" points="1807.83,198.898 2279.53,198.898 2279.53,95.2176 1807.83,95.2176 1807.83,198.898 "/>
<polyline clip-path="url(#clip160)" style="stroke:#008000; stroke-linecap:round; stroke-linejoin:round; stroke-width:8; stroke-opacity:1; fill:none" points="1832.24,147.058 1978.7,147.058 "/>
<path clip-path="url(#clip160)" d="M2003.11 129.778 L2007.78 129.778 L2007.78 143.944 L2024.77 143.944 L2024.77 129.778 L2029.45 129.778 L2029.45 164.338 L2024.77 164.338 L2024.77 147.879 L2007.78 147.879 L2007.78 164.338 L2003.11 164.338 L2003.11 129.778 Z" fill="#000000" fill-rule="evenodd" fill-opacity="1" /><path clip-path="url(#clip160)" d="M2048.8 128.366 Q2045.7 133.69 2044.19 138.898 Q2042.69 144.106 2042.69 149.453 Q2042.69 154.801 2044.19 160.055 Q2045.72 165.287 2048.8 170.588 L2045.1 170.588 Q2041.62 165.148 2039.89 159.893 Q2038.18 154.639 2038.18 149.453 Q2038.18 144.291 2039.89 139.06 Q2041.6 133.828 2045.1 128.366 L2048.8 128.366 Z" fill="#000000" fill-rule="evenodd" fill-opacity="1" /><path clip-path="url(#clip160)" d="M2061.28 131.051 L2061.28 138.412 L2070.05 138.412 L2070.05 141.722 L2061.28 141.722 L2061.28 155.796 Q2061.28 158.967 2062.13 159.87 Q2063.01 160.773 2065.68 160.773 L2070.05 160.773 L2070.05 164.338 L2065.68 164.338 Q2060.75 164.338 2058.87 162.509 Q2057 160.657 2057 155.796 L2057 141.722 L2053.87 141.722 L2053.87 138.412 L2057 138.412 L2057 131.051 L2061.28 131.051 Z" fill="#000000" fill-rule="evenodd" fill-opacity="1" /><path clip-path="url(#clip160)" d="M2074.98 128.366 L2078.68 128.366 Q2082.16 133.828 2083.87 139.06 Q2085.61 144.291 2085.61 149.453 Q2085.61 154.639 2083.87 159.893 Q2082.16 165.148 2078.68 170.588 L2074.98 170.588 Q2078.06 165.287 2079.56 160.055 Q2081.09 154.801 2081.09 149.453 Q2081.09 144.106 2079.56 138.898 Q2078.06 133.69 2074.98 128.366 Z" fill="#000000" fill-rule="evenodd" fill-opacity="1" /><path clip-path="url(#clip160)" d="M2095.24 158.458 L2100.12 158.458 L2100.12 164.338 L2095.24 164.338 L2095.24 158.458 M2095.24 139.824 L2100.12 139.824 L2100.12 145.703 L2095.24 145.703 L2095.24 139.824 Z" fill="#000000" fill-rule="evenodd" fill-opacity="1" /><path clip-path="url(#clip160)" d="M2142.25 142.347 L2142.25 128.319 L2146.51 128.319 L2146.51 164.338 L2142.25 164.338 L2142.25 160.449 Q2140.91 162.763 2138.85 163.898 Q2136.81 165.009 2133.94 165.009 Q2129.24 165.009 2126.28 161.259 Q2123.34 157.509 2123.34 151.398 Q2123.34 145.287 2126.28 141.537 Q2129.24 137.787 2133.94 137.787 Q2136.81 137.787 2138.85 138.921 Q2140.91 140.032 2142.25 142.347 M2127.74 151.398 Q2127.74 156.097 2129.66 158.782 Q2131.6 161.444 2134.98 161.444 Q2138.36 161.444 2140.3 158.782 Q2142.25 156.097 2142.25 151.398 Q2142.25 146.699 2140.3 144.037 Q2138.36 141.352 2134.98 141.352 Q2131.6 141.352 2129.66 144.037 Q2127.74 146.699 2127.74 151.398 Z" fill="#000000" fill-rule="evenodd" fill-opacity="1" /><path clip-path="url(#clip160)" d="M2155.28 138.412 L2159.54 138.412 L2159.54 164.338 L2155.28 164.338 L2155.28 138.412 M2155.28 128.319 L2159.54 128.319 L2159.54 133.713 L2155.28 133.713 L2155.28 128.319 Z" fill="#000000" fill-rule="evenodd" fill-opacity="1" /><path clip-path="url(#clip160)" d="M2183.48 142.393 Q2182.76 141.977 2181.9 141.791 Q2181.07 141.583 2180.05 141.583 Q2176.44 141.583 2174.49 143.944 Q2172.57 146.282 2172.57 150.68 L2172.57 164.338 L2168.29 164.338 L2168.29 138.412 L2172.57 138.412 L2172.57 142.44 Q2173.92 140.078 2176.07 138.944 Q2178.22 137.787 2181.3 137.787 Q2181.74 137.787 2182.27 137.856 Q2182.8 137.903 2183.45 138.018 L2183.48 142.393 Z" fill="#000000" fill-rule="evenodd" fill-opacity="1" /><path clip-path="url(#clip160)" d="M2209.08 150.31 L2209.08 152.393 L2189.49 152.393 Q2189.77 156.791 2192.13 159.106 Q2194.52 161.398 2198.75 161.398 Q2201.21 161.398 2203.5 160.796 Q2205.81 160.194 2208.08 158.99 L2208.08 163.018 Q2205.79 163.99 2203.38 164.5 Q2200.98 165.009 2198.5 165.009 Q2192.3 165.009 2188.66 161.398 Q2185.05 157.787 2185.05 151.629 Q2185.05 145.264 2188.48 141.537 Q2191.92 137.787 2197.76 137.787 Q2202.99 137.787 2206.02 141.166 Q2209.08 144.523 2209.08 150.31 M2204.82 149.06 Q2204.77 145.565 2202.85 143.481 Q2200.95 141.398 2197.8 141.398 Q2194.24 141.398 2192.09 143.412 Q2189.96 145.426 2189.63 149.083 L2204.82 149.06 Z" fill="#000000" fill-rule="evenodd" fill-opacity="1" /><path clip-path="url(#clip160)" d="M2234.73 139.407 L2234.73 143.389 Q2232.92 142.393 2231.09 141.907 Q2229.29 141.398 2227.43 141.398 Q2223.29 141.398 2221 144.037 Q2218.71 146.652 2218.71 151.398 Q2218.71 156.143 2221 158.782 Q2223.29 161.398 2227.43 161.398 Q2229.29 161.398 2231.09 160.912 Q2232.92 160.402 2234.73 159.407 L2234.73 163.342 Q2232.94 164.176 2231.02 164.592 Q2229.12 165.009 2226.97 165.009 Q2221.11 165.009 2217.67 161.328 Q2214.22 157.648 2214.22 151.398 Q2214.22 145.055 2217.69 141.421 Q2221.18 137.787 2227.25 137.787 Q2229.22 137.787 2231.09 138.203 Q2232.97 138.597 2234.73 139.407 Z" fill="#000000" fill-rule="evenodd" fill-opacity="1" /><path clip-path="url(#clip160)" d="M2246.35 131.051 L2246.35 138.412 L2255.12 138.412 L2255.12 141.722 L2246.35 141.722 L2246.35 155.796 Q2246.35 158.967 2247.2 159.87 Q2248.08 160.773 2250.74 160.773 L2255.12 160.773 L2255.12 164.338 L2250.74 164.338 Q2245.81 164.338 2243.94 162.509 Q2242.06 160.657 2242.06 155.796 L2242.06 141.722 L2238.94 141.722 L2238.94 138.412 L2242.06 138.412 L2242.06 131.051 L2246.35 131.051 Z" fill="#000000" fill-rule="evenodd" fill-opacity="1" /></svg>
