<?xml version="1.0" encoding="utf-8"?>
<svg xmlns="http://www.w3.org/2000/svg" xmlns:xlink="http://www.w3.org/1999/xlink" width="600" height="400" viewBox="0 0 2400 1600">
<defs>
  <clipPath id="clip160">
    <rect x="0" y="0" width="2400" height="1600"/>
  </clipPath>
</defs>
<path clip-path="url(#clip160)" d="M0 1600 L2400 1600 L2400 0 L0 0  Z" fill="#ffffff" fill-rule="evenodd" fill-opacity="1"/>
<defs>
  <clipPath id="clip161">
    <rect x="480" y="0" width="1681" height="1600"/>
  </clipPath>
</defs>
<defs>
  <clipPath id="clip162">
    <rect x="279" y="47" width="2074" height="1375"/>
  </clipPath>
</defs>
<path clip-path="url(#clip160)" d="M279.704 1420.99 L2352.76 1420.99 L2352.76 47.2441 L279.704 47.2441  Z" fill="#ffffff" fill-rule="evenodd" fill-opacity="1"/>
<polyline clip-path="url(#clip162)" style="stroke:#000000; stroke-linecap:round; stroke-linejoin:round; stroke-width:2; stroke-opacity:0.1; fill:none" points="-100130,1420.99 -100130,47.2441 "/>
<polyline clip-path="url(#clip162)" style="stroke:#000000; stroke-linecap:round; stroke-linejoin:round; stroke-width:2; stroke-opacity:0.1; fill:none" points="1316.23,1420.99 1316.23,47.2441 "/>
<polyline clip-path="url(#clip162)" style="stroke:#000000; stroke-linecap:round; stroke-linejoin:round; stroke-width:2; stroke-opacity:0.1; fill:none" points="134999,1420.99 134999,47.2441 "/>
<polyline clip-path="url(#clip162)" style="stroke:#000000; stroke-linecap:round; stroke-linejoin:round; stroke-width:2; stroke-opacity:0.1; fill:none" points="323125,1420.99 323125,47.2441 "/>
<polyline clip-path="url(#clip162)" style="stroke:#000000; stroke-linecap:round; stroke-linejoin:round; stroke-width:2; stroke-opacity:0.1; fill:none" points="410372,1420.99 410372,47.2441 "/>
<polyline clip-path="url(#clip162)" style="stroke:#000000; stroke-linecap:round; stroke-linejoin:round; stroke-width:2; stroke-opacity:0.1; fill:none" points="521785,1420.99 521785,47.2441 "/>
<polyline clip-path="url(#clip160)" style="stroke:#000000; stroke-linecap:round; stroke-linejoin:round; stroke-width:4; stroke-opacity:1; fill:none" points="279.704,1420.99 2352.76,1420.99 "/>
<polyline clip-path="url(#clip160)" style="stroke:#000000; stroke-linecap:round; stroke-linejoin:round; stroke-width:4; stroke-opacity:1; fill:none" points="-100130,1420.99 -100130,1402.09 "/>
<polyline clip-path="url(#clip160)" style="stroke:#000000; stroke-linecap:round; stroke-linejoin:round; stroke-width:4; stroke-opacity:1; fill:none" points="1316.23,1420.99 1316.23,1402.09 "/>
<polyline clip-path="url(#clip160)" style="stroke:#000000; stroke-linecap:round; stroke-linejoin:round; stroke-width:4; stroke-opacity:1; fill:none" points="134999,1420.99 134999,1402.09 "/>
<polyline clip-path="url(#clip160)" style="stroke:#000000; stroke-linecap:round; stroke-linejoin:round; stroke-width:4; stroke-opacity:1; fill:none" points="323125,1420.99 323125,1402.09 "/>
<polyline clip-path="url(#clip160)" style="stroke:#000000; stroke-linecap:round; stroke-linejoin:round; stroke-width:4; stroke-opacity:1; fill:none" points="410372,1420.99 410372,1402.09 "/>
<polyline clip-path="url(#clip160)" style="stroke:#000000; stroke-linecap:round; stroke-linejoin:round; stroke-width:4; stroke-opacity:1; fill:none" points="521785,1420.99 521785,1402.09 "/>
<path clip-path="url(#clip160)" d="M-100136 1479.46 L-100119 1479.46 L-100119 1483.39 L-100141 1483.39 L-100141 1479.46 Q-100139 1476.7 -100134 1472.07 Q-100129 1467.42 -100128 1466.08 Q-100126 1463.55 -100125 1461.82 Q-100124 1460.06 -100124 1458.37 Q-100124 1455.61 -100126 1453.88 Q-100128 1452.14 -100131 1452.14 Q-100133 1452.14 -100136 1452.91 Q-100138 1453.67 -100141 1455.22 L-100141 1450.5 Q-100138 1449.36 -100136 1448.79 Q-100133 1448.21 -100131 1448.21 Q-100126 1448.21 -100123 1450.89 Q-100119 1453.58 -100119 1458.07 Q-100119 1460.2 -100120 1462.12 Q-100121 1464.02 -100123 1466.61 Q-100124 1467.28 -100127 1470.5 Q-100130 1473.69 -100136 1479.46 Z" fill="#000000" fill-rule="nonzero" fill-opacity="1" /><path clip-path="url(#clip160)" d="M1302.66 1461.18 Q1302.66 1462.82 1300.29 1462.82 L1292.24 1462.82 L1289.03 1479.24 Q1288.96 1479.66 1288.86 1479.89 Q1288.79 1480.13 1288.58 1480.53 Q1288.39 1480.9 1288 1481.09 Q1287.62 1481.3 1287.06 1481.3 Q1286.36 1481.3 1286.01 1480.88 Q1285.68 1480.48 1285.68 1479.99 Q1285.68 1479.68 1286.15 1478.23 L1290.85 1462.82 L1286.87 1462.82 Q1283.12 1462.82 1280.78 1466.52 Q1280.41 1467.01 1280.2 1467.06 Q1280.1 1467.08 1280.01 1467.08 Q1279.75 1467.08 1279.59 1466.96 Q1279.45 1466.85 1279.45 1466.73 L1279.42 1466.61 Q1279.42 1466.45 1279.8 1465.79 Q1280.2 1465.11 1280.9 1464.11 Q1281.63 1463.1 1282.35 1462.3 Q1283.31 1461.27 1284.39 1460.73 Q1285.47 1460.17 1286.01 1460.1 Q1286.57 1460.03 1287.29 1460.03 L1300.74 1460.03 Q1301.35 1460.03 1301.68 1460.08 Q1302 1460.1 1302.33 1460.38 Q1302.66 1460.64 1302.66 1461.18 Z" fill="#000000" fill-rule="nonzero" fill-opacity="1" /><path clip-path="url(#clip160)" d="M1316.86 1450.32 Q1316.86 1449.75 1317.63 1449.37 L1322.3 1447.16 L1317.56 1444.95 Q1316.86 1444.62 1316.86 1444.05 Q1316.86 1443.72 1317.12 1443.42 Q1317.4 1443.11 1317.76 1443.11 Q1318.02 1443.11 1318.5 1443.47 L1322.66 1446.49 Q1322.15 1440.95 1322.17 1440.78 Q1322.17 1440.45 1322.42 1440.21 Q1322.66 1439.95 1323.07 1439.95 Q1323.4 1439.95 1323.66 1440.19 Q1323.94 1440.42 1323.94 1440.78 L1323.45 1446.49 L1327.17 1443.73 Q1328.04 1443.09 1328.35 1443.11 Q1328.73 1443.11 1328.99 1443.41 Q1329.25 1443.7 1329.25 1444.05 Q1329.25 1444.62 1328.48 1444.98 L1323.81 1447.19 L1328.55 1449.42 Q1329.25 1449.75 1329.25 1450.32 Q1329.25 1450.65 1328.97 1450.96 Q1328.71 1451.26 1328.35 1451.26 Q1328.15 1451.26 1327.81 1451.06 Q1327.74 1451.03 1327.04 1450.5 Q1326.33 1449.98 1325.24 1449.18 Q1324.15 1448.37 1323.45 1447.87 Q1323.96 1453.41 1323.94 1453.57 Q1323.94 1453.9 1323.69 1454.16 Q1323.45 1454.42 1323.04 1454.42 Q1322.71 1454.42 1322.43 1454.19 Q1322.17 1453.95 1322.17 1453.57 L1322.66 1447.87 L1317.97 1451.26 Q1317.46 1451.26 1317.19 1451.01 Q1316.92 1450.75 1316.89 1450.6 Q1316.86 1450.46 1316.86 1450.32 Z" fill="#000000" fill-rule="nonzero" fill-opacity="1" /><path clip-path="url(#clip160)" d="M1307.54 1475.41 L1307.54 1474.36 Q1311.58 1474.36 1313.66 1472.22 Q1314.23 1472.22 1314.33 1472.35 Q1314.43 1472.48 1314.43 1473.09 L1314.43 1491.92 Q1314.43 1492.92 1314.92 1493.24 Q1315.41 1493.55 1317.56 1493.55 L1318.63 1493.55 L1318.63 1494.58 Q1317.45 1494.48 1313.18 1494.48 Q1308.92 1494.48 1307.76 1494.58 L1307.76 1493.55 L1308.82 1493.55 Q1310.94 1493.55 1311.45 1493.25 Q1311.95 1492.94 1311.95 1491.92 L1311.95 1474.53 Q1310.2 1475.41 1307.54 1475.41 Z" fill="#000000" fill-rule="nonzero" fill-opacity="1" /><path clip-path="url(#clip160)" d="M134985 1461.18 Q134985 1462.82 134983 1462.82 L134975 1462.82 L134971 1479.24 Q134971 1479.66 134971 1479.89 Q134971 1480.13 134971 1480.53 Q134971 1480.9 134970 1481.09 Q134970 1481.3 134969 1481.3 Q134969 1481.3 134968 1480.88 Q134968 1480.48 134968 1479.99 Q134968 1479.68 134969 1478.23 L134973 1462.82 L134969 1462.82 Q134966 1462.82 134963 1466.52 Q134963 1467.01 134963 1467.06 Q134963 1467.08 134962 1467.08 Q134962 1467.08 134962 1466.96 Q134962 1466.85 134962 1466.73 L134962 1466.61 Q134962 1466.45 134962 1465.79 Q134963 1465.11 134963 1464.11 Q134964 1463.1 134965 1462.3 Q134966 1461.27 134967 1460.73 Q134968 1460.17 134968 1460.1 Q134969 1460.03 134970 1460.03 L134983 1460.03 Q134984 1460.03 134984 1460.08 Q134984 1460.1 134985 1460.38 Q134985 1460.64 134985 1461.18 Z" fill="#000000" fill-rule="nonzero" fill-opacity="1" /><path clip-path="url(#clip160)" d="M134999 1450.32 Q134999 1449.75 135000 1449.37 L135005 1447.16 L135000 1444.95 Q134999 1444.62 134999 1444.05 Q134999 1443.72 135000 1443.42 Q135000 1443.11 135000 1443.11 Q135000 1443.11 135001 1443.47 L135005 1446.49 Q135005 1440.95 135005 1440.78 Q135005 1440.45 135005 1440.21 Q135005 1439.95 135006 1439.95 Q135006 1439.95 135006 1440.19 Q135006 1440.42 135006 1440.78 L135006 1446.49 L135010 1443.73 Q135010 1443.09 135011 1443.11 Q135011 1443.11 135011 1443.41 Q135012 1443.7 135012 1444.05 Q135012 1444.62 135011 1444.98 L135006 1447.19 L135011 1449.42 Q135012 1449.75 135012 1450.32 Q135012 1450.65 135011 1450.96 Q135011 1451.26 135011 1451.26 Q135011 1451.26 135010 1451.06 Q135010 1451.03 135009 1450.5 Q135009 1449.98 135008 1449.18 Q135007 1448.37 135006 1447.87 Q135006 1453.41 135006 1453.57 Q135006 1453.9 135006 1454.16 Q135006 1454.42 135005 1454.42 Q135005 1454.42 135005 1454.19 Q135005 1453.95 135005 1453.57 L135005 1447.87 L135000 1451.26 Q135000 1451.26 135000 1451.01 Q134999 1450.75 134999 1450.6 Q134999 1450.46 134999 1450.32 Z" fill="#000000" fill-rule="nonzero" fill-opacity="1" /><path clip-path="url(#clip160)" d="M134990 1494.58 Q134990 1493.97 134990 1493.79 Q134990 1493.61 134990 1493.33 L134997 1486.15 Q135000 1482.19 135000 1478.73 Q135000 1476.48 134999 1474.87 Q134998 1473.27 134996 1473.27 Q134994 1473.27 134993 1474.17 Q134992 1475.07 134991 1476.68 Q134991 1476.64 134992 1476.64 Q134993 1476.64 134993 1477.17 Q134994 1477.69 134994 1478.4 Q134994 1479.3 134993 1479.74 Q134992 1480.17 134992 1480.17 Q134992 1480.17 134991 1480.12 Q134991 1480.07 134990 1479.61 Q134990 1479.14 134990 1478.3 Q134990 1475.96 134992 1474.09 Q134994 1472.22 134996 1472.22 Q134999 1472.22 135001 1474.05 Q135003 1475.87 135003 1478.73 Q135003 1479.73 135003 1480.64 Q135003 1481.55 135002 1482.25 Q135002 1482.96 135001 1484.09 Q135000 1485.22 134999 1486.02 Q134998 1486.83 134996 1488.53 L134993 1491.99 L134999 1491.99 Q135002 1491.99 135002 1491.73 Q135002 1491.25 135003 1488.74 L135003 1488.74 L135002 1494.58 L134990 1494.58 Z" fill="#000000" fill-rule="nonzero" fill-opacity="1" /><path clip-path="url(#clip160)" d="M323112 1461.18 Q323112 1462.82 323109 1462.82 L323101 1462.82 L323098 1479.24 Q323098 1479.66 323098 1479.89 Q323098 1480.13 323098 1480.53 Q323098 1480.9 323097 1481.09 Q323097 1481.3 323096 1481.3 Q323096 1481.3 323095 1480.88 Q323095 1480.48 323095 1479.99 Q323095 1479.68 323095 1478.23 L323100 1462.82 L323096 1462.82 Q323092 1462.82 323090 1466.52 Q323090 1467.01 323089 1467.06 Q323089 1467.08 323089 1467.08 Q323089 1467.08 323089 1466.96 Q323089 1466.85 323089 1466.73 L323089 1466.61 Q323089 1466.45 323089 1465.79 Q323089 1465.11 323090 1464.11 Q323091 1463.1 323092 1462.3 Q323093 1461.27 323094 1460.73 Q323095 1460.17 323095 1460.1 Q323096 1460.03 323096 1460.03 L323110 1460.03 Q323111 1460.03 323111 1460.08 Q323111 1460.1 323112 1460.38 Q323112 1460.64 323112 1461.18 Z" fill="#000000" fill-rule="nonzero" fill-opacity="1" /><path clip-path="url(#clip160)" d="M323126 1450.32 Q323126 1449.75 323127 1449.37 L323132 1447.16 L323127 1444.95 Q323126 1444.62 323126 1444.05 Q323126 1443.72 323126 1443.42 Q323127 1443.11 323127 1443.11 Q323127 1443.11 323128 1443.47 L323132 1446.49 Q323131 1440.95 323131 1440.78 Q323131 1440.45 323132 1440.21 Q323132 1439.95 323132 1439.95 Q323133 1439.95 323133 1440.19 Q323133 1440.42 323133 1440.78 L323133 1446.49 L323136 1443.73 Q323137 1443.09 323138 1443.11 Q323138 1443.11 323138 1443.41 Q323138 1443.7 323138 1444.05 Q323138 1444.62 323138 1444.98 L323133 1447.19 L323138 1449.42 Q323138 1449.75 323138 1450.32 Q323138 1450.65 323138 1450.96 Q323138 1451.26 323138 1451.26 Q323137 1451.26 323137 1451.06 Q323137 1451.03 323136 1450.5 Q323136 1449.98 323134 1449.18 Q323133 1448.37 323133 1447.87 Q323133 1453.41 323133 1453.57 Q323133 1453.9 323133 1454.16 Q323133 1454.42 323132 1454.42 Q323132 1454.42 323132 1454.19 Q323131 1453.95 323131 1453.57 L323132 1447.87 L323127 1451.26 Q323127 1451.26 323126 1451.01 Q323126 1450.75 323126 1450.6 Q323126 1450.46 323126 1450.32 Z" fill="#000000" fill-rule="nonzero" fill-opacity="1" /><path clip-path="url(#clip160)" d="M323117 1490.06 Q323117 1489.06 323117 1488.58 Q323118 1488.1 323119 1488.1 Q323119 1488.1 323120 1488.61 Q323120 1489.1 323120 1489.97 Q323120 1490.91 323120 1491.43 Q323119 1491.96 323118 1491.83 Q323119 1493.17 323121 1493.78 Q323122 1494.38 323123 1494.38 Q323125 1494.38 323126 1493.14 Q323127 1491.89 323127 1488.84 Q323127 1486.25 323126 1484.76 Q323125 1483.27 323123 1483.27 L323122 1483.27 Q323121 1483.27 323121 1483.22 Q323121 1483.17 323121 1482.89 Q323121 1482.56 323121 1482.5 Q323122 1482.5 323123 1482.4 Q323125 1482.33 323126 1480.64 Q323127 1479.07 323127 1476.82 Q323127 1474.77 323126 1473.92 Q323125 1473.05 323123 1473.05 Q323122 1473.05 323121 1473.55 Q323120 1474.04 323119 1475.14 Q323121 1475.14 323121 1476.82 Q323121 1477.56 323121 1478.05 Q323120 1478.53 323119 1478.53 Q323119 1478.53 323118 1478.07 Q323118 1477.59 323118 1476.79 Q323118 1474.87 323119 1473.55 Q323121 1472.22 323124 1472.22 Q323126 1472.22 323128 1473.53 Q323130 1474.84 323130 1476.86 Q323130 1478.84 323128 1480.46 Q323127 1482.09 323125 1482.76 Q323128 1483.27 323129 1485.01 Q323131 1486.73 323131 1488.84 Q323131 1491.47 323129 1493.4 Q323127 1495.32 323124 1495.32 Q323121 1495.32 323119 1493.81 Q323117 1492.3 323117 1490.06 Z" fill="#000000" fill-rule="nonzero" fill-opacity="1" /><path clip-path="url(#clip160)" d="M410358 1461.18 Q410358 1462.82 410356 1462.82 L410348 1462.82 L410345 1479.24 Q410345 1479.66 410345 1479.89 Q410345 1480.13 410344 1480.53 Q410344 1480.9 410344 1481.09 Q410343 1481.3 410343 1481.3 Q410342 1481.3 410342 1480.88 Q410342 1480.48 410342 1479.99 Q410342 1479.68 410342 1478.23 L410347 1462.82 L410343 1462.82 Q410339 1462.82 410337 1466.52 Q410336 1467.01 410336 1467.06 Q410336 1467.08 410336 1467.08 Q410336 1467.08 410335 1466.96 Q410335 1466.85 410335 1466.73 L410335 1466.61 Q410335 1466.45 410336 1465.79 Q410336 1465.11 410337 1464.11 Q410337 1463.1 410338 1462.3 Q410339 1461.27 410340 1460.73 Q410341 1460.17 410342 1460.1 Q410342 1460.03 410343 1460.03 L410357 1460.03 Q410357 1460.03 410358 1460.08 Q410358 1460.1 410358 1460.38 Q410358 1460.64 410358 1461.18 Z" fill="#000000" fill-rule="nonzero" fill-opacity="1" /><path clip-path="url(#clip160)" d="M410373 1450.32 Q410373 1449.75 410373 1449.37 L410378 1447.16 L410373 1444.95 Q410373 1444.62 410373 1444.05 Q410373 1443.72 410373 1443.42 Q410373 1443.11 410374 1443.11 Q410374 1443.11 410374 1443.47 L410378 1446.49 Q410378 1440.95 410378 1440.78 Q410378 1440.45 410378 1440.21 Q410378 1439.95 410379 1439.95 Q410379 1439.95 410379 1440.19 Q410380 1440.42 410380 1440.78 L410379 1446.49 L410383 1443.73 Q410384 1443.09 410384 1443.11 Q410385 1443.11 410385 1443.41 Q410385 1443.7 410385 1444.05 Q410385 1444.62 410384 1444.98 L410380 1447.19 L410384 1449.42 Q410385 1449.75 410385 1450.32 Q410385 1450.65 410385 1450.96 Q410385 1451.26 410384 1451.26 Q410384 1451.26 410384 1451.06 Q410384 1451.03 410383 1450.5 Q410382 1449.98 410381 1449.18 Q410380 1448.37 410379 1447.87 Q410380 1453.41 410380 1453.57 Q410380 1453.9 410380 1454.16 Q410379 1454.42 410379 1454.42 Q410379 1454.42 410378 1454.19 Q410378 1453.95 410378 1453.57 L410378 1447.87 L410374 1451.26 Q410373 1451.26 410373 1451.01 Q410373 1450.75 410373 1450.6 Q410373 1450.46 410373 1450.32 Z" fill="#000000" fill-rule="nonzero" fill-opacity="1" /><path clip-path="url(#clip160)" d="M410363 1489.26 L410363 1488.23 L410374 1472.47 Q410374 1472.06 410374 1472.08 Q410375 1472.08 410375 1472.23 Q410375 1472.37 410375 1472.95 L410375 1488.23 L410378 1488.23 L410378 1489.26 L410375 1489.26 L410375 1492.18 Q410375 1493.15 410375 1493.46 Q410376 1493.77 410377 1493.77 L410378 1493.77 L410378 1494.8 Q410377 1494.71 410374 1494.71 Q410370 1494.71 410369 1494.8 L410369 1493.77 L410370 1493.77 Q410371 1493.77 410372 1493.48 Q410372 1493.16 410372 1492.18 L410372 1489.26 L410363 1489.26 M410364 1488.23 L410373 1488.23 L410373 1475.7 L410364 1488.23 Z" fill="#000000" fill-rule="nonzero" fill-opacity="1" /><path clip-path="url(#clip160)" d="M521785 1466.98 Q521782 1466.98 521780 1468.76 Q521778 1470.55 521778 1473.67 Q521778 1476.8 521780 1478.58 Q521782 1480.36 521785 1480.36 Q521789 1480.36 521791 1478.58 Q521793 1476.77 521793 1473.67 Q521793 1470.55 521791 1468.76 Q521789 1466.98 521785 1466.98 M521781 1464.99 Q521778 1464.25 521776 1462.19 Q521774 1460.13 521774 1457.17 Q521774 1453.02 521777 1450.61 Q521780 1448.21 521785 1448.21 Q521791 1448.21 521793 1450.61 Q521796 1453.02 521796 1457.17 Q521796 1460.13 521795 1462.19 Q521793 1464.25 521790 1464.99 Q521793 1465.78 521795 1468.07 Q521797 1470.36 521797 1473.67 Q521797 1478.69 521794 1481.38 Q521791 1484.06 521785 1484.06 Q521780 1484.06 521777 1481.38 Q521774 1478.69 521774 1473.67 Q521774 1470.36 521775 1468.07 Q521777 1465.78 521781 1464.99 M521779 1457.61 Q521779 1460.29 521781 1461.8 Q521782 1463.3 521785 1463.3 Q521788 1463.3 521790 1461.8 Q521792 1460.29 521792 1457.61 Q521792 1454.92 521790 1453.42 Q521788 1451.91 521785 1451.91 Q521782 1451.91 521781 1453.42 Q521779 1454.92 521779 1457.61 Z" fill="#000000" fill-rule="nonzero" fill-opacity="1" /><path clip-path="url(#clip160)" d="M1315.29 1523.37 L1315.29 1533.49 L1327.35 1533.49 L1327.35 1538.04 L1315.29 1538.04 L1315.29 1557.39 Q1315.29 1561.75 1316.47 1562.99 Q1317.68 1564.24 1321.34 1564.24 L1327.35 1564.24 L1327.35 1569.14 L1321.34 1569.14 Q1314.56 1569.14 1311.98 1566.62 Q1309.4 1564.08 1309.4 1557.39 L1309.4 1538.04 L1305.11 1538.04 L1305.11 1533.49 L1309.4 1533.49 L1309.4 1523.37 L1315.29 1523.37 Z" fill="#000000" fill-rule="nonzero" fill-opacity="1" /><polyline clip-path="url(#clip162)" style="stroke:#000000; stroke-linecap:round; stroke-linejoin:round; stroke-width:2; stroke-opacity:0.1; fill:none" points="279.704,1420.99 2352.76,1420.99 "/>
<polyline clip-path="url(#clip162)" style="stroke:#000000; stroke-linecap:round; stroke-linejoin:round; stroke-width:2; stroke-opacity:0.1; fill:none" points="279.704,1077.56 2352.76,1077.56 "/>
<polyline clip-path="url(#clip162)" style="stroke:#000000; stroke-linecap:round; stroke-linejoin:round; stroke-width:2; stroke-opacity:0.1; fill:none" points="279.704,734.118 2352.76,734.118 "/>
<polyline clip-path="url(#clip162)" style="stroke:#000000; stroke-linecap:round; stroke-linejoin:round; stroke-width:2; stroke-opacity:0.1; fill:none" points="279.704,390.681 2352.76,390.681 "/>
<polyline clip-path="url(#clip162)" style="stroke:#000000; stroke-linecap:round; stroke-linejoin:round; stroke-width:2; stroke-opacity:0.1; fill:none" points="279.704,47.2441 2352.76,47.2441 "/>
<polyline clip-path="url(#clip160)" style="stroke:#000000; stroke-linecap:round; stroke-linejoin:round; stroke-width:4; stroke-opacity:1; fill:none" points="279.704,1420.99 279.704,47.2441 "/>
<polyline clip-path="url(#clip160)" style="stroke:#000000; stroke-linecap:round; stroke-linejoin:round; stroke-width:4; stroke-opacity:1; fill:none" points="279.704,1420.99 298.602,1420.99 "/>
<polyline clip-path="url(#clip160)" style="stroke:#000000; stroke-linecap:round; stroke-linejoin:round; stroke-width:4; stroke-opacity:1; fill:none" points="279.704,1077.56 298.602,1077.56 "/>
<polyline clip-path="url(#clip160)" style="stroke:#000000; stroke-linecap:round; stroke-linejoin:round; stroke-width:4; stroke-opacity:1; fill:none" points="279.704,734.118 298.602,734.118 "/>
<polyline clip-path="url(#clip160)" style="stroke:#000000; stroke-linecap:round; stroke-linejoin:round; stroke-width:4; stroke-opacity:1; fill:none" points="279.704,390.681 298.602,390.681 "/>
<polyline clip-path="url(#clip160)" style="stroke:#000000; stroke-linecap:round; stroke-linejoin:round; stroke-width:4; stroke-opacity:1; fill:none" points="279.704,47.2441 298.602,47.2441 "/>
<path clip-path="url(#clip160)" d="M126.205 1406.79 Q122.593 1406.79 120.765 1410.36 Q118.959 1413.9 118.959 1421.03 Q118.959 1428.13 120.765 1431.7 Q122.593 1435.24 126.205 1435.24 Q129.839 1435.24 131.644 1431.7 Q133.473 1428.13 133.473 1421.03 Q133.473 1413.9 131.644 1410.36 Q129.839 1406.79 126.205 1406.79 M126.205 1403.09 Q132.015 1403.09 135.07 1407.69 Q138.149 1412.28 138.149 1421.03 Q138.149 1429.75 135.07 1434.36 Q132.015 1438.94 126.205 1438.94 Q120.394 1438.94 117.316 1434.36 Q114.26 1429.75 114.26 1421.03 Q114.26 1412.28 117.316 1407.69 Q120.394 1403.09 126.205 1403.09 Z" fill="#000000" fill-rule="nonzero" fill-opacity="1" /><path clip-path="url(#clip160)" d="M146.366 1432.39 L151.251 1432.39 L151.251 1438.27 L146.366 1438.27 L146.366 1432.39 Z" fill="#000000" fill-rule="nonzero" fill-opacity="1" /><path clip-path="url(#clip160)" d="M172.014 1419.13 Q168.866 1419.13 167.015 1421.28 Q165.186 1423.43 165.186 1427.18 Q165.186 1430.91 167.015 1433.09 Q168.866 1435.24 172.014 1435.24 Q175.163 1435.24 176.991 1433.09 Q178.843 1430.91 178.843 1427.18 Q178.843 1423.43 176.991 1421.28 Q175.163 1419.13 172.014 1419.13 M181.297 1404.48 L181.297 1408.74 Q179.538 1407.9 177.732 1407.46 Q175.95 1407.02 174.19 1407.02 Q169.561 1407.02 167.107 1410.15 Q164.677 1413.27 164.329 1419.59 Q165.695 1417.58 167.755 1416.51 Q169.815 1415.43 172.292 1415.43 Q177.501 1415.43 180.51 1418.6 Q183.542 1421.74 183.542 1427.18 Q183.542 1432.51 180.394 1435.73 Q177.246 1438.94 172.014 1438.94 Q166.019 1438.94 162.848 1434.36 Q159.677 1429.75 159.677 1421.03 Q159.677 1412.83 163.565 1407.97 Q167.454 1403.09 174.005 1403.09 Q175.764 1403.09 177.547 1403.43 Q179.352 1403.78 181.297 1404.48 Z" fill="#000000" fill-rule="nonzero" fill-opacity="1" /><path clip-path="url(#clip160)" d="M205.764 1419.64 Q209.121 1420.36 210.996 1422.62 Q212.894 1424.89 212.894 1428.23 Q212.894 1433.34 209.375 1436.14 Q205.857 1438.94 199.375 1438.94 Q197.2 1438.94 194.885 1438.5 Q192.593 1438.09 190.139 1437.23 L190.139 1432.72 Q192.084 1433.85 194.399 1434.43 Q196.713 1435.01 199.237 1435.01 Q203.635 1435.01 205.926 1433.27 Q208.241 1431.54 208.241 1428.23 Q208.241 1425.17 206.088 1423.46 Q203.959 1421.72 200.139 1421.72 L196.112 1421.72 L196.112 1417.88 L200.325 1417.88 Q203.774 1417.88 205.602 1416.51 Q207.431 1415.12 207.431 1412.53 Q207.431 1409.87 205.533 1408.46 Q203.658 1407.02 200.139 1407.02 Q198.218 1407.02 196.019 1407.44 Q193.82 1407.86 191.181 1408.74 L191.181 1404.57 Q193.843 1403.83 196.158 1403.46 Q198.496 1403.09 200.556 1403.09 Q205.88 1403.09 208.982 1405.52 Q212.084 1407.93 212.084 1412.05 Q212.084 1414.92 210.44 1416.91 Q208.797 1418.87 205.764 1419.64 Z" fill="#000000" fill-rule="nonzero" fill-opacity="1" /><path clip-path="url(#clip160)" d="M231.76 1406.79 Q228.148 1406.79 226.32 1410.36 Q224.514 1413.9 224.514 1421.03 Q224.514 1428.13 226.32 1431.7 Q228.148 1435.24 231.76 1435.24 Q235.394 1435.24 237.199 1431.7 Q239.028 1428.13 239.028 1421.03 Q239.028 1413.9 237.199 1410.36 Q235.394 1406.79 231.76 1406.79 M231.76 1403.09 Q237.57 1403.09 240.625 1407.69 Q243.704 1412.28 243.704 1421.03 Q243.704 1429.75 240.625 1434.36 Q237.57 1438.94 231.76 1438.94 Q225.949 1438.94 222.871 1434.36 Q219.815 1429.75 219.815 1421.03 Q219.815 1412.28 222.871 1407.69 Q225.949 1403.09 231.76 1403.09 Z" fill="#000000" fill-rule="nonzero" fill-opacity="1" /><path clip-path="url(#clip160)" d="M127.2 1063.35 Q123.589 1063.35 121.76 1066.92 Q119.955 1070.46 119.955 1077.59 Q119.955 1084.7 121.76 1088.26 Q123.589 1091.8 127.2 1091.8 Q130.834 1091.8 132.64 1088.26 Q134.468 1084.7 134.468 1077.59 Q134.468 1070.46 132.64 1066.92 Q130.834 1063.35 127.2 1063.35 M127.2 1059.65 Q133.01 1059.65 136.066 1064.26 Q139.144 1068.84 139.144 1077.59 Q139.144 1086.32 136.066 1090.92 Q133.01 1095.51 127.2 1095.51 Q121.39 1095.51 118.311 1090.92 Q115.256 1086.32 115.256 1077.59 Q115.256 1068.84 118.311 1064.26 Q121.39 1059.65 127.2 1059.65 Z" fill="#000000" fill-rule="nonzero" fill-opacity="1" /><path clip-path="url(#clip160)" d="M147.362 1088.96 L152.246 1088.96 L152.246 1094.84 L147.362 1094.84 L147.362 1088.96 Z" fill="#000000" fill-rule="nonzero" fill-opacity="1" /><path clip-path="url(#clip160)" d="M173.01 1075.69 Q169.862 1075.69 168.01 1077.84 Q166.181 1080 166.181 1083.75 Q166.181 1087.47 168.01 1089.65 Q169.862 1091.8 173.01 1091.8 Q176.158 1091.8 177.987 1089.65 Q179.839 1087.47 179.839 1083.75 Q179.839 1080 177.987 1077.84 Q176.158 1075.69 173.01 1075.69 M182.292 1061.04 L182.292 1065.3 Q180.533 1064.47 178.727 1064.03 Q176.945 1063.59 175.186 1063.59 Q170.556 1063.59 168.102 1066.71 Q165.672 1069.84 165.325 1076.15 Q166.69 1074.14 168.751 1073.08 Q170.811 1071.99 173.288 1071.99 Q178.496 1071.99 181.505 1075.16 Q184.538 1078.31 184.538 1083.75 Q184.538 1089.07 181.389 1092.29 Q178.241 1095.51 173.01 1095.51 Q167.015 1095.51 163.843 1090.92 Q160.672 1086.32 160.672 1077.59 Q160.672 1069.4 164.561 1064.53 Q168.45 1059.65 175.001 1059.65 Q176.76 1059.65 178.542 1060 Q180.348 1060.34 182.292 1061.04 Z" fill="#000000" fill-rule="nonzero" fill-opacity="1" /><path clip-path="url(#clip160)" d="M206.76 1076.2 Q210.116 1076.92 211.991 1079.19 Q213.889 1081.46 213.889 1084.79 Q213.889 1089.9 210.371 1092.71 Q206.852 1095.51 200.371 1095.51 Q198.195 1095.51 195.88 1095.07 Q193.588 1094.65 191.135 1093.79 L191.135 1089.28 Q193.079 1090.41 195.394 1090.99 Q197.709 1091.57 200.232 1091.57 Q204.63 1091.57 206.922 1089.84 Q209.237 1088.1 209.237 1084.79 Q209.237 1081.73 207.084 1080.02 Q204.954 1078.28 201.135 1078.28 L197.107 1078.28 L197.107 1074.44 L201.32 1074.44 Q204.769 1074.44 206.598 1073.08 Q208.426 1071.69 208.426 1069.09 Q208.426 1066.43 206.528 1065.02 Q204.653 1063.59 201.135 1063.59 Q199.213 1063.59 197.014 1064 Q194.815 1064.42 192.176 1065.3 L192.176 1061.13 Q194.838 1060.39 197.153 1060.02 Q199.491 1059.65 201.551 1059.65 Q206.875 1059.65 209.977 1062.08 Q213.079 1064.49 213.079 1068.61 Q213.079 1071.48 211.436 1073.47 Q209.792 1075.44 206.76 1076.2 Z" fill="#000000" fill-rule="nonzero" fill-opacity="1" /><path clip-path="url(#clip160)" d="M222.801 1060.28 L241.158 1060.28 L241.158 1064.21 L227.084 1064.21 L227.084 1072.68 Q228.102 1072.34 229.121 1072.17 Q230.139 1071.99 231.158 1071.99 Q236.945 1071.99 240.324 1075.16 Q243.704 1078.33 243.704 1083.75 Q243.704 1089.33 240.232 1092.43 Q236.76 1095.51 230.44 1095.51 Q228.264 1095.51 225.996 1095.14 Q223.75 1094.77 221.343 1094.03 L221.343 1089.33 Q223.426 1090.46 225.648 1091.02 Q227.871 1091.57 230.347 1091.57 Q234.352 1091.57 236.69 1089.47 Q239.028 1087.36 239.028 1083.75 Q239.028 1080.14 236.69 1078.03 Q234.352 1075.92 230.347 1075.92 Q228.473 1075.92 226.598 1076.34 Q224.746 1076.76 222.801 1077.64 L222.801 1060.28 Z" fill="#000000" fill-rule="nonzero" fill-opacity="1" /><path clip-path="url(#clip160)" d="M126.205 719.917 Q122.593 719.917 120.765 723.482 Q118.959 727.023 118.959 734.153 Q118.959 741.259 120.765 744.824 Q122.593 748.366 126.205 748.366 Q129.839 748.366 131.644 744.824 Q133.473 741.259 133.473 734.153 Q133.473 727.023 131.644 723.482 Q129.839 719.917 126.205 719.917 M126.205 716.213 Q132.015 716.213 135.07 720.82 Q138.149 725.403 138.149 734.153 Q138.149 742.88 135.07 747.486 Q132.015 752.07 126.205 752.07 Q120.394 752.07 117.316 747.486 Q114.26 742.88 114.26 734.153 Q114.26 725.403 117.316 720.82 Q120.394 716.213 126.205 716.213 Z" fill="#000000" fill-rule="nonzero" fill-opacity="1" /><path clip-path="url(#clip160)" d="M146.366 745.519 L151.251 745.519 L151.251 751.398 L146.366 751.398 L146.366 745.519 Z" fill="#000000" fill-rule="nonzero" fill-opacity="1" /><path clip-path="url(#clip160)" d="M172.014 732.255 Q168.866 732.255 167.015 734.408 Q165.186 736.56 165.186 740.31 Q165.186 744.037 167.015 746.213 Q168.866 748.366 172.014 748.366 Q175.163 748.366 176.991 746.213 Q178.843 744.037 178.843 740.31 Q178.843 736.56 176.991 734.408 Q175.163 732.255 172.014 732.255 M181.297 717.602 L181.297 721.861 Q179.538 721.028 177.732 720.588 Q175.95 720.148 174.19 720.148 Q169.561 720.148 167.107 723.273 Q164.677 726.398 164.329 732.718 Q165.695 730.704 167.755 729.639 Q169.815 728.551 172.292 728.551 Q177.501 728.551 180.51 731.722 Q183.542 734.871 183.542 740.31 Q183.542 745.634 180.394 748.852 Q177.246 752.07 172.014 752.07 Q166.019 752.07 162.848 747.486 Q159.677 742.88 159.677 734.153 Q159.677 725.959 163.565 721.098 Q167.454 716.213 174.005 716.213 Q175.764 716.213 177.547 716.56 Q179.352 716.908 181.297 717.602 Z" fill="#000000" fill-rule="nonzero" fill-opacity="1" /><path clip-path="url(#clip160)" d="M204.445 720.912 L192.639 739.361 L204.445 739.361 L204.445 720.912 M203.218 716.838 L209.098 716.838 L209.098 739.361 L214.028 739.361 L214.028 743.25 L209.098 743.25 L209.098 751.398 L204.445 751.398 L204.445 743.25 L188.843 743.25 L188.843 738.736 L203.218 716.838 Z" fill="#000000" fill-rule="nonzero" fill-opacity="1" /><path clip-path="url(#clip160)" d="M231.76 719.917 Q228.148 719.917 226.32 723.482 Q224.514 727.023 224.514 734.153 Q224.514 741.259 226.32 744.824 Q228.148 748.366 231.76 748.366 Q235.394 748.366 237.199 744.824 Q239.028 741.259 239.028 734.153 Q239.028 727.023 237.199 723.482 Q235.394 719.917 231.76 719.917 M231.76 716.213 Q237.57 716.213 240.625 720.82 Q243.704 725.403 243.704 734.153 Q243.704 742.88 240.625 747.486 Q237.57 752.07 231.76 752.07 Q225.949 752.07 222.871 747.486 Q219.815 742.88 219.815 734.153 Q219.815 725.403 222.871 720.82 Q225.949 716.213 231.76 716.213 Z" fill="#000000" fill-rule="nonzero" fill-opacity="1" /><path clip-path="url(#clip160)" d="M127.2 376.48 Q123.589 376.48 121.76 380.045 Q119.955 383.586 119.955 390.716 Q119.955 397.822 121.76 401.387 Q123.589 404.929 127.2 404.929 Q130.834 404.929 132.64 401.387 Q134.468 397.822 134.468 390.716 Q134.468 383.586 132.64 380.045 Q130.834 376.48 127.2 376.48 M127.2 372.776 Q133.01 372.776 136.066 377.383 Q139.144 381.966 139.144 390.716 Q139.144 399.443 136.066 404.049 Q133.01 408.632 127.2 408.632 Q121.39 408.632 118.311 404.049 Q115.256 399.443 115.256 390.716 Q115.256 381.966 118.311 377.383 Q121.39 372.776 127.2 372.776 Z" fill="#000000" fill-rule="nonzero" fill-opacity="1" /><path clip-path="url(#clip160)" d="M147.362 402.082 L152.246 402.082 L152.246 407.961 L147.362 407.961 L147.362 402.082 Z" fill="#000000" fill-rule="nonzero" fill-opacity="1" /><path clip-path="url(#clip160)" d="M173.01 388.818 Q169.862 388.818 168.01 390.971 Q166.181 393.123 166.181 396.873 Q166.181 400.6 168.01 402.776 Q169.862 404.929 173.01 404.929 Q176.158 404.929 177.987 402.776 Q179.839 400.6 179.839 396.873 Q179.839 393.123 177.987 390.971 Q176.158 388.818 173.01 388.818 M182.292 374.165 L182.292 378.424 Q180.533 377.591 178.727 377.151 Q176.945 376.711 175.186 376.711 Q170.556 376.711 168.102 379.836 Q165.672 382.961 165.325 389.281 Q166.69 387.267 168.751 386.202 Q170.811 385.114 173.288 385.114 Q178.496 385.114 181.505 388.285 Q184.538 391.433 184.538 396.873 Q184.538 402.197 181.389 405.415 Q178.241 408.632 173.01 408.632 Q167.015 408.632 163.843 404.049 Q160.672 399.443 160.672 390.716 Q160.672 382.522 164.561 377.66 Q168.45 372.776 175.001 372.776 Q176.76 372.776 178.542 373.123 Q180.348 373.471 182.292 374.165 Z" fill="#000000" fill-rule="nonzero" fill-opacity="1" /><path clip-path="url(#clip160)" d="M205.44 377.475 L193.635 395.924 L205.44 395.924 L205.44 377.475 M204.213 373.401 L210.093 373.401 L210.093 395.924 L215.024 395.924 L215.024 399.813 L210.093 399.813 L210.093 407.961 L205.44 407.961 L205.44 399.813 L189.838 399.813 L189.838 395.299 L204.213 373.401 Z" fill="#000000" fill-rule="nonzero" fill-opacity="1" /><path clip-path="url(#clip160)" d="M222.801 373.401 L241.158 373.401 L241.158 377.336 L227.084 377.336 L227.084 385.809 Q228.102 385.461 229.121 385.299 Q230.139 385.114 231.158 385.114 Q236.945 385.114 240.324 388.285 Q243.704 391.457 243.704 396.873 Q243.704 402.452 240.232 405.554 Q236.76 408.632 230.44 408.632 Q228.264 408.632 225.996 408.262 Q223.75 407.892 221.343 407.151 L221.343 402.452 Q223.426 403.586 225.648 404.142 Q227.871 404.697 230.347 404.697 Q234.352 404.697 236.69 402.591 Q239.028 400.484 239.028 396.873 Q239.028 393.262 236.69 391.156 Q234.352 389.049 230.347 389.049 Q228.473 389.049 226.598 389.466 Q224.746 389.883 222.801 390.762 L222.801 373.401 Z" fill="#000000" fill-rule="nonzero" fill-opacity="1" /><path clip-path="url(#clip160)" d="M126.205 33.0428 Q122.593 33.0428 120.765 36.6076 Q118.959 40.1492 118.959 47.2788 Q118.959 54.3853 120.765 57.9501 Q122.593 61.4917 126.205 61.4917 Q129.839 61.4917 131.644 57.9501 Q133.473 54.3853 133.473 47.2788 Q133.473 40.1492 131.644 36.6076 Q129.839 33.0428 126.205 33.0428 M126.205 29.3391 Q132.015 29.3391 135.07 33.9456 Q138.149 38.5289 138.149 47.2788 Q138.149 56.0056 135.07 60.6121 Q132.015 65.1954 126.205 65.1954 Q120.394 65.1954 117.316 60.6121 Q114.26 56.0056 114.26 47.2788 Q114.26 38.5289 117.316 33.9456 Q120.394 29.3391 126.205 29.3391 Z" fill="#000000" fill-rule="nonzero" fill-opacity="1" /><path clip-path="url(#clip160)" d="M146.366 58.6445 L151.251 58.6445 L151.251 64.5241 L146.366 64.5241 L146.366 58.6445 Z" fill="#000000" fill-rule="nonzero" fill-opacity="1" /><path clip-path="url(#clip160)" d="M172.014 45.3807 Q168.866 45.3807 167.015 47.5334 Q165.186 49.6862 165.186 53.4362 Q165.186 57.163 167.015 59.3389 Q168.866 61.4917 172.014 61.4917 Q175.163 61.4917 176.991 59.3389 Q178.843 57.163 178.843 53.4362 Q178.843 49.6862 176.991 47.5334 Q175.163 45.3807 172.014 45.3807 M181.297 30.728 L181.297 34.9872 Q179.538 34.1539 177.732 33.7141 Q175.95 33.2743 174.19 33.2743 Q169.561 33.2743 167.107 36.3992 Q164.677 39.5242 164.329 45.8436 Q165.695 43.8298 167.755 42.765 Q169.815 41.677 172.292 41.677 Q177.501 41.677 180.51 44.8483 Q183.542 47.9964 183.542 53.4362 Q183.542 58.7602 180.394 61.9778 Q177.246 65.1954 172.014 65.1954 Q166.019 65.1954 162.848 60.6121 Q159.677 56.0056 159.677 47.2788 Q159.677 39.0844 163.565 34.2233 Q167.454 29.3391 174.005 29.3391 Q175.764 29.3391 177.547 29.6863 Q179.352 30.0335 181.297 30.728 Z" fill="#000000" fill-rule="nonzero" fill-opacity="1" /><path clip-path="url(#clip160)" d="M191.644 29.9641 L210 29.9641 L210 33.8993 L195.926 33.8993 L195.926 42.3714 Q196.945 42.0242 197.963 41.8622 Q198.982 41.677 200 41.677 Q205.787 41.677 209.167 44.8483 Q212.547 48.0196 212.547 53.4362 Q212.547 59.0149 209.074 62.1167 Q205.602 65.1954 199.283 65.1954 Q197.107 65.1954 194.838 64.825 Q192.593 64.4547 190.186 63.7139 L190.186 59.0149 Q192.269 60.1491 194.491 60.7047 Q196.713 61.2602 199.19 61.2602 Q203.195 61.2602 205.533 59.1538 Q207.871 57.0473 207.871 53.4362 Q207.871 49.8251 205.533 47.7186 Q203.195 45.6122 199.19 45.6122 Q197.315 45.6122 195.44 46.0288 Q193.588 46.4455 191.644 47.3251 L191.644 29.9641 Z" fill="#000000" fill-rule="nonzero" fill-opacity="1" /><path clip-path="url(#clip160)" d="M231.76 33.0428 Q228.148 33.0428 226.32 36.6076 Q224.514 40.1492 224.514 47.2788 Q224.514 54.3853 226.32 57.9501 Q228.148 61.4917 231.76 61.4917 Q235.394 61.4917 237.199 57.9501 Q239.028 54.3853 239.028 47.2788 Q239.028 40.1492 237.199 36.6076 Q235.394 33.0428 231.76 33.0428 M231.76 29.3391 Q237.57 29.3391 240.625 33.9456 Q243.704 38.5289 243.704 47.2788 Q243.704 56.0056 240.625 60.6121 Q237.57 65.1954 231.76 65.1954 Q225.949 65.1954 222.871 60.6121 Q219.815 56.0056 219.815 47.2788 Q219.815 38.5289 222.871 33.9456 Q225.949 29.3391 231.76 29.3391 Z" fill="#000000" fill-rule="nonzero" fill-opacity="1" /><path clip-path="url(#clip160)" d="M58.657 763.687 L77.5631 763.687 L77.5631 769.575 L28.3562 769.575 L28.3562 763.687 L33.7671 763.687 Q30.5842 761.841 29.0564 759.04 Q27.4968 756.207 27.4968 752.292 Q27.4968 745.799 32.6531 741.757 Q37.8093 737.683 46.212 737.683 Q54.6147 737.683 59.771 741.757 Q64.9272 745.799 64.9272 752.292 Q64.9272 756.207 63.3994 759.04 Q61.8398 761.841 58.657 763.687 M46.212 743.762 Q39.7508 743.762 36.0905 746.436 Q32.3984 749.078 32.3984 753.725 Q32.3984 758.372 36.0905 761.045 Q39.7508 763.687 46.212 763.687 Q52.6732 763.687 56.3653 761.045 Q60.0256 758.372 60.0256 753.725 Q60.0256 749.078 56.3653 746.436 Q52.6732 743.762 46.212 743.762 Z" fill="#000000" fill-rule="nonzero" fill-opacity="1" /><path clip-path="url(#clip160)" d="M58.5933 726.034 L58.5933 715.53 L22.3406 715.53 L24.6323 726.957 L18.7758 726.957 L16.4842 715.594 L16.4842 709.165 L58.5933 709.165 L58.5933 698.661 L64.0042 698.661 L64.0042 726.034 L58.5933 726.034 Z" fill="#000000" fill-rule="nonzero" fill-opacity="1" /><polyline clip-path="url(#clip162)" style="stroke:#ffa500; stroke-linecap:round; stroke-linejoin:round; stroke-width:8; stroke-opacity:1; fill:none" points="-307435,-25221.7 -297070,-25221.7 -286705,-25221.7 -276340,-25221.7 -265974,-25221.7 -255609,-25221.7 -245244,-25221.7 -234879,-25221.7 -224513,-25221.7 -214148,-25221.7 -203783,-25221.7 -193418,-25221.7 -183052,-25221.7 -172687,-25221.7 -162322,-25221.7 -151957,-25221.7 -141591,-25221.7 -131226,-25221.7 -120861,-25221.7 -110495,-25221.7 -100130,-25221.7 -89765,-25221.7 -79399.7,-25221.7 -69034.4,-25221.7 -58669.2,-25221.7 -48303.9,-25221.7 -37938.7,-25221.7 -27573.4,-25221.7 -17208.1,-25221.7 -6842.88,-25221.7 1316.23,-25221.7 1316.23,-25417.2 11681.5,-25417.2 22046.7,-25417.2 32412,-25417.2 42777.3,-25417.2 53142.5,-25417.2 63507.8,-25417.2 73873,-25417.2 84238.3,-25417.2 94603.6,-25417.2 104969,-25417.2 115334,-25417.2 125699,-25417.2 134999,-25417.2 134999,-25632.8 145364,-25632.8 155729,-25632.8 166094,-25632.8 176460,-25632.8 186825,-25632.8 197190,-25632.8 207555,-25632.8 217921,-25632.8 228286,-25632.8 238651,-25632.8 249017,-25632.8 259382,-25632.8 269747,-25632.8 280112,-25632.8 290478,-25632.8 300843,-25632.8 311208,-25632.8 321573,-25632.8 323125,-25632.8 323125,-24726.3 333491,-24726.3 343856,-24726.3 354221,-24726.3 364586,-24726.3 374952,-24726.3 385317,-24726.3 395682,-24726.3 406048,-24726.3 410372,-24726.3 410372,-23993.4 420737,-23993.4 431103,-23993.4 441468,-23993.4 451833,-23993.4 462198,-23993.4 472564,-23993.4 482929,-23993.4 493294,-23993.4 503659,-23993.4 514025,-23993.4 521785,-23993.4 "/>
</svg>
