<?xml version="1.0" encoding="utf-8"?>
<svg xmlns="http://www.w3.org/2000/svg" xmlns:xlink="http://www.w3.org/1999/xlink" width="600" height="400" viewBox="0 0 2400 1600">
<defs>
  <clipPath id="clip360">
    <rect x="0" y="0" width="2400" height="1600"/>
  </clipPath>
</defs>
<path clip-path="url(#clip360)" d="M0 1600 L2400 1600 L2400 0 L0 0  Z" fill="#ffffff" fill-rule="evenodd" fill-opacity="1"/>
<defs>
  <clipPath id="clip361">
    <rect x="480" y="0" width="1681" height="1600"/>
  </clipPath>
</defs>
<path clip-path="url(#clip360)" d="M193.936 1486.45 L2352.76 1486.45 L2352.76 47.2441 L193.936 47.2441  Z" fill="#ffffff" fill-rule="evenodd" fill-opacity="1"/>
<defs>
  <clipPath id="clip362">
    <rect x="193" y="47" width="2160" height="1440"/>
  </clipPath>
</defs>
<polyline clip-path="url(#clip362)" style="stroke:#000000; stroke-linecap:round; stroke-linejoin:round; stroke-width:2; stroke-opacity:0.1; fill:none" points="255.035,1486.45 255.035,47.2441 "/>
<polyline clip-path="url(#clip362)" style="stroke:#000000; stroke-linecap:round; stroke-linejoin:round; stroke-width:2; stroke-opacity:0.1; fill:none" points="678.646,1486.45 678.646,47.2441 "/>
<polyline clip-path="url(#clip362)" style="stroke:#000000; stroke-linecap:round; stroke-linejoin:round; stroke-width:2; stroke-opacity:0.1; fill:none" points="1102.26,1486.45 1102.26,47.2441 "/>
<polyline clip-path="url(#clip362)" style="stroke:#000000; stroke-linecap:round; stroke-linejoin:round; stroke-width:2; stroke-opacity:0.1; fill:none" points="1525.87,1486.45 1525.87,47.2441 "/>
<polyline clip-path="url(#clip362)" style="stroke:#000000; stroke-linecap:round; stroke-linejoin:round; stroke-width:2; stroke-opacity:0.1; fill:none" points="1949.48,1486.45 1949.48,47.2441 "/>
<polyline clip-path="url(#clip360)" style="stroke:#000000; stroke-linecap:round; stroke-linejoin:round; stroke-width:4; stroke-opacity:1; fill:none" points="193.936,1486.45 2352.76,1486.45 "/>
<polyline clip-path="url(#clip360)" style="stroke:#000000; stroke-linecap:round; stroke-linejoin:round; stroke-width:4; stroke-opacity:1; fill:none" points="255.035,1486.45 255.035,1467.55 "/>
<polyline clip-path="url(#clip360)" style="stroke:#000000; stroke-linecap:round; stroke-linejoin:round; stroke-width:4; stroke-opacity:1; fill:none" points="678.646,1486.45 678.646,1467.55 "/>
<polyline clip-path="url(#clip360)" style="stroke:#000000; stroke-linecap:round; stroke-linejoin:round; stroke-width:4; stroke-opacity:1; fill:none" points="1102.26,1486.45 1102.26,1467.55 "/>
<polyline clip-path="url(#clip360)" style="stroke:#000000; stroke-linecap:round; stroke-linejoin:round; stroke-width:4; stroke-opacity:1; fill:none" points="1525.87,1486.45 1525.87,1467.55 "/>
<polyline clip-path="url(#clip360)" style="stroke:#000000; stroke-linecap:round; stroke-linejoin:round; stroke-width:4; stroke-opacity:1; fill:none" points="1949.48,1486.45 1949.48,1467.55 "/>
<path clip-path="url(#clip360)" d="M255.035 1517.37 Q251.424 1517.37 249.595 1520.93 Q247.789 1524.47 247.789 1531.6 Q247.789 1538.71 249.595 1542.27 Q251.424 1545.82 255.035 1545.82 Q258.669 1545.82 260.474 1542.27 Q262.303 1538.71 262.303 1531.6 Q262.303 1524.47 260.474 1520.93 Q258.669 1517.37 255.035 1517.37 M255.035 1513.66 Q260.845 1513.66 263.9 1518.27 Q266.979 1522.85 266.979 1531.6 Q266.979 1540.33 263.9 1544.94 Q260.845 1549.52 255.035 1549.52 Q249.225 1549.52 246.146 1544.94 Q243.09 1540.33 243.09 1531.6 Q243.09 1522.85 246.146 1518.27 Q249.225 1513.66 255.035 1513.66 Z" fill="#000000" fill-rule="nonzero" fill-opacity="1" /><path clip-path="url(#clip360)" d="M673.299 1544.91 L689.618 1544.91 L689.618 1548.85 L667.674 1548.85 L667.674 1544.91 Q670.336 1542.16 674.919 1537.53 Q679.525 1532.88 680.706 1531.53 Q682.951 1529.01 683.831 1527.27 Q684.734 1525.51 684.734 1523.82 Q684.734 1521.07 682.789 1519.33 Q680.868 1517.6 677.766 1517.6 Q675.567 1517.6 673.113 1518.36 Q670.683 1519.13 667.905 1520.68 L667.905 1515.95 Q670.729 1514.82 673.183 1514.24 Q675.637 1513.66 677.674 1513.66 Q683.044 1513.66 686.238 1516.35 Q689.433 1519.03 689.433 1523.52 Q689.433 1525.65 688.623 1527.57 Q687.836 1529.47 685.729 1532.07 Q685.15 1532.74 682.049 1535.95 Q678.947 1539.15 673.299 1544.91 Z" fill="#000000" fill-rule="nonzero" fill-opacity="1" /><path clip-path="url(#clip360)" d="M1105.27 1518.36 L1093.46 1536.81 L1105.27 1536.81 L1105.27 1518.36 M1104.04 1514.29 L1109.92 1514.29 L1109.92 1536.81 L1114.85 1536.81 L1114.85 1540.7 L1109.92 1540.7 L1109.92 1548.85 L1105.27 1548.85 L1105.27 1540.7 L1089.66 1540.7 L1089.66 1536.19 L1104.04 1514.29 Z" fill="#000000" fill-rule="nonzero" fill-opacity="1" /><path clip-path="url(#clip360)" d="M1526.27 1529.7 Q1523.12 1529.7 1521.27 1531.86 Q1519.44 1534.01 1519.44 1537.76 Q1519.44 1541.49 1521.27 1543.66 Q1523.12 1545.82 1526.27 1545.82 Q1529.42 1545.82 1531.25 1543.66 Q1533.1 1541.49 1533.1 1537.76 Q1533.1 1534.01 1531.25 1531.86 Q1529.42 1529.7 1526.27 1529.7 M1535.56 1515.05 L1535.56 1519.31 Q1533.8 1518.48 1531.99 1518.04 Q1530.21 1517.6 1528.45 1517.6 Q1523.82 1517.6 1521.37 1520.72 Q1518.94 1523.85 1518.59 1530.17 Q1519.95 1528.15 1522.01 1527.09 Q1524.07 1526 1526.55 1526 Q1531.76 1526 1534.77 1529.17 Q1537.8 1532.32 1537.8 1537.76 Q1537.8 1543.08 1534.65 1546.3 Q1531.5 1549.52 1526.27 1549.52 Q1520.28 1549.52 1517.11 1544.94 Q1513.94 1540.33 1513.94 1531.6 Q1513.94 1523.41 1517.82 1518.55 Q1521.71 1513.66 1528.26 1513.66 Q1530.02 1513.66 1531.81 1514.01 Q1533.61 1514.36 1535.56 1515.05 Z" fill="#000000" fill-rule="nonzero" fill-opacity="1" /><path clip-path="url(#clip360)" d="M1949.48 1532.44 Q1946.15 1532.44 1944.22 1534.22 Q1942.33 1536 1942.33 1539.13 Q1942.33 1542.25 1944.22 1544.03 Q1946.15 1545.82 1949.48 1545.82 Q1952.81 1545.82 1954.73 1544.03 Q1956.66 1542.23 1956.66 1539.13 Q1956.66 1536 1954.73 1534.22 Q1952.84 1532.44 1949.48 1532.44 M1944.8 1530.45 Q1941.79 1529.7 1940.1 1527.64 Q1938.44 1525.58 1938.44 1522.62 Q1938.44 1518.48 1941.38 1516.07 Q1944.34 1513.66 1949.48 1513.66 Q1954.64 1513.66 1957.58 1516.07 Q1960.52 1518.48 1960.52 1522.62 Q1960.52 1525.58 1958.83 1527.64 Q1957.16 1529.7 1954.18 1530.45 Q1957.56 1531.23 1959.43 1533.52 Q1961.33 1535.82 1961.33 1539.13 Q1961.33 1544.15 1958.25 1546.83 Q1955.2 1549.52 1949.48 1549.52 Q1943.76 1549.52 1940.68 1546.83 Q1937.63 1544.15 1937.63 1539.13 Q1937.63 1535.82 1939.53 1533.52 Q1941.42 1531.23 1944.8 1530.45 M1943.09 1523.06 Q1943.09 1525.75 1944.76 1527.25 Q1946.45 1528.76 1949.48 1528.76 Q1952.49 1528.76 1954.18 1527.25 Q1955.89 1525.75 1955.89 1523.06 Q1955.89 1520.38 1954.18 1518.87 Q1952.49 1517.37 1949.48 1517.37 Q1946.45 1517.37 1944.76 1518.87 Q1943.09 1520.38 1943.09 1523.06 Z" fill="#000000" fill-rule="nonzero" fill-opacity="1" /><polyline clip-path="url(#clip362)" style="stroke:#000000; stroke-linecap:round; stroke-linejoin:round; stroke-width:2; stroke-opacity:0.1; fill:none" points="193.936,1445.72 2352.76,1445.72 "/>
<polyline clip-path="url(#clip362)" style="stroke:#000000; stroke-linecap:round; stroke-linejoin:round; stroke-width:2; stroke-opacity:0.1; fill:none" points="193.936,1106.28 2352.76,1106.28 "/>
<polyline clip-path="url(#clip362)" style="stroke:#000000; stroke-linecap:round; stroke-linejoin:round; stroke-width:2; stroke-opacity:0.1; fill:none" points="193.936,766.846 2352.76,766.846 "/>
<polyline clip-path="url(#clip362)" style="stroke:#000000; stroke-linecap:round; stroke-linejoin:round; stroke-width:2; stroke-opacity:0.1; fill:none" points="193.936,427.411 2352.76,427.411 "/>
<polyline clip-path="url(#clip362)" style="stroke:#000000; stroke-linecap:round; stroke-linejoin:round; stroke-width:2; stroke-opacity:0.1; fill:none" points="193.936,87.9763 2352.76,87.9763 "/>
<polyline clip-path="url(#clip360)" style="stroke:#000000; stroke-linecap:round; stroke-linejoin:round; stroke-width:4; stroke-opacity:1; fill:none" points="193.936,1486.45 193.936,47.2441 "/>
<polyline clip-path="url(#clip360)" style="stroke:#000000; stroke-linecap:round; stroke-linejoin:round; stroke-width:4; stroke-opacity:1; fill:none" points="193.936,1445.72 212.834,1445.72 "/>
<polyline clip-path="url(#clip360)" style="stroke:#000000; stroke-linecap:round; stroke-linejoin:round; stroke-width:4; stroke-opacity:1; fill:none" points="193.936,1106.28 212.834,1106.28 "/>
<polyline clip-path="url(#clip360)" style="stroke:#000000; stroke-linecap:round; stroke-linejoin:round; stroke-width:4; stroke-opacity:1; fill:none" points="193.936,766.846 212.834,766.846 "/>
<polyline clip-path="url(#clip360)" style="stroke:#000000; stroke-linecap:round; stroke-linejoin:round; stroke-width:4; stroke-opacity:1; fill:none" points="193.936,427.411 212.834,427.411 "/>
<polyline clip-path="url(#clip360)" style="stroke:#000000; stroke-linecap:round; stroke-linejoin:round; stroke-width:4; stroke-opacity:1; fill:none" points="193.936,87.9763 212.834,87.9763 "/>
<path clip-path="url(#clip360)" d="M50.9921 1446.17 L80.6679 1446.17 L80.6679 1450.1 L50.9921 1450.1 L50.9921 1446.17 Z" fill="#000000" fill-rule="nonzero" fill-opacity="1" /><path clip-path="url(#clip360)" d="M91.5706 1459.06 L99.2095 1459.06 L99.2095 1432.69 L90.8993 1434.36 L90.8993 1430.1 L99.1632 1428.44 L103.839 1428.44 L103.839 1459.06 L111.478 1459.06 L111.478 1463 L91.5706 1463 L91.5706 1459.06 Z" fill="#000000" fill-rule="nonzero" fill-opacity="1" /><path clip-path="url(#clip360)" d="M120.922 1457.12 L125.807 1457.12 L125.807 1463 L120.922 1463 L120.922 1457.12 Z" fill="#000000" fill-rule="nonzero" fill-opacity="1" /><path clip-path="url(#clip360)" d="M145.992 1431.51 Q142.381 1431.51 140.552 1435.08 Q138.746 1438.62 138.746 1445.75 Q138.746 1452.86 140.552 1456.42 Q142.381 1459.96 145.992 1459.96 Q149.626 1459.96 151.431 1456.42 Q153.26 1452.86 153.26 1445.75 Q153.26 1438.62 151.431 1435.08 Q149.626 1431.51 145.992 1431.51 M145.992 1427.81 Q151.802 1427.81 154.857 1432.42 Q157.936 1437 157.936 1445.75 Q157.936 1454.48 154.857 1459.08 Q151.802 1463.67 145.992 1463.67 Q140.181 1463.67 137.103 1459.08 Q134.047 1454.48 134.047 1445.75 Q134.047 1437 137.103 1432.42 Q140.181 1427.81 145.992 1427.81 Z" fill="#000000" fill-rule="nonzero" fill-opacity="1" /><path clip-path="url(#clip360)" d="M51.9875 1106.73 L81.6633 1106.73 L81.6633 1110.67 L51.9875 1110.67 L51.9875 1106.73 Z" fill="#000000" fill-rule="nonzero" fill-opacity="1" /><path clip-path="url(#clip360)" d="M101.756 1092.08 Q98.1447 1092.08 96.316 1095.64 Q94.5104 1099.19 94.5104 1106.32 Q94.5104 1113.42 96.316 1116.99 Q98.1447 1120.53 101.756 1120.53 Q105.39 1120.53 107.196 1116.99 Q109.024 1113.42 109.024 1106.32 Q109.024 1099.19 107.196 1095.64 Q105.39 1092.08 101.756 1092.08 M101.756 1088.38 Q107.566 1088.38 110.621 1092.98 Q113.7 1097.57 113.7 1106.32 Q113.7 1115.04 110.621 1119.65 Q107.566 1124.23 101.756 1124.23 Q95.9456 1124.23 92.8669 1119.65 Q89.8114 1115.04 89.8114 1106.32 Q89.8114 1097.57 92.8669 1092.98 Q95.9456 1088.38 101.756 1088.38 Z" fill="#000000" fill-rule="nonzero" fill-opacity="1" /><path clip-path="url(#clip360)" d="M121.918 1117.68 L126.802 1117.68 L126.802 1123.56 L121.918 1123.56 L121.918 1117.68 Z" fill="#000000" fill-rule="nonzero" fill-opacity="1" /><path clip-path="url(#clip360)" d="M137.033 1089 L155.39 1089 L155.39 1092.94 L141.316 1092.94 L141.316 1101.41 Q142.334 1101.06 143.353 1100.9 Q144.371 1100.71 145.39 1100.71 Q151.177 1100.71 154.556 1103.89 Q157.936 1107.06 157.936 1112.47 Q157.936 1118.05 154.464 1121.15 Q150.992 1124.23 144.672 1124.23 Q142.496 1124.23 140.228 1123.86 Q137.982 1123.49 135.575 1122.75 L135.575 1118.05 Q137.658 1119.19 139.881 1119.74 Q142.103 1120.3 144.58 1120.3 Q148.584 1120.3 150.922 1118.19 Q153.26 1116.08 153.26 1112.47 Q153.26 1108.86 150.922 1106.76 Q148.584 1104.65 144.58 1104.65 Q142.705 1104.65 140.83 1105.07 Q138.978 1105.48 137.033 1106.36 L137.033 1089 Z" fill="#000000" fill-rule="nonzero" fill-opacity="1" /><path clip-path="url(#clip360)" d="M100.76 752.645 Q97.1493 752.645 95.3206 756.209 Q93.515 759.751 93.515 766.881 Q93.515 773.987 95.3206 777.552 Q97.1493 781.094 100.76 781.094 Q104.395 781.094 106.2 777.552 Q108.029 773.987 108.029 766.881 Q108.029 759.751 106.2 756.209 Q104.395 752.645 100.76 752.645 M100.76 748.941 Q106.571 748.941 109.626 753.547 Q112.705 758.131 112.705 766.881 Q112.705 775.608 109.626 780.214 Q106.571 784.797 100.76 784.797 Q94.9502 784.797 91.8715 780.214 Q88.816 775.608 88.816 766.881 Q88.816 758.131 91.8715 753.547 Q94.9502 748.941 100.76 748.941 Z" fill="#000000" fill-rule="nonzero" fill-opacity="1" /><path clip-path="url(#clip360)" d="M120.922 778.246 L125.807 778.246 L125.807 784.126 L120.922 784.126 L120.922 778.246 Z" fill="#000000" fill-rule="nonzero" fill-opacity="1" /><path clip-path="url(#clip360)" d="M145.992 752.645 Q142.381 752.645 140.552 756.209 Q138.746 759.751 138.746 766.881 Q138.746 773.987 140.552 777.552 Q142.381 781.094 145.992 781.094 Q149.626 781.094 151.431 777.552 Q153.26 773.987 153.26 766.881 Q153.26 759.751 151.431 756.209 Q149.626 752.645 145.992 752.645 M145.992 748.941 Q151.802 748.941 154.857 753.547 Q157.936 758.131 157.936 766.881 Q157.936 775.608 154.857 780.214 Q151.802 784.797 145.992 784.797 Q140.181 784.797 137.103 780.214 Q134.047 775.608 134.047 766.881 Q134.047 758.131 137.103 753.547 Q140.181 748.941 145.992 748.941 Z" fill="#000000" fill-rule="nonzero" fill-opacity="1" /><path clip-path="url(#clip360)" d="M101.756 413.21 Q98.1447 413.21 96.316 416.775 Q94.5104 420.316 94.5104 427.446 Q94.5104 434.552 96.316 438.117 Q98.1447 441.659 101.756 441.659 Q105.39 441.659 107.196 438.117 Q109.024 434.552 109.024 427.446 Q109.024 420.316 107.196 416.775 Q105.39 413.21 101.756 413.21 M101.756 409.506 Q107.566 409.506 110.621 414.113 Q113.7 418.696 113.7 427.446 Q113.7 436.173 110.621 440.779 Q107.566 445.362 101.756 445.362 Q95.9456 445.362 92.8669 440.779 Q89.8114 436.173 89.8114 427.446 Q89.8114 418.696 92.8669 414.113 Q95.9456 409.506 101.756 409.506 Z" fill="#000000" fill-rule="nonzero" fill-opacity="1" /><path clip-path="url(#clip360)" d="M121.918 438.812 L126.802 438.812 L126.802 444.691 L121.918 444.691 L121.918 438.812 Z" fill="#000000" fill-rule="nonzero" fill-opacity="1" /><path clip-path="url(#clip360)" d="M137.033 410.131 L155.39 410.131 L155.39 414.066 L141.316 414.066 L141.316 422.538 Q142.334 422.191 143.353 422.029 Q144.371 421.844 145.39 421.844 Q151.177 421.844 154.556 425.015 Q157.936 428.187 157.936 433.603 Q157.936 439.182 154.464 442.284 Q150.992 445.362 144.672 445.362 Q142.496 445.362 140.228 444.992 Q137.982 444.622 135.575 443.881 L135.575 439.182 Q137.658 440.316 139.881 440.872 Q142.103 441.427 144.58 441.427 Q148.584 441.427 150.922 439.321 Q153.26 437.214 153.26 433.603 Q153.26 429.992 150.922 427.886 Q148.584 425.779 144.58 425.779 Q142.705 425.779 140.83 426.196 Q138.978 426.613 137.033 427.492 L137.033 410.131 Z" fill="#000000" fill-rule="nonzero" fill-opacity="1" /><path clip-path="url(#clip360)" d="M91.5706 101.321 L99.2095 101.321 L99.2095 74.9555 L90.8993 76.6222 L90.8993 72.3629 L99.1632 70.6963 L103.839 70.6963 L103.839 101.321 L111.478 101.321 L111.478 105.256 L91.5706 105.256 L91.5706 101.321 Z" fill="#000000" fill-rule="nonzero" fill-opacity="1" /><path clip-path="url(#clip360)" d="M120.922 99.3767 L125.807 99.3767 L125.807 105.256 L120.922 105.256 L120.922 99.3767 Z" fill="#000000" fill-rule="nonzero" fill-opacity="1" /><path clip-path="url(#clip360)" d="M145.992 73.775 Q142.381 73.775 140.552 77.3398 Q138.746 80.8814 138.746 88.011 Q138.746 95.1174 140.552 98.6822 Q142.381 102.224 145.992 102.224 Q149.626 102.224 151.431 98.6822 Q153.26 95.1174 153.26 88.011 Q153.26 80.8814 151.431 77.3398 Q149.626 73.775 145.992 73.775 M145.992 70.0713 Q151.802 70.0713 154.857 74.6777 Q157.936 79.2611 157.936 88.011 Q157.936 96.7378 154.857 101.344 Q151.802 105.928 145.992 105.928 Q140.181 105.928 137.103 101.344 Q134.047 96.7378 134.047 88.011 Q134.047 79.2611 137.103 74.6777 Q140.181 70.0713 145.992 70.0713 Z" fill="#000000" fill-rule="nonzero" fill-opacity="1" /><polyline clip-path="url(#clip362)" style="stroke:#ff0000; stroke-linecap:round; stroke-linejoin:round; stroke-width:8; stroke-opacity:1; fill:none" points="255.035,1445.72 263.181,1445.72 271.328,1445.72 279.474,1445.72 287.621,1445.72 295.767,1445.72 303.914,1445.72 312.06,1445.72 320.207,1445.72 328.353,1445.72 336.5,1445.72 344.646,1445.72 352.793,1445.72 360.939,1445.72 369.086,1445.72 377.232,1445.72 385.379,1445.72 393.525,1445.72 401.671,1445.72 409.818,1445.72 417.964,1445.72 426.111,1445.72 434.257,1445.72 442.404,767.032 450.55,766.846 458.697,766.846 466.843,766.846 474.99,766.846 483.136,766.846 491.283,766.846 499.429,766.846 507.576,766.846 515.722,766.846 523.869,766.846 532.015,766.846 540.162,766.846 548.308,766.846 556.455,766.846 564.601,766.846 572.748,766.846 580.894,766.846 589.041,766.846 597.187,766.846 605.334,766.846 613.48,766.846 621.627,766.846 629.773,766.846 637.92,766.846 646.066,766.846 654.213,766.846 662.359,766.846 670.506,766.846 678.652,766.846 686.799,766.846 694.945,766.846 703.092,766.846 711.238,766.846 719.385,766.846 727.531,766.846 735.678,766.846 743.824,766.846 751.971,766.846 760.117,766.846 768.264,766.846 776.41,766.846 784.557,766.846 792.703,766.846 800.85,766.846 808.996,766.846 817.142,766.846 825.289,766.846 833.435,766.846 841.582,766.846 849.728,766.846 857.875,766.846 866.021,766.846 874.168,766.846 882.314,766.846 890.461,766.846 898.607,766.846 906.754,766.846 914.9,766.846 923.047,766.846 931.193,766.846 939.34,766.846 947.486,766.846 955.633,766.846 963.779,766.846 971.926,766.846 980.072,766.846 988.219,766.846 996.365,766.846 1004.51,766.846 1012.66,766.846 1020.8,766.846 1028.95,766.846 1037.1,766.846 1045.24,766.846 1053.39,766.846 1061.54,766.846 1069.68,766.846 1077.83,766.846 1085.98,766.846 1094.12,743.177 1102.27,87.9763 1110.42,87.9763 1118.56,87.9763 1126.71,87.9763 1134.86,87.9763 1143,87.9763 1151.15,87.9763 1159.3,87.9763 1167.44,87.9763 1175.59,87.9763 1183.73,87.9763 1191.88,87.9763 1200.03,87.9763 1208.17,87.9763 1216.32,87.9763 1224.47,87.9763 1232.61,87.9763 1240.76,87.9763 1248.91,87.9763 1257.05,87.9763 1265.2,87.9763 1273.35,87.9763 1281.49,87.9763 1289.64,87.9763 1297.79,87.9763 1305.93,87.9763 1314.08,1445.72 1322.22,1445.72 1330.37,1445.72 1338.52,1445.72 1346.66,1445.72 1354.81,1445.72 1362.96,1445.72 1371.1,1445.72 1379.25,1445.72 1387.4,1445.72 1395.54,1445.72 1403.69,1445.72 1411.84,1445.72 1419.98,1445.72 1428.13,1445.72 1436.28,1445.72 1444.42,1445.72 1452.57,1445.72 1460.72,1445.72 1468.86,1445.72 1477.01,1445.72 1485.15,1445.72 1493.3,1445.72 1501.45,1445.72 1509.59,1445.72 1517.74,1445.72 1525.89,1445.72 1534.03,1445.72 1542.18,1445.72 1550.33,1445.72 1558.47,1445.72 1566.62,1445.72 1574.77,1445.72 1582.91,1445.72 1591.06,1445.72 1599.21,1445.72 1607.35,1445.72 1615.5,1445.72 1623.65,1445.72 1631.79,1445.72 1639.94,1445.72 1648.08,807.589 1656.23,768.189 1664.38,766.891 1672.52,766.848 1680.67,766.846 1688.82,766.846 1696.96,766.846 1705.11,766.846 1713.26,766.846 1721.4,766.846 1729.55,766.846 1737.7,766.846 1745.84,766.846 1753.99,766.846 1762.14,766.846 1770.28,766.846 1778.43,766.846 1786.57,766.846 1794.72,766.846 1802.87,766.846 1811.01,766.846 1819.16,766.846 1827.31,766.846 1835.45,766.846 1843.6,766.846 1851.75,766.846 1859.89,766.846 1868.04,766.846 1876.19,766.846 1884.33,766.846 1892.48,766.846 1900.63,766.846 1908.77,766.846 1916.92,766.846 1925.07,766.846 1933.21,766.846 1941.36,766.846 1949.5,766.846 1957.65,766.846 1965.8,766.846 1973.94,766.846 1982.09,766.846 1990.24,766.846 1998.38,766.846 2006.53,766.846 2014.68,766.846 2022.82,766.846 2030.97,766.846 2039.12,766.846 2047.26,766.846 2055.41,766.846 2063.56,766.846 2071.7,766.846 2079.85,766.846 2087.99,766.846 2096.14,766.846 2104.29,766.846 2112.43,766.846 2120.58,766.846 2128.73,766.846 2136.87,766.846 2145.02,766.846 2153.17,766.846 2161.31,766.846 2169.46,766.846 2177.61,766.846 2185.75,766.846 2193.9,766.846 2202.05,766.846 2210.19,766.846 2218.34,766.846 2226.49,766.846 2234.63,766.846 2242.78,766.846 2250.92,766.834 2259.07,766.477 2267.22,755.669 2275.36,423.903 2283.51,87.9763 2291.66,87.9763 "/>
<polyline clip-path="url(#clip362)" style="stroke:#008000; stroke-linecap:round; stroke-linejoin:round; stroke-width:8; stroke-opacity:1; fill:none" points="255.035,88.0025 263.181,88.0024 271.328,88.0023 279.474,88.0021 287.621,88.0018 295.767,88.0014 303.914,88.001 312.06,88.0004 320.207,87.9998 328.353,87.9991 336.5,87.9983 344.646,87.9974 352.793,87.9965 360.939,87.9954 369.086,87.9942 377.232,87.993 385.379,87.9916 393.525,87.99 401.671,87.9883 409.818,87.9865 417.964,87.9844 426.111,87.9822 434.257,87.9786 442.404,87.9763 450.55,87.9763 458.697,87.9763 466.843,87.9763 474.99,87.9763 483.136,87.9763 491.283,87.9763 499.429,87.9763 507.576,87.9763 515.722,87.9763 523.869,87.9763 532.015,87.9763 540.162,87.9763 548.308,87.9763 556.455,87.9763 564.601,87.9763 572.748,87.9763 580.894,87.9763 589.041,87.9763 597.187,87.9763 605.334,87.9763 613.48,87.9763 621.627,87.9763 629.773,87.9763 637.92,87.9763 646.066,87.9763 654.213,87.9763 662.359,87.9763 670.506,87.9763 678.652,87.9763 686.799,87.9763 694.945,87.9763 703.092,87.9763 711.238,87.9763 719.385,87.9763 727.531,87.9763 735.678,87.9763 743.824,87.9763 751.971,87.9763 760.117,87.9763 768.264,87.9763 776.41,87.9763 784.557,87.9763 792.703,87.9763 800.85,87.9763 808.996,87.9763 817.142,87.9763 825.289,87.9763 833.435,87.9763 841.582,87.9763 849.728,87.9763 857.875,87.9763 866.021,87.9763 874.168,87.9763 882.314,87.9763 890.461,87.9763 898.607,87.9763 906.754,87.9763 914.9,87.9763 923.047,87.9763 931.193,87.9763 939.34,87.9763 947.486,87.9763 955.633,87.9763 963.779,87.9763 971.926,87.9763 980.072,87.9763 988.219,87.9763 996.365,87.9763 1004.51,87.9763 1012.66,87.9763 1020.8,87.9763 1028.95,87.9763 1037.1,87.9763 1045.24,87.9763 1053.39,87.9763 1061.54,87.9763 1069.68,87.9763 1077.83,87.9763 1085.98,87.9763 1094.12,87.9763 1102.27,88.5204 1110.42,89.6229 1118.56,90.7397 1126.71,91.8564 1134.86,92.9732 1143,94.0899 1151.15,95.2067 1159.3,96.3234 1167.44,97.4402 1175.59,98.5569 1183.73,99.6737 1191.88,100.79 1200.03,101.907 1208.17,103.024 1216.32,104.141 1224.47,105.257 1232.61,106.374 1240.76,107.491 1248.91,108.608 1257.05,109.724 1265.2,110.841 1273.35,111.958 1281.49,113.075 1289.64,114.191 1297.79,115.308 1305.93,116.425 1314.08,117.542 1322.22,118.658 1330.37,119.775 1338.52,120.892 1346.66,122.009 1354.81,123.125 1362.96,124.242 1371.1,125.359 1379.25,126.476 1387.4,127.592 1395.54,128.709 1403.69,129.826 1411.84,130.943 1419.98,132.059 1428.13,133.176 1436.28,134.293 1444.42,135.41 1452.57,136.526 1460.72,137.643 1468.86,138.76 1477.01,139.877 1485.15,140.993 1493.3,142.11 1501.45,143.227 1509.59,144.344 1517.74,145.46 1525.89,146.577 1534.03,147.694 1542.18,148.811 1550.33,149.927 1558.47,151.044 1566.62,152.161 1574.77,153.278 1582.91,154.394 1591.06,155.511 1599.21,156.628 1607.35,157.745 1615.5,158.861 1623.65,159.975 1631.79,160.544 1639.94,160.556 1648.08,160.556 1656.23,160.556 1664.38,160.556 1672.52,160.556 1680.67,160.556 1688.82,160.556 1696.96,160.556 1705.11,160.556 1713.26,160.556 1721.4,160.556 1729.55,160.556 1737.7,160.556 1745.84,160.556 1753.99,160.556 1762.14,160.556 1770.28,160.556 1778.43,160.556 1786.57,160.556 1794.72,160.556 1802.87,160.556 1811.01,160.556 1819.16,160.556 1827.31,160.556 1835.45,160.556 1843.6,160.556 1851.75,160.556 1859.89,160.556 1868.04,160.556 1876.19,160.556 1884.33,160.556 1892.48,160.556 1900.63,160.556 1908.77,160.556 1916.92,160.556 1925.07,160.556 1933.21,160.556 1941.36,160.556 1949.5,160.556 1957.65,160.556 1965.8,160.556 1973.94,160.556 1982.09,160.556 1990.24,160.556 1998.38,160.556 2006.53,160.556 2014.68,160.556 2022.82,160.556 2030.97,160.556 2039.12,160.556 2047.26,160.556 2055.41,160.556 2063.56,160.556 2071.7,160.556 2079.85,160.556 2087.99,160.556 2096.14,160.556 2104.29,160.556 2112.43,160.556 2120.58,160.556 2128.73,160.556 2136.87,160.556 2145.02,160.556 2153.17,160.556 2161.31,160.556 2169.46,160.556 2177.61,160.556 2185.75,160.556 2193.9,160.556 2202.05,160.556 2210.19,160.556 2218.34,160.556 2226.49,160.556 2234.63,160.556 2242.78,160.556 2250.92,160.556 2259.07,160.556 2267.22,160.556 2275.36,160.556 2283.51,160.556 2291.66,160.539 "/>
<path clip-path="url(#clip360)" d="M1713.32 1438.47 L2280.8 1438.47 L2280.8 1282.95 L1713.32 1282.95  Z" fill="#ffffff" fill-rule="evenodd" fill-opacity="1"/>
<polyline clip-path="url(#clip360)" style="stroke:#000000; stroke-linecap:round; stroke-linejoin:round; stroke-width:4; stroke-opacity:1; fill:none" points="1713.32,1438.47 2280.8,1438.47 2280.8,1282.95 1713.32,1282.95 1713.32,1438.47 "/>
<polyline clip-path="url(#clip360)" style="stroke:#ff0000; stroke-linecap:round; stroke-linejoin:round; stroke-width:8; stroke-opacity:1; fill:none" points="1737.3,1334.79 1881.23,1334.79 "/>
<path clip-path="url(#clip360)" d="M1917.11 1329.13 Q1913.69 1329.13 1911.69 1331.82 Q1909.7 1334.48 1909.7 1339.13 Q1909.7 1343.79 1911.67 1346.47 Q1913.66 1349.13 1917.11 1349.13 Q1920.51 1349.13 1922.5 1346.45 Q1924.5 1343.76 1924.5 1339.13 Q1924.5 1334.53 1922.5 1331.84 Q1920.51 1329.13 1917.11 1329.13 M1917.11 1325.52 Q1922.67 1325.52 1925.84 1329.13 Q1929.01 1332.75 1929.01 1339.13 Q1929.01 1345.5 1925.84 1349.13 Q1922.67 1352.75 1917.11 1352.75 Q1911.53 1352.75 1908.36 1349.13 Q1905.21 1345.5 1905.21 1339.13 Q1905.21 1332.75 1908.36 1329.13 Q1911.53 1325.52 1917.11 1325.52 Z" fill="#000000" fill-rule="nonzero" fill-opacity="1" /><path clip-path="url(#clip360)" d="M1940.19 1348.19 L1940.19 1361.94 L1935.91 1361.94 L1935.91 1326.15 L1940.19 1326.15 L1940.19 1330.08 Q1941.53 1327.77 1943.57 1326.66 Q1945.63 1325.52 1948.48 1325.52 Q1953.2 1325.52 1956.14 1329.27 Q1959.1 1333.02 1959.1 1339.13 Q1959.1 1345.25 1956.14 1349 Q1953.2 1352.75 1948.48 1352.75 Q1945.63 1352.75 1943.57 1351.63 Q1941.53 1350.5 1940.19 1348.19 M1954.68 1339.13 Q1954.68 1334.44 1952.74 1331.77 Q1950.81 1329.09 1947.44 1329.09 Q1944.06 1329.09 1942.11 1331.77 Q1940.19 1334.44 1940.19 1339.13 Q1940.19 1343.83 1942.11 1346.52 Q1944.06 1349.18 1947.44 1349.18 Q1950.81 1349.18 1952.74 1346.52 Q1954.68 1343.83 1954.68 1339.13 Z" fill="#000000" fill-rule="nonzero" fill-opacity="1" /><path clip-path="url(#clip360)" d="M1970.37 1318.79 L1970.37 1326.15 L1979.15 1326.15 L1979.15 1329.46 L1970.37 1329.46 L1970.37 1343.53 Q1970.37 1346.7 1971.23 1347.61 Q1972.11 1348.51 1974.77 1348.51 L1979.15 1348.51 L1979.15 1352.07 L1974.77 1352.07 Q1969.84 1352.07 1967.97 1350.25 Q1966.09 1348.39 1966.09 1343.53 L1966.09 1329.46 L1962.97 1329.46 L1962.97 1326.15 L1966.09 1326.15 L1966.09 1318.79 L1970.37 1318.79 Z" fill="#000000" fill-rule="nonzero" fill-opacity="1" /><path clip-path="url(#clip360)" d="M1984.75 1326.15 L1989.01 1326.15 L1989.01 1352.07 L1984.75 1352.07 L1984.75 1326.15 M1984.75 1316.06 L1989.01 1316.06 L1989.01 1321.45 L1984.75 1321.45 L1984.75 1316.06 Z" fill="#000000" fill-rule="nonzero" fill-opacity="1" /><path clip-path="url(#clip360)" d="M2018.11 1331.13 Q2019.7 1328.26 2021.93 1326.89 Q2024.15 1325.52 2027.16 1325.52 Q2031.21 1325.52 2033.41 1328.37 Q2035.61 1331.19 2035.61 1336.43 L2035.61 1352.07 L2031.32 1352.07 L2031.32 1336.57 Q2031.32 1332.84 2030 1331.03 Q2028.68 1329.23 2025.98 1329.23 Q2022.67 1329.23 2020.74 1331.43 Q2018.82 1333.63 2018.82 1337.42 L2018.82 1352.07 L2014.54 1352.07 L2014.54 1336.57 Q2014.54 1332.82 2013.22 1331.03 Q2011.9 1329.23 2009.15 1329.23 Q2005.88 1329.23 2003.96 1331.45 Q2002.04 1333.65 2002.04 1337.42 L2002.04 1352.07 L1997.76 1352.07 L1997.76 1326.15 L2002.04 1326.15 L2002.04 1330.18 Q2003.5 1327.79 2005.54 1326.66 Q2007.57 1325.52 2010.37 1325.52 Q2013.2 1325.52 2015.17 1326.96 Q2017.16 1328.39 2018.11 1331.13 Z" fill="#000000" fill-rule="nonzero" fill-opacity="1" /><path clip-path="url(#clip360)" d="M2055.88 1339.04 Q2050.72 1339.04 2048.73 1340.22 Q2046.74 1341.4 2046.74 1344.25 Q2046.74 1346.52 2048.22 1347.86 Q2049.73 1349.18 2052.3 1349.18 Q2055.84 1349.18 2057.97 1346.68 Q2060.12 1344.16 2060.12 1339.99 L2060.12 1339.04 L2055.88 1339.04 M2064.38 1337.28 L2064.38 1352.07 L2060.12 1352.07 L2060.12 1348.14 Q2058.66 1350.5 2056.49 1351.63 Q2054.31 1352.75 2051.16 1352.75 Q2047.18 1352.75 2044.82 1350.52 Q2042.48 1348.28 2042.48 1344.53 Q2042.48 1340.15 2045.4 1337.93 Q2048.34 1335.71 2054.15 1335.71 L2060.12 1335.71 L2060.12 1335.29 Q2060.12 1332.35 2058.18 1330.76 Q2056.25 1329.13 2052.76 1329.13 Q2050.54 1329.13 2048.43 1329.67 Q2046.32 1330.2 2044.38 1331.26 L2044.38 1327.33 Q2046.72 1326.43 2048.92 1325.99 Q2051.12 1325.52 2053.2 1325.52 Q2058.82 1325.52 2061.6 1328.44 Q2064.38 1331.36 2064.38 1337.28 Z" fill="#000000" fill-rule="nonzero" fill-opacity="1" /><path clip-path="url(#clip360)" d="M2073.15 1316.06 L2077.41 1316.06 L2077.41 1352.07 L2073.15 1352.07 L2073.15 1316.06 Z" fill="#000000" fill-rule="nonzero" fill-opacity="1" /><path clip-path="url(#clip360)" d="M2120.05 1327.14 L2120.05 1331.13 Q2118.24 1330.13 2116.42 1329.64 Q2114.61 1329.13 2112.76 1329.13 Q2108.61 1329.13 2106.32 1331.77 Q2104.03 1334.39 2104.03 1339.13 Q2104.03 1343.88 2106.32 1346.52 Q2108.61 1349.13 2112.76 1349.13 Q2114.61 1349.13 2116.42 1348.65 Q2118.24 1348.14 2120.05 1347.14 L2120.05 1351.08 Q2118.27 1351.91 2116.35 1352.33 Q2114.45 1352.75 2112.3 1352.75 Q2106.44 1352.75 2102.99 1349.07 Q2099.54 1345.38 2099.54 1339.13 Q2099.54 1332.79 2103.01 1329.16 Q2106.51 1325.52 2112.57 1325.52 Q2114.54 1325.52 2116.42 1325.94 Q2118.29 1326.33 2120.05 1327.14 Z" fill="#000000" fill-rule="nonzero" fill-opacity="1" /><path clip-path="url(#clip360)" d="M2137.5 1329.13 Q2134.08 1329.13 2132.09 1331.82 Q2130.1 1334.48 2130.1 1339.13 Q2130.1 1343.79 2132.06 1346.47 Q2134.05 1349.13 2137.5 1349.13 Q2140.91 1349.13 2142.9 1346.45 Q2144.89 1343.76 2144.89 1339.13 Q2144.89 1334.53 2142.9 1331.84 Q2140.91 1329.13 2137.5 1329.13 M2137.5 1325.52 Q2143.06 1325.52 2146.23 1329.13 Q2149.4 1332.75 2149.4 1339.13 Q2149.4 1345.5 2146.23 1349.13 Q2143.06 1352.75 2137.5 1352.75 Q2131.92 1352.75 2128.75 1349.13 Q2125.61 1345.5 2125.61 1339.13 Q2125.61 1332.75 2128.75 1329.13 Q2131.92 1325.52 2137.5 1325.52 Z" fill="#000000" fill-rule="nonzero" fill-opacity="1" /><path clip-path="url(#clip360)" d="M2178.01 1336.43 L2178.01 1352.07 L2173.75 1352.07 L2173.75 1336.57 Q2173.75 1332.88 2172.32 1331.06 Q2170.88 1329.23 2168.01 1329.23 Q2164.56 1329.23 2162.57 1331.43 Q2160.58 1333.63 2160.58 1337.42 L2160.58 1352.07 L2156.3 1352.07 L2156.3 1326.15 L2160.58 1326.15 L2160.58 1330.18 Q2162.11 1327.84 2164.17 1326.68 Q2166.25 1325.52 2168.96 1325.52 Q2173.43 1325.52 2175.72 1328.3 Q2178.01 1331.06 2178.01 1336.43 Z" fill="#000000" fill-rule="nonzero" fill-opacity="1" /><path clip-path="url(#clip360)" d="M2190.72 1318.79 L2190.72 1326.15 L2199.49 1326.15 L2199.49 1329.46 L2190.72 1329.46 L2190.72 1343.53 Q2190.72 1346.7 2191.58 1347.61 Q2192.46 1348.51 2195.12 1348.51 L2199.49 1348.51 L2199.49 1352.07 L2195.12 1352.07 Q2190.19 1352.07 2188.31 1350.25 Q2186.44 1348.39 2186.44 1343.53 L2186.44 1329.46 L2183.31 1329.46 L2183.31 1326.15 L2186.44 1326.15 L2186.44 1318.79 L2190.72 1318.79 Z" fill="#000000" fill-rule="nonzero" fill-opacity="1" /><path clip-path="url(#clip360)" d="M2220.12 1330.13 Q2219.4 1329.71 2218.54 1329.53 Q2217.71 1329.32 2216.69 1329.32 Q2213.08 1329.32 2211.14 1331.68 Q2209.22 1334.02 2209.22 1338.42 L2209.22 1352.07 L2204.93 1352.07 L2204.93 1326.15 L2209.22 1326.15 L2209.22 1330.18 Q2210.56 1327.82 2212.71 1326.68 Q2214.86 1325.52 2217.94 1325.52 Q2218.38 1325.52 2218.92 1325.59 Q2219.45 1325.64 2220.1 1325.76 L2220.12 1330.13 Z" fill="#000000" fill-rule="nonzero" fill-opacity="1" /><path clip-path="url(#clip360)" d="M2233.59 1329.13 Q2230.16 1329.13 2228.17 1331.82 Q2226.18 1334.48 2226.18 1339.13 Q2226.18 1343.79 2228.15 1346.47 Q2230.14 1349.13 2233.59 1349.13 Q2236.99 1349.13 2238.98 1346.45 Q2240.98 1343.76 2240.98 1339.13 Q2240.98 1334.53 2238.98 1331.84 Q2236.99 1329.13 2233.59 1329.13 M2233.59 1325.52 Q2239.15 1325.52 2242.32 1329.13 Q2245.49 1332.75 2245.49 1339.13 Q2245.49 1345.5 2242.32 1349.13 Q2239.15 1352.75 2233.59 1352.75 Q2228.01 1352.75 2224.84 1349.13 Q2221.69 1345.5 2221.69 1339.13 Q2221.69 1332.75 2224.84 1329.13 Q2228.01 1325.52 2233.59 1325.52 Z" fill="#000000" fill-rule="nonzero" fill-opacity="1" /><path clip-path="url(#clip360)" d="M2252.55 1316.06 L2256.81 1316.06 L2256.81 1352.07 L2252.55 1352.07 L2252.55 1316.06 Z" fill="#000000" fill-rule="nonzero" fill-opacity="1" /><polyline clip-path="url(#clip360)" style="stroke:#008000; stroke-linecap:round; stroke-linejoin:round; stroke-width:8; stroke-opacity:1; fill:none" points="1737.3,1386.63 1881.23,1386.63 "/>
<path clip-path="url(#clip360)" d="M1923.64 1378.75 L1923.64 1382.78 Q1921.83 1381.85 1919.89 1381.39 Q1917.94 1380.93 1915.86 1380.93 Q1912.69 1380.93 1911.09 1381.9 Q1909.52 1382.87 1909.52 1384.82 Q1909.52 1386.3 1910.65 1387.16 Q1911.79 1387.99 1915.21 1388.75 L1916.67 1389.08 Q1921.21 1390.05 1923.11 1391.83 Q1925.03 1393.59 1925.03 1396.76 Q1925.03 1400.37 1922.16 1402.48 Q1919.31 1404.59 1914.31 1404.59 Q1912.23 1404.59 1909.96 1404.17 Q1907.71 1403.78 1905.21 1402.97 L1905.21 1398.57 Q1907.57 1399.79 1909.87 1400.42 Q1912.16 1401.02 1914.4 1401.02 Q1917.41 1401.02 1919.03 1400 Q1920.65 1398.96 1920.65 1397.09 Q1920.65 1395.35 1919.47 1394.42 Q1918.31 1393.5 1914.36 1392.64 L1912.88 1392.29 Q1908.92 1391.46 1907.16 1389.75 Q1905.4 1388.01 1905.4 1385 Q1905.4 1381.35 1907.99 1379.35 Q1910.58 1377.36 1915.35 1377.36 Q1917.71 1377.36 1919.8 1377.71 Q1921.88 1378.06 1923.64 1378.75 Z" fill="#000000" fill-rule="nonzero" fill-opacity="1" /><path clip-path="url(#clip360)" d="M1936.02 1370.63 L1936.02 1377.99 L1944.8 1377.99 L1944.8 1381.3 L1936.02 1381.3 L1936.02 1395.37 Q1936.02 1398.54 1936.88 1399.45 Q1937.76 1400.35 1940.42 1400.35 L1944.8 1400.35 L1944.8 1403.91 L1940.42 1403.91 Q1935.49 1403.91 1933.62 1402.09 Q1931.74 1400.23 1931.74 1395.37 L1931.74 1381.3 L1928.62 1381.3 L1928.62 1377.99 L1931.74 1377.99 L1931.74 1370.63 L1936.02 1370.63 Z" fill="#000000" fill-rule="nonzero" fill-opacity="1" /><path clip-path="url(#clip360)" d="M1962.18 1390.88 Q1957.02 1390.88 1955.03 1392.06 Q1953.04 1393.24 1953.04 1396.09 Q1953.04 1398.36 1954.52 1399.7 Q1956.02 1401.02 1958.59 1401.02 Q1962.13 1401.02 1964.26 1398.52 Q1966.42 1396 1966.42 1391.83 L1966.42 1390.88 L1962.18 1390.88 M1970.68 1389.12 L1970.68 1403.91 L1966.42 1403.91 L1966.42 1399.98 Q1964.96 1402.34 1962.78 1403.47 Q1960.61 1404.59 1957.46 1404.59 Q1953.48 1404.59 1951.12 1402.36 Q1948.78 1400.12 1948.78 1396.37 Q1948.78 1391.99 1951.69 1389.77 Q1954.63 1387.55 1960.44 1387.55 L1966.42 1387.55 L1966.42 1387.13 Q1966.42 1384.19 1964.47 1382.6 Q1962.55 1380.97 1959.06 1380.97 Q1956.83 1380.97 1954.73 1381.51 Q1952.62 1382.04 1950.68 1383.1 L1950.68 1379.17 Q1953.01 1378.27 1955.21 1377.83 Q1957.41 1377.36 1959.5 1377.36 Q1965.12 1377.36 1967.9 1380.28 Q1970.68 1383.2 1970.68 1389.12 Z" fill="#000000" fill-rule="nonzero" fill-opacity="1" /><path clip-path="url(#clip360)" d="M1983.66 1370.63 L1983.66 1377.99 L1992.43 1377.99 L1992.43 1381.3 L1983.66 1381.3 L1983.66 1395.37 Q1983.66 1398.54 1984.52 1399.45 Q1985.4 1400.35 1988.06 1400.35 L1992.43 1400.35 L1992.43 1403.91 L1988.06 1403.91 Q1983.13 1403.91 1981.25 1402.09 Q1979.38 1400.23 1979.38 1395.37 L1979.38 1381.3 L1976.25 1381.3 L1976.25 1377.99 L1979.38 1377.99 L1979.38 1370.63 L1983.66 1370.63 Z" fill="#000000" fill-rule="nonzero" fill-opacity="1" /><path clip-path="url(#clip360)" d="M2020.21 1389.89 L2020.21 1391.97 L2000.63 1391.97 Q2000.91 1396.37 2003.27 1398.68 Q2005.65 1400.97 2009.89 1400.97 Q2012.34 1400.97 2014.63 1400.37 Q2016.95 1399.77 2019.22 1398.57 L2019.22 1402.59 Q2016.93 1403.57 2014.52 1404.08 Q2012.11 1404.59 2009.63 1404.59 Q2003.43 1404.59 1999.8 1400.97 Q1996.18 1397.36 1996.18 1391.21 Q1996.18 1384.84 1999.61 1381.11 Q2003.06 1377.36 2008.89 1377.36 Q2014.12 1377.36 2017.16 1380.74 Q2020.21 1384.1 2020.21 1389.89 M2015.95 1388.64 Q2015.91 1385.14 2013.99 1383.06 Q2012.09 1380.97 2008.94 1380.97 Q2005.37 1380.97 2003.22 1382.99 Q2001.09 1385 2000.77 1388.66 L2015.95 1388.64 Z" fill="#000000" fill-rule="nonzero" fill-opacity="1" /><path clip-path="url(#clip360)" d="M2052.48 1371.95 L2064.45 1403.91 L2059.93 1403.91 L2052.67 1384.75 L2043.73 1403.91 L2039.22 1403.91 L2050.58 1379.05 L2048.87 1374.47 Q2047.78 1371.55 2045.3 1371.55 L2043.08 1371.55 L2043.08 1367.9 L2045.79 1367.94 Q2051.02 1368.01 2052.48 1371.95 Z" fill="#000000" fill-rule="nonzero" fill-opacity="1" /></svg>
