<?xml version="1.0" encoding="utf-8"?>
<svg xmlns="http://www.w3.org/2000/svg" xmlns:xlink="http://www.w3.org/1999/xlink" width="600" height="400" viewBox="0 0 2400 1600">
<defs>
  <clipPath id="clip300">
    <rect x="0" y="0" width="2400" height="1600"/>
  </clipPath>
</defs>
<path clip-path="url(#clip300)" d="M0 1600 L2400 1600 L2400 0 L0 0  Z" fill="#ffffff" fill-rule="evenodd" fill-opacity="1"/>
<defs>
  <clipPath id="clip301">
    <rect x="480" y="0" width="1681" height="1600"/>
  </clipPath>
</defs>
<path clip-path="url(#clip300)" d="M147.108 1486.45 L2352.76 1486.45 L2352.76 47.2441 L147.108 47.2441  Z" fill="#ffffff" fill-rule="evenodd" fill-opacity="1"/>
<defs>
  <clipPath id="clip302">
    <rect x="147" y="47" width="2207" height="1440"/>
  </clipPath>
</defs>
<polyline clip-path="url(#clip302)" style="stroke:#000000; stroke-linecap:round; stroke-linejoin:round; stroke-width:2; stroke-opacity:0.1; fill:none" points="209.532,1486.45 209.532,47.2441 "/>
<polyline clip-path="url(#clip302)" style="stroke:#000000; stroke-linecap:round; stroke-linejoin:round; stroke-width:2; stroke-opacity:0.1; fill:none" points="710.095,1486.45 710.095,47.2441 "/>
<polyline clip-path="url(#clip302)" style="stroke:#000000; stroke-linecap:round; stroke-linejoin:round; stroke-width:2; stroke-opacity:0.1; fill:none" points="1210.66,1486.45 1210.66,47.2441 "/>
<polyline clip-path="url(#clip302)" style="stroke:#000000; stroke-linecap:round; stroke-linejoin:round; stroke-width:2; stroke-opacity:0.1; fill:none" points="1711.22,1486.45 1711.22,47.2441 "/>
<polyline clip-path="url(#clip302)" style="stroke:#000000; stroke-linecap:round; stroke-linejoin:round; stroke-width:2; stroke-opacity:0.1; fill:none" points="2211.78,1486.45 2211.78,47.2441 "/>
<polyline clip-path="url(#clip300)" style="stroke:#000000; stroke-linecap:round; stroke-linejoin:round; stroke-width:4; stroke-opacity:1; fill:none" points="147.108,1486.45 2352.76,1486.45 "/>
<polyline clip-path="url(#clip300)" style="stroke:#000000; stroke-linecap:round; stroke-linejoin:round; stroke-width:4; stroke-opacity:1; fill:none" points="209.532,1486.45 209.532,1467.55 "/>
<polyline clip-path="url(#clip300)" style="stroke:#000000; stroke-linecap:round; stroke-linejoin:round; stroke-width:4; stroke-opacity:1; fill:none" points="710.095,1486.45 710.095,1467.55 "/>
<polyline clip-path="url(#clip300)" style="stroke:#000000; stroke-linecap:round; stroke-linejoin:round; stroke-width:4; stroke-opacity:1; fill:none" points="1210.66,1486.45 1210.66,1467.55 "/>
<polyline clip-path="url(#clip300)" style="stroke:#000000; stroke-linecap:round; stroke-linejoin:round; stroke-width:4; stroke-opacity:1; fill:none" points="1711.22,1486.45 1711.22,1467.55 "/>
<polyline clip-path="url(#clip300)" style="stroke:#000000; stroke-linecap:round; stroke-linejoin:round; stroke-width:4; stroke-opacity:1; fill:none" points="2211.78,1486.45 2211.78,1467.55 "/>
<path clip-path="url(#clip300)" d="M178.432 1532.02 L208.108 1532.02 L208.108 1535.95 L178.432 1535.95 L178.432 1532.02 Z" fill="#000000" fill-rule="nonzero" fill-opacity="1" /><path clip-path="url(#clip300)" d="M231.048 1518.36 L219.242 1536.81 L231.048 1536.81 L231.048 1518.36 M229.821 1514.29 L235.7 1514.29 L235.7 1536.81 L240.631 1536.81 L240.631 1540.7 L235.7 1540.7 L235.7 1548.85 L231.048 1548.85 L231.048 1540.7 L215.446 1540.7 L215.446 1536.19 L229.821 1514.29 Z" fill="#000000" fill-rule="nonzero" fill-opacity="1" /><path clip-path="url(#clip300)" d="M680.037 1532.02 L709.713 1532.02 L709.713 1535.95 L680.037 1535.95 L680.037 1532.02 Z" fill="#000000" fill-rule="nonzero" fill-opacity="1" /><path clip-path="url(#clip300)" d="M723.833 1544.91 L740.152 1544.91 L740.152 1548.85 L718.208 1548.85 L718.208 1544.91 Q720.87 1542.16 725.453 1537.53 Q730.06 1532.88 731.24 1531.53 Q733.486 1529.01 734.365 1527.27 Q735.268 1525.51 735.268 1523.82 Q735.268 1521.07 733.324 1519.33 Q731.402 1517.6 728.3 1517.6 Q726.101 1517.6 723.648 1518.36 Q721.217 1519.13 718.439 1520.68 L718.439 1515.95 Q721.263 1514.82 723.717 1514.24 Q726.171 1513.66 728.208 1513.66 Q733.578 1513.66 736.773 1516.35 Q739.967 1519.03 739.967 1523.52 Q739.967 1525.65 739.157 1527.57 Q738.37 1529.47 736.263 1532.07 Q735.685 1532.74 732.583 1535.95 Q729.481 1539.15 723.833 1544.91 Z" fill="#000000" fill-rule="nonzero" fill-opacity="1" /><path clip-path="url(#clip300)" d="M1210.66 1517.37 Q1207.05 1517.37 1205.22 1520.93 Q1203.41 1524.47 1203.41 1531.6 Q1203.41 1538.71 1205.22 1542.27 Q1207.05 1545.82 1210.66 1545.82 Q1214.29 1545.82 1216.1 1542.27 Q1217.93 1538.71 1217.93 1531.6 Q1217.93 1524.47 1216.1 1520.93 Q1214.29 1517.37 1210.66 1517.37 M1210.66 1513.66 Q1216.47 1513.66 1219.52 1518.27 Q1222.6 1522.85 1222.6 1531.6 Q1222.6 1540.33 1219.52 1544.94 Q1216.47 1549.52 1210.66 1549.52 Q1204.85 1549.52 1201.77 1544.94 Q1198.71 1540.33 1198.71 1531.6 Q1198.71 1522.85 1201.77 1518.27 Q1204.85 1513.66 1210.66 1513.66 Z" fill="#000000" fill-rule="nonzero" fill-opacity="1" /><path clip-path="url(#clip300)" d="M1705.87 1544.91 L1722.19 1544.91 L1722.19 1548.85 L1700.25 1548.85 L1700.25 1544.91 Q1702.91 1542.16 1707.49 1537.53 Q1712.1 1532.88 1713.28 1531.53 Q1715.53 1529.01 1716.41 1527.27 Q1717.31 1525.51 1717.31 1523.82 Q1717.31 1521.07 1715.36 1519.33 Q1713.44 1517.6 1710.34 1517.6 Q1708.14 1517.6 1705.69 1518.36 Q1703.26 1519.13 1700.48 1520.68 L1700.48 1515.95 Q1703.3 1514.82 1705.76 1514.24 Q1708.21 1513.66 1710.25 1513.66 Q1715.62 1513.66 1718.81 1516.35 Q1722.01 1519.03 1722.01 1523.52 Q1722.01 1525.65 1721.2 1527.57 Q1720.41 1529.47 1718.3 1532.07 Q1717.73 1532.74 1714.62 1535.95 Q1711.52 1539.15 1705.87 1544.91 Z" fill="#000000" fill-rule="nonzero" fill-opacity="1" /><path clip-path="url(#clip300)" d="M2214.79 1518.36 L2202.99 1536.81 L2214.79 1536.81 L2214.79 1518.36 M2213.57 1514.29 L2219.45 1514.29 L2219.45 1536.81 L2224.38 1536.81 L2224.38 1540.7 L2219.45 1540.7 L2219.45 1548.85 L2214.79 1548.85 L2214.79 1540.7 L2199.19 1540.7 L2199.19 1536.19 L2213.57 1514.29 Z" fill="#000000" fill-rule="nonzero" fill-opacity="1" /><polyline clip-path="url(#clip302)" style="stroke:#000000; stroke-linecap:round; stroke-linejoin:round; stroke-width:2; stroke-opacity:0.1; fill:none" points="147.108,1201.58 2352.76,1201.58 "/>
<polyline clip-path="url(#clip302)" style="stroke:#000000; stroke-linecap:round; stroke-linejoin:round; stroke-width:2; stroke-opacity:0.1; fill:none" points="147.108,830.382 2352.76,830.382 "/>
<polyline clip-path="url(#clip302)" style="stroke:#000000; stroke-linecap:round; stroke-linejoin:round; stroke-width:2; stroke-opacity:0.1; fill:none" points="147.108,459.179 2352.76,459.179 "/>
<polyline clip-path="url(#clip302)" style="stroke:#000000; stroke-linecap:round; stroke-linejoin:round; stroke-width:2; stroke-opacity:0.1; fill:none" points="147.108,87.9763 2352.76,87.9763 "/>
<polyline clip-path="url(#clip300)" style="stroke:#000000; stroke-linecap:round; stroke-linejoin:round; stroke-width:4; stroke-opacity:1; fill:none" points="147.108,1486.45 147.108,47.2441 "/>
<polyline clip-path="url(#clip300)" style="stroke:#000000; stroke-linecap:round; stroke-linejoin:round; stroke-width:4; stroke-opacity:1; fill:none" points="147.108,1201.58 166.005,1201.58 "/>
<polyline clip-path="url(#clip300)" style="stroke:#000000; stroke-linecap:round; stroke-linejoin:round; stroke-width:4; stroke-opacity:1; fill:none" points="147.108,830.382 166.005,830.382 "/>
<polyline clip-path="url(#clip300)" style="stroke:#000000; stroke-linecap:round; stroke-linejoin:round; stroke-width:4; stroke-opacity:1; fill:none" points="147.108,459.179 166.005,459.179 "/>
<polyline clip-path="url(#clip300)" style="stroke:#000000; stroke-linecap:round; stroke-linejoin:round; stroke-width:4; stroke-opacity:1; fill:none" points="147.108,87.9763 166.005,87.9763 "/>
<path clip-path="url(#clip300)" d="M50.9921 1202.04 L80.6679 1202.04 L80.6679 1205.97 L50.9921 1205.97 L50.9921 1202.04 Z" fill="#000000" fill-rule="nonzero" fill-opacity="1" /><path clip-path="url(#clip300)" d="M94.7882 1214.93 L111.108 1214.93 L111.108 1218.86 L89.1632 1218.86 L89.1632 1214.93 Q91.8252 1212.17 96.4085 1207.55 Q101.015 1202.89 102.196 1201.55 Q104.441 1199.03 105.321 1197.29 Q106.223 1195.53 106.223 1193.84 Q106.223 1191.09 104.279 1189.35 Q102.358 1187.61 99.2558 1187.61 Q97.0567 1187.61 94.603 1188.38 Q92.1725 1189.14 89.3947 1190.69 L89.3947 1185.97 Q92.2188 1184.84 94.6724 1184.26 Q97.1261 1183.68 99.1632 1183.68 Q104.534 1183.68 107.728 1186.36 Q110.922 1189.05 110.922 1193.54 Q110.922 1195.67 110.112 1197.59 Q109.325 1199.49 107.219 1202.08 Q106.64 1202.75 103.538 1205.97 Q100.436 1209.17 94.7882 1214.93 Z" fill="#000000" fill-rule="nonzero" fill-opacity="1" /><path clip-path="url(#clip300)" d="M99.1632 816.181 Q95.5521 816.181 93.7234 819.745 Q91.9178 823.287 91.9178 830.417 Q91.9178 837.523 93.7234 841.088 Q95.5521 844.629 99.1632 844.629 Q102.797 844.629 104.603 841.088 Q106.432 837.523 106.432 830.417 Q106.432 823.287 104.603 819.745 Q102.797 816.181 99.1632 816.181 M99.1632 812.477 Q104.973 812.477 108.029 817.083 Q111.108 821.667 111.108 830.417 Q111.108 839.143 108.029 843.75 Q104.973 848.333 99.1632 848.333 Q93.353 848.333 90.2743 843.75 Q87.2188 839.143 87.2188 830.417 Q87.2188 821.667 90.2743 817.083 Q93.353 812.477 99.1632 812.477 Z" fill="#000000" fill-rule="nonzero" fill-opacity="1" /><path clip-path="url(#clip300)" d="M94.7882 472.524 L111.108 472.524 L111.108 476.459 L89.1632 476.459 L89.1632 472.524 Q91.8252 469.769 96.4085 465.14 Q101.015 460.487 102.196 459.144 Q104.441 456.621 105.321 454.885 Q106.223 453.126 106.223 451.436 Q106.223 448.681 104.279 446.945 Q102.358 445.209 99.2558 445.209 Q97.0567 445.209 94.603 445.973 Q92.1725 446.737 89.3947 448.288 L89.3947 443.566 Q92.2188 442.431 94.6724 441.853 Q97.1261 441.274 99.1632 441.274 Q104.534 441.274 107.728 443.959 Q110.922 446.644 110.922 451.135 Q110.922 453.265 110.112 455.186 Q109.325 457.084 107.219 459.677 Q106.64 460.348 103.538 463.566 Q100.436 466.76 94.7882 472.524 Z" fill="#000000" fill-rule="nonzero" fill-opacity="1" /><path clip-path="url(#clip300)" d="M101.524 74.7703 L89.7188 93.2193 L101.524 93.2193 L101.524 74.7703 M100.297 70.6963 L106.177 70.6963 L106.177 93.2193 L111.108 93.2193 L111.108 97.1082 L106.177 97.1082 L106.177 105.256 L101.524 105.256 L101.524 97.1082 L85.9225 97.1082 L85.9225 92.5943 L100.297 70.6963 Z" fill="#000000" fill-rule="nonzero" fill-opacity="1" /><polyline clip-path="url(#clip302)" style="stroke:#0000ff; stroke-linecap:round; stroke-linejoin:round; stroke-width:8; stroke-opacity:1; fill:none" points="1836.36,87.9763 1883.56,120.314 1928.68,154.236 1971.64,189.67 2012.3,226.565 2050.26,265.017 2085.77,304.729 2118.76,345.617 2149.08,387.629 2176.38,430.766 2200.95,474.792 2222.75,519.615 2241.59,565.171 2257.22,611.39 2269.95,658.094 2279.75,705.187 2286.41,752.581 2289.79,800.072 2290.33,843.019 2288.51,875.373 2284.62,904.958 2278.72,934.361 2271,963.529 2261.47,992.401 2249.96,1020.88 2236.57,1048.89 2221.44,1076.42 2204.62,1103.4 2185.93,1129.7 2165.54,1155.29 2143.57,1180.15 2120.08,1204.24 2094.91,1227.38 2068.28,1249.59 2040.28,1270.87 2010.99,1291.16 1980.29,1310.27 1948.4,1328.28 1915.43,1345.18 1881.43,1360.93 1846.33,1375.3 1810.38,1388.44 1773.65,1400.33 1736.2,1410.94 1698.04,1420.04 1659.35,1427.82 1620.22,1434.27 1580.72,1439.32 1540.91,1442.82 1500.93,1444.96 1460.86,1445.72 1420.79,1445.03 1380.81,1442.81 1341.02,1439.21 1301.5,1434.26 1262.35,1427.86 1223.7,1419.99 1185.58,1410.8 1148.07,1400.32 1111.32,1388.45 1075.42,1375.23 1040.38,1360.78 1006.29,1345.15 973.304,1328.26 941.493,1310.18 910.846,1291.02 881.426,1270.83 853.448,1249.54 826.907,1227.26 801.786,1204.1 778.136,1180.1 756.211,1155.21 735.927,1129.58 717.265,1103.27 700.264,1076.35 685.213,1048.8 671.939,1020.75 660.43,992.276 650.71,963.436 643.096,934.251 637.325,904.835 633.397,875.254 631.337,845.567 631.428,815.841 633.375,786.152 637.172,756.56 642.862,727.135 650.642,697.974 660.234,669.112 671.616,640.611 684.842,612.55 700.022,585.037 716.903,558.077 735.448,531.724 755.715,506.078 777.731,481.237 801.273,457.179 826.292,433.954 852.84,411.683 880.874,390.435 910.203,370.174 940.766,350.94 972.602,332.878 1005.54,318.847 1038.97,316.755 1072.34,320.114 1105.43,324.74 1138.18,330.564 1170.53,337.506 1202.41,345.551 1233.68,354.818 1264.31,365.193 1294.26,376.608 1323.47,389.04 1351.75,402.599 1379.13,417.14 1405.57,432.604 1431.02,448.961 1455.25,466.306 1478.36,484.472 1500.3,503.411 1521.04,523.089 1540.32,543.566 1558.3,564.682 1574.94,586.392 1590.18,608.663 1603.8,631.502 1615.98,654.784 1626.69,678.458 1635.86,702.489 1643.32,726.842 1649.25,751.424 1653.64,776.183 1656.4,801.071 1657.47,824.079 1657.4,837.907 1656.65,846.363 1655.35,854.316 1653.51,862.206 1651.18,870.024 1648.37,877.754 1645.03,885.369 1641.19,892.85 1636.88,900.192 1632.12,907.378 1626.86,914.374 1621.15,921.169 1615.03,927.761 1608.49,934.136 1601.52,940.251 1594.16,946.108 1586.44,951.706 1578.38,957.033 1569.95,962.037 1561.21,966.738 1552.19,971.133 1542.9,975.215 1533.33,978.922 1523.53,982.291 1513.54,985.321 1503.37,988.004 1493.01,990.275 1482.53,992.189 1471.94,993.741 1461.26,994.92 1450.51,995.677 1439.72,996.063 1428.93,996.079 1418.14,995.711 1407.4,994.924 1396.71,993.769 1386.11,992.248 1375.62,990.346 1365.28,988.045 1355.1,985.391 1345.09,982.391 1335.29,979.026 1325.73,975.297 1316.42,971.243 1307.37,966.874 1298.63,962.173 1290.22,957.153 1282.13,951.85 1274.38,946.275 1267.03,940.414 1260.07,934.29 1253.51,927.935 1247.34,921.361 1241.65,914.559 1236.4,907.559 1231.6,900.388 1227.25,893.059 1223.43,885.57 1220.1,877.955 1217.24,870.233 1214.87,862.422 1213.07,854.528 1211.76,846.58 1210.96,838.59 1210.66,830.382 "/>
<polyline clip-path="url(#clip302)" style="stroke:#000000; stroke-linecap:round; stroke-linejoin:round; stroke-width:8; stroke-opacity:1; fill:none" points="209.532,830.382 2211.78,830.382 "/>
<path clip-path="url(#clip300)" d="M220.629 198.898 L862.164 198.898 L862.164 95.2176 L220.629 95.2176  Z" fill="#ffffff" fill-rule="evenodd" fill-opacity="1"/>
<polyline clip-path="url(#clip300)" style="stroke:#000000; stroke-linecap:round; stroke-linejoin:round; stroke-width:4; stroke-opacity:1; fill:none" points="220.629,198.898 862.164,198.898 862.164,95.2176 220.629,95.2176 220.629,198.898 "/>
<polyline clip-path="url(#clip300)" style="stroke:#0000ff; stroke-linecap:round; stroke-linejoin:round; stroke-width:8; stroke-opacity:1; fill:none" points="245.136,147.058 392.18,147.058 "/>
<path clip-path="url(#clip300)" d="M428.585 141.398 Q425.159 141.398 423.168 144.083 Q421.178 146.745 421.178 151.398 Q421.178 156.051 423.145 158.736 Q425.136 161.398 428.585 161.398 Q431.988 161.398 433.978 158.713 Q435.969 156.027 435.969 151.398 Q435.969 146.791 433.978 144.106 Q431.988 141.398 428.585 141.398 M428.585 137.787 Q434.14 137.787 437.312 141.398 Q440.483 145.009 440.483 151.398 Q440.483 157.764 437.312 161.398 Q434.14 165.009 428.585 165.009 Q423.006 165.009 419.835 161.398 Q416.687 157.764 416.687 151.398 Q416.687 145.009 419.835 141.398 Q423.006 137.787 428.585 137.787 Z" fill="#000000" fill-rule="nonzero" fill-opacity="1" /><path clip-path="url(#clip300)" d="M451.663 160.449 L451.663 174.199 L447.381 174.199 L447.381 138.412 L451.663 138.412 L451.663 142.347 Q453.006 140.032 455.043 138.921 Q457.103 137.787 459.95 137.787 Q464.673 137.787 467.612 141.537 Q470.575 145.287 470.575 151.398 Q470.575 157.509 467.612 161.259 Q464.673 165.009 459.95 165.009 Q457.103 165.009 455.043 163.898 Q453.006 162.763 451.663 160.449 M466.154 151.398 Q466.154 146.699 464.21 144.037 Q462.288 141.352 458.909 141.352 Q455.529 141.352 453.585 144.037 Q451.663 146.699 451.663 151.398 Q451.663 156.097 453.585 158.782 Q455.529 161.444 458.909 161.444 Q462.288 161.444 464.21 158.782 Q466.154 156.097 466.154 151.398 Z" fill="#000000" fill-rule="nonzero" fill-opacity="1" /><path clip-path="url(#clip300)" d="M481.848 131.051 L481.848 138.412 L490.622 138.412 L490.622 141.722 L481.848 141.722 L481.848 155.796 Q481.848 158.967 482.705 159.87 Q483.585 160.773 486.247 160.773 L490.622 160.773 L490.622 164.338 L486.247 164.338 Q481.316 164.338 479.441 162.509 Q477.566 160.657 477.566 155.796 L477.566 141.722 L474.441 141.722 L474.441 138.412 L477.566 138.412 L477.566 131.051 L481.848 131.051 Z" fill="#000000" fill-rule="nonzero" fill-opacity="1" /><path clip-path="url(#clip300)" d="M496.223 138.412 L500.483 138.412 L500.483 164.338 L496.223 164.338 L496.223 138.412 M496.223 128.319 L500.483 128.319 L500.483 133.713 L496.223 133.713 L496.223 128.319 Z" fill="#000000" fill-rule="nonzero" fill-opacity="1" /><path clip-path="url(#clip300)" d="M529.58 143.389 Q531.177 140.518 533.399 139.153 Q535.621 137.787 538.631 137.787 Q542.681 137.787 544.881 140.634 Q547.08 143.458 547.08 148.689 L547.08 164.338 L542.797 164.338 L542.797 148.828 Q542.797 145.102 541.478 143.296 Q540.158 141.49 537.45 141.49 Q534.14 141.49 532.219 143.69 Q530.297 145.889 530.297 149.685 L530.297 164.338 L526.015 164.338 L526.015 148.828 Q526.015 145.078 524.695 143.296 Q523.376 141.49 520.621 141.49 Q517.358 141.49 515.436 143.713 Q513.515 145.912 513.515 149.685 L513.515 164.338 L509.233 164.338 L509.233 138.412 L513.515 138.412 L513.515 142.44 Q514.973 140.055 517.01 138.921 Q519.047 137.787 521.848 137.787 Q524.672 137.787 526.64 139.222 Q528.631 140.657 529.58 143.389 Z" fill="#000000" fill-rule="nonzero" fill-opacity="1" /><path clip-path="url(#clip300)" d="M567.357 151.305 Q562.195 151.305 560.205 152.486 Q558.214 153.666 558.214 156.514 Q558.214 158.782 559.695 160.125 Q561.2 161.444 563.769 161.444 Q567.311 161.444 569.441 158.944 Q571.593 156.421 571.593 152.254 L571.593 151.305 L567.357 151.305 M575.853 149.546 L575.853 164.338 L571.593 164.338 L571.593 160.402 Q570.135 162.763 567.959 163.898 Q565.783 165.009 562.635 165.009 Q558.654 165.009 556.293 162.787 Q553.955 160.541 553.955 156.791 Q553.955 152.416 556.871 150.194 Q559.811 147.972 565.621 147.972 L571.593 147.972 L571.593 147.555 Q571.593 144.615 569.649 143.018 Q567.728 141.398 564.232 141.398 Q562.01 141.398 559.904 141.93 Q557.797 142.463 555.853 143.527 L555.853 139.592 Q558.191 138.69 560.39 138.25 Q562.589 137.787 564.672 137.787 Q570.297 137.787 573.075 140.703 Q575.853 143.62 575.853 149.546 Z" fill="#000000" fill-rule="nonzero" fill-opacity="1" /><path clip-path="url(#clip300)" d="M584.626 128.319 L588.885 128.319 L588.885 164.338 L584.626 164.338 L584.626 128.319 Z" fill="#000000" fill-rule="nonzero" fill-opacity="1" /><path clip-path="url(#clip300)" d="M617.079 131.051 L617.079 138.412 L625.852 138.412 L625.852 141.722 L617.079 141.722 L617.079 155.796 Q617.079 158.967 617.936 159.87 Q618.815 160.773 621.477 160.773 L625.852 160.773 L625.852 164.338 L621.477 164.338 Q616.547 164.338 614.672 162.509 Q612.797 160.657 612.797 155.796 L612.797 141.722 L609.672 141.722 L609.672 138.412 L612.797 138.412 L612.797 131.051 L617.079 131.051 Z" fill="#000000" fill-rule="nonzero" fill-opacity="1" /><path clip-path="url(#clip300)" d="M646.477 142.393 Q645.76 141.977 644.903 141.791 Q644.07 141.583 643.051 141.583 Q639.44 141.583 637.496 143.944 Q635.575 146.282 635.575 150.68 L635.575 164.338 L631.292 164.338 L631.292 138.412 L635.575 138.412 L635.575 142.44 Q636.917 140.078 639.07 138.944 Q641.223 137.787 644.301 137.787 Q644.741 137.787 645.274 137.856 Q645.806 137.903 646.454 138.018 L646.477 142.393 Z" fill="#000000" fill-rule="nonzero" fill-opacity="1" /><path clip-path="url(#clip300)" d="M662.727 151.305 Q657.565 151.305 655.574 152.486 Q653.584 153.666 653.584 156.514 Q653.584 158.782 655.065 160.125 Q656.57 161.444 659.139 161.444 Q662.681 161.444 664.81 158.944 Q666.963 156.421 666.963 152.254 L666.963 151.305 L662.727 151.305 M671.222 149.546 L671.222 164.338 L666.963 164.338 L666.963 160.402 Q665.505 162.763 663.329 163.898 Q661.153 165.009 658.005 165.009 Q654.023 165.009 651.662 162.787 Q649.324 160.541 649.324 156.791 Q649.324 152.416 652.241 150.194 Q655.181 147.972 660.991 147.972 L666.963 147.972 L666.963 147.555 Q666.963 144.615 665.019 143.018 Q663.098 141.398 659.602 141.398 Q657.38 141.398 655.273 141.93 Q653.167 142.463 651.223 143.527 L651.223 139.592 Q653.561 138.69 655.76 138.25 Q657.959 137.787 660.042 137.787 Q665.667 137.787 668.445 140.703 Q671.222 143.62 671.222 149.546 Z" fill="#000000" fill-rule="nonzero" fill-opacity="1" /><path clip-path="url(#clip300)" d="M679.996 138.412 L684.255 138.412 L684.255 164.801 Q684.255 169.754 682.357 171.976 Q680.482 174.199 676.292 174.199 L674.672 174.199 L674.672 170.588 L675.806 170.588 Q678.236 170.588 679.116 169.453 Q679.996 168.342 679.996 164.801 L679.996 138.412 M679.996 128.319 L684.255 128.319 L684.255 133.713 L679.996 133.713 L679.996 128.319 Z" fill="#000000" fill-rule="nonzero" fill-opacity="1" /><path clip-path="url(#clip300)" d="M715.343 150.31 L715.343 152.393 L695.759 152.393 Q696.037 156.791 698.398 159.106 Q700.782 161.398 705.019 161.398 Q707.472 161.398 709.764 160.796 Q712.079 160.194 714.347 158.99 L714.347 163.018 Q712.056 163.99 709.648 164.5 Q707.241 165.009 704.764 165.009 Q698.56 165.009 694.926 161.398 Q691.315 157.787 691.315 151.629 Q691.315 145.264 694.741 141.537 Q698.19 137.787 704.023 137.787 Q709.255 137.787 712.287 141.166 Q715.343 144.523 715.343 150.31 M711.083 149.06 Q711.037 145.565 709.116 143.481 Q707.218 141.398 704.07 141.398 Q700.505 141.398 698.352 143.412 Q696.222 145.426 695.898 149.083 L711.083 149.06 Z" fill="#000000" fill-rule="nonzero" fill-opacity="1" /><path clip-path="url(#clip300)" d="M740.991 139.407 L740.991 143.389 Q739.185 142.393 737.356 141.907 Q735.551 141.398 733.699 141.398 Q729.555 141.398 727.264 144.037 Q724.972 146.652 724.972 151.398 Q724.972 156.143 727.264 158.782 Q729.555 161.398 733.699 161.398 Q735.551 161.398 737.356 160.912 Q739.185 160.402 740.991 159.407 L740.991 163.342 Q739.208 164.176 737.287 164.592 Q735.389 165.009 733.236 165.009 Q727.38 165.009 723.931 161.328 Q720.481 157.648 720.481 151.398 Q720.481 145.055 723.954 141.421 Q727.449 137.787 733.514 137.787 Q735.481 137.787 737.356 138.203 Q739.231 138.597 740.991 139.407 Z" fill="#000000" fill-rule="nonzero" fill-opacity="1" /><path clip-path="url(#clip300)" d="M752.611 131.051 L752.611 138.412 L761.384 138.412 L761.384 141.722 L752.611 141.722 L752.611 155.796 Q752.611 158.967 753.467 159.87 Q754.347 160.773 757.009 160.773 L761.384 160.773 L761.384 164.338 L757.009 164.338 Q752.079 164.338 750.204 162.509 Q748.329 160.657 748.329 155.796 L748.329 141.722 L745.204 141.722 L745.204 138.412 L748.329 138.412 L748.329 131.051 L752.611 131.051 Z" fill="#000000" fill-rule="nonzero" fill-opacity="1" /><path clip-path="url(#clip300)" d="M777.032 141.398 Q773.606 141.398 771.615 144.083 Q769.625 146.745 769.625 151.398 Q769.625 156.051 771.592 158.736 Q773.583 161.398 777.032 161.398 Q780.435 161.398 782.426 158.713 Q784.416 156.027 784.416 151.398 Q784.416 146.791 782.426 144.106 Q780.435 141.398 777.032 141.398 M777.032 137.787 Q782.588 137.787 785.759 141.398 Q788.93 145.009 788.93 151.398 Q788.93 157.764 785.759 161.398 Q782.588 165.009 777.032 165.009 Q771.453 165.009 768.282 161.398 Q765.134 157.764 765.134 151.398 Q765.134 145.009 768.282 141.398 Q771.453 137.787 777.032 137.787 Z" fill="#000000" fill-rule="nonzero" fill-opacity="1" /><path clip-path="url(#clip300)" d="M811.013 142.393 Q810.296 141.977 809.439 141.791 Q808.606 141.583 807.587 141.583 Q803.976 141.583 802.032 143.944 Q800.111 146.282 800.111 150.68 L800.111 164.338 L795.828 164.338 L795.828 138.412 L800.111 138.412 L800.111 142.44 Q801.453 140.078 803.606 138.944 Q805.759 137.787 808.837 137.787 Q809.277 137.787 809.81 137.856 Q810.342 137.903 810.99 138.018 L811.013 142.393 Z" fill="#000000" fill-rule="nonzero" fill-opacity="1" /><path clip-path="url(#clip300)" d="M826.268 166.745 Q824.462 171.375 822.749 172.787 Q821.036 174.199 818.166 174.199 L814.763 174.199 L814.763 170.634 L817.263 170.634 Q819.023 170.634 819.995 169.8 Q820.967 168.967 822.148 165.865 L822.911 163.921 L812.425 138.412 L816.939 138.412 L825.041 158.689 L833.143 138.412 L837.657 138.412 L826.268 166.745 Z" fill="#000000" fill-rule="nonzero" fill-opacity="1" /></svg>
