<?xml version="1.0" encoding="utf-8"?>
<svg xmlns="http://www.w3.org/2000/svg" xmlns:xlink="http://www.w3.org/1999/xlink" width="600" height="400" viewBox="0 0 2400 1600">
<defs>
  <clipPath id="clip600">
    <rect x="0" y="0" width="2400" height="1600"/>
  </clipPath>
</defs>
<path clip-path="url(#clip600)" d="M0 1600 L2400 1600 L2400 0 L0 0  Z" fill="#ffffff" fill-rule="evenodd" fill-opacity="1"/>
<defs>
  <clipPath id="clip601">
    <rect x="480" y="0" width="1681" height="1600"/>
  </clipPath>
</defs>
<path clip-path="url(#clip600)" d="M193.936 1486.45 L2352.76 1486.45 L2352.76 47.2441 L193.936 47.2441  Z" fill="#ffffff" fill-rule="evenodd" fill-opacity="1"/>
<defs>
  <clipPath id="clip602">
    <rect x="193" y="47" width="2160" height="1440"/>
  </clipPath>
</defs>
<polyline clip-path="url(#clip602)" style="stroke:#000000; stroke-linecap:round; stroke-linejoin:round; stroke-width:2; stroke-opacity:0.1; fill:none" points="255.035,1486.45 255.035,47.2441 "/>
<polyline clip-path="url(#clip602)" style="stroke:#000000; stroke-linecap:round; stroke-linejoin:round; stroke-width:2; stroke-opacity:0.1; fill:none" points="764.19,1486.45 764.19,47.2441 "/>
<polyline clip-path="url(#clip602)" style="stroke:#000000; stroke-linecap:round; stroke-linejoin:round; stroke-width:2; stroke-opacity:0.1; fill:none" points="1273.35,1486.45 1273.35,47.2441 "/>
<polyline clip-path="url(#clip602)" style="stroke:#000000; stroke-linecap:round; stroke-linejoin:round; stroke-width:2; stroke-opacity:0.1; fill:none" points="1782.5,1486.45 1782.5,47.2441 "/>
<polyline clip-path="url(#clip602)" style="stroke:#000000; stroke-linecap:round; stroke-linejoin:round; stroke-width:2; stroke-opacity:0.1; fill:none" points="2291.66,1486.45 2291.66,47.2441 "/>
<polyline clip-path="url(#clip600)" style="stroke:#000000; stroke-linecap:round; stroke-linejoin:round; stroke-width:4; stroke-opacity:1; fill:none" points="193.936,1486.45 2352.76,1486.45 "/>
<polyline clip-path="url(#clip600)" style="stroke:#000000; stroke-linecap:round; stroke-linejoin:round; stroke-width:4; stroke-opacity:1; fill:none" points="255.035,1486.45 255.035,1467.55 "/>
<polyline clip-path="url(#clip600)" style="stroke:#000000; stroke-linecap:round; stroke-linejoin:round; stroke-width:4; stroke-opacity:1; fill:none" points="764.19,1486.45 764.19,1467.55 "/>
<polyline clip-path="url(#clip600)" style="stroke:#000000; stroke-linecap:round; stroke-linejoin:round; stroke-width:4; stroke-opacity:1; fill:none" points="1273.35,1486.45 1273.35,1467.55 "/>
<polyline clip-path="url(#clip600)" style="stroke:#000000; stroke-linecap:round; stroke-linejoin:round; stroke-width:4; stroke-opacity:1; fill:none" points="1782.5,1486.45 1782.5,1467.55 "/>
<polyline clip-path="url(#clip600)" style="stroke:#000000; stroke-linecap:round; stroke-linejoin:round; stroke-width:4; stroke-opacity:1; fill:none" points="2291.66,1486.45 2291.66,1467.55 "/>
<path clip-path="url(#clip600)" d="M255.035 1517.37 Q251.424 1517.37 249.595 1520.93 Q247.789 1524.47 247.789 1531.6 Q247.789 1538.71 249.595 1542.27 Q251.424 1545.82 255.035 1545.82 Q258.669 1545.82 260.474 1542.27 Q262.303 1538.71 262.303 1531.6 Q262.303 1524.47 260.474 1520.93 Q258.669 1517.37 255.035 1517.37 M255.035 1513.66 Q260.845 1513.66 263.9 1518.27 Q266.979 1522.85 266.979 1531.6 Q266.979 1540.33 263.9 1544.94 Q260.845 1549.52 255.035 1549.52 Q249.225 1549.52 246.146 1544.94 Q243.09 1540.33 243.09 1531.6 Q243.09 1522.85 246.146 1518.27 Q249.225 1513.66 255.035 1513.66 Z" fill="#000000" fill-rule="nonzero" fill-opacity="1" /><path clip-path="url(#clip600)" d="M758.843 1544.91 L775.162 1544.91 L775.162 1548.85 L753.218 1548.85 L753.218 1544.91 Q755.88 1542.16 760.463 1537.53 Q765.07 1532.88 766.25 1531.53 Q768.496 1529.01 769.375 1527.27 Q770.278 1525.51 770.278 1523.82 Q770.278 1521.07 768.334 1519.33 Q766.413 1517.6 763.311 1517.6 Q761.112 1517.6 758.658 1518.36 Q756.227 1519.13 753.45 1520.68 L753.45 1515.95 Q756.274 1514.82 758.727 1514.24 Q761.181 1513.66 763.218 1513.66 Q768.588 1513.66 771.783 1516.35 Q774.977 1519.03 774.977 1523.52 Q774.977 1525.65 774.167 1527.57 Q773.38 1529.47 771.274 1532.07 Q770.695 1532.74 767.593 1535.95 Q764.491 1539.15 758.843 1544.91 Z" fill="#000000" fill-rule="nonzero" fill-opacity="1" /><path clip-path="url(#clip600)" d="M1276.36 1518.36 L1264.55 1536.81 L1276.36 1536.81 L1276.36 1518.36 M1275.13 1514.29 L1281.01 1514.29 L1281.01 1536.81 L1285.94 1536.81 L1285.94 1540.7 L1281.01 1540.7 L1281.01 1548.85 L1276.36 1548.85 L1276.36 1540.7 L1260.75 1540.7 L1260.75 1536.19 L1275.13 1514.29 Z" fill="#000000" fill-rule="nonzero" fill-opacity="1" /><path clip-path="url(#clip600)" d="M1782.91 1529.7 Q1779.76 1529.7 1777.91 1531.86 Q1776.08 1534.01 1776.08 1537.76 Q1776.08 1541.49 1777.91 1543.66 Q1779.76 1545.82 1782.91 1545.82 Q1786.05 1545.82 1787.88 1543.66 Q1789.74 1541.49 1789.74 1537.76 Q1789.74 1534.01 1787.88 1531.86 Q1786.05 1529.7 1782.91 1529.7 M1792.19 1515.05 L1792.19 1519.31 Q1790.43 1518.48 1788.62 1518.04 Q1786.84 1517.6 1785.08 1517.6 Q1780.45 1517.6 1778 1520.72 Q1775.57 1523.85 1775.22 1530.17 Q1776.59 1528.15 1778.65 1527.09 Q1780.71 1526 1783.18 1526 Q1788.39 1526 1791.4 1529.17 Q1794.43 1532.32 1794.43 1537.76 Q1794.43 1543.08 1791.29 1546.3 Q1788.14 1549.52 1782.91 1549.52 Q1776.91 1549.52 1773.74 1544.94 Q1770.57 1540.33 1770.57 1531.6 Q1770.57 1523.41 1774.46 1518.55 Q1778.35 1513.66 1784.9 1513.66 Q1786.66 1513.66 1788.44 1514.01 Q1790.24 1514.36 1792.19 1515.05 Z" fill="#000000" fill-rule="nonzero" fill-opacity="1" /><path clip-path="url(#clip600)" d="M2291.66 1532.44 Q2288.32 1532.44 2286.4 1534.22 Q2284.5 1536 2284.5 1539.13 Q2284.5 1542.25 2286.4 1544.03 Q2288.32 1545.82 2291.66 1545.82 Q2294.99 1545.82 2296.91 1544.03 Q2298.83 1542.23 2298.83 1539.13 Q2298.83 1536 2296.91 1534.22 Q2295.01 1532.44 2291.66 1532.44 M2286.98 1530.45 Q2283.97 1529.7 2282.28 1527.64 Q2280.62 1525.58 2280.62 1522.62 Q2280.62 1518.48 2283.56 1516.07 Q2286.52 1513.66 2291.66 1513.66 Q2296.82 1513.66 2299.76 1516.07 Q2302.7 1518.48 2302.7 1522.62 Q2302.7 1525.58 2301.01 1527.64 Q2299.34 1529.7 2296.36 1530.45 Q2299.74 1531.23 2301.61 1533.52 Q2303.51 1535.82 2303.51 1539.13 Q2303.51 1544.15 2300.43 1546.83 Q2297.37 1549.52 2291.66 1549.52 Q2285.94 1549.52 2282.86 1546.83 Q2279.81 1544.15 2279.81 1539.13 Q2279.81 1535.82 2281.7 1533.52 Q2283.6 1531.23 2286.98 1530.45 M2285.27 1523.06 Q2285.27 1525.75 2286.94 1527.25 Q2288.62 1528.76 2291.66 1528.76 Q2294.67 1528.76 2296.36 1527.25 Q2298.07 1525.75 2298.07 1523.06 Q2298.07 1520.38 2296.36 1518.87 Q2294.67 1517.37 2291.66 1517.37 Q2288.62 1517.37 2286.94 1518.87 Q2285.27 1520.38 2285.27 1523.06 Z" fill="#000000" fill-rule="nonzero" fill-opacity="1" /><polyline clip-path="url(#clip602)" style="stroke:#000000; stroke-linecap:round; stroke-linejoin:round; stroke-width:2; stroke-opacity:0.1; fill:none" points="193.936,1396.65 2352.76,1396.65 "/>
<polyline clip-path="url(#clip602)" style="stroke:#000000; stroke-linecap:round; stroke-linejoin:round; stroke-width:2; stroke-opacity:0.1; fill:none" points="193.936,1124.89 2352.76,1124.89 "/>
<polyline clip-path="url(#clip602)" style="stroke:#000000; stroke-linecap:round; stroke-linejoin:round; stroke-width:2; stroke-opacity:0.1; fill:none" points="193.936,853.141 2352.76,853.141 "/>
<polyline clip-path="url(#clip602)" style="stroke:#000000; stroke-linecap:round; stroke-linejoin:round; stroke-width:2; stroke-opacity:0.1; fill:none" points="193.936,581.388 2352.76,581.388 "/>
<polyline clip-path="url(#clip602)" style="stroke:#000000; stroke-linecap:round; stroke-linejoin:round; stroke-width:2; stroke-opacity:0.1; fill:none" points="193.936,309.634 2352.76,309.634 "/>
<polyline clip-path="url(#clip600)" style="stroke:#000000; stroke-linecap:round; stroke-linejoin:round; stroke-width:4; stroke-opacity:1; fill:none" points="193.936,1486.45 193.936,47.2441 "/>
<polyline clip-path="url(#clip600)" style="stroke:#000000; stroke-linecap:round; stroke-linejoin:round; stroke-width:4; stroke-opacity:1; fill:none" points="193.936,1396.65 212.834,1396.65 "/>
<polyline clip-path="url(#clip600)" style="stroke:#000000; stroke-linecap:round; stroke-linejoin:round; stroke-width:4; stroke-opacity:1; fill:none" points="193.936,1124.89 212.834,1124.89 "/>
<polyline clip-path="url(#clip600)" style="stroke:#000000; stroke-linecap:round; stroke-linejoin:round; stroke-width:4; stroke-opacity:1; fill:none" points="193.936,853.141 212.834,853.141 "/>
<polyline clip-path="url(#clip600)" style="stroke:#000000; stroke-linecap:round; stroke-linejoin:round; stroke-width:4; stroke-opacity:1; fill:none" points="193.936,581.388 212.834,581.388 "/>
<polyline clip-path="url(#clip600)" style="stroke:#000000; stroke-linecap:round; stroke-linejoin:round; stroke-width:4; stroke-opacity:1; fill:none" points="193.936,309.634 212.834,309.634 "/>
<path clip-path="url(#clip600)" d="M50.9921 1397.1 L80.6679 1397.1 L80.6679 1401.03 L50.9921 1401.03 L50.9921 1397.1 Z" fill="#000000" fill-rule="nonzero" fill-opacity="1" /><path clip-path="url(#clip600)" d="M91.5706 1409.99 L99.2095 1409.99 L99.2095 1383.63 L90.8993 1385.29 L90.8993 1381.03 L99.1632 1379.37 L103.839 1379.37 L103.839 1409.99 L111.478 1409.99 L111.478 1413.93 L91.5706 1413.93 L91.5706 1409.99 Z" fill="#000000" fill-rule="nonzero" fill-opacity="1" /><path clip-path="url(#clip600)" d="M120.922 1408.05 L125.807 1408.05 L125.807 1413.93 L120.922 1413.93 L120.922 1408.05 Z" fill="#000000" fill-rule="nonzero" fill-opacity="1" /><path clip-path="url(#clip600)" d="M145.992 1382.45 Q142.381 1382.45 140.552 1386.01 Q138.746 1389.55 138.746 1396.68 Q138.746 1403.79 140.552 1407.35 Q142.381 1410.9 145.992 1410.9 Q149.626 1410.9 151.431 1407.35 Q153.26 1403.79 153.26 1396.68 Q153.26 1389.55 151.431 1386.01 Q149.626 1382.45 145.992 1382.45 M145.992 1378.74 Q151.802 1378.74 154.857 1383.35 Q157.936 1387.93 157.936 1396.68 Q157.936 1405.41 154.857 1410.02 Q151.802 1414.6 145.992 1414.6 Q140.181 1414.6 137.103 1410.02 Q134.047 1405.41 134.047 1396.68 Q134.047 1387.93 137.103 1383.35 Q140.181 1378.74 145.992 1378.74 Z" fill="#000000" fill-rule="nonzero" fill-opacity="1" /><path clip-path="url(#clip600)" d="M51.9875 1125.35 L81.6633 1125.35 L81.6633 1129.28 L51.9875 1129.28 L51.9875 1125.35 Z" fill="#000000" fill-rule="nonzero" fill-opacity="1" /><path clip-path="url(#clip600)" d="M101.756 1110.69 Q98.1447 1110.69 96.316 1114.26 Q94.5104 1117.8 94.5104 1124.93 Q94.5104 1132.04 96.316 1135.6 Q98.1447 1139.14 101.756 1139.14 Q105.39 1139.14 107.196 1135.6 Q109.024 1132.04 109.024 1124.93 Q109.024 1117.8 107.196 1114.26 Q105.39 1110.69 101.756 1110.69 M101.756 1106.99 Q107.566 1106.99 110.621 1111.6 Q113.7 1116.18 113.7 1124.93 Q113.7 1133.66 110.621 1138.26 Q107.566 1142.85 101.756 1142.85 Q95.9456 1142.85 92.8669 1138.26 Q89.8114 1133.66 89.8114 1124.93 Q89.8114 1116.18 92.8669 1111.6 Q95.9456 1106.99 101.756 1106.99 Z" fill="#000000" fill-rule="nonzero" fill-opacity="1" /><path clip-path="url(#clip600)" d="M121.918 1136.3 L126.802 1136.3 L126.802 1142.17 L121.918 1142.17 L121.918 1136.3 Z" fill="#000000" fill-rule="nonzero" fill-opacity="1" /><path clip-path="url(#clip600)" d="M137.033 1107.61 L155.39 1107.61 L155.39 1111.55 L141.316 1111.55 L141.316 1120.02 Q142.334 1119.67 143.353 1119.51 Q144.371 1119.33 145.39 1119.33 Q151.177 1119.33 154.556 1122.5 Q157.936 1125.67 157.936 1131.09 Q157.936 1136.67 154.464 1139.77 Q150.992 1142.85 144.672 1142.85 Q142.496 1142.85 140.228 1142.48 Q137.982 1142.11 135.575 1141.36 L135.575 1136.67 Q137.658 1137.8 139.881 1138.36 Q142.103 1138.91 144.58 1138.91 Q148.584 1138.91 150.922 1136.8 Q153.26 1134.7 153.26 1131.09 Q153.26 1127.48 150.922 1125.37 Q148.584 1123.26 144.58 1123.26 Q142.705 1123.26 140.83 1123.68 Q138.978 1124.1 137.033 1124.98 L137.033 1107.61 Z" fill="#000000" fill-rule="nonzero" fill-opacity="1" /><path clip-path="url(#clip600)" d="M100.76 838.94 Q97.1493 838.94 95.3206 842.505 Q93.515 846.046 93.515 853.176 Q93.515 860.283 95.3206 863.847 Q97.1493 867.389 100.76 867.389 Q104.395 867.389 106.2 863.847 Q108.029 860.283 108.029 853.176 Q108.029 846.046 106.2 842.505 Q104.395 838.94 100.76 838.94 M100.76 835.236 Q106.571 835.236 109.626 839.843 Q112.705 844.426 112.705 853.176 Q112.705 861.903 109.626 866.509 Q106.571 871.093 100.76 871.093 Q94.9502 871.093 91.8715 866.509 Q88.816 861.903 88.816 853.176 Q88.816 844.426 91.8715 839.843 Q94.9502 835.236 100.76 835.236 Z" fill="#000000" fill-rule="nonzero" fill-opacity="1" /><path clip-path="url(#clip600)" d="M120.922 864.542 L125.807 864.542 L125.807 870.421 L120.922 870.421 L120.922 864.542 Z" fill="#000000" fill-rule="nonzero" fill-opacity="1" /><path clip-path="url(#clip600)" d="M145.992 838.94 Q142.381 838.94 140.552 842.505 Q138.746 846.046 138.746 853.176 Q138.746 860.283 140.552 863.847 Q142.381 867.389 145.992 867.389 Q149.626 867.389 151.431 863.847 Q153.26 860.283 153.26 853.176 Q153.26 846.046 151.431 842.505 Q149.626 838.94 145.992 838.94 M145.992 835.236 Q151.802 835.236 154.857 839.843 Q157.936 844.426 157.936 853.176 Q157.936 861.903 154.857 866.509 Q151.802 871.093 145.992 871.093 Q140.181 871.093 137.103 866.509 Q134.047 861.903 134.047 853.176 Q134.047 844.426 137.103 839.843 Q140.181 835.236 145.992 835.236 Z" fill="#000000" fill-rule="nonzero" fill-opacity="1" /><path clip-path="url(#clip600)" d="M101.756 567.187 Q98.1447 567.187 96.316 570.751 Q94.5104 574.293 94.5104 581.423 Q94.5104 588.529 96.316 592.094 Q98.1447 595.636 101.756 595.636 Q105.39 595.636 107.196 592.094 Q109.024 588.529 109.024 581.423 Q109.024 574.293 107.196 570.751 Q105.39 567.187 101.756 567.187 M101.756 563.483 Q107.566 563.483 110.621 568.089 Q113.7 572.673 113.7 581.423 Q113.7 590.149 110.621 594.756 Q107.566 599.339 101.756 599.339 Q95.9456 599.339 92.8669 594.756 Q89.8114 590.149 89.8114 581.423 Q89.8114 572.673 92.8669 568.089 Q95.9456 563.483 101.756 563.483 Z" fill="#000000" fill-rule="nonzero" fill-opacity="1" /><path clip-path="url(#clip600)" d="M121.918 592.788 L126.802 592.788 L126.802 598.668 L121.918 598.668 L121.918 592.788 Z" fill="#000000" fill-rule="nonzero" fill-opacity="1" /><path clip-path="url(#clip600)" d="M137.033 564.108 L155.39 564.108 L155.39 568.043 L141.316 568.043 L141.316 576.515 Q142.334 576.168 143.353 576.006 Q144.371 575.821 145.39 575.821 Q151.177 575.821 154.556 578.992 Q157.936 582.163 157.936 587.58 Q157.936 593.159 154.464 596.261 Q150.992 599.339 144.672 599.339 Q142.496 599.339 140.228 598.969 Q137.982 598.598 135.575 597.858 L135.575 593.159 Q137.658 594.293 139.881 594.848 Q142.103 595.404 144.58 595.404 Q148.584 595.404 150.922 593.298 Q153.26 591.191 153.26 587.58 Q153.26 583.969 150.922 581.862 Q148.584 579.756 144.58 579.756 Q142.705 579.756 140.83 580.173 Q138.978 580.589 137.033 581.469 L137.033 564.108 Z" fill="#000000" fill-rule="nonzero" fill-opacity="1" /><path clip-path="url(#clip600)" d="M91.5706 322.979 L99.2095 322.979 L99.2095 296.614 L90.8993 298.28 L90.8993 294.021 L99.1632 292.354 L103.839 292.354 L103.839 322.979 L111.478 322.979 L111.478 326.914 L91.5706 326.914 L91.5706 322.979 Z" fill="#000000" fill-rule="nonzero" fill-opacity="1" /><path clip-path="url(#clip600)" d="M120.922 321.035 L125.807 321.035 L125.807 326.914 L120.922 326.914 L120.922 321.035 Z" fill="#000000" fill-rule="nonzero" fill-opacity="1" /><path clip-path="url(#clip600)" d="M145.992 295.433 Q142.381 295.433 140.552 298.998 Q138.746 302.54 138.746 309.669 Q138.746 316.776 140.552 320.34 Q142.381 323.882 145.992 323.882 Q149.626 323.882 151.431 320.34 Q153.26 316.776 153.26 309.669 Q153.26 302.54 151.431 298.998 Q149.626 295.433 145.992 295.433 M145.992 291.729 Q151.802 291.729 154.857 296.336 Q157.936 300.919 157.936 309.669 Q157.936 318.396 154.857 323.002 Q151.802 327.586 145.992 327.586 Q140.181 327.586 137.103 323.002 Q134.047 318.396 134.047 309.669 Q134.047 300.919 137.103 296.336 Q140.181 291.729 145.992 291.729 Z" fill="#000000" fill-rule="nonzero" fill-opacity="1" /><polyline clip-path="url(#clip602)" style="stroke:#ff0000; stroke-linecap:round; stroke-linejoin:round; stroke-width:8; stroke-opacity:1; fill:none" points="255.035,87.9763 259.108,88.0909 263.181,88.321 267.254,88.5523 271.328,88.7847 275.401,89.0184 279.474,89.2533 283.547,89.4894 287.621,89.7268 291.694,89.9654 295.767,90.2052 299.84,90.4463 303.914,90.6887 307.987,90.9323 312.06,91.1773 316.133,91.4235 320.207,91.6711 324.28,91.92 328.353,92.1702 332.426,92.4218 336.5,92.6747 340.573,92.929 344.646,93.1846 348.719,93.4417 352.793,93.7001 356.866,93.96 360.939,94.2213 365.012,94.484 369.086,94.7481 373.159,95.0137 377.232,95.2802 381.305,95.5412 385.379,96.3314 389.452,110.445 393.525,332.594 397.598,800.107 401.671,850.723 405.745,853.033 409.818,853.137 413.891,853.141 417.964,853.141 422.038,853.141 426.111,853.141 430.184,853.141 434.257,853.141 438.331,853.141 442.404,853.141 446.477,853.141 450.55,853.141 454.624,853.141 458.697,853.141 462.77,853.141 466.843,853.141 470.917,853.141 474.99,853.141 479.063,853.141 483.136,853.141 487.21,853.141 491.283,853.141 495.356,853.141 499.429,853.141 503.503,853.141 507.576,853.141 511.649,853.141 515.722,853.141 519.796,853.141 523.869,853.141 527.942,853.141 532.015,853.141 536.089,853.141 540.162,853.141 544.235,853.141 548.308,853.141 552.382,853.141 556.455,853.141 560.528,853.141 564.601,853.141 568.675,853.141 572.748,853.141 576.821,853.141 580.894,853.141 584.968,853.141 589.041,853.141 593.114,853.141 597.187,853.141 601.261,853.141 605.334,853.141 609.407,853.141 613.48,853.141 617.553,853.141 621.627,853.141 625.7,853.141 629.773,853.141 633.846,853.141 637.92,853.141 641.993,853.141 646.066,853.141 650.139,853.141 654.213,853.141 658.286,853.141 662.359,853.141 666.432,853.141 670.506,853.141 674.579,853.141 678.652,853.141 682.725,853.141 686.799,853.141 690.872,853.141 694.945,853.141 699.018,853.141 703.092,853.141 707.165,853.141 711.238,853.141 715.311,853.141 719.385,853.141 723.458,853.141 727.531,853.141 731.604,853.141 735.678,853.141 739.751,853.141 743.824,853.141 747.897,853.141 751.971,853.141 756.044,853.141 760.117,853.141 764.19,853.141 768.264,853.141 772.337,853.141 776.41,853.141 780.483,853.141 784.557,853.141 788.63,853.141 792.703,853.141 796.776,853.141 800.85,853.141 804.923,853.141 808.996,853.141 813.069,853.141 817.142,853.141 821.216,853.141 825.289,853.141 829.362,853.141 833.435,853.141 837.509,853.141 841.582,853.141 845.655,853.141 849.728,853.141 853.802,853.141 857.875,853.141 861.948,853.141 866.021,853.141 870.095,853.141 874.168,853.141 878.241,853.141 882.314,853.141 886.388,853.141 890.461,853.141 894.534,853.141 898.607,853.141 902.681,853.141 906.754,853.141 910.827,853.141 914.9,853.141 918.974,853.141 923.047,853.141 927.12,853.141 931.193,853.141 935.267,853.141 939.34,853.141 943.413,853.141 947.486,853.141 951.56,853.141 955.633,853.141 959.706,853.141 963.779,853.141 967.853,853.141 971.926,853.141 975.999,853.141 980.072,853.141 984.146,853.141 988.219,853.141 992.292,853.141 996.365,853.141 1000.44,853.141 1004.51,853.141 1008.59,853.141 1012.66,853.141 1016.73,853.141 1020.8,853.141 1024.88,853.141 1028.95,853.141 1033.02,853.141 1037.1,853.141 1041.17,853.141 1045.24,853.141 1049.32,853.141 1053.39,853.141 1057.46,853.141 1061.54,853.141 1065.61,853.141 1069.68,853.141 1073.76,853.141 1077.83,853.141 1081.9,853.141 1085.98,853.141 1090.05,853.141 1094.12,853.141 1098.2,853.141 1102.27,853.141 1106.34,853.141 1110.42,853.141 1114.49,853.141 1118.56,853.141 1122.64,853.141 1126.71,853.141 1130.78,853.141 1134.86,853.141 1138.93,853.141 1143,853.141 1147.08,853.132 1151.15,852.934 1155.22,848.548 1159.3,759.23 1163.37,322.687 1167.44,211.465 1171.51,207.49 1175.59,209.332 1179.66,210.672 1183.73,211.934 1187.81,213.205 1191.88,214.49 1195.95,215.79 1200.03,217.104 1204.1,218.434 1208.17,219.779 1212.25,221.14 1216.32,222.517 1220.39,223.91 1224.47,225.32 1228.54,226.746 1232.61,228.19 1236.69,229.65 1240.76,231.129 1244.83,232.625 1248.91,234.14 1252.98,235.673 1257.05,237.224 1261.13,238.796 1265.2,240.386 1269.27,241.997 1273.35,243.627 1277.42,245.278 1281.49,246.95 1285.57,248.644 1289.64,250.359 1293.71,252.096 1297.79,253.855 1301.86,255.637 1305.93,257.443 1310.01,259.272 1314.08,261.125 1318.15,263.003 1322.22,264.906 1326.3,266.834 1330.37,268.787 1334.44,270.768 1338.52,272.775 1342.59,274.809 1346.66,276.871 1350.74,278.962 1354.81,281.081 1358.88,283.23 1362.96,285.409 1367.03,287.618 1371.1,289.858 1375.18,292.13 1379.25,294.434 1383.32,296.771 1387.4,299.141 1391.47,301.546 1395.54,303.985 1399.62,306.46 1403.69,308.97 1407.76,311.518 1411.84,314.103 1415.91,316.726 1419.98,319.388 1424.06,322.089 1428.13,324.831 1432.2,327.614 1436.28,330.44 1440.35,333.307 1444.42,336.219 1448.5,339.175 1452.57,342.176 1456.64,345.223 1460.72,348.317 1464.79,351.459 1468.86,354.649 1472.93,357.889 1477.01,361.18 1481.08,364.523 1485.15,367.918 1489.23,371.366 1493.3,374.869 1497.37,378.428 1501.45,382.042 1505.52,385.715 1509.59,389.446 1513.67,393.237 1517.74,397.088 1521.81,401.001 1525.89,404.977 1529.96,409.017 1534.03,413.121 1538.11,417.292 1542.18,421.531 1546.25,425.837 1550.33,430.213 1554.4,434.66 1558.47,439.178 1562.55,443.769 1566.62,448.434 1570.69,453.174 1574.77,457.99 1578.84,462.883 1582.91,467.854 1586.99,472.905 1591.06,478.036 1595.13,483.248 1599.21,488.542 1603.28,493.92 1607.35,499.381 1611.43,504.927 1615.5,510.559 1619.57,516.278 1623.65,522.084 1627.72,527.977 1631.79,533.959 1635.86,540.03 1639.94,546.19 1644.01,552.44 1648.08,558.78 1652.16,565.21 1656.23,571.731 1660.3,578.342 1664.38,585.043 1668.45,591.835 1672.52,598.716 1676.6,605.686 1680.67,612.745 1684.74,619.891 1688.82,627.125 1692.89,634.445 1696.96,641.85 1701.04,649.338 1705.11,656.909 1709.18,664.559 1713.26,672.289 1717.33,680.095 1721.4,687.976 1725.48,695.929 1729.55,703.952 1733.62,712.043 1737.7,720.198 1741.77,728.414 1745.84,736.689 1749.92,745.019 1753.99,753.401 1758.06,761.831 1762.14,770.305 1766.21,778.821 1770.28,787.373 1774.36,795.958 1778.43,804.572 1782.5,813.21 1786.57,821.869 1790.65,830.544 1794.72,839.23 1798.79,847.923 1802.87,856.619 1806.94,865.313 1811.01,874.001 1815.09,882.678 1819.16,891.34 1823.23,899.983 1827.31,908.602 1831.38,917.194 1835.45,925.753 1839.53,934.276 1843.6,942.759 1847.67,951.198 1851.75,959.59 1855.82,967.931 1859.89,976.217 1863.97,984.445 1868.04,992.613 1872.11,1000.72 1876.19,1008.75 1880.26,1016.72 1884.33,1024.62 1888.41,1032.44 1892.48,1040.18 1896.55,1047.85 1900.63,1055.44 1904.7,1062.94 1908.77,1070.36 1912.85,1077.7 1916.92,1084.95 1920.99,1092.11 1925.07,1099.19 1929.14,1106.18 1933.21,1113.08 1937.28,1119.89 1941.36,1126.61 1945.43,1133.24 1949.5,1139.77 1953.58,1146.22 1957.65,1152.58 1961.72,1158.85 1965.8,1165.03 1969.87,1171.12 1973.94,1177.12 1978.02,1183.03 1982.09,1188.85 1986.16,1194.59 1990.24,1200.23 1994.31,1205.8 1998.38,1211.28 2002.46,1216.67 2006.53,1221.98 2010.6,1227.21 2014.68,1232.36 2018.75,1237.42 2022.82,1242.41 2026.9,1247.32 2030.97,1252.15 2035.04,1256.91 2039.12,1261.59 2043.19,1266.19 2047.26,1270.72 2051.34,1275.19 2055.41,1279.58 2059.48,1283.9 2063.56,1288.15 2067.63,1292.33 2071.7,1296.45 2075.78,1300.5 2079.85,1304.49 2083.92,1308.42 2087.99,1312.28 2092.07,1316.08 2096.14,1319.83 2100.21,1323.51 2104.29,1327.14 2108.36,1330.71 2112.43,1334.22 2116.51,1337.68 2120.58,1341.08 2124.65,1344.44 2128.73,1347.74 2132.8,1350.99 2136.87,1354.19 2140.95,1357.34 2145.02,1360.44 2149.09,1363.5 2153.17,1366.51 2157.24,1369.48 2161.31,1372.4 2165.39,1375.27 2169.46,1378.11 2173.53,1380.9 2177.61,1383.65 2181.68,1386.36 2185.75,1389.03 2189.83,1391.66 2193.9,1394.25 2197.97,1396.81 2202.05,1399.32 2206.12,1401.81 2210.19,1404.25 2214.27,1406.66 2218.34,1409.04 2222.41,1411.38 2226.49,1413.69 2230.56,1415.97 2234.63,1418.22 2238.71,1420.43 2242.78,1422.62 2246.85,1424.77 2250.92,1426.9 2255,1429 2259.07,1431.06 2263.14,1433.1 2267.22,1435.12 2271.29,1437.1 2275.36,1439.06 2279.44,1440.99 2283.51,1442.9 2287.58,1444.78 2291.66,1445.72 "/>
<polyline clip-path="url(#clip602)" style="stroke:#008000; stroke-linecap:round; stroke-linejoin:round; stroke-width:8; stroke-opacity:1; fill:none" points="255.035,130.986 259.108,130.986 263.181,130.986 267.254,130.986 271.328,130.986 275.401,130.986 279.474,130.986 283.547,130.986 287.621,130.986 291.694,130.986 295.767,130.986 299.84,130.986 303.914,130.986 307.987,130.986 312.06,130.986 316.133,130.986 320.207,130.986 324.28,130.986 328.353,130.986 332.426,130.986 336.5,130.986 340.573,130.986 344.646,130.986 348.719,130.986 352.793,130.986 356.866,130.986 360.939,130.986 365.012,130.986 369.086,130.986 373.159,130.986 377.232,130.986 381.305,130.986 385.379,130.987 389.452,130.988 393.525,130.988 397.598,130.988 401.671,130.988 405.745,130.988 409.818,130.988 413.891,130.988 417.964,130.988 422.038,130.988 426.111,130.988 430.184,130.988 434.257,130.988 438.331,130.988 442.404,130.988 446.477,130.988 450.55,130.988 454.624,130.988 458.697,130.988 462.77,130.988 466.843,130.988 470.917,130.988 474.99,130.988 479.063,130.988 483.136,130.988 487.21,130.988 491.283,130.988 495.356,130.988 499.429,130.988 503.503,130.988 507.576,130.988 511.649,130.988 515.722,130.988 519.796,130.988 523.869,130.988 527.942,130.988 532.015,130.988 536.089,130.988 540.162,130.988 544.235,130.988 548.308,130.988 552.382,130.988 556.455,130.988 560.528,130.988 564.601,130.988 568.675,130.988 572.748,130.988 576.821,130.988 580.894,130.988 584.968,130.988 589.041,130.988 593.114,130.988 597.187,130.988 601.261,130.988 605.334,130.988 609.407,130.988 613.48,130.988 617.553,130.988 621.627,130.988 625.7,130.988 629.773,130.988 633.846,130.988 637.92,130.988 641.993,130.988 646.066,130.988 650.139,130.988 654.213,130.988 658.286,130.988 662.359,130.988 666.432,130.988 670.506,130.988 674.579,130.988 678.652,130.988 682.725,130.988 686.799,130.988 690.872,130.988 694.945,130.988 699.018,130.988 703.092,130.988 707.165,130.988 711.238,130.988 715.311,130.988 719.385,130.988 723.458,130.988 727.531,130.988 731.604,130.988 735.678,130.988 739.751,130.988 743.824,130.988 747.897,130.988 751.971,130.988 756.044,130.988 760.117,130.988 764.19,130.988 768.264,130.988 772.337,130.988 776.41,130.988 780.483,130.988 784.557,130.988 788.63,130.988 792.703,130.988 796.776,130.988 800.85,130.988 804.923,130.988 808.996,130.988 813.069,130.988 817.142,130.988 821.216,130.988 825.289,130.988 829.362,130.988 833.435,130.988 837.509,130.988 841.582,130.988 845.655,130.988 849.728,130.988 853.802,130.988 857.875,130.988 861.948,130.988 866.021,130.988 870.095,130.988 874.168,130.988 878.241,130.988 882.314,130.988 886.388,130.988 890.461,130.988 894.534,130.988 898.607,130.988 902.681,130.988 906.754,130.988 910.827,130.988 914.9,130.988 918.974,130.988 923.047,130.988 927.12,130.988 931.193,130.988 935.267,130.988 939.34,130.988 943.413,130.988 947.486,130.988 951.56,130.988 955.633,130.988 959.706,130.988 963.779,130.988 967.853,130.988 971.926,130.988 975.999,130.988 980.072,130.988 984.146,130.988 988.219,130.988 992.292,130.988 996.365,130.988 1000.44,130.988 1004.51,130.988 1008.59,130.988 1012.66,130.988 1016.73,130.988 1020.8,130.988 1024.88,130.988 1028.95,130.988 1033.02,130.988 1037.1,130.988 1041.17,130.988 1045.24,130.988 1049.32,130.988 1053.39,130.988 1057.46,130.988 1061.54,130.988 1065.61,130.988 1069.68,130.988 1073.76,130.988 1077.83,130.988 1081.9,130.988 1085.98,130.988 1090.05,130.988 1094.12,130.988 1098.2,130.988 1102.27,130.988 1106.34,130.988 1110.42,130.988 1114.49,130.988 1118.56,130.988 1122.64,130.988 1126.71,130.988 1130.78,130.988 1134.86,130.988 1138.93,130.988 1143,130.988 1147.08,130.988 1151.15,130.988 1155.22,130.988 1159.3,130.988 1163.37,130.988 1167.44,130.988 1171.51,130.989 1175.59,130.99 1179.66,130.99 1183.73,130.991 1187.81,130.991 1191.88,130.991 1195.95,130.991 1200.03,130.991 1204.1,130.991 1208.17,130.991 1212.25,130.991 1216.32,130.991 1220.39,130.991 1224.47,130.991 1228.54,130.991 1232.61,130.991 1236.69,130.991 1240.76,130.991 1244.83,130.991 1248.91,130.991 1252.98,130.991 1257.05,130.991 1261.13,130.991 1265.2,130.991 1269.27,130.991 1273.35,130.991 1277.42,130.991 1281.49,130.991 1285.57,130.991 1289.64,130.991 1293.71,130.991 1297.79,130.991 1301.86,130.991 1305.93,130.991 1310.01,130.991 1314.08,130.991 1318.15,130.991 1322.22,130.991 1326.3,130.991 1330.37,130.991 1334.44,130.991 1338.52,130.991 1342.59,130.991 1346.66,130.991 1350.74,130.991 1354.81,130.991 1358.88,130.991 1362.96,130.991 1367.03,130.991 1371.1,130.991 1375.18,130.991 1379.25,130.991 1383.32,130.991 1387.4,130.991 1391.47,130.991 1395.54,130.991 1399.62,130.991 1403.69,130.991 1407.76,130.991 1411.84,130.991 1415.91,130.991 1419.98,130.991 1424.06,130.991 1428.13,130.991 1432.2,130.991 1436.28,130.991 1440.35,130.991 1444.42,130.991 1448.5,130.991 1452.57,130.991 1456.64,130.991 1460.72,130.991 1464.79,130.991 1468.86,130.991 1472.93,130.991 1477.01,130.991 1481.08,130.991 1485.15,130.991 1489.23,130.991 1493.3,130.991 1497.37,130.991 1501.45,130.991 1505.52,130.991 1509.59,130.991 1513.67,130.991 1517.74,130.991 1521.81,130.991 1525.89,130.991 1529.96,130.991 1534.03,130.991 1538.11,130.991 1542.18,130.991 1546.25,130.991 1550.33,130.991 1554.4,130.991 1558.47,130.991 1562.55,130.991 1566.62,130.991 1570.69,130.991 1574.77,130.991 1578.84,130.991 1582.91,130.991 1586.99,130.991 1591.06,130.991 1595.13,130.991 1599.21,130.991 1603.28,130.991 1607.35,130.991 1611.43,130.991 1615.5,130.991 1619.57,130.991 1623.65,130.991 1627.72,130.991 1631.79,130.991 1635.86,130.991 1639.94,130.991 1644.01,130.991 1648.08,130.991 1652.16,130.991 1656.23,130.991 1660.3,130.991 1664.38,130.991 1668.45,130.991 1672.52,130.991 1676.6,130.991 1680.67,130.991 1684.74,130.991 1688.82,130.991 1692.89,130.991 1696.96,130.991 1701.04,130.991 1705.11,130.991 1709.18,130.991 1713.26,130.991 1717.33,130.991 1721.4,130.991 1725.48,130.991 1729.55,130.991 1733.62,130.991 1737.7,130.991 1741.77,130.991 1745.84,130.991 1749.92,130.991 1753.99,130.991 1758.06,130.991 1762.14,130.991 1766.21,130.991 1770.28,130.991 1774.36,130.991 1778.43,130.991 1782.5,130.991 1786.57,130.991 1790.65,130.991 1794.72,130.991 1798.79,130.991 1802.87,130.991 1806.94,130.991 1811.01,130.991 1815.09,130.991 1819.16,130.991 1823.23,130.991 1827.31,130.991 1831.38,130.991 1835.45,130.991 1839.53,130.991 1843.6,130.991 1847.67,130.991 1851.75,130.991 1855.82,130.991 1859.89,130.991 1863.97,130.991 1868.04,130.991 1872.11,130.991 1876.19,130.991 1880.26,130.991 1884.33,130.991 1888.41,130.991 1892.48,130.991 1896.55,130.991 1900.63,130.991 1904.7,130.991 1908.77,130.991 1912.85,130.991 1916.92,130.991 1920.99,130.991 1925.07,130.991 1929.14,130.991 1933.21,130.991 1937.28,130.991 1941.36,130.991 1945.43,130.991 1949.5,130.991 1953.58,130.991 1957.65,130.991 1961.72,130.991 1965.8,130.991 1969.87,130.991 1973.94,130.991 1978.02,130.991 1982.09,130.991 1986.16,130.991 1990.24,130.991 1994.31,130.991 1998.38,130.991 2002.46,130.991 2006.53,130.991 2010.6,130.991 2014.68,130.991 2018.75,130.991 2022.82,130.991 2026.9,130.991 2030.97,130.991 2035.04,130.991 2039.12,130.991 2043.19,130.991 2047.26,130.991 2051.34,130.991 2055.41,130.991 2059.48,130.991 2063.56,130.991 2067.63,130.991 2071.7,130.991 2075.78,130.991 2079.85,130.991 2083.92,130.991 2087.99,130.991 2092.07,130.991 2096.14,130.991 2100.21,130.991 2104.29,130.991 2108.36,130.991 2112.43,130.991 2116.51,130.991 2120.58,130.991 2124.65,130.991 2128.73,130.991 2132.8,130.991 2136.87,130.991 2140.95,130.991 2145.02,130.991 2149.09,130.991 2153.17,130.991 2157.24,130.991 2161.31,130.991 2165.39,130.991 2169.46,130.991 2173.53,130.991 2177.61,130.991 2181.68,130.991 2185.75,130.991 2189.83,130.991 2193.9,130.991 2197.97,130.991 2202.05,130.991 2206.12,130.991 2210.19,130.991 2214.27,130.991 2218.34,130.991 2222.41,130.991 2226.49,130.991 2230.56,130.991 2234.63,130.991 2238.71,130.991 2242.78,130.991 2246.85,130.991 2250.92,130.991 2255,130.991 2259.07,130.991 2263.14,130.991 2267.22,130.991 2271.29,130.991 2275.36,130.991 2279.44,130.991 2283.51,130.991 2287.58,130.991 2291.66,130.991 "/>
<path clip-path="url(#clip600)" d="M265.897 1438.47 L833.374 1438.47 L833.374 1282.95 L265.897 1282.95  Z" fill="#ffffff" fill-rule="evenodd" fill-opacity="1"/>
<polyline clip-path="url(#clip600)" style="stroke:#000000; stroke-linecap:round; stroke-linejoin:round; stroke-width:4; stroke-opacity:1; fill:none" points="265.897,1438.47 833.374,1438.47 833.374,1282.95 265.897,1282.95 265.897,1438.47 "/>
<polyline clip-path="url(#clip600)" style="stroke:#ff0000; stroke-linecap:round; stroke-linejoin:round; stroke-width:8; stroke-opacity:1; fill:none" points="289.884,1334.79 433.805,1334.79 "/>
<path clip-path="url(#clip600)" d="M469.69 1329.13 Q466.264 1329.13 464.273 1331.82 Q462.282 1334.48 462.282 1339.13 Q462.282 1343.79 464.25 1346.47 Q466.241 1349.13 469.69 1349.13 Q473.093 1349.13 475.083 1346.45 Q477.074 1343.76 477.074 1339.13 Q477.074 1334.53 475.083 1331.84 Q473.093 1329.13 469.69 1329.13 M469.69 1325.52 Q475.245 1325.52 478.417 1329.13 Q481.588 1332.75 481.588 1339.13 Q481.588 1345.5 478.417 1349.13 Q475.245 1352.75 469.69 1352.75 Q464.111 1352.75 460.94 1349.13 Q457.792 1345.5 457.792 1339.13 Q457.792 1332.75 460.94 1329.13 Q464.111 1325.52 469.69 1325.52 Z" fill="#000000" fill-rule="nonzero" fill-opacity="1" /><path clip-path="url(#clip600)" d="M492.768 1348.19 L492.768 1361.94 L488.486 1361.94 L488.486 1326.15 L492.768 1326.15 L492.768 1330.08 Q494.111 1327.77 496.148 1326.66 Q498.208 1325.52 501.055 1325.52 Q505.778 1325.52 508.717 1329.27 Q511.68 1333.02 511.68 1339.13 Q511.68 1345.25 508.717 1349 Q505.778 1352.75 501.055 1352.75 Q498.208 1352.75 496.148 1351.63 Q494.111 1350.5 492.768 1348.19 M507.259 1339.13 Q507.259 1334.44 505.315 1331.77 Q503.393 1329.09 500.014 1329.09 Q496.634 1329.09 494.69 1331.77 Q492.768 1334.44 492.768 1339.13 Q492.768 1343.83 494.69 1346.52 Q496.634 1349.18 500.014 1349.18 Q503.393 1349.18 505.315 1346.52 Q507.259 1343.83 507.259 1339.13 Z" fill="#000000" fill-rule="nonzero" fill-opacity="1" /><path clip-path="url(#clip600)" d="M522.953 1318.79 L522.953 1326.15 L531.727 1326.15 L531.727 1329.46 L522.953 1329.46 L522.953 1343.53 Q522.953 1346.7 523.81 1347.61 Q524.69 1348.51 527.352 1348.51 L531.727 1348.51 L531.727 1352.07 L527.352 1352.07 Q522.421 1352.07 520.546 1350.25 Q518.671 1348.39 518.671 1343.53 L518.671 1329.46 L515.546 1329.46 L515.546 1326.15 L518.671 1326.15 L518.671 1318.79 L522.953 1318.79 Z" fill="#000000" fill-rule="nonzero" fill-opacity="1" /><path clip-path="url(#clip600)" d="M537.328 1326.15 L541.588 1326.15 L541.588 1352.07 L537.328 1352.07 L537.328 1326.15 M537.328 1316.06 L541.588 1316.06 L541.588 1321.45 L537.328 1321.45 L537.328 1316.06 Z" fill="#000000" fill-rule="nonzero" fill-opacity="1" /><path clip-path="url(#clip600)" d="M570.685 1331.13 Q572.282 1328.26 574.504 1326.89 Q576.726 1325.52 579.736 1325.52 Q583.786 1325.52 585.986 1328.37 Q588.185 1331.19 588.185 1336.43 L588.185 1352.07 L583.902 1352.07 L583.902 1336.57 Q583.902 1332.84 582.583 1331.03 Q581.263 1329.23 578.555 1329.23 Q575.245 1329.23 573.324 1331.43 Q571.402 1333.63 571.402 1337.42 L571.402 1352.07 L567.12 1352.07 L567.12 1336.57 Q567.12 1332.82 565.8 1331.03 Q564.481 1329.23 561.726 1329.23 Q558.463 1329.23 556.541 1331.45 Q554.62 1333.65 554.62 1337.42 L554.62 1352.07 L550.338 1352.07 L550.338 1326.15 L554.62 1326.15 L554.62 1330.18 Q556.078 1327.79 558.115 1326.66 Q560.152 1325.52 562.953 1325.52 Q565.777 1325.52 567.745 1326.96 Q569.736 1328.39 570.685 1331.13 Z" fill="#000000" fill-rule="nonzero" fill-opacity="1" /><path clip-path="url(#clip600)" d="M608.462 1339.04 Q603.3 1339.04 601.31 1340.22 Q599.319 1341.4 599.319 1344.25 Q599.319 1346.52 600.8 1347.86 Q602.305 1349.18 604.874 1349.18 Q608.416 1349.18 610.546 1346.68 Q612.698 1344.16 612.698 1339.99 L612.698 1339.04 L608.462 1339.04 M616.958 1337.28 L616.958 1352.07 L612.698 1352.07 L612.698 1348.14 Q611.24 1350.5 609.064 1351.63 Q606.888 1352.75 603.74 1352.75 Q599.759 1352.75 597.397 1350.52 Q595.06 1348.28 595.06 1344.53 Q595.06 1340.15 597.976 1337.93 Q600.916 1335.71 606.726 1335.71 L612.698 1335.71 L612.698 1335.29 Q612.698 1332.35 610.754 1330.76 Q608.833 1329.13 605.337 1329.13 Q603.115 1329.13 601.009 1329.67 Q598.902 1330.2 596.958 1331.26 L596.958 1327.33 Q599.296 1326.43 601.495 1325.99 Q603.694 1325.52 605.777 1325.52 Q611.402 1325.52 614.18 1328.44 Q616.958 1331.36 616.958 1337.28 Z" fill="#000000" fill-rule="nonzero" fill-opacity="1" /><path clip-path="url(#clip600)" d="M625.731 1316.06 L629.99 1316.06 L629.99 1352.07 L625.731 1352.07 L625.731 1316.06 Z" fill="#000000" fill-rule="nonzero" fill-opacity="1" /><path clip-path="url(#clip600)" d="M672.629 1327.14 L672.629 1331.13 Q670.823 1330.13 668.994 1329.64 Q667.189 1329.13 665.337 1329.13 Q661.193 1329.13 658.902 1331.77 Q656.61 1334.39 656.61 1339.13 Q656.61 1343.88 658.902 1346.52 Q661.193 1349.13 665.337 1349.13 Q667.189 1349.13 668.994 1348.65 Q670.823 1348.14 672.629 1347.14 L672.629 1351.08 Q670.846 1351.91 668.925 1352.33 Q667.027 1352.75 664.874 1352.75 Q659.018 1352.75 655.568 1349.07 Q652.119 1345.38 652.119 1339.13 Q652.119 1332.79 655.592 1329.16 Q659.087 1325.52 665.152 1325.52 Q667.119 1325.52 668.994 1325.94 Q670.869 1326.33 672.629 1327.14 Z" fill="#000000" fill-rule="nonzero" fill-opacity="1" /><path clip-path="url(#clip600)" d="M690.082 1329.13 Q686.656 1329.13 684.666 1331.82 Q682.675 1334.48 682.675 1339.13 Q682.675 1343.79 684.642 1346.47 Q686.633 1349.13 690.082 1349.13 Q693.485 1349.13 695.476 1346.45 Q697.466 1343.76 697.466 1339.13 Q697.466 1334.53 695.476 1331.84 Q693.485 1329.13 690.082 1329.13 M690.082 1325.52 Q695.638 1325.52 698.809 1329.13 Q701.98 1332.75 701.98 1339.13 Q701.98 1345.5 698.809 1349.13 Q695.638 1352.75 690.082 1352.75 Q684.504 1352.75 681.332 1349.13 Q678.184 1345.5 678.184 1339.13 Q678.184 1332.75 681.332 1329.13 Q684.504 1325.52 690.082 1325.52 Z" fill="#000000" fill-rule="nonzero" fill-opacity="1" /><path clip-path="url(#clip600)" d="M730.591 1336.43 L730.591 1352.07 L726.332 1352.07 L726.332 1336.57 Q726.332 1332.88 724.897 1331.06 Q723.462 1329.23 720.591 1329.23 Q717.142 1329.23 715.151 1331.43 Q713.161 1333.63 713.161 1337.42 L713.161 1352.07 L708.878 1352.07 L708.878 1326.15 L713.161 1326.15 L713.161 1330.18 Q714.689 1327.84 716.749 1326.68 Q718.832 1325.52 721.54 1325.52 Q726.008 1325.52 728.3 1328.3 Q730.591 1331.06 730.591 1336.43 Z" fill="#000000" fill-rule="nonzero" fill-opacity="1" /><path clip-path="url(#clip600)" d="M743.299 1318.79 L743.299 1326.15 L752.073 1326.15 L752.073 1329.46 L743.299 1329.46 L743.299 1343.53 Q743.299 1346.7 744.156 1347.61 Q745.036 1348.51 747.698 1348.51 L752.073 1348.51 L752.073 1352.07 L747.698 1352.07 Q742.767 1352.07 740.892 1350.25 Q739.017 1348.39 739.017 1343.53 L739.017 1329.46 L735.892 1329.46 L735.892 1326.15 L739.017 1326.15 L739.017 1318.79 L743.299 1318.79 Z" fill="#000000" fill-rule="nonzero" fill-opacity="1" /><path clip-path="url(#clip600)" d="M772.697 1330.13 Q771.98 1329.71 771.123 1329.53 Q770.29 1329.32 769.272 1329.32 Q765.66 1329.32 763.716 1331.68 Q761.795 1334.02 761.795 1338.42 L761.795 1352.07 L757.512 1352.07 L757.512 1326.15 L761.795 1326.15 L761.795 1330.18 Q763.137 1327.82 765.29 1326.68 Q767.443 1325.52 770.522 1325.52 Q770.961 1325.52 771.494 1325.59 Q772.026 1325.64 772.674 1325.76 L772.697 1330.13 Z" fill="#000000" fill-rule="nonzero" fill-opacity="1" /><path clip-path="url(#clip600)" d="M786.17 1329.13 Q782.744 1329.13 780.753 1331.82 Q778.762 1334.48 778.762 1339.13 Q778.762 1343.79 780.73 1346.47 Q782.721 1349.13 786.17 1349.13 Q789.572 1349.13 791.563 1346.45 Q793.554 1343.76 793.554 1339.13 Q793.554 1334.53 791.563 1331.84 Q789.572 1329.13 786.17 1329.13 M786.17 1325.52 Q791.725 1325.52 794.896 1329.13 Q798.068 1332.75 798.068 1339.13 Q798.068 1345.5 794.896 1349.13 Q791.725 1352.75 786.17 1352.75 Q780.591 1352.75 777.42 1349.13 Q774.272 1345.5 774.272 1339.13 Q774.272 1332.75 777.42 1329.13 Q780.591 1325.52 786.17 1325.52 Z" fill="#000000" fill-rule="nonzero" fill-opacity="1" /><path clip-path="url(#clip600)" d="M805.128 1316.06 L809.387 1316.06 L809.387 1352.07 L805.128 1352.07 L805.128 1316.06 Z" fill="#000000" fill-rule="nonzero" fill-opacity="1" /><polyline clip-path="url(#clip600)" style="stroke:#008000; stroke-linecap:round; stroke-linejoin:round; stroke-width:8; stroke-opacity:1; fill:none" points="289.884,1386.63 433.805,1386.63 "/>
<path clip-path="url(#clip600)" d="M476.218 1378.75 L476.218 1382.78 Q474.412 1381.85 472.468 1381.39 Q470.523 1380.93 468.44 1380.93 Q465.269 1380.93 463.671 1381.9 Q462.097 1382.87 462.097 1384.82 Q462.097 1386.3 463.232 1387.16 Q464.366 1387.99 467.792 1388.75 L469.25 1389.08 Q473.787 1390.05 475.685 1391.83 Q477.606 1393.59 477.606 1396.76 Q477.606 1400.37 474.736 1402.48 Q471.889 1404.59 466.889 1404.59 Q464.806 1404.59 462.537 1404.17 Q460.292 1403.78 457.792 1402.97 L457.792 1398.57 Q460.153 1399.79 462.445 1400.42 Q464.736 1401.02 466.982 1401.02 Q469.991 1401.02 471.611 1400 Q473.231 1398.96 473.231 1397.09 Q473.231 1395.35 472.051 1394.42 Q470.894 1393.5 466.935 1392.64 L465.454 1392.29 Q461.495 1391.46 459.736 1389.75 Q457.977 1388.01 457.977 1385 Q457.977 1381.35 460.57 1379.35 Q463.162 1377.36 467.931 1377.36 Q470.292 1377.36 472.375 1377.71 Q474.458 1378.06 476.218 1378.75 Z" fill="#000000" fill-rule="nonzero" fill-opacity="1" /><path clip-path="url(#clip600)" d="M488.602 1370.63 L488.602 1377.99 L497.375 1377.99 L497.375 1381.3 L488.602 1381.3 L488.602 1395.37 Q488.602 1398.54 489.458 1399.45 Q490.338 1400.35 493 1400.35 L497.375 1400.35 L497.375 1403.91 L493 1403.91 Q488.069 1403.91 486.194 1402.09 Q484.319 1400.23 484.319 1395.37 L484.319 1381.3 L481.194 1381.3 L481.194 1377.99 L484.319 1377.99 L484.319 1370.63 L488.602 1370.63 Z" fill="#000000" fill-rule="nonzero" fill-opacity="1" /><path clip-path="url(#clip600)" d="M514.759 1390.88 Q509.597 1390.88 507.606 1392.06 Q505.616 1393.24 505.616 1396.09 Q505.616 1398.36 507.097 1399.7 Q508.602 1401.02 511.171 1401.02 Q514.713 1401.02 516.842 1398.52 Q518.995 1396 518.995 1391.83 L518.995 1390.88 L514.759 1390.88 M523.254 1389.12 L523.254 1403.91 L518.995 1403.91 L518.995 1399.98 Q517.537 1402.34 515.361 1403.47 Q513.185 1404.59 510.037 1404.59 Q506.055 1404.59 503.694 1402.36 Q501.356 1400.12 501.356 1396.37 Q501.356 1391.99 504.273 1389.77 Q507.213 1387.55 513.023 1387.55 L518.995 1387.55 L518.995 1387.13 Q518.995 1384.19 517.051 1382.6 Q515.129 1380.97 511.634 1380.97 Q509.412 1380.97 507.305 1381.51 Q505.199 1382.04 503.254 1383.1 L503.254 1379.17 Q505.592 1378.27 507.791 1377.83 Q509.991 1377.36 512.074 1377.36 Q517.699 1377.36 520.477 1380.28 Q523.254 1383.2 523.254 1389.12 Z" fill="#000000" fill-rule="nonzero" fill-opacity="1" /><path clip-path="url(#clip600)" d="M536.24 1370.63 L536.24 1377.99 L545.014 1377.99 L545.014 1381.3 L536.24 1381.3 L536.24 1395.37 Q536.24 1398.54 537.097 1399.45 Q537.977 1400.35 540.639 1400.35 L545.014 1400.35 L545.014 1403.91 L540.639 1403.91 Q535.708 1403.91 533.833 1402.09 Q531.958 1400.23 531.958 1395.37 L531.958 1381.3 L528.833 1381.3 L528.833 1377.99 L531.958 1377.99 L531.958 1370.63 L536.24 1370.63 Z" fill="#000000" fill-rule="nonzero" fill-opacity="1" /><path clip-path="url(#clip600)" d="M572.791 1389.89 L572.791 1391.97 L553.208 1391.97 Q553.486 1396.37 555.847 1398.68 Q558.231 1400.97 562.467 1400.97 Q564.921 1400.97 567.212 1400.37 Q569.527 1399.77 571.796 1398.57 L571.796 1402.59 Q569.504 1403.57 567.097 1404.08 Q564.689 1404.59 562.213 1404.59 Q556.009 1404.59 552.375 1400.97 Q548.763 1397.36 548.763 1391.21 Q548.763 1384.84 552.189 1381.11 Q555.638 1377.36 561.472 1377.36 Q566.703 1377.36 569.736 1380.74 Q572.791 1384.1 572.791 1389.89 M568.532 1388.64 Q568.486 1385.14 566.564 1383.06 Q564.666 1380.97 561.518 1380.97 Q557.953 1380.97 555.8 1382.99 Q553.671 1385 553.347 1388.66 L568.532 1388.64 Z" fill="#000000" fill-rule="nonzero" fill-opacity="1" /><path clip-path="url(#clip600)" d="M605.059 1371.95 L617.027 1403.91 L612.513 1403.91 L605.245 1384.75 L596.31 1403.91 L591.796 1403.91 L603.161 1379.05 L601.448 1374.47 Q600.36 1371.55 597.884 1371.55 L595.661 1371.55 L595.661 1367.9 L598.37 1367.94 Q603.601 1368.01 605.059 1371.95 Z" fill="#000000" fill-rule="nonzero" fill-opacity="1" /></svg>
