<?xml version="1.0" encoding="utf-8"?>
<svg xmlns="http://www.w3.org/2000/svg" xmlns:xlink="http://www.w3.org/1999/xlink" width="600" height="400" viewBox="0 0 2400 1600">
<defs>
  <clipPath id="clip060">
    <rect x="0" y="0" width="2400" height="1600"/>
  </clipPath>
</defs>
<path clip-path="url(#clip060)" d="M0 1600 L2400 1600 L2400 0 L0 0  Z" fill="#ffffff" fill-rule="evenodd" fill-opacity="1"/>
<defs>
  <clipPath id="clip061">
    <rect x="480" y="0" width="1681" height="1600"/>
  </clipPath>
</defs>
<path clip-path="url(#clip060)" d="M186.274 1486.45 L2352.76 1486.45 L2352.76 47.2441 L186.274 47.2441  Z" fill="#ffffff" fill-rule="evenodd" fill-opacity="1"/>
<defs>
  <clipPath id="clip062">
    <rect x="186" y="47" width="2167" height="1440"/>
  </clipPath>
</defs>
<polyline clip-path="url(#clip062)" style="stroke:#000000; stroke-linecap:round; stroke-linejoin:round; stroke-width:2; stroke-opacity:0.1; fill:none" points="247.59,1486.45 247.59,47.2441 "/>
<polyline clip-path="url(#clip062)" style="stroke:#000000; stroke-linecap:round; stroke-linejoin:round; stroke-width:2; stroke-opacity:0.1; fill:none" points="928.873,1486.45 928.873,47.2441 "/>
<polyline clip-path="url(#clip062)" style="stroke:#000000; stroke-linecap:round; stroke-linejoin:round; stroke-width:2; stroke-opacity:0.1; fill:none" points="1610.16,1486.45 1610.16,47.2441 "/>
<polyline clip-path="url(#clip062)" style="stroke:#000000; stroke-linecap:round; stroke-linejoin:round; stroke-width:2; stroke-opacity:0.1; fill:none" points="2291.44,1486.45 2291.44,47.2441 "/>
<polyline clip-path="url(#clip062)" style="stroke:#000000; stroke-linecap:round; stroke-linejoin:round; stroke-width:2; stroke-opacity:0.1; fill:none" points="186.274,1445.72 2352.76,1445.72 "/>
<polyline clip-path="url(#clip062)" style="stroke:#000000; stroke-linecap:round; stroke-linejoin:round; stroke-width:2; stroke-opacity:0.1; fill:none" points="186.274,1106.28 2352.76,1106.28 "/>
<polyline clip-path="url(#clip062)" style="stroke:#000000; stroke-linecap:round; stroke-linejoin:round; stroke-width:2; stroke-opacity:0.1; fill:none" points="186.274,766.846 2352.76,766.846 "/>
<polyline clip-path="url(#clip062)" style="stroke:#000000; stroke-linecap:round; stroke-linejoin:round; stroke-width:2; stroke-opacity:0.1; fill:none" points="186.274,427.411 2352.76,427.411 "/>
<polyline clip-path="url(#clip062)" style="stroke:#000000; stroke-linecap:round; stroke-linejoin:round; stroke-width:2; stroke-opacity:0.1; fill:none" points="186.274,87.9763 2352.76,87.9763 "/>
<polyline clip-path="url(#clip060)" style="stroke:#000000; stroke-linecap:round; stroke-linejoin:round; stroke-width:4; stroke-opacity:1; fill:none" points="186.274,1486.45 2352.76,1486.45 "/>
<polyline clip-path="url(#clip060)" style="stroke:#000000; stroke-linecap:round; stroke-linejoin:round; stroke-width:4; stroke-opacity:1; fill:none" points="247.59,1486.45 247.59,1467.55 "/>
<polyline clip-path="url(#clip060)" style="stroke:#000000; stroke-linecap:round; stroke-linejoin:round; stroke-width:4; stroke-opacity:1; fill:none" points="928.873,1486.45 928.873,1467.55 "/>
<polyline clip-path="url(#clip060)" style="stroke:#000000; stroke-linecap:round; stroke-linejoin:round; stroke-width:4; stroke-opacity:1; fill:none" points="1610.16,1486.45 1610.16,1467.55 "/>
<polyline clip-path="url(#clip060)" style="stroke:#000000; stroke-linecap:round; stroke-linejoin:round; stroke-width:4; stroke-opacity:1; fill:none" points="2291.44,1486.45 2291.44,1467.55 "/>
<path clip-path="url(#clip060)" d="M247.59 1517.37 Q243.978 1517.37 242.15 1520.93 Q240.344 1524.47 240.344 1531.6 Q240.344 1538.71 242.15 1542.27 Q243.978 1545.82 247.59 1545.82 Q251.224 1545.82 253.029 1542.27 Q254.858 1538.71 254.858 1531.6 Q254.858 1524.47 253.029 1520.93 Q251.224 1517.37 247.59 1517.37 M247.59 1513.66 Q253.4 1513.66 256.455 1518.27 Q259.534 1522.85 259.534 1531.6 Q259.534 1540.33 256.455 1544.94 Q253.4 1549.52 247.59 1549.52 Q241.779 1549.52 238.701 1544.94 Q235.645 1540.33 235.645 1531.6 Q235.645 1522.85 238.701 1518.27 Q241.779 1513.66 247.59 1513.66 Z" fill="#000000" fill-rule="nonzero" fill-opacity="1" /><path clip-path="url(#clip060)" d="M903.561 1544.91 L911.2 1544.91 L911.2 1518.55 L902.889 1520.21 L902.889 1515.95 L911.153 1514.29 L915.829 1514.29 L915.829 1544.91 L923.468 1544.91 L923.468 1548.85 L903.561 1548.85 L903.561 1544.91 Z" fill="#000000" fill-rule="nonzero" fill-opacity="1" /><path clip-path="url(#clip060)" d="M942.912 1517.37 Q939.301 1517.37 937.473 1520.93 Q935.667 1524.47 935.667 1531.6 Q935.667 1538.71 937.473 1542.27 Q939.301 1545.82 942.912 1545.82 Q946.547 1545.82 948.352 1542.27 Q950.181 1538.71 950.181 1531.6 Q950.181 1524.47 948.352 1520.93 Q946.547 1517.37 942.912 1517.37 M942.912 1513.66 Q948.723 1513.66 951.778 1518.27 Q954.857 1522.85 954.857 1531.6 Q954.857 1540.33 951.778 1544.94 Q948.723 1549.52 942.912 1549.52 Q937.102 1549.52 934.024 1544.94 Q930.968 1540.33 930.968 1531.6 Q930.968 1522.85 934.024 1518.27 Q937.102 1513.66 942.912 1513.66 Z" fill="#000000" fill-rule="nonzero" fill-opacity="1" /><path clip-path="url(#clip060)" d="M1588.93 1544.91 L1605.25 1544.91 L1605.25 1548.85 L1583.31 1548.85 L1583.31 1544.91 Q1585.97 1542.16 1590.55 1537.53 Q1595.16 1532.88 1596.34 1531.53 Q1598.58 1529.01 1599.46 1527.27 Q1600.37 1525.51 1600.37 1523.82 Q1600.37 1521.07 1598.42 1519.33 Q1596.5 1517.6 1593.4 1517.6 Q1591.2 1517.6 1588.74 1518.36 Q1586.31 1519.13 1583.54 1520.68 L1583.54 1515.95 Q1586.36 1514.82 1588.81 1514.24 Q1591.27 1513.66 1593.31 1513.66 Q1598.68 1513.66 1601.87 1516.35 Q1605.06 1519.03 1605.06 1523.52 Q1605.06 1525.65 1604.25 1527.57 Q1603.47 1529.47 1601.36 1532.07 Q1600.78 1532.74 1597.68 1535.95 Q1594.58 1539.15 1588.93 1544.91 Z" fill="#000000" fill-rule="nonzero" fill-opacity="1" /><path clip-path="url(#clip060)" d="M1625.06 1517.37 Q1621.45 1517.37 1619.62 1520.93 Q1617.82 1524.47 1617.82 1531.6 Q1617.82 1538.71 1619.62 1542.27 Q1621.45 1545.82 1625.06 1545.82 Q1628.7 1545.82 1630.5 1542.27 Q1632.33 1538.71 1632.33 1531.6 Q1632.33 1524.47 1630.5 1520.93 Q1628.7 1517.37 1625.06 1517.37 M1625.06 1513.66 Q1630.87 1513.66 1633.93 1518.27 Q1637.01 1522.85 1637.01 1531.6 Q1637.01 1540.33 1633.93 1544.94 Q1630.87 1549.52 1625.06 1549.52 Q1619.25 1549.52 1616.18 1544.94 Q1613.12 1540.33 1613.12 1531.6 Q1613.12 1522.85 1616.18 1518.27 Q1619.25 1513.66 1625.06 1513.66 Z" fill="#000000" fill-rule="nonzero" fill-opacity="1" /><path clip-path="url(#clip060)" d="M2280.28 1530.21 Q2283.64 1530.93 2285.51 1533.2 Q2287.41 1535.47 2287.41 1538.8 Q2287.41 1543.92 2283.89 1546.72 Q2280.38 1549.52 2273.89 1549.52 Q2271.72 1549.52 2269.4 1549.08 Q2267.11 1548.66 2264.66 1547.81 L2264.66 1543.29 Q2266.6 1544.43 2268.92 1545.01 Q2271.23 1545.58 2273.76 1545.58 Q2278.15 1545.58 2280.45 1543.85 Q2282.76 1542.11 2282.76 1538.8 Q2282.76 1535.75 2280.61 1534.03 Q2278.48 1532.3 2274.66 1532.3 L2270.63 1532.3 L2270.63 1528.45 L2274.84 1528.45 Q2278.29 1528.45 2280.12 1527.09 Q2281.95 1525.7 2281.95 1523.11 Q2281.95 1520.45 2280.05 1519.03 Q2278.18 1517.6 2274.66 1517.6 Q2272.74 1517.6 2270.54 1518.01 Q2268.34 1518.43 2265.7 1519.31 L2265.7 1515.14 Q2268.36 1514.4 2270.68 1514.03 Q2273.01 1513.66 2275.07 1513.66 Q2280.4 1513.66 2283.5 1516.09 Q2286.6 1518.5 2286.6 1522.62 Q2286.6 1525.49 2284.96 1527.48 Q2283.32 1529.45 2280.28 1530.21 Z" fill="#000000" fill-rule="nonzero" fill-opacity="1" /><path clip-path="url(#clip060)" d="M2306.28 1517.37 Q2302.67 1517.37 2300.84 1520.93 Q2299.03 1524.47 2299.03 1531.6 Q2299.03 1538.71 2300.84 1542.27 Q2302.67 1545.82 2306.28 1545.82 Q2309.91 1545.82 2311.72 1542.27 Q2313.55 1538.71 2313.55 1531.6 Q2313.55 1524.47 2311.72 1520.93 Q2309.91 1517.37 2306.28 1517.37 M2306.28 1513.66 Q2312.09 1513.66 2315.14 1518.27 Q2318.22 1522.85 2318.22 1531.6 Q2318.22 1540.33 2315.14 1544.94 Q2312.09 1549.52 2306.28 1549.52 Q2300.47 1549.52 2297.39 1544.94 Q2294.33 1540.33 2294.33 1531.6 Q2294.33 1522.85 2297.39 1518.27 Q2300.47 1513.66 2306.28 1513.66 Z" fill="#000000" fill-rule="nonzero" fill-opacity="1" /><polyline clip-path="url(#clip060)" style="stroke:#000000; stroke-linecap:round; stroke-linejoin:round; stroke-width:4; stroke-opacity:1; fill:none" points="186.274,1486.45 186.274,47.2441 "/>
<polyline clip-path="url(#clip060)" style="stroke:#000000; stroke-linecap:round; stroke-linejoin:round; stroke-width:4; stroke-opacity:1; fill:none" points="186.274,1445.72 205.172,1445.72 "/>
<polyline clip-path="url(#clip060)" style="stroke:#000000; stroke-linecap:round; stroke-linejoin:round; stroke-width:4; stroke-opacity:1; fill:none" points="186.274,1106.28 205.172,1106.28 "/>
<polyline clip-path="url(#clip060)" style="stroke:#000000; stroke-linecap:round; stroke-linejoin:round; stroke-width:4; stroke-opacity:1; fill:none" points="186.274,766.846 205.172,766.846 "/>
<polyline clip-path="url(#clip060)" style="stroke:#000000; stroke-linecap:round; stroke-linejoin:round; stroke-width:4; stroke-opacity:1; fill:none" points="186.274,427.411 205.172,427.411 "/>
<polyline clip-path="url(#clip060)" style="stroke:#000000; stroke-linecap:round; stroke-linejoin:round; stroke-width:4; stroke-opacity:1; fill:none" points="186.274,87.9763 205.172,87.9763 "/>
<path clip-path="url(#clip060)" d="M62.9365 1431.51 Q59.3254 1431.51 57.4967 1435.08 Q55.6912 1438.62 55.6912 1445.75 Q55.6912 1452.86 57.4967 1456.42 Q59.3254 1459.96 62.9365 1459.96 Q66.5707 1459.96 68.3763 1456.42 Q70.205 1452.86 70.205 1445.75 Q70.205 1438.62 68.3763 1435.08 Q66.5707 1431.51 62.9365 1431.51 M62.9365 1427.81 Q68.7467 1427.81 71.8022 1432.42 Q74.8809 1437 74.8809 1445.75 Q74.8809 1454.48 71.8022 1459.08 Q68.7467 1463.67 62.9365 1463.67 Q57.1264 1463.67 54.0477 1459.08 Q50.9921 1454.48 50.9921 1445.75 Q50.9921 1437 54.0477 1432.42 Q57.1264 1427.81 62.9365 1427.81 Z" fill="#000000" fill-rule="nonzero" fill-opacity="1" /><path clip-path="url(#clip060)" d="M83.0984 1457.12 L87.9827 1457.12 L87.9827 1463 L83.0984 1463 L83.0984 1457.12 Z" fill="#000000" fill-rule="nonzero" fill-opacity="1" /><path clip-path="url(#clip060)" d="M108.168 1431.51 Q104.557 1431.51 102.728 1435.08 Q100.922 1438.62 100.922 1445.75 Q100.922 1452.86 102.728 1456.42 Q104.557 1459.96 108.168 1459.96 Q111.802 1459.96 113.608 1456.42 Q115.436 1452.86 115.436 1445.75 Q115.436 1438.62 113.608 1435.08 Q111.802 1431.51 108.168 1431.51 M108.168 1427.81 Q113.978 1427.81 117.033 1432.42 Q120.112 1437 120.112 1445.75 Q120.112 1454.48 117.033 1459.08 Q113.978 1463.67 108.168 1463.67 Q102.358 1463.67 99.2789 1459.08 Q96.2234 1454.48 96.2234 1445.75 Q96.2234 1437 99.2789 1432.42 Q102.358 1427.81 108.168 1427.81 Z" fill="#000000" fill-rule="nonzero" fill-opacity="1" /><path clip-path="url(#clip060)" d="M138.33 1431.51 Q134.719 1431.51 132.89 1435.08 Q131.084 1438.62 131.084 1445.75 Q131.084 1452.86 132.89 1456.42 Q134.719 1459.96 138.33 1459.96 Q141.964 1459.96 143.769 1456.42 Q145.598 1452.86 145.598 1445.75 Q145.598 1438.62 143.769 1435.08 Q141.964 1431.51 138.33 1431.51 M138.33 1427.81 Q144.14 1427.81 147.195 1432.42 Q150.274 1437 150.274 1445.75 Q150.274 1454.48 147.195 1459.08 Q144.14 1463.67 138.33 1463.67 Q132.519 1463.67 129.441 1459.08 Q126.385 1454.48 126.385 1445.75 Q126.385 1437 129.441 1432.42 Q132.519 1427.81 138.33 1427.81 Z" fill="#000000" fill-rule="nonzero" fill-opacity="1" /><path clip-path="url(#clip060)" d="M63.9319 1092.08 Q60.3208 1092.08 58.4921 1095.64 Q56.6865 1099.19 56.6865 1106.32 Q56.6865 1113.42 58.4921 1116.99 Q60.3208 1120.53 63.9319 1120.53 Q67.5661 1120.53 69.3717 1116.99 Q71.2004 1113.42 71.2004 1106.32 Q71.2004 1099.19 69.3717 1095.64 Q67.5661 1092.08 63.9319 1092.08 M63.9319 1088.38 Q69.742 1088.38 72.7976 1092.98 Q75.8763 1097.57 75.8763 1106.32 Q75.8763 1115.04 72.7976 1119.65 Q69.742 1124.23 63.9319 1124.23 Q58.1217 1124.23 55.043 1119.65 Q51.9875 1115.04 51.9875 1106.32 Q51.9875 1097.57 55.043 1092.98 Q58.1217 1088.38 63.9319 1088.38 Z" fill="#000000" fill-rule="nonzero" fill-opacity="1" /><path clip-path="url(#clip060)" d="M84.0938 1117.68 L88.978 1117.68 L88.978 1123.56 L84.0938 1123.56 L84.0938 1117.68 Z" fill="#000000" fill-rule="nonzero" fill-opacity="1" /><path clip-path="url(#clip060)" d="M103.191 1119.63 L119.51 1119.63 L119.51 1123.56 L97.566 1123.56 L97.566 1119.63 Q100.228 1116.87 104.811 1112.24 Q109.418 1107.59 110.598 1106.25 Q112.844 1103.72 113.723 1101.99 Q114.626 1100.23 114.626 1098.54 Q114.626 1095.78 112.682 1094.05 Q110.76 1092.31 107.658 1092.31 Q105.459 1092.31 103.006 1093.07 Q100.575 1093.84 97.7974 1095.39 L97.7974 1090.67 Q100.621 1089.53 103.075 1088.95 Q105.529 1088.38 107.566 1088.38 Q112.936 1088.38 116.131 1091.06 Q119.325 1093.75 119.325 1098.24 Q119.325 1100.37 118.515 1102.29 Q117.728 1104.19 115.621 1106.78 Q115.043 1107.45 111.941 1110.67 Q108.839 1113.86 103.191 1119.63 Z" fill="#000000" fill-rule="nonzero" fill-opacity="1" /><path clip-path="url(#clip060)" d="M129.371 1089 L147.728 1089 L147.728 1092.94 L133.654 1092.94 L133.654 1101.41 Q134.672 1101.06 135.691 1100.9 Q136.709 1100.71 137.728 1100.71 Q143.515 1100.71 146.894 1103.89 Q150.274 1107.06 150.274 1112.47 Q150.274 1118.05 146.802 1121.15 Q143.33 1124.23 137.01 1124.23 Q134.834 1124.23 132.566 1123.86 Q130.32 1123.49 127.913 1122.75 L127.913 1118.05 Q129.996 1119.19 132.219 1119.74 Q134.441 1120.3 136.918 1120.3 Q140.922 1120.3 143.26 1118.19 Q145.598 1116.08 145.598 1112.47 Q145.598 1108.86 143.26 1106.76 Q140.922 1104.65 136.918 1104.65 Q135.043 1104.65 133.168 1105.07 Q131.316 1105.48 129.371 1106.36 L129.371 1089 Z" fill="#000000" fill-rule="nonzero" fill-opacity="1" /><path clip-path="url(#clip060)" d="M62.9365 752.645 Q59.3254 752.645 57.4967 756.209 Q55.6912 759.751 55.6912 766.881 Q55.6912 773.987 57.4967 777.552 Q59.3254 781.094 62.9365 781.094 Q66.5707 781.094 68.3763 777.552 Q70.205 773.987 70.205 766.881 Q70.205 759.751 68.3763 756.209 Q66.5707 752.645 62.9365 752.645 M62.9365 748.941 Q68.7467 748.941 71.8022 753.547 Q74.8809 758.131 74.8809 766.881 Q74.8809 775.608 71.8022 780.214 Q68.7467 784.797 62.9365 784.797 Q57.1264 784.797 54.0477 780.214 Q50.9921 775.608 50.9921 766.881 Q50.9921 758.131 54.0477 753.547 Q57.1264 748.941 62.9365 748.941 Z" fill="#000000" fill-rule="nonzero" fill-opacity="1" /><path clip-path="url(#clip060)" d="M83.0984 778.246 L87.9827 778.246 L87.9827 784.126 L83.0984 784.126 L83.0984 778.246 Z" fill="#000000" fill-rule="nonzero" fill-opacity="1" /><path clip-path="url(#clip060)" d="M98.2141 749.566 L116.57 749.566 L116.57 753.501 L102.496 753.501 L102.496 761.973 Q103.515 761.626 104.534 761.464 Q105.552 761.279 106.571 761.279 Q112.358 761.279 115.737 764.45 Q119.117 767.621 119.117 773.038 Q119.117 778.617 115.645 781.719 Q112.172 784.797 105.853 784.797 Q103.677 784.797 101.409 784.427 Q99.1632 784.057 96.7558 783.316 L96.7558 778.617 Q98.8391 779.751 101.061 780.307 Q103.284 780.862 105.76 780.862 Q109.765 780.862 112.103 778.756 Q114.441 776.649 114.441 773.038 Q114.441 769.427 112.103 767.321 Q109.765 765.214 105.76 765.214 Q103.885 765.214 102.01 765.631 Q100.159 766.047 98.2141 766.927 L98.2141 749.566 Z" fill="#000000" fill-rule="nonzero" fill-opacity="1" /><path clip-path="url(#clip060)" d="M138.33 752.645 Q134.719 752.645 132.89 756.209 Q131.084 759.751 131.084 766.881 Q131.084 773.987 132.89 777.552 Q134.719 781.094 138.33 781.094 Q141.964 781.094 143.769 777.552 Q145.598 773.987 145.598 766.881 Q145.598 759.751 143.769 756.209 Q141.964 752.645 138.33 752.645 M138.33 748.941 Q144.14 748.941 147.195 753.547 Q150.274 758.131 150.274 766.881 Q150.274 775.608 147.195 780.214 Q144.14 784.797 138.33 784.797 Q132.519 784.797 129.441 780.214 Q126.385 775.608 126.385 766.881 Q126.385 758.131 129.441 753.547 Q132.519 748.941 138.33 748.941 Z" fill="#000000" fill-rule="nonzero" fill-opacity="1" /><path clip-path="url(#clip060)" d="M63.9319 413.21 Q60.3208 413.21 58.4921 416.775 Q56.6865 420.316 56.6865 427.446 Q56.6865 434.552 58.4921 438.117 Q60.3208 441.659 63.9319 441.659 Q67.5661 441.659 69.3717 438.117 Q71.2004 434.552 71.2004 427.446 Q71.2004 420.316 69.3717 416.775 Q67.5661 413.21 63.9319 413.21 M63.9319 409.506 Q69.742 409.506 72.7976 414.113 Q75.8763 418.696 75.8763 427.446 Q75.8763 436.173 72.7976 440.779 Q69.742 445.362 63.9319 445.362 Q58.1217 445.362 55.043 440.779 Q51.9875 436.173 51.9875 427.446 Q51.9875 418.696 55.043 414.113 Q58.1217 409.506 63.9319 409.506 Z" fill="#000000" fill-rule="nonzero" fill-opacity="1" /><path clip-path="url(#clip060)" d="M84.0938 438.812 L88.978 438.812 L88.978 444.691 L84.0938 444.691 L84.0938 438.812 Z" fill="#000000" fill-rule="nonzero" fill-opacity="1" /><path clip-path="url(#clip060)" d="M97.9826 410.131 L120.205 410.131 L120.205 412.122 L107.658 444.691 L102.774 444.691 L114.58 414.066 L97.9826 414.066 L97.9826 410.131 Z" fill="#000000" fill-rule="nonzero" fill-opacity="1" /><path clip-path="url(#clip060)" d="M129.371 410.131 L147.728 410.131 L147.728 414.066 L133.654 414.066 L133.654 422.538 Q134.672 422.191 135.691 422.029 Q136.709 421.844 137.728 421.844 Q143.515 421.844 146.894 425.015 Q150.274 428.187 150.274 433.603 Q150.274 439.182 146.802 442.284 Q143.33 445.362 137.01 445.362 Q134.834 445.362 132.566 444.992 Q130.32 444.622 127.913 443.881 L127.913 439.182 Q129.996 440.316 132.219 440.872 Q134.441 441.427 136.918 441.427 Q140.922 441.427 143.26 439.321 Q145.598 437.214 145.598 433.603 Q145.598 429.992 143.26 427.886 Q140.922 425.779 136.918 425.779 Q135.043 425.779 133.168 426.196 Q131.316 426.613 129.371 427.492 L129.371 410.131 Z" fill="#000000" fill-rule="nonzero" fill-opacity="1" /><path clip-path="url(#clip060)" d="M53.7467 101.321 L61.3856 101.321 L61.3856 74.9555 L53.0754 76.6222 L53.0754 72.3629 L61.3393 70.6963 L66.0152 70.6963 L66.0152 101.321 L73.654 101.321 L73.654 105.256 L53.7467 105.256 L53.7467 101.321 Z" fill="#000000" fill-rule="nonzero" fill-opacity="1" /><path clip-path="url(#clip060)" d="M83.0984 99.3767 L87.9827 99.3767 L87.9827 105.256 L83.0984 105.256 L83.0984 99.3767 Z" fill="#000000" fill-rule="nonzero" fill-opacity="1" /><path clip-path="url(#clip060)" d="M108.168 73.775 Q104.557 73.775 102.728 77.3398 Q100.922 80.8814 100.922 88.011 Q100.922 95.1174 102.728 98.6822 Q104.557 102.224 108.168 102.224 Q111.802 102.224 113.608 98.6822 Q115.436 95.1174 115.436 88.011 Q115.436 80.8814 113.608 77.3398 Q111.802 73.775 108.168 73.775 M108.168 70.0713 Q113.978 70.0713 117.033 74.6777 Q120.112 79.261 120.112 88.011 Q120.112 96.7378 117.033 101.344 Q113.978 105.928 108.168 105.928 Q102.358 105.928 99.2789 101.344 Q96.2234 96.7378 96.2234 88.011 Q96.2234 79.261 99.2789 74.6777 Q102.358 70.0713 108.168 70.0713 Z" fill="#000000" fill-rule="nonzero" fill-opacity="1" /><path clip-path="url(#clip060)" d="M138.33 73.775 Q134.719 73.775 132.89 77.3398 Q131.084 80.8814 131.084 88.011 Q131.084 95.1174 132.89 98.6822 Q134.719 102.224 138.33 102.224 Q141.964 102.224 143.769 98.6822 Q145.598 95.1174 145.598 88.011 Q145.598 80.8814 143.769 77.3398 Q141.964 73.775 138.33 73.775 M138.33 70.0713 Q144.14 70.0713 147.195 74.6777 Q150.274 79.261 150.274 88.011 Q150.274 96.7378 147.195 101.344 Q144.14 105.928 138.33 105.928 Q132.519 105.928 129.441 101.344 Q126.385 96.7378 126.385 88.011 Q126.385 79.261 129.441 74.6777 Q132.519 70.0713 138.33 70.0713 Z" fill="#000000" fill-rule="nonzero" fill-opacity="1" /><polyline clip-path="url(#clip062)" style="stroke:#009af9; stroke-linecap:round; stroke-linejoin:round; stroke-width:4; stroke-opacity:1; fill:none" points="247.59,1445.72 260.896,1445.72 383.935,1445.72 457.876,1445.72 520.392,1445.72 537.37,1445.72 554.347,1445.72 562.836,1445.72 571.325,1445.65 573.447,1445.49 575.569,1444.91 576.63,1444.22 577.691,1442.93 578.752,1440.54 579.813,1436.09 580.344,1432.61 580.874,1427.88 581.405,1421.48 581.936,1412.84 582.466,1401.22 582.997,1385.68 583.527,1365.04 584.058,1337.9 584.588,1302.65 585.119,1257.61 585.649,1201.24 586.18,1132.5 586.711,1051.28 587.241,958.823 587.772,857.915 588.302,752.736 588.791,656.251 589.28,564.147 589.77,479.567 590.259,404.615 590.748,340.262 591.237,286.494 591.726,242.583 592.215,207.384 592.704,179.589 593.193,157.898 593.682,141.128 594.172,128.254 594.661,118.425 595.15,110.953 595.639,105.291 596.128,101.01 597.106,95.3463 598.085,92.136 599.063,90.3216 600.041,89.2979 601.997,88.3956 603.954,88.1092 611.78,87.9776 619.606,87.9763 635.258,87.9763 650.909,87.9763 718.031,87.9763 795.798,87.9763 830.353,87.9763 864.908,87.9763 880.058,87.9763 895.209,87.9763 902.785,87.9766 910.36,88.0021 912.254,88.0548 914.148,88.215 916.042,88.7019 917.935,90.1799 918.882,91.8139 919.829,94.6536 920.303,96.7796 920.776,99.5767 921.25,103.252 921.723,108.075 922.197,114.391 922.67,122.64 923.143,133.377 923.617,147.29 924.09,165.217 924.564,188.144 925.037,217.189 925.511,253.547 926.027,302.884 926.543,363.525 927.059,436.065 927.576,520.076 928.092,613.804 928.608,714.11 929.124,816.788 929.64,917.219 930.157,1011.17 930.673,1095.48 931.189,1168.34 931.705,1229.31 932.221,1278.94 932.738,1318.46 933.254,1349.37 933.77,1373.21 934.286,1391.41 934.802,1405.19 935.319,1415.55 935.835,1423.3 936.351,1429.09 936.867,1433.4 937.383,1436.6 937.9,1438.97 938.932,1442.03 939.964,1443.7 940.997,1444.62 942.029,1445.12 946.159,1445.66 950.288,1445.71 954.418,1445.72 958.548,1445.72 975.066,1445.72 991.585,1445.72 1024.82,1445.72 1058.05,1445.72 1131.54,1445.72 1201.46,1445.72 1274.16,1445.72 1335.36,1445.72 1410.08,1445.72 1478.52,1445.72 1510.13,1445.72 1541.74,1445.72 1557.75,1445.72 1573.76,1445.72 1581.76,1445.72 1589.77,1445.71 1593.77,1445.63 1597.77,1444.77 1598.77,1444.02 1599.77,1442.67 1600.77,1440.25 1601.77,1435.9 1602.27,1432.59 1602.77,1428.16 1603.27,1422.27 1603.77,1414.45 1604.27,1404.1 1604.77,1390.48 1605.27,1372.63 1605.77,1349.45 1606.34,1315.52 1606.9,1271.29 1607.46,1214.85 1608.02,1144.8 1608.58,1060.75 1609.14,963.933 1609.7,857.487 1610.26,746.302 1610.82,636.209 1611.38,532.817 1611.94,440.434 1612.5,361.489 1613.06,296.558 1613.62,244.811 1614.18,204.599 1614.75,173.959 1615.31,150.961 1615.87,133.892 1616.43,121.329 1616.99,112.141 1617.55,105.45 1618.11,100.594 1618.67,97.079 1619.23,94.5381 1620.35,91.3813 1621.47,89.7412 1622.59,88.8905 1623.72,88.4497 1628.2,88.0103 1632.69,87.9787 1637.17,87.9765 1641.66,87.9763 1659.6,87.9763 1677.54,87.9763 1710.06,87.9763 1742.57,87.9763 1779.8,87.9763 1817.03,87.9763 1851.5,87.9763 1885.97,87.9763 1902.96,87.9763 1919.95,87.9763 1924.2,87.9765 1928.45,87.979 1932.69,88.0091 1936.94,88.3737 1938,88.7175 1939.07,89.3583 1940.13,90.5522 1941.19,92.7736 1941.72,94.5202 1942.25,96.8984 1942.78,100.133 1943.31,104.526 1943.84,110.48 1944.38,118.527 1944.91,129.363 1945.44,143.879 1945.97,163.197 1946.5,188.673 1947.03,221.878 1947.56,264.494 1948.09,318.122 1948.62,383.961 1949.15,462.38 1949.68,552.487 1950.22,651.845 1950.75,756.547 1951.28,861.742 1951.81,962.486 1952.34,1054.63 1952.87,1135.44 1953.4,1203.74 1953.93,1259.67 1954.45,1303.16 1954.96,1337.42 1955.48,1364 1955.99,1384.38 1956.51,1399.86 1957.03,1411.53 1957.54,1420.29 1958.06,1426.84 1958.57,1431.72 1959.09,1435.35 1959.6,1438.04 1960.12,1440.04 1961.15,1442.61 1962.18,1444.02 1964.24,1445.21 1966.31,1445.56 1968.37,1445.67 1970.43,1445.7 1978.68,1445.72 1986.93,1445.72 2003.43,1445.72 2019.92,1445.72 2087.57,1445.72 2161.69,1445.72 2269.35,1445.72 2291.44,1445.72 "/>
<path clip-path="url(#clip060)" d="M258.49 198.898 L556.735 198.898 L556.735 95.2176 L258.49 95.2176  Z" fill="#ffffff" fill-rule="evenodd" fill-opacity="1"/>
<polyline clip-path="url(#clip060)" style="stroke:#000000; stroke-linecap:round; stroke-linejoin:round; stroke-width:4; stroke-opacity:1; fill:none" points="258.49,198.898 556.735,198.898 556.735,95.2176 258.49,95.2176 258.49,198.898 "/>
<polyline clip-path="url(#clip060)" style="stroke:#009af9; stroke-linecap:round; stroke-linejoin:round; stroke-width:4; stroke-opacity:1; fill:none" points="282.562,147.058 426.994,147.058 "/>
<path clip-path="url(#clip060)" d="M467.571 128.319 L467.571 131.861 L463.497 131.861 Q461.205 131.861 460.302 132.787 Q459.423 133.713 459.423 136.12 L459.423 138.412 L466.437 138.412 L466.437 141.722 L459.423 141.722 L459.423 164.338 L455.14 164.338 L455.14 141.722 L451.066 141.722 L451.066 138.412 L455.14 138.412 L455.14 136.606 Q455.14 132.278 457.154 130.31 Q459.168 128.319 463.543 128.319 L467.571 128.319 Z" fill="#000000" fill-rule="nonzero" fill-opacity="1" /><path clip-path="url(#clip060)" d="M471.321 129.778 L477.617 129.778 L492.941 158.689 L492.941 129.778 L497.478 129.778 L497.478 164.338 L491.182 164.338 L475.858 135.426 L475.858 164.338 L471.321 164.338 L471.321 129.778 Z" fill="#000000" fill-rule="nonzero" fill-opacity="1" /><path clip-path="url(#clip060)" d="M532.663 132.44 L532.663 137.37 Q530.302 135.171 527.617 134.083 Q524.955 132.995 521.945 132.995 Q516.02 132.995 512.871 136.629 Q509.723 140.24 509.723 147.092 Q509.723 153.921 512.871 157.555 Q516.02 161.166 521.945 161.166 Q524.955 161.166 527.617 160.078 Q530.302 158.99 532.663 156.791 L532.663 161.676 Q530.209 163.342 527.455 164.176 Q524.723 165.009 521.668 165.009 Q513.821 165.009 509.307 160.217 Q504.793 155.402 504.793 147.092 Q504.793 138.759 509.307 133.967 Q513.821 129.153 521.668 129.153 Q524.77 129.153 527.501 129.986 Q530.256 130.796 532.663 132.44 Z" fill="#000000" fill-rule="nonzero" fill-opacity="1" /></svg>
